<?xml version="1.0" encoding="UTF-8" standalone="no"?>
<!-- Created with Inkscape (http://www.inkscape.org/) -->

<svg
   version="1.1"
   id="svg181"
   width="454.9975"
   height="325.02026"
   viewBox="0 0 454.9975 325.02027"
   sodipodi:docname="ancylus_fluviatilis.svg"
   inkscape:version="1.2.2 (732a01da63, 2022-12-09)"
   xmlns:inkscape="http://www.inkscape.org/namespaces/inkscape"
   xmlns:sodipodi="http://sodipodi.sourceforge.net/DTD/sodipodi-0.dtd"
   xmlns="http://www.w3.org/2000/svg"
   xmlns:svg="http://www.w3.org/2000/svg">
  <defs
     id="defs185" />
  <sodipodi:namedview
     id="namedview183"
     pagecolor="#505050"
     bordercolor="#eeeeee"
     borderopacity="1"
     inkscape:showpageshadow="0"
     inkscape:pageopacity="0"
     inkscape:pagecheckerboard="0"
     inkscape:deskcolor="#505050"
     showgrid="false"
     inkscape:zoom="1.4596876"
     inkscape:cx="420.63796"
     inkscape:cy="22.950117"
     inkscape:window-width="3840"
     inkscape:window-height="2054"
     inkscape:window-x="-11"
     inkscape:window-y="-11"
     inkscape:window-maximized="1"
     inkscape:current-layer="g187" />
  <g
     inkscape:groupmode="layer"
     inkscape:label="Image"
     id="g187"
     transform="translate(-57.910735,-52.521038)">
    <path
       style="fill:#000000;stroke-width:1.33333"
       d="m 100.07719,375.67433 c -3.834452,-3.10494 1.94169,-8.42026 14.5868,-13.42308 15.72698,-6.22209 44.2524,-38.54567 36.34305,-41.18213 -5.31569,-1.77189 -31.3462,-22.46145 -36.49468,-29.00668 -2.28176,-2.9008 -3.32994,-3.04458 -25.447732,-3.49081 -40.18791,-0.8108 -41.95618,-9.31155 -2.61753,-12.58351 15.698892,-1.30574 16.056952,-1.77016 10.42367,-13.51993 -2.54146,-5.30092 -5.0446,-11.90092 -5.56252,-14.66667 -0.51793,-2.76574 -1.70675,-6.86174 -2.64183,-9.10222 -15.11978,-36.22758 18.154292,-91.12887 71.480422,-117.94073 6.1216,-3.07788 13.43739,-7.05262 16.25731,-8.83275 4.6577,-2.94029 29.48766,-12.723124 70.38086,-27.729574 8.43333,-3.09475 16.65776,-6.33846 18.2765,-7.20823 1.6187,-0.86978 9.7187,-3.72479 18,-6.34447 8.2812,-2.61968 16.2568,-5.2645 17.7235,-5.87739 6.0701,-2.53654 16.018,-5.32659 18.9918,-5.32659 1.7509,0 4.2557,-0.57384 5.5662,-1.27518 3.603,-1.92827 34.8618,-5.34688 51.442,-5.62595 54.1785,-0.9119 96.6435,34.21785 71.8107,59.406444 -5.0947,5.1677 -5.6288,6.16135 -3.3113,6.16135 2.9004,0 28.8262,18.9527 38.3763,28.05457 35.6503,33.97694 39.0726,94.64808 8.27,146.6121 -4.4983,7.58854 -29.8979,30.66666 -33.7516,30.66666 -0.3962,0 -6.5719,3.75722 -13.7239,8.34938 -7.1519,4.59215 -14.2035,9.10634 -15.6702,10.03153 -2.5313,1.59674 -14.2438,7.26962 -29.6962,14.38306 -3.8663,1.77982 -8.3921,3.23603 -10.0574,3.23603 -1.6653,0 -9.302,2.01028 -16.9704,4.46728 -24.976,8.00241 -29.3374,9.06084 -43.0649,10.45112 -31.298,3.16976 -68.52498,-0.40453 -91.54443,-8.78951 -3.3,-1.20204 -11.22786,-3.9393 -17.61747,-6.08281 -6.3896,-2.14351 -17.47714,-6.76699 -24.639,-10.27443 -16.94029,-8.2963 -19.95429,-8.25133 -31.98568,0.47728 -15.71443,11.4006 -40.21681,24.27728 -50.09118,26.32428 -2.01666,0.41807 -5.10514,1.05611 -6.86329,1.41788 -1.93265,0.39767 -4.37543,-0.29678 -6.17787,-1.75632 z"
       id="path191" />
  </g>
</svg>
