<?xml version="1.0" encoding="UTF-8" standalone="no"?>
<!-- Created with Inkscape (http://www.inkscape.org/) -->

<svg
   width="24.506149mm"
   height="29.362741mm"
   viewBox="0 0 24.506148 29.362741"
   version="1.1"
   id="svg5"
   xml:space="preserve"
   inkscape:version="1.2.2 (732a01da63, 2022-12-09)"
   sodipodi:docname="aphelocheirus_aestivalis.svg"
   xmlns:inkscape="http://www.inkscape.org/namespaces/inkscape"
   xmlns:sodipodi="http://sodipodi.sourceforge.net/DTD/sodipodi-0.dtd"
   xmlns="http://www.w3.org/2000/svg"
   xmlns:svg="http://www.w3.org/2000/svg"><sodipodi:namedview
     id="namedview7"
     pagecolor="#505050"
     bordercolor="#eeeeee"
     borderopacity="1"
     inkscape:showpageshadow="0"
     inkscape:pageopacity="0"
     inkscape:pagecheckerboard="0"
     inkscape:deskcolor="#505050"
     inkscape:document-units="mm"
     showgrid="false"
     inkscape:zoom="8.9156566"
     inkscape:cx="39.537189"
     inkscape:cy="51.875035"
     inkscape:window-width="1723"
     inkscape:window-height="1486"
     inkscape:window-x="824"
     inkscape:window-y="125"
     inkscape:window-maximized="0"
     inkscape:current-layer="layer1" /><defs
     id="defs2" /><g
     inkscape:label="Layer 1"
     inkscape:groupmode="layer"
     id="layer1"
     transform="translate(-75.184554,-163.34254)"><path
       style="fill:#000000;stroke-width:0.102052"
       d="m 86.252572,192.47815 c -0.564549,-0.24382 -0.863984,-0.55081 -1.108821,-1.13676 -0.150476,-0.36014 -0.156068,-0.36284 -0.444153,-0.21383 -0.16048,0.083 -0.32149,0.22828 -0.357821,0.323 -0.05868,0.15283 -0.09536,0.14488 -0.328754,-0.0728 -0.360608,-0.3362 -0.84567,-1.32521 -0.921585,-1.87907 -0.03452,-0.25187 -0.09683,-0.45794 -0.138495,-0.45794 -0.151994,0 -0.802837,0.30597 -0.865081,0.40669 -0.277852,0.44956 -0.976397,-0.84777 -1.219302,-2.26448 -0.05195,-0.30296 -0.09956,-0.36477 -0.239646,-0.31112 -0.09616,0.0368 -0.247767,0.15693 -0.336902,0.26672 -0.08912,0.10989 -0.212406,0.16874 -0.273955,0.13065 -0.06155,-0.038 -0.259719,-0.44715 -0.440399,-0.90919 -0.245942,-0.6289 -0.340891,-1.05699 -0.377783,-1.70317 -0.03044,-0.53349 -0.10243,-0.91629 -0.188443,-1.0023 -0.07654,-0.0767 -0.139169,-0.33489 -0.139169,-0.57411 0,-0.31859 -0.04096,-0.43496 -0.15308,-0.43496 -0.112846,0 -0.153078,0.1179 -0.153078,0.44827 0,0.31626 -0.03514,0.42653 -0.1194,0.37445 -0.0822,-0.0508 -0.09732,-0.0169 -0.04857,0.11085 0.04349,0.11324 0.0057,0.25657 -0.09802,0.37115 -0.114915,0.12704 -0.149584,0.28294 -0.108505,0.48833 0.03397,0.16996 0.01471,0.31696 -0.04409,0.33656 -0.07099,0.0241 -0.07054,0.1239 0.0014,0.31334 0.06717,0.1767 0.06947,0.27851 0.0062,0.27851 -0.05474,0 -0.09951,-0.0716 -0.09951,-0.15911 0,-0.0875 -0.04592,-0.13066 -0.102049,-0.0959 -0.05612,0.0347 -0.102048,0.24406 -0.102048,0.46526 0,0.22131 -0.03445,0.39722 -0.07654,0.39117 -0.04209,-0.007 -0.176801,0.0216 -0.299321,0.0612 -0.20744,0.0673 -0.220482,0.12609 -0.189553,0.85298 0.01832,0.42942 0.08233,0.90546 0.142352,1.05782 0.06895,0.17501 0.07297,0.29937 0.01088,0.33769 -0.05398,0.0332 -0.09816,0.01 -0.09816,-0.0536 0,-0.0627 -0.05056,-0.083 -0.112344,-0.0446 -0.06388,0.0396 -0.08698,0.19623 -0.05358,0.36319 0.03232,0.16152 0.0176,0.29379 -0.03265,0.29379 -0.05026,0 -0.1208,0.13404 -0.156768,0.29763 -0.03594,0.16368 -0.138325,0.32564 -0.227497,0.35984 -0.139867,0.0538 -0.130948,0.0954 0.06494,0.30392 0.130539,0.13885 0.18413,0.26824 0.126055,0.30413 -0.05554,0.0342 -0.128392,0.005 -0.161877,-0.0658 -0.03348,-0.0704 -0.03379,-0.0145 -7.14e-4,0.12681 0.03308,0.1403 0.06933,0.39356 0.08056,0.56274 0.01136,0.16924 0.09947,0.42053 0.19611,0.5585 0.242661,0.34646 0.217589,0.51953 -0.02975,0.20538 l -0.200931,-0.25512 0.02774,0.53577 c 0.01856,0.35781 -0.01205,0.53579 -0.09204,0.53579 -0.156116,0 -0.243682,-0.23915 -0.243682,-0.66567 0,-0.18852 -0.04819,-0.3726 -0.107107,-0.409 -0.12362,-0.0764 -0.11733,-1.5695 0.0099,-2.34411 0.185238,-1.12793 0.404934,-2.57466 0.450879,-2.96909 0.02676,-0.22975 0.276663,-1.07939 0.555324,-1.88799 0.278665,-0.80859 0.698896,-2.08098 0.93385,-2.82752 0.234945,-0.74652 0.482183,-1.41243 0.549401,-1.47976 0.06722,-0.0672 0.178416,-0.34579 0.247089,-0.61877 0.151608,-0.60258 0.630771,-1.5785 1.095418,-2.23103 0.339729,-0.47708 0.341091,-0.48344 0.127936,-0.59752 -0.188204,-0.1008 -0.266296,-0.0629 -0.617537,0.29896 -0.221157,0.22781 -0.393554,0.49672 -0.383128,0.59751 0.03201,0.30941 -0.0033,0.39423 -0.100386,0.24083 -0.134926,-0.21335 -0.412057,0.0417 -0.422483,0.38863 -0.0043,0.14754 -0.03122,0.21069 -0.05953,0.14054 -0.101749,-0.25218 -0.238561,-0.12053 -0.238561,0.2295 0,0.19646 -0.04592,0.35719 -0.102049,0.35719 -0.05612,0 -0.102048,-0.0553 -0.102048,-0.12246 0,-0.22733 -0.209175,0.0759 -0.265072,0.38414 -0.06774,0.37356 -0.129671,0.4346 -0.249179,0.24563 -0.05222,-0.0828 -0.09563,-0.0979 -0.0965,-0.0342 -8.58e-4,0.0639 -0.127863,0.14102 -0.282207,0.17164 -0.719577,0.14247 -0.955722,0.24967 -1.343534,0.60952 -0.229282,0.21286 -0.416874,0.43513 -0.416874,0.49417 0,0.0591 -0.08661,0.21744 -0.19247,0.35203 -0.154646,0.19672 -0.214407,0.21817 -0.304077,0.11013 -0.224484,-0.27048 0.989818,-1.66862 1.750034,-2.01502 0.138904,-0.0631 0.52217,-0.46038 0.851722,-0.88239 0.562662,-0.72058 1.815685,-1.96661 1.977642,-1.96661 0.04031,0 0.418881,-0.47071 0.841282,-1.04603 0.422402,-0.57533 0.859631,-1.12869 0.971623,-1.2297 0.170508,-0.1538 0.189408,-0.24508 0.116266,-0.5613 -0.106652,-0.46102 0.02717,-0.92592 0.440754,-1.53125 l 0.30012,-0.43927 -0.682089,-0.62503 c -0.683785,-0.62655 -0.906353,-0.95928 -0.769112,-1.14981 0.104835,-0.14562 0.483614,-1.77468 0.666917,-2.86842 0.176801,-1.0549 0.130347,-1.28719 -0.478748,-2.39517 -0.180199,-0.32777 -0.290548,-0.63232 -0.245199,-0.67675 0.10829,-0.10607 0.739191,0.6244 0.821073,0.95063 0.03507,0.13983 0.193939,0.52286 0.353016,0.85125 l 0.289225,0.59708 -0.332837,1.31146 c -0.183067,0.7213 -0.363643,1.50092 -0.401296,1.73252 l -0.06846,0.42104 0.691169,0.48316 c 0.380142,0.26575 0.746948,0.50457 0.815121,0.53074 0.06817,0.0263 0.381973,-0.16248 0.69734,-0.41949 0.418404,-0.34078 0.662851,-0.46702 0.904347,-0.46702 0.284863,0 0.33409,-0.0379 0.353476,-0.27212 0.07502,-0.90642 2.025989,-2.74043 2.690744,-2.52945 0.709023,0.22517 2.37195,1.7761 2.471157,2.30494 0.0391,0.20828 0.162818,0.40804 0.309034,0.49863 0.134106,0.0832 0.552289,0.4381 0.929297,0.78889 0.377009,0.35081 0.72894,0.63785 0.782075,0.63785 0.05313,0 0.396573,-0.18081 0.763203,-0.40205 0.36663,-0.22106 0.806469,-0.43277 0.977419,-0.4703 l 0.310823,-0.0683 -0.07683,-1.54523 c -0.135601,-2.72736 -0.143339,-2.61646 0.215274,-3.07601 0.339747,-0.43538 0.685226,-1.04663 0.850763,-1.50528 0.115477,-0.31994 0.310449,-0.37584 0.310449,-0.089 0,0.25638 -0.282837,0.92013 -0.52123,1.22321 -0.412006,0.52376 -0.503473,1.51644 -0.350924,3.80852 0.07649,1.1495 0.07078,1.20443 -0.159323,1.5308 -0.131263,0.1861 -0.331763,0.41403 -0.445534,0.50639 -0.113767,0.0923 -0.311339,0.25946 -0.439041,0.37136 -0.127695,0.11181 -0.365169,0.25857 -0.527707,0.3259 l -0.295527,0.12246 0.400143,0.6191 c 0.447408,0.69223 0.511895,1.12824 0.196037,1.32551 -0.11226,0.0702 -0.204113,0.16514 -0.204113,0.21094 0,0.046 0.04117,0.0581 0.09151,0.027 0.20286,-0.12535 2.051602,1.42863 2.051602,1.72449 0,0.0783 0.0574,0.20418 0.127574,0.27983 0.703804,0.75828 1.516759,1.69583 2.239552,2.58275 0.31966,0.39222 0.755935,0.87142 0.9695,1.06482 0.339706,0.30766 0.949591,1.30361 0.949591,1.55069 0,0.30487 -0.544204,-0.14851 -0.674996,-0.56227 -0.112511,-0.356 -0.55571,-0.87523 -1.019364,-1.19422 -0.48593,-0.33433 -0.652848,-0.37163 -0.652848,-0.14584 0,0.0842 -0.04592,0.15307 -0.102048,0.15307 -0.05612,0 -0.102049,-0.11479 -0.102049,-0.25512 0,-0.1403 -0.04019,-0.25514 -0.08929,-0.25514 -0.04911,0 -0.08929,-0.11815 -0.08929,-0.26278 0,-0.14463 -0.05166,-0.31444 -0.114796,-0.3776 -0.08504,-0.0851 -0.114795,-0.07 -0.114795,0.0586 0,0.34924 -0.180008,0.16104 -0.247055,-0.2582 -0.05014,-0.31356 -0.09411,-0.39117 -0.160625,-0.28352 -0.09999,0.16175 -0.148812,0.0863 -0.230221,-0.35634 -0.02074,-0.11228 -0.09429,-0.19188 -0.163637,-0.17694 -0.06933,0.0145 -0.18912,-0.1239 -0.266158,-0.30823 -0.194326,-0.46512 -0.532782,-0.76149 -0.69002,-0.60426 -0.08955,0.0894 -0.09011,0.12005 -0.0022,0.12005 0.180248,0 0.907833,1.30394 1.096839,1.9657 0.09235,0.3234 0.272961,0.71375 0.401329,0.86746 0.748536,0.89625 2.396393,5.11344 2.389521,6.11526 -0.0014,0.21406 0.07909,0.75678 0.179041,1.20583 0.128587,0.57776 0.179187,1.21915 0.173064,2.19413 -0.0104,1.64125 -0.08772,2.90619 -0.187792,3.06809 -0.130781,0.21166 -0.255787,-0.13091 -0.244443,-0.66986 0.006,-0.28065 0.0022,-0.5562 -0.0083,-0.61231 -0.0104,-0.0562 -0.01088,-0.25016 -0.0011,-0.43118 0.0099,-0.18104 -0.01736,-0.38625 -0.06053,-0.45608 -0.04316,-0.07 -0.09146,-0.47245 -0.107321,-0.89473 -0.01592,-0.42228 -0.07353,-0.78269 -0.128129,-0.80089 -0.05988,-0.0192 -0.06487,-0.12341 -0.01253,-0.2611 0.105253,-0.27681 0.01615,-1.18711 -0.116218,-1.18711 -0.05215,0 -0.06641,-0.046 -0.03172,-0.102 0.03469,-0.0562 0.01832,-0.102 -0.03619,-0.102 -0.05853,0 -0.06829,-0.11528 -0.02387,-0.28065 0.07924,-0.29473 -0.06677,-0.94398 -0.212262,-0.94398 -0.04672,0 -0.08493,-0.0918 -0.08493,-0.20418 0,-0.1124 -0.04592,-0.20419 -0.102048,-0.20419 -0.05612,0 -0.105277,-0.21816 -0.109223,-0.48474 -0.0053,-0.36474 -0.02888,-0.43421 -0.09489,-0.28065 -0.06458,0.15042 -0.09202,0.0562 -0.104094,-0.35717 l -0.01639,-0.56131 -0.118095,0.35719 c -0.115621,0.34972 -0.11873,0.34279 -0.148548,-0.33166 -0.01663,-0.37889 -0.07427,-0.68886 -0.127839,-0.68886 -0.05357,0 -0.100793,-0.12631 -0.104966,-0.28065 -0.0041,-0.15428 -0.09679,-0.46434 -0.205849,-0.68885 l -0.198279,-0.4082 0.06205,0.35716 c 0.122462,0.70489 0.212961,1.687 0.170605,1.85157 -0.03334,0.12944 -0.128153,0.1562 -0.416804,0.11742 l -0.373652,-0.0501 0.03522,1.03508 c 0.01929,0.5693 -0.0176,1.33895 -0.08238,1.71033 -0.125091,0.71832 -0.426454,1.42797 -0.487147,1.14713 -0.01881,-0.0873 -0.164626,-0.23576 -0.323901,-0.32983 l -0.289594,-0.17115 -0.06772,0.51041 c -0.09878,0.74478 -0.841446,2.38757 -1.171576,2.59158 -0.05455,0.0337 -0.26947,-0.0543 -0.477614,-0.19549 -0.5809,-0.39423 -0.701581,-0.34932 -0.73912,0.27507 -0.03766,0.62614 -0.345359,1.39662 -0.685319,1.71602 l -0.241561,0.22684 -0.398401,-0.31554 -0.3984,-0.31554 -0.119908,0.40021 c -0.249511,0.83279 -0.916053,1.32788 -1.787766,1.32788 -0.648117,0 -0.772731,-0.16586 -0.791252,-1.05333 -0.0085,-0.40292 -0.03305,-0.59482 -0.05477,-0.42643 -0.114078,0.8847 -0.263064,1.38495 -0.440795,1.48007 -0.295524,0.15814 -0.716843,0.11432 -1.293565,-0.13476 z m -0.06278,-23.05834 c 0.05434,-0.71856 0.04159,-0.78623 -0.196881,-1.04339 l -0.254993,-0.275 -0.205054,0.34097 c -0.284856,0.47362 -0.35998,0.8656 -0.217323,1.13396 0.175546,0.33025 0.635555,0.75617 0.732776,0.67848 0.04585,-0.0366 0.109546,-0.41241 0.141507,-0.83502 z m 3.620663,0.48611 c 0.06393,-0.1403 0.160649,-0.25512 0.214914,-0.25512 0.19799,0 0.0099,-1.01656 -0.23661,-1.279 -0.130105,-0.1386 -0.262991,-0.25162 -0.295304,-0.2514 -0.11244,7.1e-4 -0.415933,0.87134 -0.415933,1.19316 0,0.77174 0.475945,1.15639 0.732933,0.59236 z"
       id="path179" /></g></svg>
