<?xml version="1.0" encoding="UTF-8" standalone="no"?>
<!-- Created with Inkscape (http://www.inkscape.org/) -->

<svg
   version="1.1"
   id="svg59"
   width="702.33832"
   height="316.34171"
   viewBox="0 0 702.3383 316.34171"
   sodipodi:docname="baetis_rhodani.svg"
   inkscape:version="1.2.2 (732a01da63, 2022-12-09)"
   xmlns:inkscape="http://www.inkscape.org/namespaces/inkscape"
   xmlns:sodipodi="http://sodipodi.sourceforge.net/DTD/sodipodi-0.dtd"
   xmlns="http://www.w3.org/2000/svg"
   xmlns:svg="http://www.w3.org/2000/svg">
  <defs
     id="defs63" />
  <sodipodi:namedview
     id="namedview61"
     pagecolor="#505050"
     bordercolor="#eeeeee"
     borderopacity="1"
     inkscape:showpageshadow="0"
     inkscape:pageopacity="0"
     inkscape:pagecheckerboard="0"
     inkscape:deskcolor="#505050"
     showgrid="false"
     inkscape:zoom="0.75946342"
     inkscape:cx="-306.79555"
     inkscape:cy="-158.66465"
     inkscape:window-width="3840"
     inkscape:window-height="2054"
     inkscape:window-x="-11"
     inkscape:window-y="-11"
     inkscape:window-maximized="1"
     inkscape:current-layer="g65" />
  <g
     inkscape:groupmode="layer"
     inkscape:label="Image"
     id="g65"
     transform="translate(-1387.7425,-423.06419)">
    <path
       style="fill:#000000;stroke-width:0.4"
       d="m 1621.4046,739.36578 c -0.2273,-0.14816 -0.5253,-1.50016 -0.6623,-3.00448 -0.137,-1.50432 -0.5082,-3.21432 -0.8249,-3.8 -2.3861,-4.41208 -4.386,-8.42804 -5.2568,-10.55596 -0.5647,-1.37992 -1.194,-2.86892 -1.3985,-3.30892 -0.2046,-0.44 -0.9109,-2.42 -1.5696,-4.4 -1.6244,-4.88232 -3.3574,-9.83008 -4.6234,-13.2 -1.7358,-4.62008 -2.1993,-6.2546 -2.2016,-7.76356 -0.01,-3.29328 -1.7349,-6.12988 -3.3582,-5.507 -1.2224,0.46908 -9.8919,-2.76856 -12.1322,-4.5308 -0.5584,-0.43924 -1.2557,-0.79864 -1.5495,-0.79864 -0.2938,0 -1.5745,-0.47408 -2.8461,-1.05352 -7.4536,-3.3966 -8.8781,-4.13412 -10.016,-5.1854 -0.6912,-0.6386 -1.9836,-1.70108 -2.872,-2.36108 -0.8884,-0.66 -2.009,-1.83 -2.4904,-2.6 -0.4812,-0.77 -1.6532,-2.24728 -2.6042,-3.28288 -1.1066,-1.20484 -1.7292,-2.25484 -1.7292,-2.91592 0,-1.32936 -1.3745,-4.02908 -2.2157,-4.35188 -0.3573,-0.13712 -1.1016,-0.24932 -1.6539,-0.24932 -0.5523,0 -1.4619,-0.36 -2.0212,-0.8 -0.5594,-0.44 -1.372,-0.8 -1.8059,-0.8 -0.4338,0 -1.6931,-0.72 -2.7983,-1.6 -1.1052,-0.88 -2.3604,-1.6 -2.7893,-1.6 -0.754,0 -2.3661,-1.19616 -6.2593,-4.64412 -3.2783,-2.9034 -4.6353,-3.20412 -6.8787,-1.52428 -1.7151,1.28424 -4.6119,2.76576 -6.118,3.12892 -1.5068,0.36332 -3.7481,-0.40788 -4.3376,-1.49256 -0.8553,-1.57364 -1.1141,-4.98944 -0.4911,-6.48056 0.313,-0.74896 0.569,-1.627 0.569,-1.95128 0,-0.75728 -3.7878,-5.10444 -4.9298,-5.65776 -0.6132,-0.29708 -4.4742,-0.2754 -13.0702,0.0733 -11.9847,0.48624 -13.7876,0.68584 -17.0074,1.88292 -0.884,0.32872 -3.7036,1.13832 -6.2658,1.79916 -2.5621,0.6608 -5.022,1.39608 -5.4663,1.63388 -0.4443,0.2378 -1.5203,0.43236 -2.391,0.43236 -0.8707,0 -3.3575,0.3508 -5.5263,0.77952 -2.1688,0.42872 -5.1132,0.89396 -6.5432,1.03384 -1.43,0.13992 -3.1956,0.4366 -3.9235,0.65928 -0.953,0.29156 -1.6541,0.268 -2.5043,-0.0842 -1.05,-0.43492 -1.3465,-0.378 -2.6765,0.5134 -0.8226,0.55136 -2.0357,1.47472 -2.6957,2.05188 -0.66,0.57716 -2.6102,1.90368 -4.3338,2.94784 -1.7236,1.04412 -3.8836,2.4842 -4.8,3.20016 -0.9164,0.71596 -2.2062,1.5546 -2.8662,1.86364 -0.66,0.30908 -1.65,0.90744 -2.2,1.32976 -0.55,0.42232 -3.79,2.26192 -7.2,4.08796 -3.41,1.82608 -6.56,3.6236 -7,3.99448 -0.44,0.37092 -1.61,1.00352 -2.6,1.4058 -1.8615,0.75644 -6.9987,2.97 -9.8,4.22268 -0.88,0.39352 -2.23,0.83956 -3,0.9912 -0.77,0.1516 -2.21,0.54672 -3.2,0.878 -2.1601,0.72284 -8.6933,0.40728 -10.4577,-0.50512 -1.6323,-0.84412 -5.08,-0.72708 -6.6423,0.22544 -0.715,0.43596 -1.3,0.97528 -1.3,1.19852 0,0.22324 -0.18,0.40588 -0.4,0.40588 -0.22,0 -0.4,-0.27 -0.4,-0.6 0,-0.33 -0.2594,-0.6 -0.5764,-0.6 -1.6201,0 -1.0964,-1.56356 1.0134,-3.02568 1.5137,-1.04896 1.7184,-1.08288 5.0702,-0.84 1.921,0.1392 4.0834,0.42496 4.8052,0.635 3.5377,1.02956 12.9104,-0.71604 17.4514,-3.25016 1.3,-0.72556 4,-2.19196 6,-3.25876 7.5668,-4.0362 21.3395,-12.5908 27.8362,-17.28988 1.87,-1.35256 3.85,-2.68464 4.4,-2.96024 0.55,-0.27556 1.913,-1.47296 3.0288,-2.66092 1.507,-1.60436 2.6104,-2.36428 4.29,-2.9546 1.2437,-0.43712 2.5807,-0.79612 2.9712,-0.79784 1.257,-0.005 8.3194,-2.18 9.4181,-2.89992 0.8099,-0.53072 1.9127,-0.697 4.622,-0.697 2.735,0 4.8899,-0.32976 9.3141,-1.42528 3.5327,-0.8748 6.2227,-1.33788 6.9646,-1.199 0.6648,0.12448 2.0114,-0.006 2.9924,-0.29012 l 1.7837,-0.5164 0.1264,-3.37148 c 0.1205,-3.21296 0.2102,-3.50236 1.9076,-6.1554 2.1085,-3.29564 2.2395,-4.00216 0.6811,-3.6748 -1.3658,0.28688 -1.927,-0.0604 -2.4898,-1.5408 -0.3344,-0.87936 -0.5516,-1.04536 -0.9051,-0.69184 -0.2558,0.2558 -0.6705,0.46512 -0.9215,0.46512 -0.8134,0 -3.7093,-3.16288 -4.1677,-4.55196 -0.3511,-1.06364 -0.8149,-1.49172 -2.1819,-2.0138 -2.6344,-1.00608 -2.9115,-1.52228 -3.3893,-6.31444 -0.8294,-8.319 -3.0655,-17.64832 -5.262,-21.9538 -0.4305,-0.84376 -0.7827,-1.73192 -0.7827,-1.97368 0,-1.74344 2.8197,3.72324 4.3366,8.40768 0.4631,1.43 1.4642,4.94 2.2248,7.8 1.8403,6.91984 2.6079,9 3.3212,9 0.4684,0 0.5312,-0.34508 0.3095,-1.7 -0.153,-0.935 -0.2801,-1.79 -0.2825,-1.9 -0.033,-1.54796 0.251,-1.9736 1.9007,-2.8444 2.3973,-1.26544 3.093,-2.83988 4.1599,-9.41352 0.4694,-2.89184 1.2819,-6.76184 1.8057,-8.6 0.5239,-1.83816 1.3413,-5.14208 1.8165,-7.34208 0.4752,-2.2 1.0127,-4.63 1.1945,-5.4 l 0.3304,-1.4 0.041,1.60016 c 0.023,0.88008 -0.2321,2.86008 -0.5665,4.4 -2.4949,11.49196 -3.9916,20.82932 -3.3976,21.19644 0.134,0.0828 0.5051,-0.0148 0.8246,-0.21688 0.7625,-0.48236 2.647,-0.47952 3.553,0.005 0.8192,0.43844 1.4894,-0.10484 2.9423,-2.38504 2.455,-3.85292 9.9132,-4.3698 12.0031,-0.8318 0.8676,1.46852 0.8488,2.22656 -0.1068,4.3318 l -0.7716,1.7 h 0.9578 c 0.5267,0 1.2078,-0.35712 1.5136,-0.7936 0.3057,-0.43644 2.0709,-2.38052 3.9226,-4.32016 4.9853,-5.2218 6.504,-6.96444 7.1345,-8.18624 0.3121,-0.605 0.7171,-1.1 0.9,-1.1 0.1828,0 0.682,-0.3496 1.1093,-0.77688 0.7316,-0.7316 0.8692,-0.74064 2.3589,-0.15548 1.2331,0.48436 1.6352,0.88732 1.8231,1.82688 0.3957,1.97852 0.2764,3.3782 -0.3309,3.8822 -0.3145,0.26108 -0.9294,1.53316 -1.3663,2.82688 -0.949,2.8102 -0.6576,3.06268 1.9963,1.72972 1.6521,-0.8298 2.4162,-0.93332 6.8898,-0.93332 h 5.0316 l 0.672,-1.3 c 1.7337,-3.35428 4.7891,-6.81924 17.5483,-19.9 3.3261,-3.41 7.4835,-7.73 9.2386,-9.6 1.755,-1.87 4.4609,-4.75 6.0129,-6.4 1.5521,-1.65 3.6155,-3.89932 4.5853,-4.99852 0.97,-1.0992 2.6803,-2.9892 3.8009,-4.2 8.6501,-9.34684 20.8679,-24.31736 31.6667,-38.80148 3.3625,-4.51 6.5688,-8.75848 7.1251,-9.44104 0.5564,-0.68256 1.4074,-1.7922 1.8912,-2.46588 0.676,-0.94136 5.7283,-7.40868 8.3502,-10.689 4.4433,-5.55899 10.3294,-13.32087 10.3294,-13.62119 0,-0.44668 5.1391,-7.35928 8.0165,-10.78288 3.071,-3.65404 7.4814,-8.23888 10.9852,-11.41966 4.2792,-3.88468 8.292,-7.36692 9.1552,-7.94473 0.4637,-0.31042 2.1031,-1.51145 3.6431,-2.66896 2.8473,-2.1401 10.2938,-6.05904 13.2,-6.94686 0.88,-0.26883 2.14,-0.72765 2.8,-1.01959 0.66,-0.29194 2.37,-0.7334 3.8,-0.98103 1.43,-0.24763 3.5436,-0.63585 4.6969,-0.86271 7.1809,-1.41248 16.939,-1.2962 21.3334,0.25424 0.8633,0.30459 1.5697,0.47406 1.5697,0.3766 0,-0.46799 4.7532,2.00362 6.3694,3.31202 2.8195,2.28251 5.8807,5.57688 6.6097,7.11306 0.3621,0.76319 0.8131,1.38762 1.0022,1.38762 0.1891,0 0.2448,0.37842 0.1239,0.84094 -0.1246,0.47644 0.01,0.98064 0.3016,1.16325 0.2868,0.17726 0.5487,0.65384 0.5819,1.05905 0.033,0.40522 0.2785,1.13773 0.5451,1.62782 0.6751,1.24098 0.2207,11.47728 -0.7417,16.70894 -0.2024,1.1 -0.4676,3.45356 -0.5895,5.23012 -0.1219,1.77656 -0.3091,3.66656 -0.416,4.2 -0.1069,0.53344 -0.2916,2.67988 -0.4105,4.76988 -0.1188,2.09 -0.567,4.94396 -0.9961,6.34212 -0.429,1.39819 -0.78,3.35219 -0.78,4.34227 0,0.99008 -0.2873,2.90612 -0.6384,4.25788 -0.3512,1.35172 -0.7768,3.26772 -0.9459,4.25772 -0.7165,4.19516 -1.7607,8.64488 -2.3404,9.97348 -0.3424,0.7846 -0.5815,1.65152 -0.5314,1.92652 0.05,0.275 -0.1268,0.5 -0.393,0.5 -0.2664,0 -0.3714,0.11284 -0.2335,0.25072 0.1379,0.13788 0.01,0.72288 -0.2917,1.3 -0.9864,1.90824 -4.1026,13.3022 -4.4441,16.24928 -0.1275,1.1 -0.4595,2.36 -0.7377,2.8 -0.5257,0.83108 -1.4352,3.4996 -2.2495,6.6 -0.26,0.99 -1.46,3.78 -2.6667,6.2 -1.2067,2.42 -2.6371,5.48 -3.1788,6.8 -1.3785,3.3596 -1.5347,3.71976 -2.707,6.23988 -0.573,1.23192 -1.0419,2.44952 -1.0419,2.70576 0,0.46944 -4.5684,9.78812 -9.3434,19.05892 -0.3387,0.65748 -0.7165,1.46544 -0.8396,1.79544 -0.1231,0.33 -0.5532,1.14 -0.9557,1.8 -0.4025,0.66 -1.0462,2.1474 -1.4305,3.30536 -0.3843,1.15792 -0.9084,2.32948 -1.1647,2.6034 -0.2564,0.27396 -1.0061,1.57652 -1.6661,2.89464 -0.66,1.31812 -1.4529,2.7116 -1.762,3.0966 -0.3091,0.385 -0.3991,0.70276 -0.2,0.70612 0.1991,0.004 0.182,0.13836 -0.038,0.3 -0.5229,0.3842 -2.3237,3.69388 -2.0098,3.69388 0.1328,0 -0.7519,1.395 -1.9659,3.1 -1.2141,1.705 -3.7256,5.35 -5.5812,8.1 -1.8555,2.75 -3.7944,5.47616 -4.3084,6.05808 -0.5141,0.58196 -1.6882,1.94472 -2.6091,3.02836 -5.6889,6.69424 -14.4554,13.72644 -22.9256,18.39032 -8.3438,4.59424 -18.3335,9.31576 -19.7498,9.33452 -1.5069,0.02 -5.113,1.40816 -6.083,2.34172 -1.4543,1.39976 -1.5563,3.04172 -0.3878,6.24528 0.5613,1.53904 1.0206,2.82864 1.0206,2.8658 0,0.0372 0.855,0.54616 1.9,1.13112 2.0065,1.12328 2.1282,1.12396 6.3,0.0344 3.4604,-0.90368 4.1799,-0.63676 5.6019,2.07812 1.359,2.59464 1.4681,2.64636 6.7981,3.22424 1.98,0.21464 4.68,0.7804 6,1.2572 3.1353,1.13256 6.9021,2.13952 12.7557,3.41008 2.7158,0.58944 5.4795,1.4564 6.4431,2.02108 2.7949,1.63792 6.4157,2.44464 14.3213,3.1908 2.9835,0.2816 6.9452,1.3322 8.9914,2.38444 0.7775,0.3998 1.9991,0.62952 3,0.56412 4.3241,-0.28248 14.2277,1.5794 15.5767,2.92844 0.4474,0.44736 1.3755,0.87736 2.0626,0.95552 0.6871,0.0782 3.8122,0.41256 6.9448,0.74304 4.4968,0.4744 6.0964,0.80976 7.6,1.59332 1.5776,0.82216 2.8652,1.06788 7.5044,1.43228 3.5499,0.27884 5.9293,0.6532 6.4995,1.02264 1.1523,0.74656 9.946,2.28448 11.2843,1.97348 3.5629,-0.82788 15.5151,-4.6808 20.8162,-6.71036 25.2228,-9.65668 52.3313,-22.70736 62.4,-30.04084 3.018,-2.19812 12.2265,-9.78396 15.7893,-13.00692 1.6114,-1.45772 3.9318,-3.4604 5.1564,-4.4504 1.2247,-0.99 2.7421,-2.25 3.3722,-2.8 3.3029,-2.8834 7.093,-6.27648 7.6503,-6.84904 0.3475,-0.35696 1.8018,-1.60292 3.2318,-2.7688 1.43,-1.16588 2.8876,-2.4038 3.239,-2.75096 2.3667,-2.3378 9.0549,-8.31588 11.561,-10.3336 1.65,-1.32844 3.7264,-3.10884 4.6142,-3.95648 0.8878,-0.8476 3.0478,-2.78348 4.8,-4.30188 3.131,-2.71328 4.5908,-4.04496 13.7834,-12.57364 5.1814,-4.80716 11.961,-11.59524 16.3441,-16.36464 2.0853,-2.269 3.217,-3.20096 3.8873,-3.20096 1.201,0 0.9593,0.48248 -1.8539,3.7 -7.3807,8.44136 -15.7632,17.10328 -22.5751,23.3274 -3.3125,3.02668 -4.451,4.07476 -10.2904,9.4726 -3.714,3.43324 -9.0108,8.23872 -10.6831,9.69216 -1.7556,1.52584 -11.6349,10.48328 -15.6908,14.2266 -2.1253,1.9616 -4.3993,3.89192 -5.0533,4.2896 -0.654,0.39772 -1.435,1.06528 -1.7357,1.48356 -0.3007,0.41824 -2.9767,2.77972 -5.9467,5.24772 -2.97,2.468 -7.11,6.02484 -9.2,7.90412 -4.8726,4.38132 -8.1166,6.76992 -12.6,9.27744 -1.98,1.1074 -4.14,2.38368 -4.8,2.83616 -1.3143,0.90104 -8.0091,4.2012 -9.4513,4.65892 -0.4963,0.15752 -2.0273,0.97492 -3.4021,1.8164 -1.3749,0.84152 -4.2653,2.27744 -6.4232,3.19096 -2.1579,0.91352 -4.1934,1.894 -4.5234,2.1788 -0.33,0.28484 -1.68,0.96928 -3,1.52096 -2.3999,1.00304 -11.6451,5.67028 -12.4,6.25988 -0.22,0.17184 -1.0456,0.42852 -1.8346,0.5704 -0.789,0.14192 -2.679,0.88484 -4.2,1.65092 -1.521,0.76612 -3.2384,1.39348 -3.8165,1.39416 -0.578,0 -1.275,0.27124 -1.5489,0.60124 -0.2739,0.33 -0.7123,0.6 -0.9741,0.6 -0.2619,0 -1.409,0.45 -2.5491,1 -1.1401,0.55 -2.3377,1 -2.6613,1 -0.3236,0 -1.2695,0.28992 -2.102,0.64432 -3.3571,1.42908 -3.9774,1.66124 -5.5135,2.06356 -2.1701,0.56832 -7.8585,2.4708 -8.6,2.87624 -0.3754,0.20528 -0.5619,0.79436 -0.4983,1.57376 0.096,1.175 0.029,1.23988 -1.1844,1.14388 -0.9544,-0.0755 -1.3237,0.0788 -1.4311,0.59824 -0.097,0.47012 0.1025,0.7 0.6083,0.7 0.6764,0 5.2037,1.01448 8.9055,1.99552 0.77,0.20408 2.345,0.55856 3.5,0.78776 1.155,0.2292 3.045,0.60424 4.2,0.83344 1.155,0.2292 2.73,0.57012 3.5,0.7576 1.8671,0.45464 9.997,1.9702 13,2.42344 2.418,0.36496 3.8133,0.60876 10.4,1.81704 1.98,0.3632 4.59,0.80744 5.8,0.98724 2.4724,0.36732 8.1813,1.30156 11.8,1.93104 3.3353,0.5802 9.1903,1.5 14.4,2.26224 2.42,0.35404 6.02,0.90336 8,1.22068 11.4019,1.82728 29.8786,4.13368 41.8,5.21772 31.6254,2.87584 54.5658,3.4968 79.6,2.15472 7.2543,-0.38892 25.2344,-2.30904 29.8,-3.18244 1.1,-0.2104 3.62,-0.64848 5.6,-0.97352 1.98,-0.325 4.5,-0.78996 5.6,-1.03324 1.1,-0.24328 2.81,-0.59936 3.8,-0.79128 3.97,-0.76964 13.0044,-2.88672 14.5529,-3.41028 0.9059,-0.30632 3.3571,-0.99928 5.4471,-1.53996 7.0294,-1.81844 11.5485,-3.2658 23.6339,-7.56928 2.7686,-0.98588 5.9186,-2.18816 7,-2.67172 1.0813,-0.48356 4.4861,-1.85776 7.5661,-3.0538 3.08,-1.19604 5.96,-2.35232 6.4,-2.56952 2.1406,-1.05668 6.4325,-2.30656 6.7733,-1.97256 0.2054,0.2012 0.2954,0.4436 0.2,0.53868 -0.095,0.0951 -3.2333,1.46644 -6.9733,3.04748 -3.74,1.58104 -7.52,3.19576 -8.4,3.58824 -9.0975,4.05752 -25.5813,9.9238 -35.8,12.74052 -15.2699,4.20904 -18.1508,4.9188 -25.4,6.25784 -1.76,0.32512 -4.19,0.78532 -5.4,1.02272 -10.1004,1.98172 -22.5532,3.41808 -38.2,4.4062 -6.7895,0.42876 -35.9123,0.57576 -46.4,0.2342 -15.8459,-0.51604 -20.4013,-0.8368 -26.6,-1.87288 -1.21,-0.20224 -3.46,-0.39172 -5,-0.42108 -1.54,-0.0292 -3.6427,-0.206 -4.6727,-0.39252 -1.0299,-0.18656 -4.2699,-0.53476 -7.2,-0.7738 -2.93,-0.23904 -6.0647,-0.49556 -6.9659,-0.57008 -4.283,-0.35404 -10.5601,-1.0978 -12.3614,-1.46464 -1.1,-0.224 -4.25,-0.65308 -7,-0.95344 -6.619,-0.723 -9.9373,-1.25564 -13.8,-2.21508 -1.76,-0.4372 -4.91,-0.9636 -7,-1.16984 -2.09,-0.2062 -5.51,-0.75988 -7.6,-1.23036 -2.09,-0.47048 -5.42,-1.01012 -7.4,-1.19912 -1.98,-0.18904 -4.745,-0.70456 -6.1444,-1.14556 -1.3994,-0.441 -3.4694,-0.90192 -4.6,-1.02424 -11.8533,-1.28248 -15.5589,-1.82612 -20.2556,-2.97172 -0.99,-0.24148 -3.6,-0.80728 -5.8,-1.25736 -2.2,-0.45008 -4.54,-1.0058 -5.2,-1.23496 -0.66,-0.22912 -2.6797,-0.51892 -4.4881,-0.64396 l -3.2882,-0.22736 -5.1118,2.53884 c -2.8116,1.39632 -5.5993,2.8682 -6.195,3.27084 -0.8984,0.6072 -2.4333,0.80024 -9,1.13204 -4.3543,0.21996 -9.7169,0.29728 -11.9169,0.17176 -2.2,-0.12552 -9.04,-0.40152 -15.2,-0.61332 -6.16,-0.2118 -12.46,-0.57744 -14,-0.81248 -1.54,-0.23508 -5.68,-0.56744 -9.2,-0.7386 -4.062,-0.19748 -7.9848,-0.64912 -10.7383,-1.23624 -3.3421,-0.71268 -4.4076,-0.81264 -4.6408,-0.43532 -0.3645,0.58964 -7.9907,-0.30008 -13.4167,-1.56524 -1.8618,-0.43412 -5.5044,-0.89612 -8.0947,-1.02664 -6.6,-0.3326 -14.332,-2.0726 -17.8104,-4.00804 -0.6054,-0.33688 -1.2464,-0.52248 -1.4244,-0.41248 -0.5967,0.3688 -7.9966,-0.52028 -11.4915,-1.38064 -3.1483,-0.77504 -4.7653,-1.35068 -8.4437,-3.006 -0.6932,-0.31196 -1.56,-0.5672 -1.9263,-0.5672 -0.3662,0 -1.059,-0.21624 -1.5395,-0.48052 -0.4806,-0.26428 -1.5937,-0.51676 -2.4737,-0.56112 -2.8765,-0.14492 -10.8536,-3.32776 -14.4,-5.74556 -0.88,-0.59992 -2.05,-1.39016 -2.6,-1.75608 -0.55,-0.36588 -1.649,-1.09916 -2.4421,-1.62948 -0.7932,-0.53032 -2.5614,-1.1844 -3.9294,-1.45356 -1.368,-0.26912 -3.1146,-0.915 -3.8812,-1.43528 -0.7667,-0.52024 -2.1484,-1.32544 -3.0706,-1.78928 -2.0838,-1.04816 -7.4436,-4.29516 -8.3515,-5.05948 -0.7408,-0.62352 -1.5252,-0.35912 -1.5252,0.51404 0,0.30608 0.8121,1.23536 1.8047,2.06512 1.9104,1.59688 7.9784,4.91776 9.0012,4.9262 0.3333,0.004 1.2383,0.34396 2.0113,0.75824 0.7729,0.41424 2.473,0.97484 3.778,1.24576 1.305,0.27092 2.7973,0.7708 3.3163,1.11088 0.5191,0.34008 2.1736,1.26448 3.6768,2.05424 7.1632,3.76328 6.8117,3.49508 6.8117,5.19632 0,0.99172 0.5585,2.67616 1.5562,4.69324 0.856,1.73048 2.3121,5.48632 3.2359,8.34632 0.9238,2.86 2.1228,6.19 2.6645,7.4 0.5417,1.21 1.0365,2.702 1.0997,3.31556 0.063,0.61356 0.3238,1.32456 0.5792,1.58 0.2555,0.25544 0.4645,0.855 0.4645,1.33236 0,1.34816 5.3623,17.2788 6.736,20.01164 1.5105,3.00496 2.4916,5.57936 2.7289,7.16044 0.1582,1.054 -0.01,1.30576 -1.3684,2.06936 -0.8517,0.47812 -1.7344,0.74812 -1.9616,0.6 z M 1511.3905,632.53066 c 2.2435,-0.42116 5.2215,-0.95344 6.6176,-1.18284 3.3697,-0.55372 3.7926,-0.94676 3.5653,-3.31316 -0.2495,-2.59656 -1.189,-3.93824 -2.7577,-3.93824 -0.9862,0 -1.6409,0.4426 -3.245,2.194 -1.648,1.7992 -2.1797,2.15128 -2.9553,1.95664 -0.8143,-0.20436 -0.9457,-0.0915 -0.9457,0.81188 0,1.20532 -1.9404,2.62948 -3.6,2.64212 -1.2786,0.01 -2.1814,0.57816 -1.8276,1.15064 0.3566,0.57708 0.3676,0.5764 5.1484,-0.32104 z m -9.5954,-26.42576 c 1.8866,-1.2732 4.4648,-4.69916 4.898,-6.50848 0.4072,-1.70112 -0.1218,-3.04976 -1.5341,-3.91092 -1.9598,-1.19492 -3.9185,-1.02592 -5.9211,0.51092 -2.6768,2.05432 -3.2445,3.07352 -3.4704,6.23024 -0.1869,2.6132 -0.1304,2.87348 0.8326,3.83656 1.3791,1.37904 2.9898,1.32996 5.195,-0.15832 z m 41.3996,68.91828 c 0.2888,-0.11556 0.6338,-0.10136 0.7667,0.0316 0.1329,0.13292 -0.1034,0.22748 -0.525,0.21012 -0.466,-0.0192 -0.5608,-0.114 -0.2417,-0.24168 z m 342.075,-49.52676 c 0,-0.11 0.09,-0.2 0.2,-0.2 0.11,0 0.2,0.09 0.2,0.2 0,0.11 -0.09,0.2 -0.2,0.2 -0.11,0 -0.2,-0.09 -0.2,-0.2 z m 2,-1.2 c 0,-0.11 0.09,-0.2 0.2,-0.2 0.11,0 0.2,0.09 0.2,0.2 0,0.11 -0.09,0.2 -0.2,0.2 -0.11,0 -0.2,-0.09 -0.2,-0.2 z m 57.6,-63.72388 c 0,-0.2148 0.285,-0.49992 0.6334,-0.6336 0.3896,-0.14948 0.5724,-0.0601 0.475,0.2322 -0.1993,0.59796 -1.1084,0.92716 -1.1084,0.4014 z m 1.4,-1.67612 c 0.136,-0.22 0.3266,-0.4 0.4236,-0.4 0.097,0 0.1764,0.18 0.1764,0.4 0,0.22 -0.1906,0.4 -0.4236,0.4 -0.233,0 -0.3124,-0.18 -0.1764,-0.4 z m 1.4,-0.2 c 0,-0.11 0.09,-0.2 0.2,-0.2 0.11,0 0.2,0.09 0.2,0.2 0,0.11 -0.09,0.2 -0.2,0.2 -0.11,0 -0.2,-0.09 -0.2,-0.2 z m 0.2171,-0.97236 c -0.1266,-0.2048 -0.077,-0.46688 0.1097,-0.5824 0.1869,-0.11552 0.3399,0.052 0.3399,0.37236 0,0.67448 -0.1262,0.7334 -0.4496,0.21004 z m 0.9829,-1.22764 c 0,-0.22 0.1744,-0.4 0.3874,-0.4 0.2132,0 0.2831,-0.27204 0.1555,-0.60452 -0.1678,-0.43732 -0.049,-0.53428 0.4298,-0.3506 0.6129,0.2352 0.6117,0.30944 -0.018,1.00456 -0.7715,0.85244 -0.9553,0.91988 -0.9553,0.35056 z"
       id="path177" />
  </g>
</svg>
