<?xml version="1.0" encoding="UTF-8" standalone="no"?>
<!-- Created with Inkscape (http://www.inkscape.org/) -->

<svg
   version="1.1"
   id="svg179"
   width="3179.116"
   height="1723.1825"
   viewBox="0 0 3179.116 1723.1825"
   sodipodi:docname="eiseniella_tetraedra.svg"
   inkscape:version="1.2.2 (732a01da63, 2022-12-09)"
   xmlns:inkscape="http://www.inkscape.org/namespaces/inkscape"
   xmlns:sodipodi="http://sodipodi.sourceforge.net/DTD/sodipodi-0.dtd"
   xmlns="http://www.w3.org/2000/svg"
   xmlns:svg="http://www.w3.org/2000/svg">
  <defs
     id="defs183" />
  <sodipodi:namedview
     id="namedview181"
     pagecolor="#505050"
     bordercolor="#eeeeee"
     borderopacity="1"
     inkscape:showpageshadow="0"
     inkscape:pageopacity="0"
     inkscape:pagecheckerboard="0"
     inkscape:deskcolor="#505050"
     showgrid="false"
     inkscape:zoom="0.30410156"
     inkscape:cx="1433.7315"
     inkscape:cy="991.44509"
     inkscape:window-width="3840"
     inkscape:window-height="2054"
     inkscape:window-x="-11"
     inkscape:window-y="-11"
     inkscape:window-maximized="1"
     inkscape:current-layer="g185" />
  <g
     inkscape:groupmode="layer"
     inkscape:label="Image"
     id="g185"
     transform="translate(-836.06996,-291.10128)">
    <path
       style="fill:#000000;stroke-width:1.33333"
       d="m 3397.155,2008.066 c -5.3648,-3.6733 -11.455,-6.5788 -15.697,-7.4885 -3.8123,-0.8176 -8.9182,-2.3167 -11.3464,-3.3312 -5.8872,-2.4599 -15.9258,-2.3332 -23.6488,0.2983 -4.2462,1.4468 -9.4291,1.9845 -15.9526,1.6552 -8.1496,-0.4116 -10.7178,-1.165 -16.398,-4.8098 -3.7041,-2.377 -7.5824,-4.3256 -8.6181,-4.3301 -1.0359,0 -3.6833,-0.9747 -5.8833,-2.1561 -9.4387,-5.0684 -16.318,-5.8911 -37.1604,-4.4438 -18.8216,1.307 -20.0916,1.239 -25.0411,-1.3408 -2.8677,-1.4948 -6.3145,-2.7177 -7.6597,-2.7177 -1.3452,0 -3.9242,-1.1628 -5.731,-2.584 -1.8066,-1.4212 -5.0376,-3.0055 -7.1797,-3.5204 -2.1421,-0.5151 -5.6948,-1.8901 -7.8948,-3.0556 -3.7561,-1.9899 -12.2045,-2.84 -46.1469,-4.6433 -12.6647,-0.6728 -16.7734,-2.6136 -21.8427,-10.317 -4.6552,-7.0742 -10.9452,-13.213 -13.5384,-13.213 -0.9929,0 -2.8755,-1.05 -4.1835,-2.3334 -3.4906,-3.4248 -12.873,-9.6666 -14.5302,-9.6666 -0.7875,0 -2.1655,-0.8842 -3.0623,-1.9647 -0.8968,-1.0807 -3.8203,-2.364 -6.4967,-2.8519 -2.6762,-0.4878 -6.966,-1.9762 -9.5326,-3.3074 -4.3287,-2.2451 -9.5698,-4.2634 -25.5655,-9.8447 -8.9252,-3.1143 -16.6899,-9.1232 -17.6935,-13.6924 -0.4618,-2.1031 -3.8404,-7.0897 -7.5078,-11.0813 -3.6674,-3.9918 -9.1952,-11.0063 -12.2839,-15.5879 -6.1521,-9.1256 -11.6473,-12.62 -27.6461,-17.5801 -14.999,-4.6502 -17.4843,-7.7995 -20.6979,-26.2275 -2.3177,-13.2911 -3.0157,-14.8408 -10.812,-24.0059 -3.1864,-3.7457 -5.7933,-7.4592 -5.7933,-8.2522 0,-0.793 -2.4,-4.2148 -5.3334,-7.604 -2.9333,-3.3892 -5.3333,-6.9567 -5.3333,-7.9278 0,-0.971 -1.65,-2.8273 -3.6667,-4.125 -8.1346,-5.2346 -16.6021,-13.247 -19.0312,-18.0086 -1.4144,-2.7721 -4.4434,-10.9424 -6.7314,-18.1561 -2.2879,-7.2137 -5.8518,-15.8159 -7.9194,-19.1159 -2.0677,-3.3 -4.4466,-8.7 -5.2864,-12 -2.344,-9.2112 -9.2497,-22.3413 -14.2122,-27.0221 -5.3358,-5.0328 -6.6435,-8.8859 -7.7864,-22.9405 -0.4755,-5.8462 -1.5058,-11.4022 -2.2896,-12.3467 -0.7839,-0.9444 -1.8318,-7.58 -2.3287,-14.7456 -0.9677,-13.954 -2.1052,-16.5845 -11.6513,-26.9451 -6.8823,-7.4694 -8.7927,-13.4358 -7.1491,-22.3273 1.6865,-9.1227 1.8507,-47.8945 0.2072,-48.9103 -0.6481,-0.4006 -2.4131,-3.3548 -3.9219,-6.5648 -1.5089,-3.21 -4.6588,-7.7517 -6.9998,-10.0926 -4.034,-4.0342 -4.2199,-4.6591 -3.5575,-11.9646 0.3844,-4.2393 1.7733,-9.7553 3.0864,-12.2576 4.0809,-7.7768 11.5017,-37.2649 12.0499,-47.8828 0.3918,-7.5901 -0.1674,-12.1732 -2.321,-19.0184 -1.8609,-5.9153 -2.5905,-10.8573 -2.1202,-14.3632 0.952,-7.0972 7.8677,-20.2224 11.6898,-22.1856 1.6782,-0.862 4.0418,-4.162 5.2527,-7.3333 1.2108,-3.1713 3.8683,-8.3956 5.9056,-11.6093 3.3291,-5.2514 3.9463,-8.186 6.0931,-28.9711 1.7456,-16.9017 3.1004,-24.4932 5.0322,-28.1997 1.454,-2.7895 3.3302,-8.273 4.1692,-12.1855 2.0716,-9.6593 6.4447,-22.7417 8.3826,-25.0767 1.4402,-1.7354 3.1454,-15.812 4.4889,-37.0572 0.2783,-4.4 0.5305,-8.3669 0.5605,-8.8153 0.031,-0.4484 2.9994,-5.1593 6.5983,-10.4685 3.5991,-5.3092 6.9079,-11.5947 7.3531,-13.9678 0.4452,-2.3729 2.8085,-6.6621 5.2518,-9.5314 7.065,-8.2964 9.5839,-14.659 7.7952,-19.689 -1.6637,-4.6786 1.0504,-31.8676 3.6698,-36.762 3.5165,-6.5706 15.9692,-12.3949 30.4164,-14.2263 3.8665,-0.4902 7.3518,-1.4121 7.7454,-2.0488 0.3935,-0.6366 1.8446,-1.1576 3.2247,-1.1576 3.368,0 3.7521,-0.8514 5.2963,-11.7384 0.7318,-5.1601 1.877,-10.7799 2.5449,-12.4885 0.668,-1.7085 1.9913,-5.7123 2.9411,-8.8972 2.1272,-7.1349 17.3033,-21.6805 25.0381,-23.9978 2.7532,-0.8249 6.47,-3.0607 8.2595,-4.9683 2.8618,-3.051 3.2128,-4.5226 2.9153,-12.2255 -0.2656,-6.878 0.3388,-10.2355 2.8165,-15.6477 3.3186,-7.2487 11.6522,-15.083 18.855,-17.7254 4.2149,-1.5462 20.7556,-4.8553 32,-6.4018 10.9996,-1.5128 11.3289,-1.9076 11.3652,-13.62292 0.048,-15.6785 1.297,-19.2139 9.482,-26.8473 4.3345,-4.0424 8.4052,-6.6909 10.3314,-6.7217 8.1718,-0.1306 13.6391,-3.2667 23.84,-13.6747 11.0567,-11.2809 14.3455,-13.5399 21.648,-14.8692 9.8152,-1.7866 22.6336,-13.515 22.696,-20.7659 0.016,-1.8742 1.216,-6.0232 2.6667,-9.2199 3.1031,-6.8387 3.3911,-12.5691 0.742,-14.7676 -1.1879,-0.9858 -10.6424,-1.9302 -25.3311,-2.53 -22.1674,-0.9053 -23.5482,-1.1176 -25.5136,-3.9236 -3.9356,-5.6189 -12.0266,-3.4536 -20.9617,5.6096 -8.8113,8.9377 -12.8669,7.8885 -20.2103,-5.2286 -3.0669,-5.4781 -8.6049,-8.394 -16.2946,-8.5794 -3.6071,-0.087 -4.698,0.737 -7.6548,5.7825 -4.8091,8.2059 -11.5811,12.223 -17.9518,10.6487 -4.974,-1.2291 -6.1146,-3.2363 -8.7314,-15.3639 -0.9122,-4.2272 -5.6234,-6.4323 -14.5606,-6.8153 -5.9621,-0.2555 -6.8501,0.1422 -12,5.3743 -9.1812,9.3278 -15.4056,13.9507 -17.633,13.0959 -4.5622,-1.7507 -7.7639,-12.7682 -8.5295,-29.3509 -0.6069,-13.1469 -1.1315,-16.1114 -3.0656,-17.3265 -3.5285,-2.2169 -6.464,0.3596 -9.0419,7.9365 -1.2321,3.6211 -4.5853,10.4839 -7.4517,15.2505 -2.8663,4.7667 -6.0372,10.2849 -7.0464,12.2627 -1.0092,1.9777 -2.6065,3.892 -3.5497,4.2539 -2.5183,0.9664 -8.2802,-7.0427 -16.577,-23.0419 -6.7233,-12.965 -7.6773,-14.1749 -11.4678,-14.5443 -3.5246,-0.3436 -5.4683,0.8857 -13.177,8.3333 -9.2204,8.9082 -11.8789,9.992 -18.4146,7.5071 -2.392,-0.9094 -3.4471,-2.5674 -4.0558,-6.3735 -0.4524,-2.8294 -3.1649,-9.0262 -6.0277,-13.7708 -4.3197,-7.159 -5.8805,-8.6952 -9.1749,-9.0302 -3.4207,-0.3478 -5.5168,1.1413 -15.1592,10.7699 -10.7818,10.7662 -20.869,19.2334 -21.6262,18.1531 -0.2002,-0.2856 -1.9786,-2.5092 -3.9522,-4.9413 -1.9736,-2.4321 -4.5659,-7.8321 -5.7607,-12 -4.2025,-14.6593 -6.7727,-14.586 -22.0583,0.6288 l -11.5938,11.5402 -0.8543,-5.2069 c -2.6648,-16.2428 -8.1959,-35.8139 -10.7115,-37.9016 -1.0005,-0.8304 -3.2022,-1.3138 -4.8926,-1.0742 -2.7928,0.3959 -3.11,1.2147 -3.4755,8.9692 -0.3679,7.8043 -0.9091,9.1788 -6.3333,16.083 -3.2622,4.1522 -5.9312,8.3272 -5.9312,9.2777 0,2.8729 -7.0258,0.4294 -10,-3.4779 -1.4667,-1.9268 -4.9887,-6.2284 -7.8268,-9.5592 l -5.1602,-6.0559 0.9339,-9.4006 c 1.6373,-16.4813 1.5505,-18.3051 -0.9469,-19.8984 -3.5182,-2.2444 -6.8368,0.5347 -7.9284,6.6391 -3.5656,19.9395 -5.043,24.5254 -7.9006,24.5254 -0.7709,0 -4.1105,1.9452 -7.4212,4.3228 l -6.0194,4.3228 -3.2094,-3.9895 c -3.5533,-4.4171 -5.8356,-11.1931 -5.8469,-17.3594 -0.013,-4.9589 -3.32,-9.9634 -6.5915,-9.9634 -2.7404,0 -7.2465,5.4657 -12.6416,15.3333 -4.6556,8.5153 -6.6729,10 -13.5872,10 -4.9706,0 -5.9669,-0.5349 -8.4353,-4.5287 -3.3496,-5.4199 -8.1568,-8.8046 -12.5049,-8.8046 -3.9167,0 -14.3239,7.3397 -15.2096,10.7265 -0.8055,3.0803 -6.2946,6.8186 -8.6342,5.8803 -0.955,-0.3831 -4.9348,-4.8046 -8.8437,-9.8255 -6.7387,-8.6557 -7.51,-9.2146 -14.8753,-10.7776 -4.4286,-0.9398 -8.5383,-1.1624 -9.5595,-0.5178 -0.9852,0.6219 -5.5165,2.0766 -10.0696,3.2327 -8.2725,2.1006 -8.2811,2.0997 -12.562,-1.2506 -2.3561,-1.8439 -5.7685,-4.7286 -7.5832,-6.4103 -5.1939,-4.8135 -11.2311,-4.0331 -22.9099,2.9617 l -10,5.9893 -7.1037,-7.449 c -8.358,-8.7643 -14.3021,-11.6828 -21.2999,-10.4579 -7.3832,1.2923 -15.6572,6.55 -17.5682,11.1636 -2.0368,4.9171 -4.0264,4.0896 -4.0331,-1.6774 -0.013,-5.7594 -4.2207,-12.2743 -9.0216,-13.9479 -5.1465,-1.7941 -12.3928,1.3452 -20.16,8.7339 -4.5907,4.3669 -5.7869,4.9649 -6.344,3.1706 -2.8105,-9.0539 -8.0303,-19.4023 -10.6535,-21.1211 -4.1613,-2.7266 -11.1164,-1.3831 -15.1685,2.9303 -4.9004,5.2163 -12.8612,4.6504 -19.0435,-1.3538 -2.6428,-2.5667 -5.8849,-4.7524 -7.2045,-4.8571 -11.7309,-0.9313 -17.3032,-0.3818 -37.4897,3.697 -12.6996,2.5661 -25.8996,5.8701 -29.3334,7.3423 -3.9388,1.6887 -12.0245,3.2084 -21.9069,4.1173 -13.5852,1.2496 -16.5693,1.1483 -22.4864,-0.7627 -3.7525,-1.2119 -10.2867,-2.2035 -14.5204,-2.2035 -8.156,0 -27.4777,4.9877 -35.8316,9.2495 -2.7368,1.3962 -8.7391,3.221 -13.3384,4.055 -9.2231,1.6725 -24.012,8.1828 -27.6037,12.1517 -2.9558,3.266 -6.1862,3.232 -9.1987,-0.097 -4.5263,-5.0015 -10.0083,-4.7597 -26.4591,1.1673 -11.3124,4.0756 -17.2022,5.4733 -23.0645,5.4733 -5.3255,0 -9.4827,0.8628 -12.8483,2.6666 -3.8137,2.0441 -7.5448,2.6704 -15.9802,2.6825 -12.8911,0.019 -20.1966,1.803 -35.6715,8.7134 -16.1011,7.19 -30.7093,11.3298 -45.3333,12.8469 -21.4806,2.2283 -38.7536,9.5765 -52.8475,22.4819 -3.0328,2.7771 -7.5328,6.0772 -10,7.3337 -2.4672,1.2564 -8.3271,4.951 -13.0219,8.2101 -7.1908,4.9918 -10.2378,6.2037 -19.3333,7.6894 -13.566,2.2158 -23.7592,4.8348 -44.6579,11.4739 -9.09,2.8877 -21.5601,5.8222 -27.7113,6.5212 -6.1512,0.6989 -19.114,2.7398 -28.8061,4.5353 -9.6922,1.7955 -23.922,3.5848 -31.622,3.9763 -14.1088,0.7172 -43.7708,6.5202 -59.4532,11.6312 -4.466,1.4555 -12.205,5.3294 -17.1978,8.6086 -4.9928,3.2793 -10.2388,5.9624 -11.658,5.9624 -1.419,0 -7.4745,1.2496 -13.4566,2.777 -8.6795,2.216 -12.9335,2.5949 -21.0594,1.8756 -9.1381,-0.8089 -10.3706,-0.6367 -12.0124,1.6781 -2.7646,3.8982 -7.0137,5.6693 -13.6012,5.6693 -3.2709,0 -9.7604,1.1732 -14.421,2.6071 -14.7159,4.5276 -18.813,4.7057 -31.2667,1.3589 l -11.3705,-3.0556 -7.585,3.2114 c -6.1261,2.5939 -9.2517,3.1062 -16.2516,2.6639 -4.7666,-0.3012 -14.9666,-0.5634 -22.6666,-0.5828 -12.2927,-0.031 -15.0114,0.4017 -22.2932,3.5476 -4.5612,1.9705 -10.5612,3.6042 -13.3334,3.6303 -2.772,0.026 -8.6401,0.9167 -13.0401,1.9792 -4.4,1.0624 -12.8765,1.941 -18.8368,1.9525 -8.2109,0.016 -11.2584,0.529 -12.5775,2.1183 -5.3177,6.4076 -29.4148,13.017 -46.294,12.6977 -13.2984,-0.2516 -20.0752,1.3832 -24.2776,5.8565 -2.5894,2.75632 -4.3914,3.34832 -10.1921,3.34832 -3.8755,0 -11.4209,0.5812 -16.7676,1.2915 -5.3465,0.7103 -13.204,1.6576 -17.4611,2.1051 -6.005,0.6312 -8.7632,1.712 -12.3049,4.8217 -5.8031,5.0951 -15.7596,7.7458 -29.1712,7.7659 -12.0711,0.018 -24.3097,3.3052 -26.3248,7.0705 -1.9823,3.7037 -9.3652,6.2786 -18.0027,6.2786 -4.196,0 -11.2653,0.6627 -15.7094,1.4726 -4.4442,0.81 -9.3271,1.6955 -10.8509,1.9679 -1.5238,0.2723 -4.4284,2.0316 -6.4546,3.9094 -7.5193,6.9687 -9.326,7.5292 -28.0179,8.6917 -15.4123,0.9586 -18.8053,1.5867 -23.7052,4.3882 -10.4456,5.9723 -17.8051,7.5173 -34.385,7.2184 -8.4334,-0.1521 -16.6163,0.184 -18.1843,0.7469 -1.5681,0.5629 -4.3785,3.3315 -6.2454,6.1526 -5.4224,8.1938 -12.3835,10.7847 -28.9913,10.7907 -15.5005,0.01 -21.7675,2.2973 -23.3324,8.5326 -1.1522,4.5907 -6.5957,6.1263 -21.7789,6.1437 -20.4471,0.024 -22.1576,0.5616 -28.3254,8.9106 -2.9299,3.966 -6.7307,7.7446 -8.4462,8.3969 -1.7155,0.6522 -9.9239,1.5984 -18.24088,2.1027 -10.1332,0.6144 -18.5994,2.0009 -25.6629,4.2029 -14.112,4.3994 -19.5114,4.2894 -30.7923,-0.6272 -13.9265,-6.0695 -22.75367,-7.5572 -29.89346,-5.0382 -8.0698,2.8472 -23.41071,2.6057 -30.10657,-0.4739 -2.93334,-1.3491 -10.13334,-7.1863 -16,-12.9714 -16.58218,-16.3518 -24.2671,-33.7084 -22.50602,-50.8304 0.43483,-4.2277 0.2078,-10.9867 -0.5045,-15.02 -1.82206,-10.317 1.28566,-32.07772 5.743,-40.21332 1.33148,-2.4302 1.90246,-7.3426 1.8139,-15.6055 -0.0773,-7.2146 0.79392,-15.9667 2.16882,-21.7867 2.88129,-12.1967 3.54194,-13.7462 8.8717,-20.8066 3.96632,-5.2542 4.35555,-6.637 4.55306,-16.1745 0.19825,-9.5742 0.84826,-11.8608 7.92864,-27.8918 l 7.71266,-17.4626 7.44271,-2.0974 c 14.44025,-4.0693 14.10571,-3.8754 14.15667,-8.2046 0.026,-2.2103 0.98549,-5.4598 2.13217,-7.2212 1.14668,-1.7613 2.51516,-5.5196 3.04105,-8.3515 0.63366,-3.4121 2.53094,-6.5916 5.62491,-9.426 2.5678,-2.3524 5.37804,-5.6853 6.24497,-7.4065 2.82298,-5.6045 17.19749,-15.3547 28.62099,-19.4136 10.0421,-3.5681 10.9716,-4.2203 13.1421,-9.2223 1.2846,-2.9605 3.3348,-6.8826 4.556,-8.716 1.2212,-1.8333 2.9046,-5.4333 3.7408,-8 0.8362,-2.5666 4.0695,-7.5332 7.1851,-11.0368 3.1155,-3.5036 7.5249,-8.9094 9.7987,-12.013 6.0974,-8.3226 15.33,-12.8381 28.29328,-13.8378 l 10.6049,-0.8178 3.1505,-5.2554 c 5.0461,-8.4176 9.3808,-13.2439 15.2216,-16.9481 3.0013,-1.9033 7.3673,-5.6365 9.7023,-8.2959 2.9128,-3.3175 5.8119,-5.1037 9.236,-5.6905 2.7449,-0.4704 7.0906,-1.6864 9.6573,-2.7022 2.5667,-1.0158 8.2667,-2.5482 12.6667,-3.4053 9.5083,-1.8522 12.2554,-3.8573 17.3764,-12.6829 2.1214,-3.6562 4.7796,-7.4323 5.907,-8.3913 3.724,-3.1678 16.058,-8.2563 20.0123,-8.2563 2.4611,0 4.6202,-1.0477 5.8874,-2.8568 1.4181,-2.0247 4.2464,-3.209 9.7099,-4.0657 4.2398,-0.6649 8.6234,-2.0076 9.7412,-2.9838 1.1178,-0.9763 5.4368,-2.1842 9.5977,-2.6843 6.8374,-0.8218 7.6972,-1.2878 8.9368,-4.8436 0.7543,-2.1639 2.4499,-4.3094 3.768,-4.7679 1.3181,-0.4585 7.0669,-2.8467 12.7751,-5.3072 5.7082,-2.4605 12.8139,-4.8631 15.7904,-5.339 2.9766,-0.476 7.0062,-2.1777 8.9548,-3.7816 5.4871,-4.5165 7.9208,-4.905 13.3558,-2.1322 l 4.992,2.5467 9.2258,-3.8923 c 5.0742,-2.1408 10.2931,-3.8924 11.5976,-3.8924 1.6084,0 2.3718,-1.0202 2.3718,-3.17 0,-3.905 1.9581,-5.5333 8,-6.6525 4.7279,-0.8757 26.5529,-7.4143 37.0794,-11.1087 5.5308,-1.9411 5.6602,-2.1115 3.4526,-4.5509 -3.0458,-3.3655 -1.9282,-4.1694 6.4421,-4.6338 9.8468,-0.5464 19.538,-2.9044 24.4736,-5.9548 2.3103,-1.4278 6.1996,-2.5959 8.6429,-2.5959 3.4555,0 4.0871,-0.3556 2.8427,-1.6 -3.2957,-3.2957 -1.7532,-5.0667 4.4131,-5.0667 4.363,0 6.6396,-0.7317 8.2962,-2.6667 3.2426,-3.7869 8.3574,-3.5604 8.3574,0.37 0,1.6702 -0.934,4.3702 -2.0756,6 -2.0427,2.9164 -1.9899,2.9634 3.3333,2.9634 4.4521,0 5.4089,-0.4546 5.4089,-2.5699 0,-3.9206 6.2499,-8.0968 12.1171,-8.0968 2.8,0 6.4691,-0.5459 8.1535,-1.213 1.6845,-0.6672 7.3545,-1.9524 12.5998,-2.8561 8.8326,-1.5217 10.1032,-2.1827 17.2012,-8.9489 7.4026,-7.0564 7.8192,-7.2583 12.201,-5.9135 3.4122,1.0472 5.4278,0.9553 8.1321,-0.3708 21.5739,-10.5793 26.4731,-13.1983 27.7624,-14.841 1.0228,-1.303 3.7821,-1.8307 8.6667,-1.6574 8.1788,0.2903 15.8329,-1.1547 15.8329,-2.9891 0,-1.7469 18.4629,-10.5435 22.1296,-10.5435 1.8219,0 4.1299,-1.5556 5.8111,-3.9167 1.5338,-2.1541 5.9284,-5.3539 9.7656,-7.1107 3.837,-1.7567 8.8768,-5.0942 11.1993,-7.4166 3.1347,-3.1347 5.4265,-4.2227 8.8951,-4.2227 3.3318,0 5.388,-0.9097 7.1664,-3.1706 1.5349,-1.9512 4.5658,-3.5207 7.8809,-4.0807 4.1899,-0.7079 7.3672,-2.814 14.2987,-9.478 4.9014,-4.7123 10.5485,-8.9057 12.5492,-9.3185 11.2345,-2.3185 17.8153,-5.1112 23.6374,-10.0314 1.4667,-1.2394 5.8354,-3.283 9.708,-4.5414 8.4591,-2.7485 14.666,-7.6866 17.1579,-13.6505 2.1819,-5.2221 3.4545,-5.4735 6.2337,-1.2318 2.2715,3.4667 7.4882,3.4778 10.3563,0.022 0.8455,-1.0187 2.7333,-1.8523 4.1951,-1.8523 3.9828,0 15.3469,-3.9477 24.2226,-8.4145 5.576,-2.8062 10.9364,-4.2713 18.3688,-5.0205 6.4796,-0.6532 12.1398,-2.0598 14.7931,-3.6762 2.3639,-1.4399 10.5979,-3.9359 18.2979,-5.5467 9.3521,-1.9563 17.3724,-4.6572 24.1582,-8.1353 5.8695,-3.0085 12.0616,-5.2103 14.6667,-5.215 2.4796,0 6.3084,-0.9526 8.5084,-2.1067 2.7031,-1.4181 5.6792,-1.8334 9.1789,-1.2808 5.5679,0.8792 13.4395,-1.07 17.0554,-4.2232 1.2288,-1.0716 6.0288,-2.4694 10.6666,-3.1063 19.8287,-2.7227 25,-3.8367 30.2547,-6.5175 5.3117,-2.7098 17.5865,-4.4955 32.1777,-4.681 5.1422,-0.065 6.7108,-0.8025 10.9715,-5.1554 6.8691,-7.0177 25.8845,-19.3727 32.3489,-21.0181 2.9404,-0.7485 6.8463,-1.9305 8.6796,-2.6267 1.8334,-0.6962 12.0334,-2.4419 22.6667,-3.8793 10.6333,-1.4375 22.0333,-3.2137 25.3333,-3.9471 3.3,-0.7335 9.2532,-1.3597 13.2295,-1.3916 3.9761,-0.032 12.0761,-0.9193 18,-1.9719 5.9237,-1.0527 15.4819,-2.3096 21.2401,-2.7932 9.3879,-0.7885 10.9768,-1.3377 15.3806,-5.3163 8.8597,-8.0042 26.3402,-12.7795 53.4832,-14.6106 6.9666,-0.4699 16.8666,-1.6975 22,-2.7278 5.1333,-1.0304 14.4333,-2.1887 20.6666,-2.5741 6.2334,-0.3854 14.3334,-1.6638 18,-2.8409 4.5804,-1.4705 12.5083,-2.2244 25.3334,-2.4093 11.894,-0.1714 19.7586,-0.8705 21.6762,-1.9269 2.5479,-1.4035 15.4922,-6.3181 31.6571,-12.0193 3.9467,-1.392 14.4647,-3.9828 31.2705,-7.7025 9.4659,-2.0952 38.0487,-4.0987 76.0628,-5.3318 l 24.6667,-0.8001 13.21,4.2798 c 7.2655,2.3539 16.4291,6.0214 20.3633,8.15 8.3016,4.4913 15.4392,4.977 24.1654,1.6444 4.7412,-1.8106 6.6201,-1.9392 10.0768,-0.6892 6.2625,2.2645 21.689,2.3193 24.3793,0.086 2.6789,-2.2233 21.5829,-3.2297 42.6659,-2.2714 6.7384,0.3063 10.2818,1.1161 12.1049,2.7664 3.2373,2.9305 4.374,2.9138 17.0357,-0.2503 11.7564,-2.9379 21.1202,-2.481 28.8883,1.4096 2.6893,1.3469 9.2893,3.1215 14.6667,3.9436 5.3773,0.8221 12.477,2.6205 15.777,3.9964 3.3,1.3759 8.9268,3.1362 12.5039,3.9118 3.5772,0.7755 7.7607,2.2903 9.2967,3.3661 3.0884,2.1631 12.945,2.6499 14.9328,0.7375 2.8489,-2.741 16.3082,-1.3762 33.3641,3.3832 3.7204,1.0382 7.9204,1.7412 9.3333,1.5622 4.2658,-0.5401 16.7347,1.6257 25.3751,4.4076 5.9023,1.9003 11.3989,2.5638 20,2.4143 14.5199,-0.2525 21.6217,0.4546 25.4399,2.5328 1.6017,0.8719 4.4912,1.5852 6.4209,1.5852 3.9459,0 7.8867,1.8361 11.8341,5.5137 1.8175,1.6933 4.6628,2.4863 8.9207,2.4863 3.9308,0 6.8683,0.7426 7.9119,2 1.1864,1.4296 4.3704,2.0084 11.1632,2.0293 6.5692,0.02 11.2981,0.8436 15.3157,2.6667 4.4103,2.0012 8.7521,2.6444 18,2.6666 9.2479,0.022 13.5897,0.6655 18,2.6667 3.1968,1.4505 6.5573,2.6374 7.4681,2.6374 0.9107,0 4.3168,1.4149 7.5694,3.1442 4.079,2.1689 7.283,2.9433 10.3288,2.4962 4.8198,-0.7074 12.1564,1.103 21.4881,5.3026 7.6351,3.4361 17.1817,6.3573 20.8368,6.3759 1.5601,0.01 3.5143,0.8309 4.3425,1.8288 1.042,1.2556 6.2179,2.0224 16.8052,2.4896 13.9254,0.6146 15.7128,0.9905 19.9019,4.1856 2.5313,1.9307 5.59,3.5104 6.7972,3.5104 1.2072,0 6.0055,1.5245 10.6628,3.3877 4.6572,1.8632 13.0433,3.9008 18.6357,4.5279 5.5924,0.6272 11.1843,2.0182 12.4263,3.0911 2.8877,2.4946 13.5427,5.1051 17.0708,4.1825 1.5752,-0.4119 3.4333,0.1671 4.4439,1.3848 1.1636,1.402 3.9933,2.0943 8.5734,2.0977 4.2952,0 8.3388,0.9209 10.8771,2.4688 2.2223,1.3552 7.2107,2.7685 11.0856,3.1409 4.2681,0.4101 8.5905,1.8195 10.9657,3.5755 3.2759,2.4219 5.5091,2.8575 13.5811,2.6486 13.4869,-0.349 31.6408,1.5077 35.9277,3.6746 1.9803,1.0009 5.959,1.8199 8.8414,1.8199 2.8824,0 9.0622,1.438 13.7328,3.1957 18.1009,6.8115 30.2406,10.2844 40.4921,11.584 5.8667,0.7437 13.6256,2.2226 17.242,3.2863 3.6164,1.0637 9.4324,1.934 12.9244,1.934 4.6528,0 6.8145,0.6572 8.0913,2.46 1.4131,1.995 4.1771,2.6035 14.626,3.2195 12.6918,0.7483 22.6707,3.7199 27.7343,8.2589 1.1268,1.01 5.9487,2.8316 10.7153,4.0479 4.7667,1.2163 11.0667,3.5911 14,5.2773 3.959,2.2758 8.0918,3.2199 16.0368,3.6635 9.3247,0.5206 11.7702,1.2228 18.9844,5.4509 4.5546,2.6693 13.538,6.6237 19.9632,8.7874 6.4252,2.1638 13.4823,4.8831 15.6823,6.0428 2.5545,1.3467 7.4253,2.1117 13.4789,2.1169 7.9876,0.01 11.0486,0.7335 19.4562,4.6181 5.4876,2.5353 10.7181,5.5024 11.6236,6.5934 0.9054,1.091 4.7501,3.8994 8.5438,6.241 3.7936,2.3416 9.8975,6.2333 13.5642,8.6484 3.6666,2.415 8.4666,4.8196 10.6666,5.3436 2.2,0.5239 5.5,1.9567 7.3334,3.184 1.8333,1.2272 6.9057,3.5661 11.272,5.1975 4.3661,1.6314 11.8661,5.5501 16.6666,8.7082 4.8004,3.158 10.6535,6.7343 13.0067,7.9473 2.3533,1.213 5.6789,3.6056 7.3903,5.3169 1.7113,1.7113 6.0858,4.166 9.7212,5.4548 10.3802,3.68 18.3985,7.6106 20.9952,10.292 1.3118,1.3547 3.4688,2.463 4.7933,2.463 1.3244,0 3.494,1.2 4.8213,2.6667 1.3274,1.4667 3.5392,2.6667 4.9152,2.6667 1.376,0 2.8366,0.8723 3.2458,1.9385 0.9704,2.529 9.259,7.3948 12.5965,7.3948 1.4327,0 5.1484,1.1516 8.2571,2.5591 3.1086,1.4075 7.1521,2.9805 8.9854,3.4955 1.8334,0.515 6.4218,3.4134 10.1964,6.4409 3.7747,3.0275 10.2247,8.1442 14.3334,11.3704 4.1086,3.2263 7.4702,6.5634 7.4702,7.4159 0,2.9057 7.6292,7.1983 20.2047,11.3683 l 12.5565,4.1636 11.6195,12.6224 c 6.3907,6.9423 11.6193,13.2306 11.6193,13.9739 0,0.7433 2.55,2.4477 5.6667,3.7875 3.1167,1.3399 8.212,4.4685 11.3231,6.9526 3.111,2.4841 7.5057,5.9492 9.7658,7.7001 2.2602,1.7509 5.5774,5.3509 7.3716,8 12.0924,17.8529 20.082,23.9471 32.9691,25.1478 6.4969,0.6052 8.1229,1.2896 9.9692,4.1959 1.2135,1.91 2.5895,3.7728 3.058,4.1394 0.4684,0.3667 2.0684,3.0667 3.5556,6 1.4871,2.9334 3.9685,6.4772 5.5144,7.8752 1.5459,1.398 4.6089,6.348 6.8069,11 2.1979,4.652 4.8298,8.4582 5.8483,8.4582 1.0187,0 4.9723,2.1463 8.7859,4.7695 3.8134,2.6233 8.955,5.0976 11.4257,5.4985 5.7289,0.9297 7.7388,3.2478 11.0679,12.765 1.4813,4.2349 4.7677,10.5349 7.3033,14 2.5356,3.4652 5.5124,8.4003 6.6153,10.967 1.265,2.9441 5.5243,7.3735 11.5391,12 5.2436,4.0333 11.4568,8.8488 13.8073,10.7011 2.3504,1.8523 5.8356,4.1567 7.7448,5.1208 2.2806,1.1516 4.5242,4.3416 6.5402,9.2989 1.6877,4.1502 4.4317,9.9459 6.0976,12.8792 1.666,2.9334 4.0925,8.0334 5.3924,11.3334 2.4486,6.2164 17.5694,22.9604 23.3266,25.8307 1.7202,0.8576 3.6498,3.3465 4.2882,5.5309 0.6382,2.1845 3.7981,11.4731 7.0221,20.6414 3.2239,9.1683 5.8616,18.0842 5.8616,19.813 0,3.505 10.628,15.8956 18.7975,21.9149 5.8352,4.2995 6.0265,4.7923 7.2073,18.5669 0.8044,9.3837 1.3536,10.8894 6.1872,16.9601 6.6948,8.40832 7.9477,12.65312 7.8932,26.74212 -0.024,6.2333 0.3985,12.0289 0.9393,12.879 0.5408,0.8501 3.5491,2.5722 6.685,3.827 3.1358,1.2547 6.2737,3.3503 6.9729,4.6568 0.6992,1.3065 1.2463,7.3843 1.2156,13.5063 -0.069,13.8497 3.0875,29.2636 6.8367,33.382 10.0184,11.0046 21.3492,33.3122 22.2214,43.7489 0.9206,11.0143 9.0435,33.6409 14.36,40 1.096,1.311 1.9224,8.8967 2.3988,22.0189 0.8643,23.8103 4.3075,40.0772 11.0486,52.1978 5.9614,10.7188 6.1876,17.8658 0.7745,24.4796 -2.0875,2.5504 -4.4875,5.9476 -5.3333,7.5494 -2.275,4.3079 -1.9384,21.1123 0.5178,25.8623 1.8616,3.6 5.9982,16.1287 10.4898,31.7709 1.6538,5.7602 1.6069,5.9514 -2.3239,9.4635 -3.7449,3.3461 -4.0515,4.3415 -4.6091,14.9649 -0.4325,8.241 0,13.1707 1.5522,17.8699 1.1822,3.5692 2.6782,11.7305 3.3246,18.1363 1.4606,14.4764 -0.3361,48.494 -3.082,58.3532 -2.8398,10.1965 -2.579,15.4109 1.2338,24.6666 5.49,13.3271 3.9254,21.8038 -4.9443,26.7884 -1.1859,0.6664 -5.1736,7.2416 -8.8617,14.6116 -6.2167,12.4231 -6.8506,14.6103 -8.694,30 -1.4192,11.8462 -3.179,19.6434 -6.1452,27.2268 -2.2862,5.8448 -4.6423,11.2448 -5.2359,12 -0.5936,0.7554 -1.8372,3.7732 -2.7636,6.7066 -0.9264,2.9333 -3.4264,9.2145 -5.5557,13.9584 -2.1294,4.7437 -4.7923,13.0828 -5.9176,18.5313 -1.2622,6.1105 -3.9258,13.1331 -6.9514,18.3275 -8.2474,14.159 -20.3709,31.529 -26.4281,37.865 -4.4851,4.6915 -6.9591,9.2408 -11.2392,20.6667 -3.0184,8.0581 -6.8321,16.1511 -8.4748,17.9844 -1.6427,1.8333 -4.5589,6.6371 -6.4805,10.6749 -1.9216,4.0379 -6.2122,10.526 -9.5344,14.4183 -8.428,9.8736 -15.4671,25.2301 -16.5486,36.1027 -0.9644,9.694 0.23,8.5396 -16.5628,16.0089 -6.7668,3.0097 -9.607,5.1052 -11.3333,8.3609 -1.2669,2.3895 -4.8913,6.7647 -8.0544,9.7227 -15.0869,14.1092 -29.5284,29.3623 -30.8728,32.608 -0.8191,1.9775 -3.4139,4.7195 -5.7661,6.0933 -2.3523,1.3738 -8.1768,5.5884 -12.9435,9.3658 -8.5635,6.7862 -14.664,10.4222 -24.2563,14.457 -2.8566,1.2016 -7.2673,5.0332 -10.5088,9.1291 -5.3853,6.8051 -7.1444,10.0191 -10.6406,19.4427 -2.0854,5.6204 -4.9188,7.0553 -16.4979,8.3545 -6.002,0.6733 -12.58,2.5559 -18.0964,5.1789 -4.7667,2.2666 -10.9136,4.4886 -13.66,4.9376 -3.7032,0.6058 -6.4796,2.45 -10.7465,7.1387 -3.1643,3.4771 -7.3632,7.1655 -9.3311,8.1965 -1.9677,1.031 -4.9317,4.5579 -6.5867,7.8375 -4.1805,8.2844 -7.3342,9.6097 -20.5709,8.6444 -9.7147,-0.7084 -11.7688,-0.4268 -18.9597,2.5999 -5.2522,2.2106 -10.5552,3.3944 -15.2059,3.3944 -5.9319,0 -7.6823,0.5761 -10.3375,3.4025 -1.7581,1.8713 -5.7488,4.5315 -8.8681,5.9113 -3.1195,1.3799 -7.9928,4.9487 -10.8296,7.9308 -2.8368,2.9822 -6.3007,5.4074 -7.6976,5.3895 -5.0984,-0.065 -14.5616,-2.844 -16.9031,-4.9629 -2.1454,-1.9416 -3.5032,-1.9896 -12.6778,-0.448 -5.6514,0.9496 -14.3134,1.665 -19.2491,1.59 l -8.9739,-0.1367 -8.6778,8.5507 c -11.42,11.2525 -13.1391,11.5824 -29.3914,5.641 -3.9729,-1.4524 -10.4346,-1.8668 -25.3333,-1.6249 -21.7608,0.3532 -24.2155,1.0776 -35.0464,10.3432 -6.8915,5.8955 -13.752,5.2701 -24.7427,-2.2553 z m 7.1224,-333.9669 c 14.5942,-0.8329 23.2132,-1.9957 29.3334,-3.9573 4.7666,-1.5278 15.107,-4.249 22.9786,-6.0471 17.4983,-3.9972 20.794,-5.6312 25.733,-12.758 l 3.8694,-5.5837 9.8231,0.8901 c 16.1044,1.4593 20.6207,-1.1964 24.2,-14.2305 0.9549,-3.4772 3.1311,-7.8272 4.8357,-9.6667 2.6844,-2.8965 4.2379,-3.3444 11.6012,-3.3444 7.3062,0 9.3939,-0.5909 14.8447,-4.2013 7.018,-4.6486 12.2827,-11.641 13.5552,-18.0035 0.796,-3.9799 1.1603,-4.1857 8.3623,-4.7247 9.476,-0.7092 17.1858,-5.3958 23.628,-14.3628 2.8176,-3.922 8.1125,-8.7066 13.1689,-11.9001 10.6713,-6.7396 13.7808,-11.1127 15.1808,-21.3505 1.1281,-8.2487 5.0513,-15.4179 15.7971,-28.8671 5.8854,-7.3661 9.6874,-16.1813 9.7429,-22.59 0.028,-3.2021 1.6379,-8.472 4.0293,-13.1879 4.4306,-8.7369 4.6944,-11.2077 2.3892,-22.3685 -1.4884,-7.2061 -1.4066,-7.9176 1.2344,-10.7469 1.5558,-1.6666 3.238,-4.68 3.7386,-6.6967 0.5005,-2.0167 1.7722,-3.6667 2.8261,-3.6667 1.0537,0 3.436,-1.52 5.2937,-3.3777 l 3.3776,-3.3776 -0.9474,-17.8793 -0.9475,-17.8794 5.0193,-4.7338 c 4.611,-4.3487 4.9592,-5.1816 4.2811,-10.2376 -0.4785,-3.5684 -2.1255,-6.9708 -4.6835,-9.6759 -8.4885,-8.9765 -8.92,-13.3981 -1.5936,-16.3296 6.6895,-2.6765 11.9951,-8.8307 11.9951,-13.9133 0,-2.8651 -1.8991,-5.8586 -7.3333,-11.5594 -8.2547,-8.6596 -9.1156,-12.3169 -4.1498,-17.6301 6.1672,-6.5988 5.2275,-13.1096 -2.5169,-17.4363 l -4,-2.2346 0.3995,-18.607 c 0.2268,-10.566 -0.1923,-20.1632 -0.9698,-22.2081 -0.8206,-2.1587 -3.3841,-4.5329 -6.3994,-5.9273 -6.0014,-2.7754 -6.9814,-3.9387 -7.0148,-8.3263 -0.013,-1.8333 -1.2232,-5.2979 -2.6871,-7.6989 -1.464,-2.4011 -2.6617,-5.2808 -2.6617,-6.3995 0,-3.5381 -3.6495,-9.2635 -7.0727,-11.0955 -2.3039,-1.2329 -3.5455,-3.3008 -4.1129,-6.8497 -0.4472,-2.796 -2.847,-7.7481 -5.3328,-11.0049 -2.4859,-3.2567 -4.9646,-7.3531 -5.508,-9.1031 -2.1636,-6.9674 -8.7379,-18.3983 -12.1043,-21.0463 -1.9641,-1.545 -5.5112,-2.8021 -7.9065,-2.8021 -5.1284,0 -5.961,-1.5496 -5.9678,-11.1091 -0.013,-11.8199 -8.2441,-20.8752 -18.995,-20.8859 -4.6838,-0.01 -5,-0.2623 -5,-4.0712 0,-5.0464 -2.6771,-10.3434 -7.2063,-14.2583 -2.7805,-2.4036 -3.4604,-4.1842 -3.4604,-9.0637 0,-7.377 -3.8003,-11.5735 -12.4544,-13.7526 -6.4268,-1.6183 -9.5719,-4.4588 -10.9205,-9.8632 -0.5039,-2.0188 -2.6967,-5.1688 -4.873,-7 -3.231,-2.7187 -5.3852,-3.3294 -11.7453,-3.3294 -10.9303,0 -12.1157,-0.6228 -10.4237,-5.4767 1.9568,-5.613 -0.495,-10.5946 -9.0722,-18.4336 -7.4773,-6.8338 -18.3596,-11.6188 -23.0434,-10.1322 -1.8328,0.5817 -2.8248,0.067 -3.4068,-1.7664 -1.6134,-5.083 -8.5534,-13.1916 -12.0394,-14.0665 -2.1864,-0.5488 -5.1236,-0.104 -7.6558,1.1592 -2.2598,1.1273 -5.048,2.0496 -6.1964,2.0496 -1.1483,0 -7.2062,-5.4503 -13.4618,-12.1117 -11.8337,-12.60132 -14.3494,-13.87432 -22.3804,-11.32542 -2.0824,0.6609 -2.9936,0.4082 -2.9936,-0.8305 0,-2.6768 -11.9102,-16.4803 -18.1362,-21.0192 -3.8411,-2.8002 -8.3038,-4.4735 -14.988,-5.6197 -8.9179,-1.5292 -9.7504,-1.4594 -13.1971,1.1067 -2.0232,1.5064 -4.1088,4.1776 -4.6345,5.936 -5.7178,19.1231 -8.138,30.57672 -8.987,42.53042 -1.1325,15.945 -3.4606,21.8529 -12.4588,31.6146 -6.7081,7.2775 -7.1144,12.4075 -1.7765,22.4347 4.5941,8.63 4.7996,17.6091 0.4955,21.6526 -1.6588,1.5584 -6.5883,3.7638 -10.9543,4.9011 -4.3661,1.1372 -8.6504,2.8168 -9.5207,3.7323 -2.156,2.2686 -9.8424,21.9038 -9.8424,25.1431 0,4.5764 -6.4804,15.5942 -10.6052,18.0308 -6.5093,3.8451 -8.47,10.682 -8.7456,30.496 -0.1906,13.7061 -0.7409,18.3047 -2.6266,21.9513 -1.312,2.537 -4.6731,11.0258 -7.4691,18.864 -6.9603,19.512 -11.3985,26.2194 -23.6481,35.7386 -16.9042,13.1366 -16.2348,12.2426 -16.268,21.7267 -0.04,11.5395 -3.287,18.1335 -12.1784,24.7349 -12.4386,9.235 -12.3936,9.1392 -11.9894,25.506 0.3154,12.7652 0,15.1904 -2.8749,21.677 -2.5168,5.6909 -4.6685,8.2278 -9.7456,11.4901 -3.5837,2.3027 -7.7459,5.0512 -9.2495,6.1079 -4.7334,3.3265 -5.7364,9.962 -4.9465,32.7246 0.6911,19.9126 0.5659,21.4715 -2.0661,25.7302 -1.5411,2.4933 -3.1815,6.9074 -3.6455,9.809 -1.0031,6.2726 2.0867,11.0879 9.8512,15.3528 11.542,6.34 18.6856,12.9839 16.9609,15.7746 -0.3982,0.6444 -2.7877,1.5586 -5.31,2.0318 -11.2526,2.1111 -16.885,14.6836 -9.2637,20.6786 1.9321,1.5198 4.5821,2.7634 5.8888,2.7634 3.8713,0 3.7539,3.0175 -0.3149,8.0943 -6.1366,7.6565 -8.1782,25.8489 -4.4662,39.7965 2.384,8.9579 4.4106,11.0451 11.664,12.0131 l 5.7151,0.7628 0.6716,7.5321 c 0.7199,8.0731 3.4031,12.3623 8.5399,13.6515 3.6548,0.9173 6.1218,8.0811 6.1218,17.7764 0,9.5309 4.0427,13.7067 13.2698,13.7067 h 6.7302 l 0.047,7 c 0.025,3.85 0.9048,8.5 1.9528,10.3333 2.7661,4.8389 2.4383,13.3639 -0.6667,17.3333 -3.6333,4.645 -3.3609,10.0936 0.7078,14.1623 3.1354,3.1355 3.9677,3.3109 11.7509,2.4775 7.806,-0.836 8.8117,-0.621 14.7693,3.1572 9.3412,5.9241 13.067,6.392 19.7978,2.4865 5.2348,-3.0373 6.008,-3.144 10.7393,-1.4807 2.8041,0.9859 6.9004,3.3087 9.1028,5.1619 5.0709,4.2669 9.7547,5.4539 13.9599,3.5379 1.8137,-0.8264 7.1092,-1.5026 11.7677,-1.5026 7.8099,0 9.0233,0.4158 15.5681,5.3334 8.1342,6.1118 7.3502,6.0374 42.5031,4.0309 z"
       id="path189" />
  </g>
</svg>
