<?xml version="1.0" encoding="UTF-8" standalone="no"?>
<!-- Created with Inkscape (http://www.inkscape.org/) -->

<svg
   version="1.1"
   id="svg59"
   width="2132.4331"
   height="1136.5662"
   viewBox="0 0 2132.4331 1136.5662"
   sodipodi:docname="Ephemera_danica.svg"
   inkscape:version="1.2.2 (732a01da63, 2022-12-09)"
   xmlns:inkscape="http://www.inkscape.org/namespaces/inkscape"
   xmlns:sodipodi="http://sodipodi.sourceforge.net/DTD/sodipodi-0.dtd"
   xmlns="http://www.w3.org/2000/svg"
   xmlns:svg="http://www.w3.org/2000/svg">
  <defs
     id="defs63" />
  <sodipodi:namedview
     id="namedview61"
     pagecolor="#505050"
     bordercolor="#eeeeee"
     borderopacity="1"
     inkscape:showpageshadow="0"
     inkscape:pageopacity="0"
     inkscape:pagecheckerboard="0"
     inkscape:deskcolor="#505050"
     showgrid="false"
     inkscape:zoom="0.62099998"
     inkscape:cx="1028.9855"
     inkscape:cy="912.23835"
     inkscape:window-width="3840"
     inkscape:window-height="2054"
     inkscape:window-x="-11"
     inkscape:window-y="-11"
     inkscape:window-maximized="1"
     inkscape:current-layer="g65" />
  <g
     inkscape:groupmode="layer"
     inkscape:label="Image"
     id="g65"
     transform="translate(-295.84596,-107.16018)">
    <path
       style="fill:#000000;stroke-width:1.33333"
       d="m 2125.2895,1241.9702 c -0.46,-1.199 -0.2882,-3.1598 0.3819,-4.3573 2.1583,-3.8566 -7.2089,-14.7967 -12.7427,-14.8825 -2.705,-0.042 -11.1381,-8.1093 -11.1381,-10.6551 0,-0.6516 -1.4159,-2.8807 -3.1464,-4.9536 -1.9977,-2.393 -3.4136,-6.2029 -3.8783,-10.4357 -1.6825,-15.3265 -3.9676,-29.5086 -5.1613,-32.0331 -0.7021,-1.4849 -2.4135,-10.1849 -3.8029,-19.3334 -6.7452,-44.4119 -8.4347,-52.3706 -13.5886,-64.0141 l -3.857,-8.7139 -16.2238,1.8911 c -16.1008,1.8768 -16.2381,1.8696 -18.1121,-0.9527 -1.0385,-1.5641 -2.4,-2.8439 -3.0255,-2.8439 -0.6256,0 -4.9358,-1.7397 -9.5784,-3.866 -4.6425,-2.1264 -15.9076,-6.3831 -25.0333,-9.4594 -9.1259,-3.0763 -17.1624,-6.1366 -17.8591,-6.8006 -0.6966,-0.664 -2.7224,-1.2073 -4.5017,-1.2073 -3.8217,0 -16.1837,-6.0786 -25.1769,-12.3798 -3.5134,-2.4617 -9.2831,-6.1668 -12.8216,-8.2335 -6.3668,-3.7186 -6.4659,-3.7315 -9.5378,-1.2388 -1.7072,1.3853 -8.5037,7.0188 -15.1033,12.5188 -6.5997,5.5 -14.7577,11.6269 -18.1291,13.6153 -3.8693,2.2823 -6.1296,4.5508 -6.1296,6.1522 0,1.7593 -1.7505,3.2054 -5.7112,4.718 -7.0468,2.6912 -7.6236,2.6925 -14.274,0.032 -3.6049,-1.4425 -5.6366,-3.2027 -6.1757,-5.3504 -0.4419,-1.7604 -1.6639,-3.6823 -2.7155,-4.2708 -1.7206,-0.9629 -2.5213,-4.0282 -2.9716,-11.3769 -0.1461,-2.3849 -0.2424,-2.3809 -2.4853,0.1024 -4.0308,4.4628 -16.7996,13.3206 -21.6724,15.0343 -3.1104,1.0938 -6.1744,3.8218 -9.1656,8.1604 -2.6287,3.8129 -5.5116,6.5173 -6.9473,6.5173 -1.3499,0 -3.1238,1.251 -3.942,2.78 -2.2542,4.2119 -11.5234,7.8239 -20.1636,7.8574 -8.943,0.035 -11.7758,-0.848 -11.7758,-3.6689 0,-1.1438 -0.4013,-1.6783 -0.8917,-1.1878 -0.4905,0.4905 -1.9464,-0.062 -3.2353,-1.229 -1.2888,-1.1664 -8.3936,-4.1306 -15.7884,-6.5871 -11.608,-3.856 -14.371,-4.3199 -20.2216,-3.3951 -13.864,2.1917 -16.4468,9.3758 -15.1344,42.0972 0.9106,22.7052 -1.1568,64.2949 -3.3028,66.4409 -0.7842,0.7842 -1.4258,2.5087 -1.4258,3.8323 0,1.3236 -1.4002,5.3091 -3.1117,8.8568 l -3.1117,6.4502 3.347,3.8766 3.3471,3.8765 -4.9951,0.4194 c -5.6374,0.4733 -8.8089,-1.4754 -8.8089,-5.4126 0,-2.0797 -0.3939,-2.3398 -1.7893,-1.1816 -0.9842,0.8167 -2.2342,1.0402 -2.7778,0.4966 -0.5437,-0.5437 -0.7885,-0.1027 -0.544,0.9799 0.2744,1.2154 -0.7506,2.1496 -2.68,2.4424 -2.725,0.4134 -3.0025,0.077 -2.1702,-2.6351 0.5249,-1.7099 1.6074,-3.923 2.4057,-4.9179 0.7984,-0.9948 2.0868,-3.083 2.8632,-4.6404 0.7764,-1.5573 2.7916,-3.5195 4.4783,-4.3603 7.2684,-3.6237 8.076,-7.2904 8.0445,-36.5237 -0.033,-30.7865 -0.043,-31.1445 -1.4115,-52 -1.4718,-22.4312 -1.3228,-21.9687 -6.2588,-19.4162 -3.3165,1.7151 -9.2904,3.4177 -19.0461,5.4284 -1.2207,0.2516 -11.5504,5.0017 -22.9551,10.5559 -19.4738,9.484 -27.5537,11.9019 -29.4608,8.8161 -0.461,-0.7461 -2.0273,-0.825 -3.7453,-0.1888 -5.5543,2.057 -24.2789,4.0338 -45.6195,4.816 -29.3577,1.0761 -37.595,1.7277 -45.3333,3.5864 -10.0612,2.4166 -26.9792,2.1542 -33.4979,-0.5195 l -5.4978,-2.255 -6.5022,6.6986 c -11.2297,11.5689 -12.7698,12.8649 -19.0457,16.0253 -3.3677,1.6959 -6.4491,3.5264 -6.8476,4.0678 -0.3985,0.5414 -1.8985,1.1827 -3.3333,1.4251 -1.4348,0.2425 -4.7088,1.5785 -7.2755,2.969 -7.4863,4.0557 -24.2748,10.7574 -36.4676,14.5575 -14.3085,4.4594 -27.6468,9.9701 -24.3101,10.0437 8.4108,0.1855 -14.9043,5.8515 -33.2223,8.0736 -7.3333,0.8896 -15.4333,2.2595 -18,3.0442 -5.5497,1.6967 -7.8167,2.0454 -16.8236,2.5875 -4.8188,0.29 -8.394,1.4988 -12.1683,4.1144 -3.9853,2.7618 -6.2341,3.4804 -8.8429,2.8256 -1.9243,-0.4829 -3.4985,-1.413 -3.4985,-2.0668 0,-0.6539 -0.8646,-1.1888 -1.9214,-1.1888 -3.8351,0 -3.8148,-3.1235 0.041,-6.2866 2.1341,-1.7507 5.4717,-4.5884 7.4168,-6.3059 3.3542,-2.9617 15.6674,-5.8026 25.1301,-5.7979 1.8333,9e-4 5.7333,-0.6969 8.6667,-1.5507 7.3545,-2.1406 10.8997,-2.7777 18.8746,-3.3917 10.1846,-0.7841 29.7466,-6.3217 42.4587,-12.0193 2.2,-0.986 9.7,-3.6688 16.6667,-5.9617 13.0032,-4.2798 24.3236,-9.2475 25.111,-11.0196 0.2446,-0.55 1.2162,-1 2.1592,-1 1.3659,0 13.829,-8.9167 16.7298,-11.9693 0.3666,-0.3859 2.2506,-1.5167 4.1865,-2.5129 1.936,-0.9962 4.2873,-3.2452 5.2253,-4.9979 0.938,-1.7526 2.4399,-3.1865 3.3375,-3.1865 0.8976,0 1.9753,-0.8946 2.3948,-1.988 0.4196,-1.0933 5.2487,-4.2075 10.7312,-6.9203 5.4827,-2.7129 9.6681,-5.4183 9.3012,-6.0121 -0.3669,-0.5938 -5.1025,-1.0796 -10.5235,-1.0796 -9.3926,0 -20.0873,-2.021 -27.3197,-5.1627 -1.8333,-0.7963 -8.4333,-2.028 -14.6667,-2.7371 -30.6102,-3.4818 -40.9193,-6.0982 -55.0296,-13.9666 -4.6724,-2.6055 -13.5514,-5.8699 -20.3037,-7.4648 -26.8912,-6.3515 -44.3929,-11.1046 -51.3333,-13.941 -4.0334,-1.6483 -12.4334,-4.551 -18.6667,-6.4503 -6.2332,-1.8994 -16.3247,-4.9888 -22.4255,-6.8655 -6.1007,-1.8766 -12.0535,-3.412 -13.2283,-3.412 -1.1749,0 -3.0834,-0.8238 -4.2412,-1.8307 -1.1577,-1.0068 -6.6049,-3.145 -12.1049,-4.7514 -5.5,-1.6064 -19,-5.8719 -30,-9.4789 -11,-3.607 -25.4,-8.1139 -32,-10.0153 -11.4153,-3.28863 -33.8643,-13.04853 -35.376,-15.37993 -0.9153,-1.4115 -17.8884,-10.7318 -23.9574,-13.1555 -2.5666,-1.025 -18.8237,-8.8067 -36.1268,-17.2926 -17.3033,-8.486 -38.4511,-18.729 -46.9952,-22.7624 -8.5442,-4.0333 -15.5371,-7.7833 -15.5399,-8.3333 0,-0.55 -0.6379,-1 -1.4115,-1 -0.7736,0 -4.8236,-2.2902 -9,-5.0894 -7.2923,-4.8875 -22.0848,-12.3796 -37.5935,-19.0403 -15.6752,-6.7321 -51.2152,-25.3273 -56.4704,-29.5463 -5.3635,-4.3059 -17.447,-11.5424 -30.6255,-18.3407 -8.4003,-4.3334 -9.8786,-6.1167 -7.8126,-9.4249 1.1938,-1.9116 1.2188,-3.1652 0.099,-4.9585 -1.9961,-3.1963 -13.2894,-10.3202 -31.19034,-19.6752 -8.06667,-4.2156 -19.46667,-10.3501 -25.33333,-13.6323 -5.86667,-3.2821 -14.26667,-7.9563 -18.66667,-10.387 -4.4,-2.4308 -15.01172,-8.5039 -23.5816,-13.4958 -8.56983,-4.992 -20.74376,-12.0763 -27.05314,-15.7429 -18.6478,-10.8371 -55.87014,-32.6721 -58.03188,-34.0421 -1.1,-0.6971 -4.7,-2.7733 -8,-4.6138 -3.3,-1.8405 -11.7,-6.9104 -18.66666,-11.2666 -6.96667,-4.3561 -18.06667,-10.9828 -24.66667,-14.7259 -6.6,-3.7432 -17.4,-10.3534 -24,-14.6895 -6.6,-4.336 -13.63217,-8.815 -15.62705,-9.9534 -1.99488,-1.1382 -9.71718,-6.1134 -17.16066,-11.0558 -7.44349,-4.9425 -15.41132,-10.1356 -17.70629,-11.5404 -2.29496,-1.4048 -11.97267,-7.6506 -21.506,-13.8796 -9.53333,-6.229 -20.93333,-13.6157 -25.33333,-16.415 -4.40001,-2.7992 -11.60001,-7.5568 -16.00001,-10.5722 -18.03254,-12.3585 -24.27965,-16.3905 -45.33333,-29.2592 -5.13333,-3.1377 -9.63333,-6.1286 -10,-6.6464 -0.36667,-0.5178 -3.36667,-2.6199 -6.66667,-4.6712 -14.92789,-9.2794 -42.57416,-27.6692 -48.23992,-32.0883 -3.43196,-2.6768 -7.88887,-5.7224 -9.90423,-6.768 -2.01538,-1.0456 -6.70742,-4.2917 -10.42675,-7.2136 -6.09887,-4.7913 -21.19097,-15.2667 -44.42911,-30.8381 -4.58333,-3.0712 -8.33333,-6.3949 -8.33333,-7.386 0,-2.1731 1.19579,-1.6025 17.08477,8.1527 6.09664,3.7431 12.99664,7.9657 15.33334,9.3835 6.38564,3.8744 40.15767,25.8999 69.64662,45.4222 14.4004,9.5333 27.17691,17.9305 28.39224,18.6603 1.21533,0.7299 5.24071,3.5095 8.94525,6.1769 3.70456,2.6674 9.70456,6.4211 13.33334,8.3416 3.62878,1.9204 12.11388,7.2408 18.85576,11.8231 6.74188,4.5823 15.09086,10.1314 18.55329,12.3314 16.2678,10.3365 19.33284,12.3144 26.02598,16.7955 14.93877,10.0015 37.96073,24.8397 41.16276,26.5304 1.83333,0.968 9.93333,6.0548 18,11.3041 8.06666,5.2492 22.16666,14.2445 31.33333,19.9896 9.16667,5.745 19.66667,12.3469 23.33333,14.6709 12.4332,7.8802 21.31118,13.1332 28.66667,16.9617 7.29635,3.7976 12.43241,6.7855 21.33333,12.4106 8.49902,5.3711 36.4965,21.5416 47.33334,27.3383 5.86666,3.1381 11.26666,6.1577 12,6.7102 1.72909,1.3027 9.79293,5.8462 20.66666,11.6443 12.53098,6.6818 18.24474,9.8981 29.40745,16.5533 30.76149,18.3401 60.93931,33.605 64.91961,32.8385 1.6532,-0.3184 0.4875,-1.5972 -4.0389,-4.4308 -15.6428,-9.7926 -56.55059,-37.1083 -59.04075,-39.4238 -1.51394,-1.4077 -3.23355,-2.5594 -3.82136,-2.5594 -0.58783,0 -3.84916,-1.95 -7.2474,-4.3334 -3.39826,-2.3833 -7.18223,-4.9333 -8.40884,-5.6666 -4.1573,-2.4855 -28.40214,-19.3717 -34.43647,-23.9846 -3.3,-2.5226 -9.9,-7.3097 -14.66667,-10.6379 -4.76667,-3.3282 -11.06667,-7.7621 -14,-9.853 -2.93333,-2.0909 -9.53333,-6.4351 -14.66667,-9.6537 -5.13333,-3.2187 -10.53333,-6.9572 -12,-8.308 -1.46666,-1.3507 -8.36666,-6.3476 -15.33333,-11.1041 -18.14096,-12.3858 -25.68469,-17.5891 -28.23271,-19.4739 -1.228,-0.9083 -5.6415,-4.0515 -9.8078,-6.9848 -4.16629,-2.9334 -10.66157,-7.7755 -14.43394,-10.7604 -3.77239,-2.9848 -10.45888,-7.9401 -14.85888,-11.0118 -10.0506,-7.0164 -19.36686,-13.8668 -29.32196,-21.5612 -4.26962,-3.3 -10.01166,-7.5965 -12.76007,-9.5478 -2.74843,-1.9513 -8.50432,-6.2989 -12.79089,-9.6615 -4.28656,-3.3625 -10.49375,-8.195 -13.79375,-10.739 -18.68873,-14.407 -23.82861,-18.4423 -28.49515,-22.3718 -2.839,-2.3906 -8.35196,-6.7466 -12.251,-9.6799 -17.21821,-12.9536 -22.93263,-17.406 -28.08984,-21.8863 -3.02647,-2.6292 -9.53948,-7.7804 -14.47336,-11.447 -4.93368,-3.6672 -11.51847,-8.7672 -14.63265,-11.3339 -3.11419,-2.5666 -11.80795,-9.4666 -19.31948,-15.3333 -7.51152,-5.8667 -15.01283,-11.8667 -16.66956,-13.3333 -1.65674,-1.4667 -10.69235,-8.6667 -20.07915,-16 -9.3868,-7.3334 -20.12453,-15.8764 -23.8616,-18.9845 -3.73708,-3.1081 -10.09469,-8.1868 -14.12802,-11.2859 -4.03334,-3.0991 -9.78176,-7.7561 -12.77427,-10.3488 -2.99252,-2.5928 -9.4856,-8.0142 -14.42908,-12.0475 -19.18472,-15.6526 -28.40781,-23.587 -34.87256,-30 -3.69628,-3.6667 -8.45347,-7.8293 -10.57153,-9.2503 -2.11808,-1.4209 -3.17543,-2.8088 -2.34967,-3.084 1.54437,-0.5148 3.62653,0.9498 29.483,20.7379 8.33391,6.378 17.33391,13.032 20,14.7867 2.66609,1.7547 7.30091,5.3547 10.29959,8 2.99869,2.6453 11.28576,9.3097 18.41572,14.8097 7.12997,5.5 22.31194,17.5 33.73774,26.6667 11.42579,9.1666 23.53871,18.7074 26.91761,21.2017 3.3789,2.4943 8.68006,6.8443 11.78034,9.6667 3.10028,2.8224 6.13613,5.1316 6.74636,5.1316 0.61021,0 4.21077,2.55 8.00125,5.6666 3.79048,3.1167 11.19147,8.9667 16.44664,13 5.25517,4.0334 11.71801,9.1831 14.36187,11.4438 2.64385,2.2608 8.1077,6.5194 12.14192,9.4637 4.0342,2.9442 8.19049,6.3841 9.23621,7.6441 1.04572,1.26 3.63085,3.1853 5.74473,4.2784 2.1139,1.0932 6.16394,4.084 9.0001,6.6463 2.83616,2.5623 6.94941,5.9783 9.14057,7.5912 2.19116,1.6129 8.62246,6.5325 14.29176,10.9325 5.66931,4.4 13.45659,10.4 17.30507,13.3334 3.84848,2.9333 11.61276,8.9333 17.25395,13.3333 5.6412,4.4 11.94472,9.2 14.00782,10.6667 2.06311,1.4667 9.6612,7.1166 16.88466,12.5554 22.17832,16.699 29.18332,21.8548 39.09924,28.7779 5.25176,3.6667 13.55792,9.5472 18.45814,13.0678 4.90023,3.5207 12.8095,9.1156 17.57616,12.4331 4.76667,3.3176 16.76667,11.6774 26.66667,18.5773 26.00632,18.1256 87.32964,59.2552 88.34815,59.2552 0.47672,0 3.07713,1.5 5.77871,3.3333 5.84717,3.968 9.94252,4.6301 7.04513,1.1389 -3.38104,-4.0739 -37.8639,-35.7294 -49.89676,-45.8056 -6.56804,-5.5 -17.0617,-14.8 -23.31923,-20.6666 -6.25753,-5.8667 -22.45753,-20.8614 -36,-33.3216 -29.40988,-27.0595 -44.63013,-41.7024 -63.71627,-61.2991 -7.83185,-8.0414 -24.06721,-24.414 -36.07857,-36.3834 -12.01137,-11.9695 -21.52623,-22.0754 -21.14412,-22.4575 1.82129,-1.8213 10.72848,4.1992 21.16841,14.3081 20.31887,19.6744 57.18463,54.4873 83.11503,78.4868 13.86587,12.8333 34.54567,32.3988 45.95509,43.4789 11.40944,11.0801 24.16162,23.0801 28.33816,26.6667 4.17656,3.5866 12.57656,10.84 18.66667,16.1188 48.0371,41.6373 91.48149,74.8912 110.40299,84.5064 5.8967,2.9965 9.4789,3.8959 15.5177,3.8959 4.7744,0 12.0251,1.3413 18.5017,3.4226 5.8578,1.8825 15.1505,3.7303 20.6505,4.1062 5.5,0.3759 11.5,1.1661 13.3334,1.756 1.8333,0.5899 6.0333,1.8225 9.3333,2.7391 3.3,0.9166 9.3,2.7058 13.3333,3.9761 4.0334,1.2702 10.0334,3.054 13.3334,3.9639 3.3,0.91 12,3.7447 19.3333,6.2995 7.3333,2.5547 15.1333,5.1505 17.3333,5.7684 2.2,0.6178 7.6,2.1122 12,3.3209 7.9699,2.1893 30.0528,9.3828 40.067,13.0519 2.8965,1.0612 9.7664,3.2768 15.2664,4.9235 10.0083,2.9965 23.8345,8.3008 51.3333,19.6935 8.0667,3.342 17.6667,6.6027 21.3333,7.2459 7.3287,1.2857 19.3613,3.1487 28.6667,4.4386 3.3,0.4574 7.2,1.3516 8.6667,1.9871 1.4667,0.6355 5.0667,1.4187 8,1.7405 8.1208,0.8908 32.8295,7.3058 50.3483,13.0717 8.6249,2.8387 16.8749,5.1612 18.3333,5.1612 1.4584,0 2.6517,0.6 2.6517,1.3334 0,0.7777 4.4443,1.3333 10.6666,1.3333 5.8667,0 10.6667,0.4539 10.6667,1.0087 0,1.2287 9.5689,4.3246 13.3669,4.3246 1.5081,0 6.7676,1.2306 11.6876,2.7347 4.92,1.5041 13.7455,4.177 19.6121,5.9397 5.8667,1.7627 16.5998,5.0564 23.8512,7.3193 10.233,3.1933 14.4894,3.9187 19.0122,3.2405 3.2052,-0.4807 6.5721,-0.3044 7.4821,0.3917 1.9239,1.4718 17.3272,6.1767 26.9879,8.2434 3.6666,0.7845 10.5666,2.4283 15.3333,3.6529 4.7667,1.2247 14.3667,2.5856 21.3333,3.0244 6.9667,0.4387 13.9215,1.5153 15.4551,2.3925 4.9459,2.8289 14.4259,5.6882 18.9252,5.7082 3.7695,0.017 4.2029,-0.306 3.1089,-2.314 -2.8034,-5.1456 -7.2262,-8.3762 -14.2712,-10.4242 -4.0708,-1.1834 -11.1101,-4.7797 -15.643,-7.9917 -4.533,-3.212 -10.0416,-6.7015 -12.2416,-7.7544 -4.7482,-2.2724 -22.4166,-19.3051 -32.6718,-31.4963 -9.3769,-11.1469 -9.2846,-11.0541 -13.9949,-14.0835 -2.2,-1.4149 -8.5,-5.8887 -14,-9.9417 -5.5,-4.0529 -12.4,-8.9211 -15.3333,-10.8182 -2.9334,-1.8971 -7.5567,-5.7834 -10.2742,-8.6362 -2.7174,-2.8529 -7.8174,-8.2008 -11.3333,-11.8843 -3.5159,-3.6835 -9.1419,-7.9892 -12.5023,-9.5684 -7.0322,-3.3047 -16.4161,-13.0931 -26.9133,-28.0738 -4.0309,-5.7527 -11.5549,-15.3657 -16.72,-21.3622 -5.1649,-5.9966 -9.8156,-12.2668 -10.3347,-13.9339 -0.519,-1.6671 -3.7226,-6.6311 -7.1188,-11.0311 -17.8873,-23.1731 -45.8577,-69.476 -64.8375,-107.3334 -1.6544,-3.3 -5.4792,-8.7984 -8.4994,-12.2187 -3.7815,-4.2824 -6.5731,-9.4396 -8.9654,-16.5622 -1.9106,-5.6889 -5.1982,-13.1458 -7.3057,-16.5709 -2.1076,-3.4251 -4.7353,-8.7882 -5.8396,-11.918 -1.1043,-3.1298 -4.1577,-9.2298 -6.7855,-13.5555 -2.6277,-4.3257 -6.1715,-11.4218 -7.8752,-15.769 -3.076,-7.849 -6.1221,-12.5564 -15.577,-24.0724 -2.7093,-3.3 -6.217,-9.3 -7.7948,-13.3333 -1.5777,-4.0333 -4.6914,-11.2333 -6.9193,-16 -2.2278,-4.7667 -6.3532,-15.0684 -9.1674,-22.8927 -2.8143,-7.8243 -7.4454,-18.9414 -10.2914,-24.7047 -2.846,-5.7633 -5.5735,-12.0685 -6.0612,-14.0117 -0.4877,-1.9431 -3.3348,-7.0806 -6.3268,-11.4165 -4.6256,-6.7032 -5.9059,-10.1612 -8.5506,-23.0957 -1.7108,-8.3666 -4.6228,-19.412 -6.4711,-24.5454 -1.8483,-5.1333 -3.7783,-13.8333 -4.2889,-19.3333 -0.5106,-5.5 -2.0422,-13.6 -3.4036,-18 -1.3614,-4.4 -2.483,-9.0585 -2.4924,-10.3522 -0.01,-1.2937 -2.638,-5.5697 -5.8411,-9.5023 l -5.8239,-7.1502 -0.1921,-14.3193 c -0.2926,-21.8045 -7.8009,-49.8903 -15.5079,-58.0093 -4.2549,-4.4824 -4.4535,-5.1669 -5.0288,-17.3334 -0.8067,-17.0616 -4.5727,-36.5588 -8.6126,-44.5889 -3.0058,-5.9749 -3.2439,-7.6525 -2.5545,-18 0.4182,-6.2761 0.199,-17.7111 -0.4871,-25.4111 -0.686,-7.7 -1.2981,-15.0362 -1.3601,-16.3026 -0.1258,-2.5664 6.3968,-12.58213 11.5492,-17.73447 4.9939,-4.99396 8.4327,-6.82473 16.1791,-8.61349 3.8523,-0.88956 7.3086,-2.11 7.6807,-2.71211 1.2456,-2.01536 17.2133,-2.88796 26.6485,-1.45629 10.1582,1.54135 31.4978,5.93828 40,8.24179 2.9334,0.79474 7.7334,1.95446 10.6667,2.57718 15.3647,3.26175 30.212,8.75903 38.2302,14.15488 3.6874,2.48151 7.472,4.51181 8.4101,4.51181 3.9408,0 40.1751,19.9875 58.6931,32.3761 18.292,12.2374 25.1379,17.2388 55.3332,40.4244 28.8688,22.1669 69.706,61.4441 90.6629,87.1995 3.2819,4.0333 6.3046,7.6333 6.7171,8 1.0336,0.9186 24.1491,31.4142 26.62,35.1188 5.0255,7.5348 18.4791,26.2969 24.0557,33.5479 3.384,4.4 9.3975,12.8 13.3634,18.6666 3.9657,5.8667 10.5836,15.1667 14.7061,20.6667 4.1225,5.5 8.2717,11.5 9.2204,13.3333 0.9487,1.8334 5.1324,7.8334 9.2972,13.3334 17.3687,22.9368 47.6149,63.6501 50.9893,68.6347 4.8135,7.1104 26.8527,33.3905 43.0338,51.3147 6.929,7.6755 48.8524,51.979 59.3341,62.7028 24.3851,24.9481 80.6716,85.9789 95.9291,104.0145 4.6526,5.5 9.2468,10.9 10.209,12 21.4343,24.5024 37.8086,51.5934 46.4762,76.8945 2.4693,7.208 6.1262,16.645 8.1265,20.971 2.0003,4.3261 4.7169,12.7261 6.0369,18.6667 1.4807,6.6633 3.2511,11.3119 4.6212,12.1344 1.2215,0.7334 6.1062,4.4834 10.8547,8.3334 4.7485,3.85 9.7501,7 11.1147,7 1.3645,0 3.4998,1.7248 4.7452,3.8329 1.9146,3.2414 3.3438,3.9444 9.2612,4.5551 5.0486,0.5211 9.0706,2.0991 14.4445,5.6671 6.9949,4.6443 7.794,4.8658 13.1475,3.6442 3.135,-0.7154 9.6,-1.1885 14.3666,-1.0514 7.9246,0.228 14.0587,1.5302 40.2712,8.5497 6.3567,1.7022 9.3504,1.9808 10.3666,0.9646 1.0162,-1.0162 2.2681,-0.9047 4.3349,0.3861 1.9535,1.22 3.0636,1.3428 3.3863,0.3749 0.264,-0.7921 1.355,-1.1043 2.4246,-0.6939 1.0695,0.4104 6.4995,-1.4748 12.0666,-4.1894 9.0862,-4.4307 10.8906,-4.8603 17.6358,-4.1983 4.1327,0.4056 8.7087,0.7835 10.169,0.8399 1.4601,0.056 4.2173,1.5993 6.127,3.4289 3.0083,2.8822 3.691,3.0629 5.1104,1.3525 0.9011,-1.0857 1.489,-4.259 1.3063,-7.0518 -0.1827,-2.7928 -0.1561,-7.7778 0.059,-11.0778 0.3669,-5.63 0.4538,-5.7534 1.4089,-2 0.5599,2.2 1.0888,6.8108 1.1756,10.2463 0.087,3.4355 1.1288,11.9944 2.3157,19.0198 l 2.1582,12.7734 -4.3699,3.8153 c -4.0465,3.533 -4.3788,4.4441 -4.4913,12.3136 l -0.1214,8.4983 -8.6666,4.3018 c -4.7667,2.366 -10.5526,4.316 -12.8574,4.3333 -2.4721,0.019 -4.5054,0.8517 -4.9581,2.0315 -0.5451,1.4202 -2.8089,2.0123 -7.8093,2.0424 -3.8731,0.023 -8.0818,0.8321 -9.3527,1.7972 -2.1724,1.6497 -2.1232,2.1461 0.8223,8.2909 1.7232,3.5949 3.575,8.0362 4.1153,9.8695 0.5403,1.8333 2.3592,6.6333 4.042,10.6667 1.6828,4.03333 3.8052,9.31133 4.7163,11.72893 l 1.6566,4.3956 9.4792,-0.9323 c 8.6814,-0.8538 22.277,-5.3916 31.6848,-10.5755 4.9098,-2.70533 6.8538,-2.46093 11.0016,1.3833 1.9782,1.8333 5.1443,3.3333 7.0356,3.3333 1.8914,0 9.4952,0.9629 16.8975,2.1397 11.7536,1.8686 17.0668,1.9402 41.942,0.5652 26.6249,-1.4718 28.6528,-1.4212 31.0808,0.7761 1.4287,1.2929 2.3196,3.0749 1.98,3.9599 -0.4125,1.0752 1.7843,1.9093 6.6196,2.5134 3.9805,0.4974 7.2372,1.3322 7.2372,1.8554 0,2.4425 51.5155,36.2709 75.0379,49.2748 6.5808,3.638 30.8505,17.8866 43.3524,25.4519 3.148,1.905 9.148,5.7122 13.3333,8.4604 4.1853,2.7483 8.0481,4.9983 8.5839,5 0.5357,0 4.1357,2.0198 8,4.4845 3.8642,2.4647 8.2968,4.88 9.85,5.3674 1.5533,0.4873 3.8962,2.0707 5.2066,3.5187 1.3104,1.4479 3.1132,2.6326 4.0064,2.6326 1.8294,0 12.0296,4.1694 19.7555,8.0752 2.8193,1.4253 5.8567,2.5915 6.7496,2.5915 0.8929,0 4.1072,1.2 7.1429,2.6666 3.0356,1.4667 7.7354,2.6667 10.4439,2.6667 4.5555,0 24.2012,8.1778 25.9047,10.7832 0.385,0.5891 2.785,0.6281 5.3333,0.087 2.5481,-0.5415 5.3829,-0.8837 6.2996,-0.7605 0.9167,0.1232 2.3084,0.2991 3.0928,0.3908 0.7843,0.092 1.2343,1.4534 1,3.0261 -0.3263,2.1892 -1.9889,3.2694 -7.0928,4.6079 -10.0763,2.6425 -13.1232,2.2738 -18.8167,-2.2771 -6.7242,-5.3747 -10.5108,-6.9018 -17.85,-7.1989 -3.3,-0.1336 -8.9594,-1.6011 -12.5765,-3.2612 -3.6171,-1.6601 -7.8171,-3.1813 -9.3333,-3.3804 -1.5163,-0.1991 -6.9568,-2.523 -12.0902,-5.1643 -5.1333,-2.6412 -10.565,-4.8135 -12.0706,-4.8272 -1.5055,-0.014 -5.1055,-1.7605 -8,-3.8817 -2.8944,-2.1213 -9.6284,-6.1041 -14.9644,-8.8508 -5.336,-2.7467 -10.0275,-5.5209 -10.4255,-6.1649 -0.398,-0.6441 -1.2455,-0.8486 -1.8831,-0.4546 -1.4752,0.9118 -14.1845,-5.9397 -23.1202,-12.4639 -18.8299,-13.7484 -48.1272,-30.4981 -61.9206,-35.401 -9.7038,-3.4493 -28.8665,-15.45 -42.9489,-26.8971 -6.7041,-5.4496 -7.7909,-5.891 -12.6667,-5.1451 -9.7397,1.49 -30.3329,2.3321 -59.6666,2.4398 -15.95,0.059 -28.978,0.4113 -28.951,0.7838 0.027,0.3725 1.1198,4.5772 2.4284,9.3439 1.677,6.1079 2.9419,8.5261 4.2844,8.1907 9.4619,-2.3645 11.0935,-1.9399 18.4695,4.8063 10.0581,9.1991 9.098,11.003 -5.8561,11.003 -6.2564,0 -11.374,0.45 -11.3726,1 0,0.9454 5.549,28.1621 12.0111,58.9403 1.6099,7.6671 3.4653,15.3562 4.1233,17.0868 0.6579,1.7306 1.1963,5.1342 1.1963,7.5635 0,2.4294 0.896,6.5616 1.9912,9.1828 1.3731,3.2862 1.6177,5.7484 0.7879,7.931 -0.7056,1.8557 -0.7231,7.4492 -0.043,13.5194 1.4511,12.9391 1.8789,14.5035 6.3103,23.0664 2.7604,5.3341 4.9982,7.6667 9.5936,10 3.2964,1.6737 8.8117,5.7431 12.2564,9.0431 3.4445,3.3 8.2518,7.1664 10.6829,8.5919 6.1591,3.6116 8.1363,5.8205 7.258,8.1091 -1.0961,2.8565 -8.4451,2.4357 -11.7839,-0.6749 -2.8297,-2.6363 -2.8366,-2.6358 -4.311,0.3216 -1.821,3.6525 -5.4515,4.5374 -6.5775,1.6032 z m -62.0426,-182.0738 c 2.5065,-2.5065 2.6996,-3.7585 1.9021,-12.3333 -0.9093,-9.7786 -6.0176,-22.7439 -9.4853,-24.0746 -0.9708,-0.3725 -5.8394,1.3279 -10.8191,3.7787 -10.8504,5.34 -16.0715,7.0243 -25.4769,8.219 -5.3247,0.6763 -7.5904,1.6648 -9.1014,3.9707 -1.1064,1.6886 -3.316,3.256 -4.9104,3.483 -2.0256,0.2885 -2.8986,1.3456 -2.8986,3.5099 0,2.6277 2.1214,4.0902 14,9.6513 l 14,6.5543 15,0.015 c 13.4541,0.014 15.2874,-0.2721 17.7896,-2.7743 z m -175.8764,-29.1268 c 1.6977,-0.6874 6.9868,-4.8593 11.7534,-9.271 4.7667,-4.4116 11.1578,-9.3669 14.2024,-11.0118 5.5294,-2.9872 5.5422,-2.9877 11.3334,-0.4605 6.5952,2.8782 16.2101,8.9631 21.1309,13.3729 3.8863,3.4827 8.7899,5.2448 9.8449,3.5376 1.0066,-1.6285 -13.2346,-18.2693 -21.7301,-25.3915 -6.2639,-5.25143 -7.1435,-5.61663 -9.1876,-3.81423 -1.3681,1.2063 -5.9107,2.2141 -11.5061,2.55293 l -9.2455,0.5597 -8.1669,9.0104 c -7.255,8.0041 -8.5676,8.9098 -11.7546,8.1099 -3.575,-0.8973 -3.5874,-0.8744 -3.5874,6.5775 0,7.9868 0.7966,8.7045 6.9132,6.2281 z m 93.5301,-64.74283 c 6.1471,-2.5684 11.5567,-11.4725 11.5567,-19.022 0,-4.3598 -0.859,-6.3059 -4.3038,-9.7507 -4.4905,-4.4905 -13.3156,-9.1551 -17.416,-9.2054 -3.7402,-0.046 -12.4121,4.8702 -15.4876,8.78 -5.319,6.7621 -2.1064,21.1 6.3155,28.184 4.2427,3.5689 12.2193,3.9872 19.3352,1.0141 z m -1398.50599,-435.6741 -5.2706,-5.6667 5.66667,5.2706 c 3.11666,2.8988 5.66666,5.4488 5.66666,5.6667 0,1.0088 -1.16113,-7e-4 -6.06273,-5.2706 z"
       id="path177" />
  </g>
</svg>
