<?xml version="1.0" encoding="UTF-8" standalone="no"?>
<!-- Created with Inkscape (http://www.inkscape.org/) -->

<svg
   width="384.65283"
   height="262.17636"
   viewBox="0 0 101.77273 69.367499"
   version="1.1"
   id="svg5"
   inkscape:version="1.1.2 (b8e25be833, 2022-02-05)"
   sodipodi:docname="G_roselii_silhouette.svg"
   xmlns:inkscape="http://www.inkscape.org/namespaces/inkscape"
   xmlns:sodipodi="http://sodipodi.sourceforge.net/DTD/sodipodi-0.dtd"
   xmlns="http://www.w3.org/2000/svg"
   xmlns:svg="http://www.w3.org/2000/svg">
  <sodipodi:namedview
     id="namedview7"
     pagecolor="#ffffff"
     bordercolor="#666666"
     borderopacity="1.0"
     inkscape:pageshadow="2"
     inkscape:pageopacity="0.0"
     inkscape:pagecheckerboard="0"
     inkscape:document-units="mm"
     showgrid="false"
     inkscape:zoom="5.8725028"
     inkscape:cx="312.04753"
     inkscape:cy="47.850126"
     inkscape:window-width="1920"
     inkscape:window-height="992"
     inkscape:window-x="-9"
     inkscape:window-y="-9"
     inkscape:window-maximized="1"
     inkscape:current-layer="layer1"
     lock-margins="true"
     fit-margin-top="2"
     fit-margin-left="2"
     fit-margin-right="2"
     fit-margin-bottom="2"
     units="px" />
  <defs
     id="defs2" />
  <g
     inkscape:label="Layer 1"
     inkscape:groupmode="layer"
     id="layer1"
     transform="translate(-54.386524,-44.456117)">
    <path
       style="fill:#000000;stroke-width:0.264583"
       d="m 144.96519,113.21904 c -0.26713,-0.0599 -0.88413,-0.9247 -1.42884,-2.00281 -1.0327,-2.04393 -3.5485,-8.83523 -4.23138,-11.422448 -0.81642,-3.09313 -1.27062,-2.91321 -1.51253,0.599118 -0.19578,2.84257 -0.46315,4.16338 -0.84279,4.16338 -0.13506,0 -0.28342,-0.32944 -0.3297,-0.73209 -0.14545,-1.26535 -0.57731,-0.49509 -0.57731,1.02968 0,1.45869 -0.3286,2.48053 -0.79768,2.48053 -0.3298,0 -1.21717,-1.76294 -1.83613,-3.64787 -1.31278,-3.997788 -1.9219,-5.510598 -4.23067,-10.507328 -0.26896,-0.58209 -0.57628,-1.34947 -0.68294,-1.70529 -0.26408,-0.88096 -1.67782,-3.22537 -2.25811,-3.7446 -0.25988,-0.23254 -0.65787,-0.82786 -0.88442,-1.32292 -0.22655,-0.49506 -0.56201,-1.13824 -0.74546,-1.42928 -0.18345,-0.29104 -0.84069,-1.329 -1.46053,-2.30657 -0.61984,-0.97757 -1.12698,-1.85254 -1.12698,-1.94439 0,-0.0918 -0.18865,-0.56455 -0.41924,-1.05046 -0.30242,-0.63732 -0.38896,-1.41133 -0.31058,-2.77792 0.0691,-1.20535 0.005,-1.93344 -0.17607,-2.00164 -0.1566,-0.059 -1.43499,0.17175 -2.84087,0.51268 -1.66413,0.40355 -2.7041,0.53706 -2.98014,0.38258 -0.32771,-0.1834 -0.91882,0.23586 -2.60323,1.84642 -1.19858,1.14603 -3.10083,2.76403 -4.22722,3.59555 -1.12639,0.83152 -2.62395,2.19263 -3.32791,3.02468 -0.70396,0.83205 -1.7469,1.99953 -2.31765,2.5944 -1.14713,1.19561 -3.286673,5.04098 -3.286673,5.90707 0,0.64939 -0.402603,0.73426 -0.63315,0.13346 -0.342207,-0.89177 -0.128283,-2.16245 0.636063,-3.77815 1.14145,-2.41282 3.46697,-5.84885 4.7321,-6.99181 1.23525,-1.11598 1.29371,-1.24694 0.55665,-1.24694 -0.7798,0 -0.6346,-0.34257 0.33646,-0.79375 0.71712,-0.3332 0.86768,-0.56166 0.93836,-1.42393 0.0463,-0.56488 -0.0402,-1.15142 -0.19218,-1.30343 -0.36971,-0.36971 -1.30494,0.4705 -1.78416,1.60288 -0.20015,0.47294 -0.51378,0.8599 -0.69695,0.8599 -0.18317,0 -0.78331,0.37115 -1.33365,0.82478 -0.96034,0.79159 -1.01593,0.8049 -1.3813,0.33073 -0.20938,-0.27173 -0.45183,-0.75333 -0.53876,-1.07022 -0.226029,-0.82388 -0.631527,-0.88646 -1.893983,-0.29228 -1.203865,0.56659 -2.978833,2.34576 -2.978833,2.98587 0,0.21787 -0.09995,0.39612 -0.222112,0.39612 -0.258186,0 -0.836221,-1.18046 -0.836221,-1.70772 0,-0.42028 2.10784,-2.37793 4.343,-4.03354 1.2959,-0.9599 2.271579,-2.09117 2.271579,-2.63383 0,-0.0619 -0.74157,-0.078 -1.647945,-0.0359 -1.643957,0.0764 -1.64863,0.0746 -1.92745,-0.77045 -0.382643,-1.15967 -0.576062,-1.29342 -1.136695,-0.78606 -0.265102,0.23992 -0.861145,0.51204 -1.324539,0.60472 -0.710798,0.14216 -0.842534,0.0898 -0.842534,-0.33486 0,-0.84151 0.75837,-1.64883 1.717969,-1.82885 1.678149,-0.31483 1.651939,-0.77401 -0.0974,-1.7064 -1.731254,-0.92275 -4.060566,-1.22456 -4.583928,-0.59395 -0.196149,0.23635 -0.381183,0.25717 -0.608518,0.0685 -0.228915,-0.18998 -0.419592,-0.15914 -0.637206,0.10307 -0.170797,0.2058 -0.580943,0.44205 -0.911437,0.525 -0.448128,0.11247 -0.882603,0.76414 -1.708939,2.56324 -0.609425,1.32684 -1.108043,2.53609 -1.108043,2.68721 0,0.15113 -0.348745,0.88458 -0.774991,1.6299 -1.119349,1.95726 -2.284275,6.62328 -3.211775,12.8645 -0.758489,5.10393 -0.807077,9.42886 -0.136128,12.117208 0.265028,1.06192 0.4069,2.00573 0.315273,2.09736 -0.500275,0.50027 -1.885569,-2.83949 -2.308535,-5.565568 -0.420505,-2.71022 -0.173667,-5.8672 0.996902,-12.75004 0.968775,-5.69631 3.375486,-12.47119 5.844099,-16.45112 1.30394,-2.10223 1.407324,-2.46659 0.699873,-2.46659 -0.515774,0 -3.31946,2.82737 -4.722614,4.7625 -0.685856,0.94589 -2.583704,3.09523 -4.217443,4.77633 -4.919231,5.06183 -8.573347,10.08438 -11.732159,16.12575 -1.83967,3.51846 -2.234904,4.41608 -4.7182,10.715628 -1.374619,3.48709 -2.712955,6.48229 -2.896458,6.48229 -0.06469,0 0.132407,-0.62508 0.438,-1.38906 0.305593,-0.76399 1.025221,-2.63922 1.599175,-4.16719 3.930303,-10.463168 7.612722,-17.321268 12.786,-23.812498 0.985787,-1.23693 2.058329,-2.66568 2.383425,-3.175 0.325096,-0.50932 0.841846,-1.15031 1.148331,-1.42442 0.306486,-0.27411 0.49249,-0.60316 0.413343,-0.73123 -0.14337,-0.23197 -1.985643,0.97012 -3.18094,2.07557 -0.345747,0.31976 -0.795068,0.67695 -0.99849,0.79375 -1.644975,0.94452 -7.939139,8.10585 -10.651181,12.11862 -1.259528,1.86362 -4.372391,7.30853 -5.369824,9.39271 -0.86817,1.814078 -2.669629,5.027078 -2.818575,5.027078 -0.219362,0 4.244618,-8.664378 6.066065,-11.773948 3.280398,-5.6003 8.325047,-11.9044 12.020513,-15.02156 1.246548,-1.05148 2.812185,-2.41578 3.479195,-3.03178 0.667009,-0.61599 1.291767,-1.12201 1.38835,-1.12447 0.26642,-0.007 3.426894,-3.88973 4.669656,-5.73709 0.603673,-0.89736 1.814274,-2.52246 2.690225,-3.61133 0.875951,-1.08887 1.592638,-2.15749 1.592638,-2.37471 0,-0.96363 2.891549,-3.61229 10.403195,-9.52934 7.99239,-6.29574 16.99171,-8.3268 26.99036,-6.09148 2.68679,0.60067 8.00089,2.60204 9.82265,3.69937 0.87969,0.52987 2.37333,1.38308 3.31922,1.89603 2.84617,1.54345 3.71336,2.15463 3.95355,2.78639 0.3006,0.79062 1.64303,1.94973 4.0296,3.47934 1.80983,1.15995 4.18768,3.19871 4.18768,3.59048 0,0.095 -0.29765,0.11591 -0.66146,0.0464 -0.49022,-0.0937 -0.66146,-0.013 -0.66146,0.31181 0,0.78443 1.08885,2.59773 2.38369,3.96965 1.04301,1.1051 3.96632,5.43072 3.96632,5.86897 0,0.0672 -0.2303,-10e-4 -0.51178,-0.15171 -1.05378,-0.56397 -1.25616,-0.35556 -1.42655,1.46907 -0.12028,1.28808 -0.0227,2.34111 0.37396,4.03489 0.55579,2.37337 0.98586,6.65756 0.66831,6.65756 -0.0995,0 -0.49341,-0.20477 -0.87539,-0.45504 -0.66183,-0.43366 -0.70804,-0.43191 -0.98287,0.0371 -0.15862,0.27068 -0.71097,0.99085 -1.22746,1.60038 -1.02055,1.2044 -1.766,3.57468 -1.48117,4.70955 0.0969,0.38601 1.47165,1.81997 3.34292,3.48685 2.7974,2.49187 3.55472,3.32116 3.03293,3.32116 -0.44818,0 -1.93626,-1.04106 -4.88165,-3.4152 -1.81902,-1.46622 -3.39417,-2.66683 -3.50036,-2.66803 -0.29278,-0.003 -1.26215,2.01899 -1.26215,2.63311 0,0.38678 -0.17242,0.53971 -0.60854,0.53971 -0.73742,0 -1.24354,0.46065 -1.24354,1.13186 0,0.27326 0.93408,1.64844 2.07573,3.05593 2.15272,2.653998 3.43284,4.679328 3.14165,4.970528 -0.18377,0.18376 -4.68821,-4.343398 -4.68821,-4.711858 0,-0.22293 -1.12279,-0.7423 -1.60473,-0.7423 -0.47545,0 -0.23162,1.20178 0.52065,2.56613 0.79758,1.446508 0.79196,1.963748 -0.0134,1.234888 -1.16155,-1.051178 -0.67246,0.58897 1.47941,4.96119 1.2724,2.58527 2.26368,4.93718 2.26377,5.37095 8e-5,0.42444 -0.0822,0.68938 -0.18281,0.58875 -0.10063,-0.10062 -0.30899,0.19664 -0.46302,0.66058 -0.27734,0.83532 -0.63382,1.02486 -1.54397,0.8209 z m 1.3962,-2.31276 c 0,-0.21828 -0.11533,-0.39688 -0.25628,-0.39688 -0.14095,0 -0.18774,0.1786 -0.10398,0.39688 0.0838,0.21828 0.19909,0.39687 0.25628,0.39687 0.0572,0 0.10398,-0.17859 0.10398,-0.39687 z m -0.52917,-1.29361 c 0,-0.20215 -0.24069,-0.64864 -0.53487,-0.99218 l -0.53487,-0.62463 0.45159,0.99219 c 0.48596,1.06773 0.61815,1.20131 0.61815,0.62462 z M 133.39681,96.883362 c 0,-0.65383 -0.3585,-0.88707 -0.6467,-0.42075 -0.19123,0.30942 0.10185,1.08221 0.41042,1.08221 0.12995,0 0.23628,-0.29766 0.23628,-0.66146 z m 0.67462,-3.43958 c 0.25417,-1.16417 0.67698,-2.74402 0.93957,-3.51078 l 0.47745,-1.39411 -0.80865,-0.92099 c -0.44475,-0.50655 -0.97864,-0.921 -1.18641,-0.921 -0.20778,0 -0.44367,-0.17173 -0.52422,-0.38163 -0.0805,-0.2099 -1.32697,-1.35619 -2.76982,-2.54732 -1.44286,-1.19113 -2.62338,-2.25332 -2.62338,-2.36042 0,-0.10709 -0.28057,-0.47885 -0.62349,-0.82611 -0.34291,-0.34727 -0.77515,-1.10764 -0.96052,-1.68973 -0.6399,-2.00938 -1.3264,-2.19218 -1.3264,-0.35318 0,0.79066 0.20765,1.33296 0.79375,2.07298 0.43656,0.5512 0.79375,1.07917 0.79375,1.17326 0,0.0941 0.21935,0.49368 0.48745,0.88797 1.67857,2.46867 2.44355,3.84827 2.21393,3.99268 -0.15168,0.0954 0.44091,1.74278 1.41888,3.9445 1.758,3.9578 2.68372,5.53716 3.02998,5.16937 0.11331,-0.12035 0.41397,-1.17132 0.66813,-2.33549 z m 12.28996,-3.82715 c 0,-0.29 -0.86028,-0.80306 -1.34653,-0.80306 -0.20229,0 -0.14403,0.19774 0.15591,0.52917 0.50091,0.55349 1.19062,0.71216 1.19062,0.27389 z m -11.07967,-6.69445 c -0.2613,-0.25936 -0.29169,-0.22897 -0.14811,0.14811 0.0994,0.26094 0.2473,0.40778 0.32877,0.32632 0.0815,-0.0815 1.6e-4,-0.29495 -0.18066,-0.47443 z M 90.220968,64.229762 c 0.245095,-0.13317 0.743284,-0.79868 1.107086,-1.47891 l 0.661458,-1.23677 -0.916048,-0.77005 c -1.01954,-0.85704 -1.723758,-0.98296 -1.966061,-0.35153 -0.283654,0.73919 -0.17127,3.43373 0.156901,3.7619 0.380886,0.38089 0.392676,0.38182 0.956664,0.0754 z"
       id="path854" />
  </g>
</svg>
