<?xml version="1.0" encoding="UTF-8" standalone="no"?>
<!-- Created with Inkscape (http://www.inkscape.org/) -->

<svg
   version="1.1"
   id="svg59"
   width="4489.7427"
   height="1373.3818"
   viewBox="0 0 4489.7427 1373.3818"
   sodipodi:docname="hydropsyche_siltalai.svg"
   inkscape:version="1.2.2 (732a01da63, 2022-12-09)"
   xmlns:inkscape="http://www.inkscape.org/namespaces/inkscape"
   xmlns:sodipodi="http://sodipodi.sourceforge.net/DTD/sodipodi-0.dtd"
   xmlns="http://www.w3.org/2000/svg"
   xmlns:svg="http://www.w3.org/2000/svg">
  <defs
     id="defs63" />
  <sodipodi:namedview
     id="namedview61"
     pagecolor="#505050"
     bordercolor="#eeeeee"
     borderopacity="1"
     inkscape:showpageshadow="0"
     inkscape:pageopacity="0"
     inkscape:pagecheckerboard="0"
     inkscape:deskcolor="#505050"
     showgrid="false"
     inkscape:zoom="0.3234375"
     inkscape:cx="1548.9855"
     inkscape:cy="808.50242"
     inkscape:window-width="3840"
     inkscape:window-height="2054"
     inkscape:window-x="-11"
     inkscape:window-y="-11"
     inkscape:window-maximized="1"
     inkscape:current-layer="g65" />
  <g
     inkscape:groupmode="layer"
     inkscape:label="Image"
     id="g65"
     transform="translate(-294.15751,-536.97794)">
    <path
       style="fill:#000000;stroke-width:1.33333"
       d="m 2067.6518,1906.823 c -2.683,-2.132 -7.5599,-4.6273 -10.838,-5.5451 -10.7654,-3.0141 -11.2826,-4.136 -10.586,-22.9594 0.4409,-11.9143 1.2946,-18.0796 3.114,-22.4858 2.0741,-5.0238 2.5252,-9.7377 2.6154,-27.3333 0.06,-11.6945 0.1368,-24.5627 0.171,-28.596 0.1053,-12.5135 -2.3307,-37.7812 -4.087,-42.3872 -1.1328,-2.9707 -1.467,-8.998 -1.0352,-18.6667 0.5554,-12.4305 0.2139,-15.7204 -2.637,-25.4074 -3.058,-10.3907 -3.2214,-12.4667 -2.4651,-31.3334 0.876,-21.8538 0.8533,-38.271 -0.1013,-73.5386 -0.8359,-30.8795 1.946,-50.1103 8.1973,-56.6667 5.1521,-5.4037 10.8852,-20.8252 11.8961,-32 1.3915,-15.382 1.1563,-36.7881 -0.437,-39.7652 -1.547,-2.8907 -10.6067,-5.5184 -22.0115,-6.3844 -7.9432,-0.6032 -13.6787,-3.8285 -11.4925,-6.4628 0.8068,-0.972 3.3969,-2.4961 5.756,-3.3868 2.3589,-0.8907 6.089,-2.4049 8.289,-3.3649 2.2,-0.96 6.4271,-2.3831 9.3936,-3.1624 7.8143,-2.0528 15.9478,-9.5514 18.6067,-17.1543 1.2156,-3.4756 3.0161,-8.1192 4.0015,-10.3192 0.9852,-2.2 2.1882,-6.4 2.6734,-9.3333 1.2147,-7.3446 7.0331,-17.6186 11.9235,-21.0543 5.2639,-3.6981 6.408,-4.8413 9.3549,-9.3475 1.8907,-2.8909 2.0836,-4.0944 0.8538,-5.3242 -1.8887,-1.8887 -14.6615,-3.3852 -37.3763,-4.3794 -14.3676,-0.6288 -17.304,-1.1558 -22.1008,-3.9669 -3.0425,-1.7831 -8.6756,-3.8381 -12.518,-4.5668 -4.8251,-0.9151 -8.8848,-2.8771 -13.1239,-6.3429 -7.3088,-5.9755 -13.6884,-14.3903 -13.6884,-18.0551 0,-2.3539 -0.6058,-2.5401 -5.642,-1.7349 -14.5884,2.3328 -39.5356,15.3996 -41.6077,21.7932 -0.4121,1.2716 -4.6749,4.7121 -9.4728,7.6454 -4.798,2.9334 -9.99,6.3834 -11.5379,7.6667 -1.5478,1.2833 -4.3252,2.3333 -6.172,2.3333 -1.8466,0 -4.5129,1.0455 -5.9249,2.3234 -2.2065,1.9969 -5.7804,2.3568 -25.4383,2.5612 -12.579,0.1306 -24.971,-0.2738 -27.5377,-0.899 -7.0329,-1.7132 -14.5616,-4.6805 -16.3095,-6.4284 -0.8565,-0.8565 -3.4562,-1.5572 -5.7773,-1.5572 -2.3212,0 -5.6512,-1.1174 -7.4,-2.4832 -1.7489,-1.3658 -4.552,-2.9133 -6.2291,-3.4388 -1.677,-0.5256 -6.627,-4.4348 -11,-8.6873 -6.8257,-6.6376 -7.9508,-8.4151 -7.9508,-12.5612 0,-4.4211 -0.3214,-4.8295 -3.801,-4.8295 -5.9976,0 -11.6439,2.495 -16.9315,7.4818 -3.3545,3.1638 -5.6688,4.359 -7.3852,3.8142 -1.7856,-0.5668 -3.9713,0.7538 -7.6512,4.622 -2.8333,2.9784 -6.4089,5.4154 -7.9459,5.4154 -1.5369,0 -3.1653,0.6 -3.6185,1.3333 -0.4532,0.7333 -1.7424,1.3333 -2.8649,1.3333 -1.1226,0 -3.0774,1.2799 -4.344,2.8442 -1.924,2.376 -2.769,2.5949 -5.1328,1.3297 -1.5564,-0.8329 -3.1507,-0.9951 -3.5431,-0.3604 -1.476,2.3884 -12.0072,4.3011 -16.4485,2.9876 -2.6426,-0.7815 -4.3334,-0.7976 -4.3334,-0.041 0,0.6821 -2.0645,1.2402 -4.588,1.2402 -2.5233,0 -4.9936,0.6563 -5.4893,1.4586 -0.8831,1.4286 -6.6459,1.0892 -14.256,-0.8399 -3.1233,-0.7917 -3.6667,-0.5183 -3.6667,1.8456 0,2.7645 -3.5017,5.5357 -6.9949,5.5357 -1.0103,0 -3.1907,-1.8309 -4.8452,-4.0688 -3.6169,-4.8922 -2.8873,-11.309 1.4423,-12.6832 2.1716,-0.6892 2.3625,-1.1184 0.9073,-2.04 -2.8135,-1.782 -3.7023,-1.497 -7.2407,2.321 -2.1074,2.2741 -2.8381,4.0521 -2.0546,5 0.6688,0.809 1.3892,4.3097 1.6009,7.7792 0.3781,6.1953 0.2713,6.3833 -5.9795,10.5237 -3.5004,2.3185 -8.9301,4.6949 -12.066,5.2808 -9.2486,1.7279 -30.3776,12.4769 -33.1692,16.8744 -0.5864,0.9237 -1.8904,1.6796 -2.8977,1.6796 -1.0072,0 -3.614,1.5 -5.7928,3.3333 -2.1788,1.8334 -4.8515,3.3334 -5.9391,3.3334 -1.0877,0 -2.5706,0.75 -3.2956,1.6666 -0.7248,0.9167 -1.6668,14.5667 -2.0933,30.3334 -0.4552,16.8249 -1.4364,30.535 -2.3753,33.1898 l -1.5998,4.5231 -1.7761,-3.3896 c -0.9768,-1.8644 -2.1237,-6.8999 -2.5485,-11.1899 -0.425,-4.2901 -1.5894,-10.8001 -2.5875,-14.4668 -0.9983,-3.6666 -2.1743,-8.3166 -2.6136,-10.3333 -0.5439,-2.4972 -1.6409,-3.6667 -3.4399,-3.6667 -1.4526,0 -2.6412,-0.6 -2.6412,-1.3333 0,-0.7333 0.4535,-1.3333 1.0079,-1.3333 0.5543,0 1.8301,-1.8576 2.8351,-4.1279 1.6598,-3.7501 1.5784,-4.3768 -0.8911,-6.8461 l -2.7181,-2.7183 -4.4503,5.0229 c -2.4476,2.7626 -5.0501,6.0508 -5.7835,7.3074 -2.344,4.016 -10.8765,10.653 -14.1586,11.0134 -3.3624,0.3692 -4.0135,-2.2724 -1.8331,-7.4376 0.9617,-2.2782 0.4761,-2.3849 -6.8197,-1.4997 -4.3204,0.5241 -8.0539,1.1265 -8.2966,1.3387 -0.2428,0.212 0.2234,1.6276 1.0359,3.1457 1.418,2.6495 1.234,2.7269 -4.5831,1.9296 -4.4936,-0.6159 -6.6572,-0.2973 -8.3692,1.2324 -1.2698,1.1347 -3.8089,2.2677 -5.6422,2.5179 -2.7844,0.38 -3.2671,1.0782 -2.9311,4.2394 0.2212,2.0815 1.7365,6.8815 3.3673,10.6667 3.405,7.9033 3.21,12.3915 -0.5905,13.5977 -2.0376,0.6468 -4.6341,-1.1145 -11.2095,-7.6036 -4.7461,-4.6838 -8.9192,-10.0784 -9.3694,-12.112 -0.9646,-4.3556 -2.0388,-4.6058 -4.2907,-1 -0.916,1.4667 -3.0868,2.6667 -4.8241,2.6667 -1.7374,0 -3.8998,0.8928 -4.8054,1.9839 -4.9089,5.9149 -24.5882,12.7028 -33.7328,11.6353 -3.8088,-0.4447 -5.7733,0.1723 -8.8848,2.7904 -2.197,1.8487 -6.2598,4.1 -9.0285,5.0031 -2.7687,0.9029 -6.4648,2.7545 -8.2137,4.1145 -1.9456,1.5131 -5.3584,2.4728 -8.7934,2.4728 -5.3493,0 -10.0228,2.8448 -10.0292,6.1049 0,0.6756 -3.3372,1.3076 -7.4132,1.4044 -8.8822,0.2108 -13.4742,3.6762 -14.6257,11.0372 -0.4117,2.6328 -1.9123,7.7868 -3.3343,11.4535 -1.4221,3.6667 -3.1704,10.2667 -3.8852,14.6667 -0.7146,4.4 -1.8485,10.983 -2.5194,14.6289 -0.6711,3.6459 -0.9176,8.8832 -0.5482,11.6385 0.8518,6.3502 -2.3642,11.7326 -7.0102,11.7326 -4.5359,0 -5.0103,-2.5967 -4.8728,-26.6667 0,-1.1 -0.3936,-8.3 -0.8886,-16 -0.7414,-11.5344 -1.2522,-13.9009 -2.9,-13.4377 -1.1,0.3093 -4.2948,0.4416 -7.0996,0.2938 -3.5996,-0.1896 -6.844,0.8218 -11.029,3.4376 -4.9754,3.11 -5.8254,4.2427 -5.2827,7.0396 0.3557,1.8334 1.0324,5.4334 1.5037,8 0.4712,2.5667 1.5936,5.2667 2.4943,6 0.9005,0.7334 2.0132,3.6694 2.4725,6.5246 0.4594,2.8552 1.984,6.4552 3.388,8 9.0956,10.0076 4.482,19.4542 -6.4714,13.2506 -2.3714,-1.343 -5.7011,-3.2078 -7.3995,-4.1441 -3.8435,-2.1188 -11.2429,-14.808 -11.2429,-19.2803 0,-1.8284 -1.2,-4.85 -2.6667,-6.7146 -1.4667,-1.8646 -2.6667,-4.9316 -2.6667,-6.8158 0,-3.3222 -0.2492,-3.4221 -8.2533,-3.3094 -4.5393,0.064 -9.2905,0.764 -10.5584,1.5557 -1.7203,1.0743 -2.8765,0.9652 -4.5576,-0.4299 -1.9623,-1.6285 -2.4917,-1.5424 -4.1083,0.6684 -1.0206,1.3958 -1.8557,3.1067 -1.8557,3.802 0,0.7335 -2.7989,0.9328 -6.6667,0.4747 -3.6666,-0.4343 -6.6666,-0.3359 -6.6666,0.2185 0,1.4639 -16.7751,6.5022 -25.283,7.5935 -4.0056,0.5137 -10.6056,2.6227 -14.6666,4.6863 -4.0611,2.0636 -10.2338,4.5142 -13.7171,5.4458 -3.4833,0.9315 -6.3333,2.429 -6.3333,3.3274 0,0.8985 -1.2,2.0145 -2.6667,2.48 -1.4667,0.4654 -2.6667,1.6392 -2.6667,2.6081 0,0.9689 -2.13,2.1613 -4.7333,2.6497 -3.9119,0.7339 -4.5912,1.3362 -3.914,3.4698 1.1957,3.7673 -0.3243,5.5597 -3.344,3.9437 -1.9485,-1.0429 -2.6617,-0.8243 -3.2504,0.9964 -0.9277,2.8687 -8.7443,8.3323 -11.9208,8.3323 -1.2819,0 -5.0811,2.1 -8.4425,4.6666 -3.3615,2.5667 -6.6067,4.6667 -7.2115,4.6667 -1.6035,0 -17.6615,11.0337 -18.9164,12.9979 -0.5864,0.9178 -1.6092,1.6688 -2.2727,1.6688 -1.5592,0 -7.527,5.9688 -9.3228,9.3242 -1.102,2.0591 -2.2849,2.4316 -5.6978,1.7942 -3.5511,-0.6632 -4.0146,-0.4926 -2.6404,0.972 0.9166,0.9769 1.6666,2.4912 1.6666,3.365 0,2.325 -6.571,3.6171 -8.8358,1.7375 -1.503,-1.2473 -2.2634,-1.1619 -3.5392,0.3976 -0.8938,1.0925 -4.325,3.5911 -7.625,5.5524 -15.6648,9.3104 -21.4962,13.1175 -24.2884,15.8571 -1.308,1.2833 -2.912,2.3333 -3.5643,2.3333 -0.6524,0 -3.5024,2.0861 -6.3334,4.6357 -2.8309,2.5496 -5.8568,4.6496 -6.724,4.6667 -0.8673,0.017 -1.9445,1.1892 -2.3938,2.6049 -0.4493,1.4158 -2.4644,2.9359 -4.4779,3.3782 -2.0136,0.4422 -6.1421,3.141 -9.1746,5.9974 -3.0324,2.8564 -7.0578,6.2052 -8.9452,7.4419 -1.8874,1.2367 -3.4317,3.3145 -3.4317,4.6173 0,1.3418 -1.3007,2.6992 -3,3.131 -1.65,0.4192 -4.987,2.5842 -7.4156,4.8112 -2.4286,2.227 -5.4343,4.049 -6.6793,4.049 -1.245,0 -3.0131,1.2 -3.929,2.6667 -0.9415,1.5075 -3.1094,2.6667 -4.9874,2.6667 -3.3576,0 -4.4418,1.8172 -1.9887,3.3333 2.6093,1.6127 1.2647,3.2253 -3.4219,4.1045 -3.2557,0.6108 -6.8297,2.9996 -11.3334,7.5748 -3.6179,3.6755 -6.578,7.137 -6.578,7.6923 0,0.5552 -3.30003,3.9187 -7.33343,7.4743 -4.0333,3.5556 -7.3333,7.29 -7.3333,8.2988 0,2.621 -10.2191,12.1886 -13.0187,12.1886 -1.2919,0 -3.058,1.35 -3.9245,3 -2.3621,4.4976 -5.2257,10.7046 -6.1514,13.3334 -0.4527,1.2853 -2.1879,2.3466 -3.8636,2.3629 -1.673,0.016 -4.289,1.0664 -5.8133,2.3333 -3.7963,3.1556 -12.422,14.0899 -15.2475,19.3284 -1.6351,3.0318 -3.1294,4.1906 -5.0419,3.9103 -1.7843,-0.2616 -3.0161,0.5405 -3.5856,2.3347 -0.4771,1.5033 -1.9069,3.2896 -3.1774,3.9694 -1.2704,0.6799 -4.0505,4.6766 -6.1779,8.8812 -2.1274,4.2048 -5.445,8.5502 -7.3725,9.6563 -1.9275,1.1063 -4.5119,3.7665 -5.7431,5.9119 -1.2312,2.1453 -3.4301,4.2121 -4.8864,4.5929 -1.6431,0.4296 -3.2255,2.6207 -4.1703,5.7739 -0.8373,2.7948 -3.1542,6.868 -5.1485,9.0514 -1.9943,2.1836 -4.0162,5.9207 -4.493,8.3047 -1.2927,6.4635 -3.1389,7.922 -10.0279,7.922 -4.7748,0 -7.0161,-0.7719 -9.8368,-3.3873 -2.0092,-1.863 -3.653,-3.9482 -3.653,-4.6336 0,-0.7719 -1.2441,-0.7735 -3.2673,0 -2.8918,1.0993 -3.7623,0.5974 -7.5727,-4.3664 -2.3679,-3.0847 -5.3337,-6.5086 -6.5907,-7.6086 -5.1125,-4.4741 -4.5214,-7.4578 3.9953,-20.1693 4.4561,-6.6509 8.1084,-13.0836 8.1162,-14.2949 0.01,-1.2114 2.1245,-4.253 4.7038,-6.7592 2.9084,-2.8262 5.2457,-6.7656 6.1539,-10.3723 0.8054,-3.1985 3.1051,-7.572 5.1105,-9.7188 2.0054,-2.1468 4.4242,-5.7813 5.3749,-8.0767 0.9633,-2.3256 4.1447,-5.6774 7.1857,-7.5706 7.1738,-4.4662 10.1237,-7.6582 10.1237,-10.9548 0,-6.3002 9.0039,-19.5188 26.8215,-39.3764 2.6518,-2.9555 5.7899,-7.2707 6.9734,-9.5892 1.1835,-2.3186 3.5525,-5.3186 5.2645,-6.6667 1.7119,-1.3481 4.2235,-4.2511 5.5812,-6.4511 1.3577,-2.2 4.0812,-5.5 6.0522,-7.3333 1.9709,-1.8333 4.9458,-6.6333 6.6109,-10.6667 4.0967,-9.9236 7.1393,-13.9402 12.4789,-16.4741 2.476,-1.1749 7.6333,-5.1229 11.4606,-8.7733 3.8274,-3.6503 8.0051,-6.9691 9.2837,-7.3748 1.2786,-0.4059 3.6079,-2.4734 5.1761,-4.5946 1.5682,-2.121 6.19893,-5.7718 10.29053,-8.1128 5.7198,-3.2725 7.2642,-4.8081 6.6817,-6.6434 -0.5126,-1.6152 0.5824,-3.5148 3.3859,-5.8738 2.2789,-1.9176 4.7109,-3.4865 5.4045,-3.4865 0.6935,0 4.2514,-3.1353 7.9064,-6.9673 6.3902,-6.6998 6.5311,-7.0096 3.6681,-8.0688 -1.6376,-0.6058 -4.4121,-0.7414 -6.1656,-0.3012 -2.0172,0.5062 -4.0653,0 -5.5767,-1.3615 -2.1817,-1.9744 -2.7401,-1.98 -6.4437,-0.065 -2.2302,1.1533 -5.6087,2.0969 -7.5077,2.0969 -1.8989,0 -5.7363,1.1651 -8.52753,2.5889 -3.0485,1.5554 -9.0572,2.8699 -15.0486,3.2923 -5.4856,0.3868 -11.728,1.6181 -13.872,2.7361 -2.1441,1.1182 -5.0983,2.0388 -6.565,2.0462 -1.4666,0.013 -4.6311,1.2109 -7.0322,2.6748 -2.401,1.464 -6.151,2.6617 -8.3333,2.6617 -2.1823,0 -3.9678,0.6 -3.9678,1.3333 0,0.7334 -2.0646,1.3334 -4.588,1.3334 -2.5234,0 -4.9588,-0.6 -5.412,-1.3334 -1.2193,-1.9728 -3.3333,-1.6172 -3.3333,0.5607 0,1.0457 -1.9064,2.3128 -4.2564,2.8289 -3.5046,0.7698 -4.7018,0.3848 -6.7786,-2.18 l -2.5222,-3.1148 -2.5251,3.286 c -1.3888,1.8072 -2.5567,4.7859 -2.5953,6.6192 -0.061,2.9111 -0.2424,3.0378 -1.4292,1 -0.7475,-1.2833 -2.5206,-2.3333 -3.9404,-2.3333 -4.1237,0 -14.8071,2.8805 -20.8676,5.6265 -4.2418,1.9219 -8.7124,2.5352 -18.6261,2.5556 -7.9894,0.016 -14.7442,0.7368 -17.4301,1.8591 -3.8007,1.588 -5.1395,1.5489 -10.0406,-0.2929 -6.8626,-2.5792 -25.4309,-2.9695 -44.3218,-0.9316 -7.3333,0.791 -13.94001,0.9764 -14.68153,0.4118 -0.74153,-0.5645 -4.83266,-0.2165 -9.09142,0.7735 -6.53702,1.5196 -8.71551,1.5132 -13.98511,-0.041 -3.43304,-1.0127 -8.34191,-1.8304 -10.90857,-1.8175 -12.91307,0.065 -93.97898,-1.5339 -102.66667,-2.0255 -6.95925,-0.3938 -14.86519,-2.1948 -26,-5.923 -11.62587,-3.8926 -20.73864,-5.9234 -33.33333,-7.4282 -45.5079,-5.4377 -74.09107,-11.4793 -98,-20.7142 -9.16667,-3.5407 -21.08519,-7.4238 -26.4856,-8.6291 -5.40042,-1.2052 -12.00042,-3.3036 -14.66667,-4.6629 -6.98576,-3.5618 -37.76069,-13.0375 -49.73123,-15.3124 -10.96698,-2.0843 -15.15654,-3.909 -29.957,-13.0464 -5.22893,-3.2283 -12.01014,-6.6958 -15.06934,-7.7054 -5.8298,-1.924 -9.26824,-5.3728 -18.09016,-18.1448 -2.93334,-4.2466 -10.33166,-12.8117 -16.44071,-19.0333 -10.37439,-10.5655 -11.18604,-11.8027 -12.29961,-18.7484 -0.65575,-4.0901 -2.82199,-14.8899 -4.81388,-23.9996 l -3.62163,-16.5629 2.27392,-13.4403 c 1.25065,-7.392 2.64589,-17.6387 3.10052,-22.7703 0.62217,-7.0226 1.91767,-11.3085 5.23837,-17.3301 2.42647,-4.4 5.8202,-13.4428 7.54164,-20.0949 3.38234,-13.0706 3.96886,-13.9212 31.09578,-45.0942 21.63846,-24.8658 33.36266,-39.5681 41.58225,-52.1442 16.39273,-25.0812 18.35489,-27.908 26.80271,-38.6134 4.65265,-5.896 10.7686,-15.22 13.59098,-20.72 7.25126,-14.1305 18.67472,-27.7027 36.51591,-43.3842 8.47511,-7.4492 20.58771,-19.7852 26.91691,-27.4133 10.58714,-12.7598 30.93106,-32.8746 65.93344,-65.191 19.64402,-18.1366 27.82918,-29.7976 40.32173,-57.4445 4.97615,-11.0125 16.69315,-27.7429 23.79916,-33.98197 5.86368,-5.1484 24.99795,-18.8091 35.12917,-25.0801 4.4,-2.7235 10.78447,-6.7367 14.1877,-8.9183 3.40322,-2.1815 10.30322,-5.0834 15.33333,-6.4485 5.03011,-1.3652 12.74564,-4.0405 17.14564,-5.9451 7.07177,-3.0612 9.85644,-3.4756 24,-3.5715 11.09495,-0.075 18.65691,-0.8504 24.66667,-2.5284 4.76666,-1.3309 17.4627,-4.8667 28.21344,-7.8574 25.13619,-6.9925 41.22349,-13.2421 57.57529,-22.367 7.2171,-4.0274 17.8503,-8.8163 23.6294,-10.6419 9.7167,-3.0695 11.3352,-3.2155 21.5096,-1.9397 6.0513,0.7588 20.9181,1.3912 33.0373,1.4055 12.6639,0.015 27.7054,0.8784 35.3683,2.0303 22.2452,3.3441 62.96133,3.9745 91.33333,1.4141 13.5667,-1.2243 35.1667,-2.761 48,-3.4148 12.8334,-0.6539 30.5334,-2.3988 39.3334,-3.8776 28.9444,-4.864 40.8696,-5.8605 82,-6.8523 23.6188,-0.5695 43.7409,-1.6711 48,-2.6279 4.0333,-0.906 12.7333,-4.2747 19.3333,-7.4859 l 12,-5.8386 28.6667,-1.3031 c 32.1056,-1.4595 41.5341,-3.2077 54.5373,-10.1124 7.1427,-3.7928 10.1552,-4.6273 16.7524,-4.6405 4.424,-0.01 17.0251,-1.5211 28.0025,-3.3605 12.0667,-2.022 30.2563,-3.8469 46,-4.6149 17.33,-0.8455 30.0552,-2.1852 38.0411,-4.0049 6.6,-1.5039 20.4,-4.1975 30.6667,-5.9857 10.2666,-1.7883 23.5118,-4.1069 29.4338,-5.1526 5.9219,-1.0456 15.2219,-3.814 20.6667,-6.1519 9.0449,-3.8839 12.004,-4.4089 34.2809,-6.0832 13.4098,-1.0079 33.2098,-3.1245 44,-4.7035 18.134,-2.6538 21.0038,-2.7457 37.9259,-1.2143 29.6475,2.683 48.5556,0.6109 72.3593,-7.9301 33.7131,-12.0997 39.5038,-13.4523 57.5779,-13.4523 18.5988,0 40.0496,-3.7121 61.0888,-10.5716 6.6,-2.1518 16.5,-5.2133 22,-6.8033 5.5,-1.59 17.616,-6.132 26.9243,-10.0933 12.7433,-5.423 20.1545,-7.7002 30,-9.2178 24.2166,-3.7326 30.361,-5.0098 43.0757,-8.9532 11.8447,-3.6735 14.7001,-3.9987 44,-5.01 33.9713,-1.1725 44.9635,-2.9627 65.0299,-10.5908 15.8624,-6.03 20.6392,-6.9949 27.2709,-5.5087 3.2008,0.7174 12.0925,1.3235 19.7595,1.3469 8.6498,0.026 16.7225,0.8467 21.273,2.1615 12.6138,3.6446 17.8516,4.7148 22.4702,4.5913 2.4585,-0.066 6.4164,1.0287 8.7953,2.4322 3.0292,1.7874 4.9897,2.18 6.5433,1.3106 1.5824,-0.8856 2.4351,-0.6765 2.9746,0.7294 0.416,1.084 2.839,2.9592 5.3848,4.1672 4.4118,2.0936 4.8485,2.0665 9.3325,-0.5791 5.3848,-3.1771 7.874,-2.559 5.7415,1.4257 -1.3714,2.5626 -1.0488,2.6686 7.663,2.5181 5.0022,-0.086 10.5948,-0.1336 12.4282,-0.1047 61.7797,0.9707 61.9189,0.9662 62.4628,-2.0323 0.7226,-3.9843 2.3349,-4.9319 5.5049,-3.2353 2.3585,1.2622 3.3688,1.1577 5.2481,-0.5431 2.9428,-2.6632 8.6158,-2.7191 10.7842,-0.1063 2.1436,2.5829 6.5085,2.5564 9.3965,-0.057 2.0525,-1.8575 2.7485,-1.8305 7.1708,0.2784 4.6469,2.2159 5.3552,2.2182 13.8319,0.046 4.9137,-1.2593 10.9029,-2.2846 13.3093,-2.2784 2.6057,0.01 4.676,-0.7728 5.1191,-1.9274 0.409,-1.0662 2.8562,-3.1849 5.4381,-4.7082 5.0196,-2.9616 8.3795,-1.9735 8.4213,2.4767 0.016,1.6952 0.2668,1.7814 1.1464,0.3939 0.6366,-1.0041 4.6723,-2.0977 9.2847,-2.5159 6.6835,-0.6061 8.3059,-0.3565 8.9723,1.3801 0.6686,1.7427 1.2833,1.8345 3.4545,0.5159 2.2748,-1.3815 3.0511,-1.0954 5.5981,2.0628 2.2598,2.8019 4.1162,3.6666 7.8714,3.6666 2.7028,0 7.631,1.3199 10.9514,2.9331 5.5442,2.6936 6.6699,2.8025 13.7827,1.3334 10.0384,-2.0734 24.9636,-2.0497 28.6724,0.046 5.8488,3.3041 16.5283,5.3808 28.5017,5.5422 11.4363,0.1543 12.5112,0.4099 16.073,3.8222 2.6336,2.5232 5.2412,3.6645 8.4106,3.6812 2.8664,0.015 6.8,1.5193 10.4611,4 3.2269,2.1867 6.9309,3.9758 8.2311,3.9758 1.3,0 4.1462,1.5 6.325,3.3333 2.1788,1.8333 4.475,3.3362 5.1024,3.3397 0.6275,0 3.393,2.0749 6.1456,4.6031 2.7527,2.5282 5.9218,5.1099 7.0424,5.737 1.1207,0.6272 3.0686,3.2058 4.3286,5.7303 1.8206,3.6477 3.1417,4.633 6.4354,4.7998 2.2795,0.1155 6.6056,1.4654 9.6135,3 3.7031,1.8891 7.9855,2.7901 13.2616,2.7901 6.996,0 8.2963,0.4614 12.7199,4.5132 2.735,2.5052 4.9272,5.7805 4.9272,7.3619 0,1.7097 1.274,3.4292 3.1862,4.3005 3.3635,1.5325 6.1471,6.2653 6.1471,10.4515 0,2.8104 6.5617,11.2556 7.7907,10.0267 0.4356,-0.4357 0.8109,-4.6307 0.834,-9.3223 0.023,-4.6916 0.6828,-9.1712 1.4658,-9.9547 0.7831,-0.7835 5.0651,-2.0659 9.5155,-2.8498 6.44,-1.1344 9.6873,-1.0191 15.9095,0.5649 14.73,3.7499 22.755,4.1584 28.7333,1.4626 5.3975,-2.4339 5.4191,-2.4323 7.8581,0.5798 1.9382,2.3935 2.9688,2.7406 4.9652,1.6722 2.7379,-1.4653 5.5946,0.3015 5.5946,3.4602 0,0.9533 0.793,1.7333 1.7625,1.7333 3.2968,0 14.8921,-4.4086 18.084,-6.8756 1.7488,-1.3517 4.2059,-2.4577 5.46,-2.4577 1.2541,0 3.3661,-1.2 4.6935,-2.6667 1.3273,-1.4667 3.4002,-2.6667 4.6066,-2.6667 1.2063,0 2.7634,-0.5211 3.46,-1.158 2.0675,-1.8901 12.7252,-5.5133 21.2832,-7.2355 9.3875,-1.889 39.3351,-0.9985 42.1392,1.2531 1.0143,0.8145 5.1756,1.7438 9.2472,2.0652 5.5182,0.4355 8.974,1.6651 13.5736,4.8297 3.3939,2.3351 6.8126,4.2455 7.5971,4.2455 0.7845,0 1.4264,1.435 1.4264,3.1888 0,2.268 0.9389,3.4245 3.2515,4.0049 2.4936,0.6258 4.6689,3.7107 9.3333,13.2359 3.3451,6.8309 6.0819,13.3622 6.0819,14.5141 0,1.1518 1.1157,3.4722 2.4794,5.1563 2.3606,2.9152 3.2718,3.0536 19,2.8862 11.5823,-0.1234 18.0023,-0.7952 21.4778,-2.2477 2.7264,-1.1395 5.8381,-2.0718 6.915,-2.0718 3.3439,0 27.5338,-6.4269 40.1104,-10.6568 6.5906,-2.2166 16.9331,-4.8942 22.9835,-5.9503 6.0504,-1.056 13.7844,-3.1515 17.1868,-4.6565 3.6279,-1.6048 9.0261,-2.7364 13.0536,-2.7364 5.2175,0 7.416,-0.6407 9.1508,-2.6667 1.2557,-1.4666 3.4731,-2.6666 4.9273,-2.6666 1.4542,0 5.21,-1.1571 8.3463,-2.5714 3.1364,-1.4142 9.3024,-3.4423 13.7024,-4.5068 4.4,-1.0645 15.2403,-4.9704 24.0895,-8.6798 16.8438,-7.0605 34.2328,-12.2359 41.1616,-12.2508 2.2453,-0.01 5.8822,-1.2009 8.0822,-2.6579 2.2,-1.457 6.1691,-2.6531 8.8202,-2.6579 2.6537,0 6.2494,-1.1215 8,-2.4845 5.9612,-4.6411 16.2512,-8.399 20.7206,-7.5671 2.4711,0.4599 6.598,-0.099 10,-1.3541 3.1859,-1.1755 8.4926,-2.7589 11.7926,-3.5186 3.3,-0.7597 6.9232,-2.1927 8.0516,-3.1845 4.1005,-3.6043 57.5049,-18.3197 65.359,-18.0095 2.6092,0.1031 6.8092,-0.6636 9.3334,-1.7036 2.5241,-1.0401 7.8893,-2.3267 11.9226,-2.8591 4.0334,-0.5325 8.4092,-1.534 9.7242,-2.2256 1.3149,-0.6916 6.4149,-2.0872 11.3333,-3.1012 11.5635,-2.3842 24.7116,-5.6329 32.2759,-7.975 3.3,-1.0218 8.7,-2.2561 12,-2.7429 3.3,-0.4869 11.7,-2.3923 18.6666,-4.2343 6.9667,-1.8419 16.2667,-3.9584 20.6667,-4.7031 4.4,-0.7448 10.1,-2.2841 12.6667,-3.4207 2.5666,-1.1367 7.9666,-2.3332 12,-2.6589 4.0333,-0.3258 8.0184,-1.1385 8.8557,-1.806 0.8372,-0.6676 6.6153,-1.7924 12.8403,-2.4998 6.2248,-0.7073 13.0397,-2.184 15.1442,-3.2816 2.1046,-1.0976 5.3076,-1.9993 7.1179,-2.0038 1.8104,0 10.5104,-2.049 19.3333,-4.5433 18.8847,-5.3387 31.6763,-8.5549 42.7086,-10.7382 4.4,-0.8708 9.689,-2.2905 11.7534,-3.155 2.0644,-0.8644 4.4644,-1.598 5.3334,-1.6302 0.8689,-0.032 3.9798,-0.9353 6.9132,-2.007 2.9333,-1.0716 9.4869,-2.5578 14.5636,-3.3026 5.0766,-0.7448 9.8766,-1.8724 10.6666,-2.5058 0.79,-0.6333 4.1364,-1.7855 7.4364,-2.5603 3.3,-0.7748 12.1214,-3.1865 19.603,-5.3593 7.4816,-2.1728 16.0284,-4.3604 18.9929,-4.8612 2.9647,-0.5009 5.7287,-1.4585 6.1425,-2.128 0.4138,-0.6695 3.267,-1.2436 6.3403,-1.2758 3.0735,-0.032 7.988,-0.9865 10.9213,-2.1206 2.9334,-1.1342 8.9334,-2.8277 13.3334,-3.7634 4.4,-0.9358 9.5,-2.4034 11.3333,-3.2614 1.8333,-0.8581 11.7333,-3.5821 22,-6.0535 10.2667,-2.4714 23.0091,-5.7495 28.3164,-7.2847 5.3075,-1.5352 10.8565,-2.7912 12.3315,-2.7912 4.0777,0 41.9672,-8.9888 59.3521,-14.0805 10.9808,-3.2161 41.7923,-9.901 55.3333,-12.0052 19.1131,-2.9701 47.8272,-8.5537 55.3334,-10.7598 3.6666,-1.0777 11.4666,-2.5482 17.3333,-3.2678 5.8667,-0.7196 13.6667,-2.1287 17.3333,-3.1314 9.0492,-2.4746 33.6911,-7.1488 49.6019,-9.4088 7.1856,-1.0207 19.1685,-2.7272 26.6287,-3.7923 7.4601,-1.0651 14.198,-2.3284 14.9729,-2.8073 0.7749,-0.4789 8.0871,-1.7482 16.2491,-2.8206 8.1621,-1.0724 15.3021,-2.2354 15.8669,-2.5844 0.5648,-0.3491 7.5489,-1.6147 15.5204,-2.8125 21.6391,-3.2515 27.2281,-4.1823 33.8268,-5.6331 3.3,-0.7255 15.6,-2.2937 27.3333,-3.4849 11.7334,-1.1912 27.6334,-3.1427 35.3334,-4.3368 7.7,-1.1941 19.1,-2.626 25.3333,-3.1822 12.7137,-1.1342 32.3612,-3.269 49.3333,-5.3604 22.813,-2.811 79.1043,-5.3968 92.1514,-4.233 5.3137,0.474 8.4076,0.087 10.6666,-1.3349 2.245,-1.4129 8.3875,-2.1968 20.8588,-2.6619 9.7223,-0.3626 18.4223,-1.2433 19.3334,-1.9573 0.911,-0.7139 10.9565,-1.3114 22.3232,-1.3277 11.3666,-0.016 29.0666,-0.8519 39.3333,-1.8568 10.2667,-1.0049 23.4667,-1.6183 29.3333,-1.363 12.9436,0.5631 40.5511,0.7577 64,0.451 9.5334,-0.1247 20.917,0.419 25.2968,1.2082 4.3879,0.7907 12.47,1.0561 18,0.5911 21.4684,-1.8052 66.7904,5.0078 91.017,13.6821 15.0521,5.3894 17.3396,6.6206 20.143,10.8417 1.7395,2.619 6.3983,7.1394 10.353,10.0453 7.8922,5.7994 15.3172,14.7684 16.6621,20.1273 0.7776,3.0979 -0.1739,2.6483 -9.6379,-4.5544 -7.0525,-5.3674 -14.5804,-9.5931 -22.9246,-12.8683 -6.8332,-2.6822 -15.8332,-6.8972 -20,-9.3668 -4.5307,-2.6853 -10.7919,-5.024 -15.576,-5.818 -4.4,-0.7303 -14.5658,-2.5598 -22.5906,-4.0655 -16.4544,-3.0875 -25.5996,-3.4155 -34.9744,-1.2543 -5.0462,1.1633 -11.6146,0.979 -30.435,-0.8541 -30.4499,-2.9657 -143.7119,-4.4044 -159.3334,-2.0238 -5.5,0.8382 -16.9,2.0771 -25.3333,2.7532 -14.8251,1.1886 -120.8205,6.1177 -149.3381,6.9448 -11.4346,0.3316 -14.8603,0.9244 -18.6667,3.2303 -4.1819,2.5333 -7.2705,2.8961 -29.9952,3.523 -21.462,0.5922 -27.3663,1.227 -38.6361,4.1544 -7.3166,1.9004 -16.6323,3.4554 -20.7016,3.4554 -10.808,0 -28.5783,2.4493 -39.2736,5.4131 -6.364,1.7635 -13.5684,2.5869 -22.6362,2.5869 -11.0494,0 -15.3426,0.6583 -25.3601,3.8889 -13.5259,4.3619 -27.4675,6.6115 -50.0591,8.0771 -14.1646,0.9189 -26.4065,3.8245 -35.1613,8.3455 -1.372,0.7085 -8.8412,1.8393 -16.5981,2.5129 -9.4394,0.8196 -15.4692,2.0304 -18.2334,3.6613 -2.6476,1.5622 -8.3722,2.781 -15.9498,3.3958 -6.7447,0.5473 -14.7334,2.1402 -18.6052,3.7099 -4.9191,1.9942 -11.3699,3.0032 -23.4522,3.6682 -18.5482,1.0208 -27.6172,3.8891 -32.9877,10.4331 -2.9787,3.6295 -3.0343,3.6393 -18.1716,3.2218 -16.0903,-0.4439 -21.2371,0.724 -28.5536,6.4792 -3.0248,2.3793 -4.6621,2.6698 -10.9407,1.9411 -6.5712,-0.7627 -8.2397,-0.4065 -15.1669,3.2375 -4.2809,2.2519 -9.2621,4.0943 -11.0692,4.0943 -1.8071,0 -4.5753,0.6903 -6.1517,1.534 -1.5764,0.8436 -9.7871,2.0019 -18.2458,2.5739 -16.5778,1.121 -33.3514,5.8301 -44.9248,12.6126 -3.2297,1.8927 -9.3032,3.9965 -13.4968,4.6752 -4.1934,0.6787 -12.2341,3.0121 -17.8682,5.1853 -7.8912,3.0439 -13.4027,4.1498 -24,4.8159 -11.0984,0.6976 -15.3731,1.6018 -22.124,4.6799 -4.6023,2.0984 -10.6023,4.2069 -13.3334,4.6856 -6.1406,1.0762 -10.6301,3.6942 -14.9656,8.7269 -2.7233,3.1613 -5.2456,4.233 -13.784,5.8567 -5.7478,1.0931 -12.4369,1.9874 -14.8645,1.9874 -2.4277,0 -7.6336,1.6936 -11.5685,3.7635 -6.1455,3.2327 -9.7059,3.9779 -25.2419,5.2834 -12.4808,1.0488 -20.0589,2.3651 -24.4483,4.2466 -3.8544,1.6522 -11.6938,3.2077 -19.8936,3.9474 -14.439,1.3025 -33.6378,6.2795 -41.03,10.6365 -6.7413,3.9733 -19.2049,6.7892 -30.0504,6.7892 -15.2958,0 -29.711,3.6374 -47.1188,11.8895 -5.6356,2.6716 -10.765,4.1161 -14.6666,4.1303 -8.0624,0.03 -24.1364,4.0606 -37.3334,9.3629 -14.3908,5.782 -20.9842,7.8439 -29.4329,9.2043 -9.1455,1.4726 -24.8396,6.166 -37.9004,11.3343 -5.7052,2.2577 -12.1444,3.4402 -22.4476,4.1226 -13.3497,0.8842 -14.9428,1.2902 -20.9652,5.3429 -3.5847,2.4124 -8.4832,4.8065 -10.8857,5.3203 -2.4026,0.5138 -4.9682,1.4137 -5.7015,1.9998 -0.7333,0.5861 -5.5333,2.6343 -10.6667,4.5516 -5.1333,1.9173 -14.4333,5.8128 -20.6666,8.6567 -6.2334,2.8439 -13.4334,6.0745 -16,7.1793 -2.5667,1.1047 -7.9667,3.4857 -12,5.2911 -4.0334,1.8054 -9.5967,3.6869 -12.3631,4.1812 -2.7664,0.4942 -8.7664,2.8189 -13.3333,5.1659 -4.567,2.347 -10.7036,5.077 -13.637,6.0666 -2.9333,0.9896 -9.0701,3.5831 -13.6373,5.7634 -4.5673,2.1804 -8.8996,3.5962 -9.6276,3.1463 -0.7279,-0.4499 -3.1112,0.1065 -5.2964,1.2365 -2.1851,1.13 -5.7217,2.0545 -7.8593,2.0545 -2.1375,0 -5.3502,1.1515 -7.1394,2.5588 -1.789,1.4073 -8.62,4.2981 -15.1797,6.424 -9.7777,3.1687 -12.0039,4.3905 -12.3537,6.7805 -0.8714,5.951 3.9826,5.2053 29.0934,-4.4693 10.6276,-4.0946 14.29,-4.8739 33.6054,-7.1507 4.5669,-0.5383 8.8282,-1.9445 10.6666,-3.5198 4.4163,-3.7845 8.6467,-5.9568 11.6004,-5.9568 2.3364,0 11.295,-3.8479 20.2542,-8.6995 1.9029,-1.0305 7.9029,-2.5795 13.3333,-3.4422 6.9808,-1.1091 12.1839,-2.9479 17.7593,-6.2765 5.2862,-3.1559 11.0006,-5.2413 17.3334,-6.3257 10.6101,-1.8169 19.3137,-4.2711 30.1141,-8.4913 4.0333,-1.576 10.9333,-3.6821 15.3333,-4.6803 4.4,-0.9981 16.4,-3.7107 26.6667,-6.0279 10.2667,-2.3173 19.8667,-4.749 21.3333,-5.4039 1.4667,-0.6549 5.6667,-1.4666 9.3334,-1.8038 12.0008,-1.1036 29.0769,-4.9172 43.3333,-9.6777 14.3689,-4.798 33.6721,-9.3427 56,-13.1843 8.6713,-1.492 14.8728,-3.4405 19.6611,-6.1778 6.6205,-3.7847 8.1176,-4.0586 28,-5.1235 13.006,-0.6966 24.814,-2.1127 31.0056,-3.7182 13.6421,-3.5376 16.9998,-4.1497 34.6666,-6.3201 8.4334,-1.0361 24.9334,-3.0741 36.6667,-4.529 11.7333,-1.4549 23.7333,-2.9205 26.6667,-3.257 27.6914,-3.1759 41.9124,-5.2037 52.6666,-7.5097 19.8078,-4.2475 38.4943,-5.9397 66.6667,-6.0371 31.9937,-0.1107 82.3339,-2.7332 102,-5.3137 37.9189,-4.9756 47.5328,-5.2837 123.3333,-3.9519 39.0374,0.6858 62.851,0.4899 80.8594,-0.6654 32.6054,-2.0916 204.983,-2.2946 233.8073,-0.2754 11.3667,0.7963 30.2667,2.1104 42,2.9203 11.7333,0.81 23.4333,1.7593 26,2.1096 8.2131,1.121 31.0576,1.8399 100.9049,3.1753 59.8158,1.1437 69.69,1.6279 80,3.923 6.469,1.44 18.9616,3.048 27.7614,3.5732 12.556,0.7494 17.4345,1.6232 22.6666,4.0597 5.472,2.5482 8.8976,3.1071 19.1103,3.1178 10.8951,0.012 13.5769,0.5106 21.5568,4.013 5.0125,2.2 10.624,4 12.47,4 5.3501,0 9.3183,2.0317 15.4221,7.8963 3.1346,3.0117 8.4407,7.0824 11.7915,9.0461 5.9699,3.4986 17.6497,14.1638 17.6497,16.1165 0,0.5438 1.4475,3.1189 3.2167,5.7225 1.7692,2.6035 3.8855,7.2175 4.7029,10.2532 0.8174,3.0357 1.9554,5.8094 2.5288,6.1638 1.6755,1.0355 0.9131,38.8551 -1.0929,54.2155 -1.6539,12.6638 -1.6131,15.0114 0.4063,23.3333 1.2349,5.089 2.2437,10.4577 2.2417,11.9304 0,2.96 6.5227,22.0939 9.3075,27.2872 0.9728,1.8139 4.6085,6.3139 8.0796,10 8.878,9.4279 17.7744,22.8856 22.5541,34.1179 4.5381,10.6643 16.1867,30.59317 19.4792,33.32567 1.1699,0.971 3.8236,5.1262 5.8971,9.2338 3.834,7.595 13.0541,17.9898 17.1105,19.2904 1.2293,0.3941 3.7352,3.558 5.5685,7.0308 1.8334,3.4729 5.4334,7.7159 8,9.4289 2.5667,1.7131 5.4834,4.7256 6.4816,6.6945 0.9983,1.9689 4.6544,6.5799 8.125,10.2465 3.4704,3.6667 7.9702,9.587 9.9994,13.1562 3.9543,6.9553 14.4726,20.0301 24.8127,30.8438 4.1412,4.3308 9.3591,12.5223 14.8917,23.3785 4.6844,9.1915 9.9188,18.6079 11.6322,20.9252 2.4094,3.2591 3.2614,6.4952 3.7616,14.2882 0.4221,6.5784 0.159,10.0748 -0.7583,10.0748 -2.9471,0 -11.4548,-11.9263 -19.0229,-26.6667 -5.8746,-11.442 -9.8967,-17.3636 -15.8487,-23.3333 -4.3869,-4.4 -7.9983,-8.75 -8.0252,-9.6667 -0.027,-0.9166 -0.6001,-1.6666 -1.2736,-1.6666 -0.6736,0 -2.6073,-2.25 -4.2973,-5 -5.0644,-8.2412 -23.2736,-30.3409 -27.0247,-32.7987 -1.9221,-1.2595 -6.69,-7.2427 -10.5949,-13.2959 -6.0903,-9.4407 -12.0528,-16.3973 -31.5107,-36.7648 -4.1797,-4.3751 -9.3479,-11.8572 -9.3479,-13.5332 0,-0.7008 -0.6306,-1.2741 -1.4013,-1.2741 -0.7708,0 -2.2788,-2.1 -3.3512,-4.6667 -1.0725,-2.5666 -2.5348,-4.6666 -3.2496,-4.6666 -0.7148,0 -1.6835,-2.4 -2.1525,-5.3334 -0.4691,-2.9333 -1.3354,-5.33327 -1.925,-5.33327 -2.1488,0 -7.0161,-8.4542 -8.0484,-13.9792 -0.6677,-3.5744 -2.5702,-7.1806 -5.1482,-9.7586 -2.2491,-2.249 -4.4463,-5.8749 -4.8828,-8.0576 -0.4676,-2.3381 -1.8304,-4.2395 -3.3174,-4.6283 -1.4621,-0.3824 -2.5236,-1.8341 -2.5236,-3.4515 0,-1.5353 -0.7954,-2.7915 -1.7676,-2.7915 -2.5649,0 -7.2237,-5.4185 -8.2644,-9.612 -0.4929,-1.9865 -1.7374,-4.31 -2.7654,-5.1632 -1.0282,-0.8532 -1.8692,-2.9044 -1.8692,-4.5581 0,-1.6538 -0.9626,-3.8056 -2.139,-4.782 -1.1764,-0.9763 -2.7021,-2.9997 -3.3905,-4.4965 -0.6884,-1.4969 -2.1171,-4.2215 -3.1748,-6.0548 -1.0577,-1.8334 -1.932,-6.1536 -1.9428,-9.6005 -0.015,-4.5679 -0.6523,-6.6213 -2.3529,-7.5736 -2.0738,-1.1611 -2.333,-3.7272 -2.33,-23.0662 0,-18.1909 0.3853,-22.4596 2.3333,-26.0269 3.1984,-5.8573 3.4675,-37.0111 0.33,-38.215 -1.1,-0.4221 -2,-1.8945 -2,-3.272 0,-1.3774 -1.1368,-3.8152 -2.5261,-5.4172 -1.3895,-1.6019 -2.9056,-4.8437 -3.3695,-7.204 -0.5676,-2.8882 -2.4209,-5.3812 -5.6684,-7.6246 -5.9893,-4.1377 -15.1027,-12.8277 -15.1027,-14.4012 0,-0.6446 -2.55,-1.9756 -5.6666,-2.9577 -3.1167,-0.9821 -7.8928,-2.8782 -10.6136,-4.2134 -2.7208,-1.3353 -6.3372,-2.4277 -8.0367,-2.4277 -1.6993,0 -4.3435,-0.8782 -5.8759,-1.9516 -2.0316,-1.4229 -8.7028,-2.1755 -24.63,-2.7787 -12.5512,-0.4753 -23.829,-1.5658 -26.5105,-2.5633 -2.8895,-1.0749 -15.3295,-2.1088 -32.6667,-2.715 -17.2193,-0.6022 -29.7968,-1.6438 -32.6666,-2.7055 -3.1156,-1.1526 -15.7454,-1.9755 -38,-2.4761 -21.9762,-0.4942 -36.5134,-1.4334 -42.6667,-2.7566 -7.252,-1.5594 -19.5913,-2.0213 -55.3333,-2.0712 -26.0648,-0.036 -50.3338,-0.6988 -56,-1.5283 -5.5,-0.8051 -13.6,-1.6903 -18,-1.967 -14.3639,-0.9035 -171.7675,-2.8381 -180.6667,-2.2206 -4.7667,0.3307 -12.9717,-0.2428 -18.2336,-1.2745 -5.3735,-1.0537 -10.4264,-1.3949 -11.5277,-0.7786 -1.0784,0.6035 -37.2734,1.4364 -80.4331,1.8509 -109.7569,1.0541 -119.4537,1.2844 -122.4756,2.9084 -1.5695,0.8435 -16.9592,1.8106 -37.3333,2.3462 -19.0648,0.5012 -36.707,1.437 -39.2046,2.0796 -2.4977,0.6426 -5.4398,0.6654 -6.5382,0.051 -1.2475,-0.6981 -4.1547,-0.1632 -7.7454,1.4251 -4.8,2.1233 -8.9633,2.5427 -25.2388,2.5427 -15.3756,0 -20.158,0.4372 -22.6512,2.0708 -2.4266,1.59 -8.6689,2.248 -26.8894,2.8345 -17.1658,0.5525 -24.0979,1.2439 -25.0624,2.4995 -0.9358,1.218 -7.4966,2.0037 -22,2.6345 -11.3667,0.4944 -21.6303,1.394 -22.8082,1.999 -1.1778,0.6051 -7.7778,1.7749 -14.6666,2.5997 -6.8888,0.8247 -14.7874,2.3498 -17.5522,3.3891 -2.9074,1.0929 -9.8482,1.8896 -16.4614,1.8896 -6.2891,0 -14.5268,0.88 -18.3064,1.9556 -3.7795,1.0756 -12.9448,2.5611 -20.3675,3.3012 -7.4225,0.7402 -14.9225,1.8763 -16.6667,2.5247 -1.744,0.6485 -6.879,1.588 -11.411,2.0878 -4.5322,0.4997 -9.9322,1.7213 -12,2.7145 -2.068,0.9932 -7.36,2.2289 -11.76,2.7459 -4.4,0.517 -9.1567,1.5575 -10.5703,2.3122 -1.4136,0.7547 -7.0253,1.8718 -12.4705,2.4824 -5.4452,0.6107 -10.666,1.7457 -11.6018,2.5223 -0.9357,0.7766 -6.7238,1.7899 -12.8626,2.2519 -6.847,0.5153 -12.9578,1.7925 -15.8084,3.3041 -2.5558,1.3552 -6.927,2.464 -9.7136,2.464 -2.7867,0 -6.4154,0.8837 -8.0638,1.9638 -1.6484,1.0801 -7.4696,2.3795 -12.9358,2.8876 -5.4663,0.508 -10.6872,1.6722 -11.6022,2.5871 -0.9149,0.9149 -6.1565,2.0845 -11.6478,2.5991 -5.6403,0.5286 -10.6276,1.7107 -11.4628,2.717 -0.8132,0.9798 -4.2794,2.1989 -7.7028,2.7091 -3.4234,0.5102 -7.5082,1.7653 -9.0775,2.7891 -1.5692,1.0238 -5.7692,2.3837 -9.3333,3.0219 -3.564,0.6383 -10.0823,1.8018 -14.4848,2.5858 -4.4027,0.7839 -10.3795,2.636 -13.282,4.1157 -2.9024,1.4798 -6.6715,2.6905 -8.3755,2.6905 -1.7041,0 -4.5773,0.9691 -6.3851,2.1536 -1.8476,1.2105 -7.2274,2.4236 -12.2864,2.7703 -4.9498,0.3392 -11.8109,1.7701 -15.2469,3.1797 -3.4359,1.4097 -7.4124,2.5631 -8.8367,2.5631 -1.4242,0 -3.272,0.8222 -4.106,1.8271 -0.834,1.0049 -3.954,2.154 -6.9333,2.5536 -2.9795,0.3997 -6.4677,1.6775 -7.752,2.8396 -1.2841,1.1621 -4.0875,2.1167 -6.2297,2.1212 -2.1423,0 -5.6207,0.9082 -7.7298,2.0081 -2.109,1.1 -7.1048,2.3842 -11.1016,2.854 -3.9968,0.4697 -9.448,1.9661 -12.1138,3.3252 -2.6659,1.3592 -5.4934,2.4712 -6.2832,2.4712 -0.7899,0 -3.7899,1.2 -6.6667,2.6666 -2.8768,1.4667 -6.4889,2.6667 -8.0271,2.6667 -1.5381,0 -3.9612,0.8809 -5.3848,1.9577 -1.4234,1.0766 -4.397,1.9766 -6.6078,2 -2.211,0.023 -6.111,1.1544 -8.6667,2.5136 -2.5559,1.3592 -7.0191,2.9093 -9.9183,3.4447 -2.8992,0.5353 -7.5868,2.1546 -10.4168,3.5984 -2.83,1.4437 -6.4578,2.4436 -8.062,2.222 -2.3568,-0.3257 -2.8516,0.1954 -2.578,2.7151 0.3154,2.9039 0,3.0598 -4.6856,2.2692 -4.9966,-0.8442 -15.4064,2.5339 -20.3196,6.594 -1.1,0.9089 -3.9312,2.0163 -6.2916,2.4607 -2.3605,0.4444 -5.5105,2.0267 -7,3.5163 -1.4896,1.4896 -3.6717,2.7084 -4.8492,2.7084 -1.1774,0 -3.9285,1.5042 -6.1134,3.3426 -2.185,1.8385 -6.5846,4.0005 -9.7771,4.8043 -3.1924,0.8039 -6.8344,2.5997 -8.0932,3.9907 -1.2588,1.3909 -3.4201,2.529 -4.8028,2.529 -2.3272,0 -8.5483,3.7266 -12.7985,7.6667 -0.989,0.9167 -2.887,1.6667 -4.218,1.6667 -3.956,0 -4.204,7.1633 -0.4398,12.703 2.4594,3.6191 3.8162,4.489 6.1062,3.9148 1.6192,-0.4061 16.061,-0.1427 32.0928,0.5853 27.0388,1.2277 29.4782,1.5458 33.7008,4.3935 7.7437,5.2226 10.0242,10.6051 12.5993,29.7367 1.2831,9.5333 2.9743,20.92917 3.7583,25.32417 1.5324,8.5909 0.7265,28.4994 -1.3807,34.1087 -0.828,2.2041 -4.0108,4.8576 -8.8913,7.4127 -6.1058,3.1965 -8.4215,5.4072 -11.767,11.2337 -6.5189,11.3529 -10.1118,14.5874 -16.2045,14.5874 -2.8636,0 -8.1519,0.8935 -11.7517,1.9855 -3.5999,1.0921 -10.5219,1.9921 -15.3824,2 -4.8604,0.01 -10.867,0.8626 -13.3479,1.8992 -2.4809,1.0365 -9.3041,2.6074 -15.1628,3.4908 -5.8587,0.8834 -13.6521,2.153 -17.3188,2.8213 -3.6667,0.6684 -10.2667,1.5507 -14.6667,1.9607 -8.0238,0.7477 -19.8777,4.7478 -31.6224,10.6708 -3.4589,1.7444 -8.5589,3.1765 -11.3333,3.1824 -2.7743,0.01 -11.9443,0.9319 -20.3776,2.0578 -8.4333,1.1259 -20.1333,2.6487 -26,3.384 -5.8667,0.7354 -12.9893,1.9521 -15.8281,2.7038 -3.7479,0.9924 -6.2222,0.9274 -9.034,-0.2373 -3.1658,-1.3113 -4.2923,-1.2489 -6.1719,0.3417 -2.9059,2.4592 -13.2503,5.4663 -15.0267,4.3684 -0.7366,-0.4552 -4.6981,-1.1007 -8.8033,-1.4343 -4.1052,-0.3337 -8.7237,-1.489 -10.2633,-2.5674 -7.7236,-5.4099 -43.1434,1.826 -43.497,8.8859 -0.1106,2.2191 7.9234,5.5886 17.1124,7.1766 5.5982,0.9675 14.0786,2.4391 18.8452,3.2704 9.197,1.6039 18.0119,6.5426 19.3818,10.859 0.4389,1.3827 1.8453,2.514 3.1253,2.514 3.7316,0 12.1596,10.6327 12.1596,15.3406 0,1.4891 0.8649,1.8265 3.1879,1.2434 3.8296,-0.9612 5.7065,1.3984 3.3608,4.2249 -1.4491,1.7459 -1.2116,1.9076 1.72,1.1719 3.0516,-0.766 3.3368,-0.5179 2.7762,2.4141 -0.6526,3.4144 5.1584,14.2718 7.6384,14.2718 0.7242,0 1.3167,0.8789 1.3167,1.9531 0,1.0742 1.2,2.5953 2.6667,3.3802 1.4666,0.7849 2.6666,2.1617 2.6666,3.0595 0,0.8978 1.2,2.3818 2.6667,3.2977 1.4667,0.916 2.6667,2.8269 2.6667,4.2466 0,1.4196 2.0972,4.8645 4.6602,7.6553 2.5632,2.7909 4.6632,6.0902 4.6667,7.332 0,1.2417 1.0729,3.0417 2.3765,4 4.1611,3.0586 8.2966,9.3337 8.2966,12.5888 0,1.8482 0.7905,3.1534 1.9101,3.1534 1.0505,0 2.3303,1.35 2.8436,3 0.5133,1.65 2.9539,5.2518 5.4232,8.0039 2.4693,2.7521 4.4897,5.8483 4.4897,6.8803 0,1.032 2.4,4.9126 5.3334,8.6236 2.9333,3.7109 5.3333,8.1205 5.3333,9.7989 0,1.6785 1.2,3.8013 2.6667,4.7172 1.4816,0.9253 2.6666,3.1095 2.6666,4.9147 0,2.1958 1.1523,3.8132 3.5544,4.9886 3.6015,1.7626 10.8612,13.1819 11.0236,17.3399 0.049,1.2469 0.9543,2.7515 2.0122,3.3435 1.0578,0.592 2.4714,2.5581 3.1414,4.3692 0.8247,2.2292 2.2491,3.3026 4.4099,3.3232 2.5276,0.024 3.1061,0.6481 2.7801,2.9986 -0.2636,1.9003 1.0014,4.3496 3.5158,6.8075 2.1601,2.1116 4.3702,5.2759 4.9114,7.0317 0.5412,1.7559 2.9398,4.8291 5.3303,6.8294 2.7757,2.3225 4.6692,5.3581 5.2399,8.4 0.7577,4.0392 1.3084,4.6316 3.6224,3.8972 2.4621,-0.7815 2.6401,-0.4623 1.8212,3.2666 -0.5223,2.3774 -0.3652,4.1327 0.3697,4.1327 0.7027,0 2.0747,1.9243 3.0488,4.2761 0.9741,2.3519 2.6969,5.2807 3.8284,6.5084 4.5004,4.8834 6.8795,8.759 8.3123,13.5408 0.8252,2.7544 2.0053,5.008 2.6226,5.008 0.6172,0 1.1223,0.8646 1.1223,1.9214 0,2.8132 2.4916,3.8838 4.7251,2.0301 1.6149,-1.3403 1.9416,-1.0301 1.9416,1.8435 0,2.3074 0.5824,3.2312 1.7537,2.7817 0.9645,-0.3701 3.2047,-0.1363 4.9781,0.5199 l 3.2244,1.1928 -2.9781,0.9452 c -4.4216,1.4033 -3.6495,3.0104 2.8216,5.8728 3.5437,1.5676 7.4744,4.8333 10.1052,8.3957 2.368,3.2067 6.0895,7.3303 8.2697,9.1636 7.7683,6.5319 13.3418,12.5151 15.5256,16.6667 2.1338,4.0561 13.3626,15.3322 15.2774,15.3414 0.9289,0 4.9408,3.0046 8.9152,6.6667 4.3945,4.0493 8.4537,6.6585 10.3588,6.6585 2.6506,0 3.0076,0.4979 2.3201,3.237 -0.6655,2.6516 -0.08,3.6158 3.2417,5.3333 2.2298,1.1529 5.0028,2.0964 6.1622,2.0964 1.1594,0 2.4437,1.05 2.8538,2.3333 1.5831,4.9536 3.6855,8.3334 5.1838,8.3334 0.8594,0 4.4209,2.7 7.9145,6 3.4936,3.3 7.1891,6 8.2121,6 1.0231,0 1.8602,0.9 1.8602,2 0,1.1 0.9561,2 2.1248,2 1.1686,0 2.4045,1.0693 2.7462,2.3764 0.3419,1.307 2.5356,3.1852 4.8752,4.1736 16.3814,6.9208 17.053,7.3517 16.2824,10.45 -0.5886,2.3669 -0.178,3 1.9459,3 1.7519,0 2.6921,0.8809 2.6921,2.5221 0,3.1199 6.0739,4.9631 8.8264,2.6787 1.0476,-0.8695 2.2762,-1.2095 2.73,-0.7555 0.4539,0.4539 -0.1606,1.2036 -1.3656,1.666 -3.0998,1.1895 -2.718,4.2083 0.6684,5.2831 1.5726,0.499 4.5523,2.6396 6.6218,4.7565 2.0693,2.1169 4.5897,3.8491 5.6008,3.8491 1.011,0 2.9104,1.1846 4.2208,2.6326 1.3104,1.4479 3.5033,2.9884 4.8733,3.4232 1.3699,0.4348 2.4908,1.6502 2.4908,2.7007 0,1.0505 1.1497,1.9101 2.5548,1.9101 1.4052,0 5.1287,2.4 8.2744,5.3334 3.1457,2.9333 6.7607,5.3333 8.0331,5.3333 1.2725,0 2.7224,0.6612 3.2218,1.4693 0.4995,0.8083 2.9348,2.3163 5.412,3.3514 2.4771,1.0349 4.5039,2.426 4.5039,3.0913 0,0.6652 1.8,1.6048 4,2.088 2.2,0.4832 4,1.618 4,2.5219 0,1.6336 6.932,7.451 8.946,7.5077 0.5797,0.016 2.554,1.2031 4.3873,2.6371 1.8334,1.434 4.2334,2.6244 5.3334,2.6452 1.1,0.021 3.7185,0.9341 5.819,2.0297 2.1006,1.0955 6.1843,1.9917 9.0752,1.9917 4.2202,0 6.0296,0.847 9.181,4.2972 2.1586,2.3634 3.9248,4.6952 3.9248,5.1819 0,0.4867 2.7317,1.2945 6.0706,1.7952 6.9764,1.0461 10.024,5.1053 7.7163,10.2773 -1.0388,2.328 -2.476,2.9284 -7.2089,3.0114 -5.141,0.091 -5.9688,0.509 -6.3519,3.2137 -0.2423,1.7104 0.6379,4.3015 1.9559,5.7577 2.1765,2.4051 2.213,2.9742 0.3992,6.2058 -3.1498,5.6117 -7.7592,6.523 -13.4523,2.6597 -2.63,-1.7848 -6.7221,-5.4549 -9.0936,-8.1559 -2.3713,-2.7008 -4.8495,-4.9106 -5.5068,-4.9106 -0.6573,0 -2.3952,-1.2 -3.8619,-2.6667 -1.6441,-1.6441 -4.584,-2.7176 -7.6666,-2.7996 -7.9234,-0.2105 -11.6247,-1.6872 -12.0792,-4.8189 -0.2552,-1.7579 -1.9239,-3.3694 -4.3731,-4.2232 -2.1783,-0.7594 -4.8855,-2.3056 -6.016,-3.4362 -1.1305,-1.1305 -4.0059,-2.0554 -6.3895,-2.0554 -2.7428,0 -6.2568,-1.455 -9.5714,-3.963 -2.8806,-2.1796 -5.9415,-3.9796 -6.8019,-4 -0.8604,-0.02 -3.2604,-1.4104 -5.3333,-3.0889 -2.073,-1.6785 -5.269,-3.7743 -7.1023,-4.6571 -1.8333,-0.8828 -4.2333,-2.1736 -5.3333,-2.8686 -1.1,-0.695 -3.5318,-1.5811 -5.4039,-1.9691 -1.8721,-0.3881 -5.1721,-2.5072 -7.3333,-4.7091 -2.1612,-2.202 -4.9455,-4.0201 -6.1872,-4.0405 -1.2418,-0.02 -3.0418,-1.0963 -4,-2.3909 -0.9583,-1.2947 -3.2423,-3.0903 -5.0756,-3.9903 -3.8888,-1.9092 -6.685,-3.5884 -14,-8.4072 -7.011,-4.6187 -19.0699,-10.582 -21.3984,-10.582 -1.0154,0 -3.9239,-1.95 -6.4635,-4.3333 -10.9073,-10.2363 -12.9877,-11.8792 -17.3537,-13.7035 -2.5326,-1.0581 -6.2327,-3.4327 -8.2226,-5.2768 -1.9898,-1.8443 -4.3373,-3.3531 -5.2165,-3.3531 -0.8793,0 -2.6847,-1.2 -4.012,-2.6666 -1.3273,-1.4667 -3.1905,-2.6667 -4.1404,-2.6667 -0.9499,0 -2.2069,-0.7533 -2.7933,-1.674 -1.236,-1.9405 -9.3518,-4.9927 -13.2756,-4.9927 -2.5026,0 -12.4574,-9.5605 -12.4574,-11.9641 0,-0.594 -1.4661,-1.4481 -3.2582,-1.8979 -1.792,-0.4497 -5.242,-2.6492 -7.6667,-4.8877 -2.4245,-2.2385 -6.1449,-5.3856 -8.2675,-6.9935 -2.1224,-1.6078 -6.3224,-5.0457 -9.3333,-7.6396 -3.0108,-2.5938 -8.0243,-6.3522 -11.1409,-8.3522 -3.1167,-1.9999 -5.6667,-4.1872 -5.6667,-4.8607 0,-0.6735 -1.2619,-1.6251 -2.8041,-2.1145 -4.2442,-1.3471 -10.4163,-5.9548 -18.3571,-13.7042 -3.9388,-3.8438 -10.3417,-8.923 -14.2288,-11.2872 -15.9428,-9.6962 -19.9961,-12.6693 -28.0083,-20.5426 -4.6141,-4.5343 -10.3872,-9.268 -12.8289,-10.5194 -2.4417,-1.2513 -4.7395,-2.7016 -5.1061,-3.2228 -1.5324,-2.1782 -6.8248,-4.0137 -11.5791,-4.0157 -2.7981,0 -7.1876,-1.0511 -9.7543,-2.3333 -4.0532,-2.0248 -4.6666,-2.97 -4.6666,-7.1906 0,-2.6725 -0.9259,-5.9725 -2.0575,-7.3333 -1.1317,-1.3607 -2.9193,-4.274 -3.9727,-6.474 -1.0534,-2.2 -5.1069,-7.5159 -9.0077,-11.8131 -3.9009,-4.2972 -8.0323,-9.2472 -9.1807,-11 -1.1485,-1.7528 -3.2529,-3.1869 -4.6766,-3.1869 -2.8719,0 -8.5688,-5.7201 -13.8878,-13.9441 -1.9169,-2.9642 -6.7924,-8.0892 -10.8342,-11.3892 -4.0419,-3.3 -8.5055,-7.2 -9.9191,-8.6667 -1.4136,-1.4667 -6.4729,-6.7323 -11.2429,-11.7012 -4.7699,-4.9691 -10.9859,-10.7103 -13.8132,-12.7584 -2.8274,-2.0481 -8.9322,-8.0325 -13.5663,-13.2988 -4.6343,-5.2661 -9.1684,-9.5749 -10.0761,-9.5749 -0.9076,0 -5.0779,-4.2423 -9.2672,-9.4274 -4.1894,-5.185 -11.2652,-12.0398 -15.7242,-15.2329 -4.4589,-3.1932 -10.8072,-8.6544 -14.1072,-12.1363 -7.9654,-8.4042 -24.9538,-21.7241 -29.0038,-22.7405 -7.7543,-1.9462 -20.1566,0.7712 -40.3295,8.8367 -4.0333,1.6125 -9.6671,3.5016 -12.5195,4.198 -2.8524,0.6964 -8.6834,2.4442 -12.958,3.8842 -4.2744,1.44 -10.3706,2.6182 -13.5472,2.6182 -3.1764,0 -6.3985,0.6232 -7.1601,1.3848 -3.4628,3.4628 -29.3265,7.5889 -53.1485,8.4792 -19.8871,0.743 -24.9291,1.3457 -29.421,3.5164 -2.9816,1.4408 -6.0301,2.6196 -6.7746,2.6196 -0.7447,0 -2.1512,1.49 -3.1259,3.3112 -0.9747,1.8212 -2.7261,3.625 -3.892,4.0085 -1.166,0.3835 -5.1199,4.0756 -8.7865,8.2047 -3.6667,4.1292 -9.8167,10.7377 -13.6667,14.6857 -4.9512,5.0772 -7.006,8.2432 -7.0204,10.8173 -0.027,4.842 -1.0136,6.1232 -7.2932,9.4722 -6.3735,3.3989 -7.0675,3.4369 -12.5752,0.6893 -4.088,-2.0393 -4.4452,-2.0067 -7.2908,0.6667 -1.6457,1.5461 -3.8816,2.811 -4.9685,2.811 -2.4283,0 -6.4847,2.9302 -14.3052,10.3334 -3.2923,3.1166 -6.4728,5.6666 -7.0679,5.6666 -0.5949,0 -4.546,3.4982 -8.7803,7.7738 -4.2341,4.2756 -9.6485,8.9049 -12.0318,10.2874 -2.3834,1.3826 -4.3334,3.2994 -4.3334,4.2596 0,0.9603 -1.8,2.1059 -4,2.5459 -2.2,0.44 -4,1.5977 -4,2.5727 0,1.5822 -5.9728,8.5606 -7.327,8.5606 -2.0332,0 -13.1514,8.9246 -14.3238,11.4976 -0.7941,1.743 -2.0976,3.1706 -2.8965,3.1722 -2.576,0 -10.5984,7.7409 -12.7231,12.268 -1.2517,2.6672 -4.1601,5.4744 -7.3962,7.1392 -4.9587,2.5508 -13.2495,10.0552 -20.3246,18.3965 -1.645,1.9396 -3.895,3.5265 -5,3.5265 -1.1048,0 -2.0088,0.8071 -2.0088,1.7934 0,0.9864 -1.2,2.8793 -2.6666,4.2066 -1.6616,1.5038 -2.6667,4.1067 -2.6667,6.9063 0,3.6008 -0.6819,4.7523 -3.4337,5.7985 -1.8886,0.7182 -4.3315,2.2032 -5.4286,3.3004 -1.0972,1.0971 -3.0926,1.9948 -4.4344,1.9948 -1.3417,0 -5.9489,3.4818 -10.2381,7.7371 -4.2892,4.2555 -8.8485,8.1365 -10.1319,8.6248 -1.2833,0.4883 -2.3333,1.5067 -2.3333,2.2629 0,0.7564 -0.75,1.379 -1.6667,1.3836 -0.9166,0 -2.6908,1.6547 -3.9425,3.6667 -1.2517,2.012 -4.2009,5.9013 -6.554,8.6428 -3.9445,4.5959 -4.1139,5.1676 -2.1725,7.3333 1.555,1.7347 1.9161,4.0047 1.3806,8.6822 -0.3988,3.4833 -0.197,6.3425 0.4483,6.3537 0.6455,0.013 2.0629,0.5828 3.15,1.2703 1.6503,1.0434 1.3317,1.9228 -1.9289,5.3264 -3.6894,3.8506 -3.9248,4.7764 -4.2511,16.7073 -0.3732,13.6509 -1.776,18.0089 -5.7965,18.0089 -3.3432,0 -4.962,-3.1992 -6.1239,-12.1026 -0.5191,-3.977 -2.0792,-8.7307 -3.4671,-10.564 -1.388,-1.8334 -3.585,-4.7596 -4.8824,-6.5027 -1.809,-2.4308 -3.0692,-2.944 -5.4064,-2.2021 -2.4356,0.773 -2.911,1.6772 -2.3673,4.5026 0.5076,2.6382 -0.6931,5.5498 -4.7304,11.4715 -3.5935,5.2705 -5.6317,9.8959 -6.0685,13.7711 -0.4199,3.7248 -1.5551,6.3953 -3.1392,7.3846 -1.3648,0.8524 -2.4855,2.4554 -2.4903,3.5623 0,1.1069 -1.2008,3.8127 -2.6579,6.0127 -1.457,2.2 -2.653,5.0072 -2.6578,6.2381 0,1.2309 -0.8792,3.1084 -1.943,4.1723 -1.0638,1.0637 -2.3357,3.6566 -2.8266,5.7618 -0.4908,2.1052 -1.7232,4.496 -2.7388,5.3127 -1.0155,0.8168 -2.365,4.2605 -2.9987,7.6529 -0.6337,3.3923 -1.7616,6.924 -2.5064,7.8483 -0.7447,0.9243 -1.7619,3.5891 -2.2604,5.9217 -0.4985,2.3327 -1.7677,4.9562 -2.8207,5.8299 -1.0528,0.8739 -1.9142,2.8743 -1.9142,4.4453 0,1.5711 -1.2,5.0954 -2.6667,7.8319 -1.4667,2.7364 -2.6667,6.1797 -2.6667,7.6517 0,1.472 -1.2,4.9154 -2.6666,7.6518 -1.4667,2.7365 -2.6667,6.2142 -2.6667,7.7285 0,1.5141 -0.5149,3.3231 -1.1443,4.0197 -0.6294,0.6967 -1.922,5.0664 -2.8724,9.7104 -0.9502,4.644 -2.5353,9.2512 -3.5222,10.2382 -1.0743,1.0741 -1.7944,4.7758 -1.7944,9.2229 0,5.6508 -0.6382,8.0667 -2.6667,10.0952 -1.6243,1.6243 -2.6667,4.4444 -2.6667,7.2145 0,2.5014 -1.1922,8.3514 -2.6494,13 -1.4572,4.6487 -2.6572,11.7687 -2.6667,15.8222 -0.013,4.0604 -0.8403,8.551 -1.8501,10 -1.008,1.4465 -2.279,5.33 -2.8243,8.63 -0.5453,3.3 -1.8205,7.6202 -2.8337,9.6004 -1.0134,1.9802 -1.8424,7.2492 -1.8424,11.7088 0,4.683 -1.1708,11.5837 -2.7716,16.3354 -1.6538,4.9091 -3.2343,14.4376 -3.919,23.6247 -0.6309,8.4685 -1.8193,18.3973 -2.6406,22.064 -0.8214,3.6667 -1.4762,9.9667 -1.4551,14 0.021,4.0333 -0.4973,9.1333 -1.1521,11.3333 -0.6547,2.2 -1.9112,7.3 -2.7923,11.3334 -1.7884,8.1872 -7.2497,25.8982 -9.2508,30 -0.7155,1.4666 -3.0613,7.4666 -5.2128,13.3333 -2.1515,5.8667 -5.3572,13.3667 -7.1237,16.6667 -2.7502,5.1373 -3.8786,6.0572 -7.8488,6.398 -3.4938,0.2998 -5.8398,-0.5578 -9.5148,-3.4784 z M 2088,1831.4187 c 0,-6.9514 2.4919,-18.436 4.5036,-20.756 0.998,-1.1509 2.2042,-5.9926 2.6803,-10.7593 0.4761,-4.7667 1.7983,-12.8667 2.9381,-18 1.1398,-5.1333 2.8724,-12.9333 3.8503,-17.3333 1.1084,-4.9867 1.5899,-13.4556 1.2784,-22.4842 -0.4955,-14.363 1.8799,-31.7764 6.7545,-49.5158 1.0076,-3.6667 3.0958,-15.6667 4.6404,-26.6667 3.5291,-25.1332 4.7399,-28.9688 16.6251,-52.6667 5.3328,-10.6333 10.4736,-21.7302 11.4239,-24.6597 0.9502,-2.9295 4.0972,-10.4295 6.9933,-16.6667 2.8961,-6.2372 7.3067,-18.2402 9.8013,-26.6736 2.4946,-8.4333 5.43,-17.5954 6.5232,-20.3602 3.8154,-9.6498 2.0103,-22.3064 -3.1813,-22.3064 -2.7811,0 -16.8364,-14.2811 -21.3559,-21.699 -3.4984,-5.742 -8.8166,-8.9677 -14.7852,-8.9677 -9.7592,0 -19.3064,7.882 -20.6392,17.0392 -0.3972,2.7284 -2.5212,10.3608 -4.7202,16.9608 -2.199,6.6 -5.1766,18.4496 -6.617,26.3324 -1.4402,7.8828 -3.2401,15.4933 -3.9994,16.9123 -0.7595,1.419 -1.3808,4.4433 -1.3808,6.7208 0,2.2774 -1.35,6.6668 -3,9.7542 -3.2122,6.0104 -3.164,4.6103 -2.2522,65.6136 0.1915,12.8082 -0.2517,16.1028 -3.4972,26 -3.5094,10.7022 -3.7476,12.9671 -4.2749,40.6667 -0.3932,20.6516 -0.064,31.4035 1.1112,36.3279 1.4685,6.152 1.4032,7.2888 -0.542,9.4382 -2.9228,3.2298 -2.8072,7.6623 0.2565,9.825 5.8878,4.1562 10.1791,20.8834 6.92,26.9732 -1.0616,1.9836 -1.3908,6.0854 -0.9297,11.5865 0.3925,4.6837 0.7124,15.8624 0.7108,24.8416 0,8.9791 0.3703,16.9291 0.826,17.6667 1.6968,2.7452 3.3381,1.1994 3.3381,-3.1438 z M 1041.6921,1600.3622 c -0.9027,-0.3653 -2.7027,-0.3875 -4,-0.049 -1.2973,0.3381 -0.5587,0.6369 1.6413,0.6641 2.2,0.027 3.2614,-0.2495 2.3587,-0.6147 z m 2016.8746,-79.9127 c -0.9679,-1.1662 -5.6913,-4.9065 -10.4965,-8.3118 -4.8052,-3.4052 -9.9368,-7.3168 -11.4035,-8.6924 -1.4667,-1.3756 -5.6667,-4.7439 -9.3333,-7.4851 -11.3834,-8.5101 -63.1763,-61.2101 -72.3167,-73.5829 -2.9645,-4.0131 -8.4225,-10.0228 -12.1285,-13.355 -3.7062,-3.3321 -7.1396,-7.6565 -7.6299,-9.6097 -1.3481,-5.3719 -6.328,-8.4728 -15.274,-9.5111 L 2912,1388.9749 v -7.683 c 0,-6.14 -0.7145,-8.7246 -3.5578,-12.8692 -1.957,-2.8522 -4.682,-8.1084 -6.0558,-11.6804 -1.3738,-3.5718 -5.0228,-9.0297 -8.1088,-12.1285 -3.086,-3.0988 -8.7917,-9.7764 -12.6794,-14.8391 -7.772,-10.1208 -31.1564,-45.169 -34.5155,-51.7314 -1.1655,-2.277 -3.8172,-6.0895 -5.8927,-8.4723 -2.0753,-2.3827 -5.7928,-7.4827 -8.261,-11.3333 -2.4682,-3.8506 -5.5268,-7.8576 -6.7971,-8.9046 -1.2703,-1.047 -6.5628,-9.147 -11.7613,-18 -5.1986,-8.853 -11.2336,-18.1528 -13.4114,-20.6661 -2.1777,-2.5133 -4.8264,-6.6444 -5.8858,-9.1803 -3.8019,-9.0989 -12.5463,-21.3353 -18.6391,-26.0822 -9.2213,-7.1843 -15.5351,-6.8263 -57.7676,3.2758 -21.3992,5.1187 -36.1645,10.8776 -39.6151,15.4509 -2.3637,3.1331 0.032,6.6563 6.6728,9.8104 3.085,1.4653 12.209,8.6467 20.2756,15.9587 8.0667,7.3119 15.2799,13.3039 16.0295,13.3154 2.0425,0.032 21.9881,20.8884 28.6157,29.9232 9.8936,13.487 51.2551,53.5921 61.6904,59.8164 9.5427,5.692 12.9978,9.1958 12.9978,13.1816 0,4.9124 26.9926,29.643 38.9144,35.6534 1.9696,0.993 6.1696,4.51 9.3333,7.8156 3.1637,3.3058 7.5523,7.823 9.7523,10.0384 2.2,2.2155 8.9592,6.3632 15.0204,9.2172 10.8701,5.1186 11.0828,5.3134 15.6117,14.3066 4.6093,9.1529 12.0037,16.803 17.6311,18.2406 1.6113,0.4118 3.841,2.1394 4.9548,3.8391 1.1137,1.6997 3.8502,3.4915 6.0812,3.9815 2.2309,0.49 4.6724,2.0421 5.4254,3.4492 0.7531,1.407 2.6319,2.5582 4.1752,2.5582 1.5435,0 3.4723,0.8115 4.2866,1.8031 3.0481,3.7129 47.0509,37.6572 52.8136,40.7412 6.6106,3.5377 18.7166,12.2687 28,20.1939 12.6053,10.761 26.6678,19.0229 21.2333,12.4746 z m -880.2035,-22.2128 c 0.4292,-1.65 3.9731,-9.2876 7.8752,-16.9725 3.9023,-7.6849 7.095,-15.0479 7.095,-16.362 0,-1.3141 -1.4526,-3.0511 -3.2279,-3.86 -2.6335,-1.1999 -3.9223,-0.9889 -7,1.1455 -4.9495,3.4328 -15.6541,7.1805 -22.8684,8.0064 -3.1697,0.3629 -6.0441,1.3925 -6.3877,2.288 -1.3771,3.5885 4.3706,13.1334 14.7061,24.4213 4.656,5.0851 8.6893,5.6335 9.8077,1.3333 z m 34.9702,-11.6666 c 0,-3.1111 -0.5926,-4 -2.6667,-4 -2.0741,0 -2.6667,0.8889 -2.6667,4 0,3.111 0.5926,4 2.6667,4 2.0741,0 2.6667,-0.889 2.6667,-4 z m -37.4407,-45.4235 c 7.0184,-1.6177 23.9029,-15.6769 48.774,-40.6125 18.5465,-18.5948 57.6323,-55.7059 68.5187,-65.057 9.098,-7.815 17.0246,-13.2884 25.3664,-17.5154 7.3604,-3.7299 9.8516,-6.3491 9.1884,-9.661 -0.349,-1.7429 -1.562,-2.3233 -4.4435,-2.1264 -9.2795,0.6342 -10.552,1.022 -25.2967,7.71 -16.732,7.5895 -28.163,12.9988 -46.7157,22.1063 -20.4813,10.0543 -21.9476,11.0463 -34.7931,23.538 -7.3757,7.1728 -17.8537,17.3332 -23.2841,22.5785 -21.2249,20.5015 -23.7979,23.5895 -25.6708,30.8095 -1.084,4.1793 -4.0745,9.7783 -7.6575,14.3367 -8.3174,10.5821 -8.3942,10.717 -7.4661,13.1356 0.654,1.7042 2.6681,2.1741 9.2121,2.1486 4.6064,-0.019 11.027,-0.6438 14.2679,-1.3909 z m 686.7853,-351.3162 c 20.0143,-3.4539 25.8347,-6.778 40.7411,-23.2674 8.4797,-9.3803 10.3523,-12.3543 12.7511,-20.2518 2.9409,-9.6825 2.9286,-15.6008 -0.063,-30.4078 -0.8149,-4.0334 -2.0959,-10.6919 -2.8467,-14.7968 -2.9389,-16.06967 -20.68,-38.48327 -34.0728,-43.04667 -10.3957,-3.5421 -25.5718,-4.1973 -36.0642,-1.5568 -23.0644,5.8044 -47.994,19.4502 -54.4566,29.808 -1.4666,2.3507 -5.1712,8.1903 -8.2322,12.9769 -8.8944,13.90827 -9.995,25.87487 -3.5332,38.41817 3.4952,6.7846 18.9569,25.9404 24.6842,30.5817 2.9063,2.3552 8.3152,6.8002 12.0198,9.8777 7.5584,6.2792 13.575,9.4779 22.3948,11.906 8.1094,2.2325 12.5773,2.1921 26.678,-0.2412 z m 100.961,-146.73257 c -0.4431,-0.443 -1.5931,-0.4904 -2.5556,-0.1052 -1.0636,0.4256 -0.7478,0.7416 0.8056,0.8056 1.4054,0.058 2.193,-0.2573 1.75,-0.7003 z M 919.99997,1629.8247 c 0,-1.1433 0.6098,-1.7018 1.3551,-1.2412 0.7453,0.4606 1.0099,1.396 0.588,2.0787 -1.143,1.8493 -1.9431,1.5045 -1.9431,-0.8375 z M 3162,1559.9034 c -0.4532,-0.7333 0.112,-1.3333 1.2547,-1.3333 1.1432,0 2.0787,0.6 2.0787,1.3333 0,0.7333 -0.5646,1.3333 -1.2547,1.3333 -0.69,0 -1.6255,-0.6 -2.0787,-1.3333 z m -29.1473,-28.9252 c -1.5016,-1.5015 -0.9145,-3.0748 1.1473,-3.0748 1.1,0 2,0.5645 2,1.2547 0,1.6813 -2.0821,2.8854 -3.1473,1.8201 z m -51.5193,-32.4081 c 0,-0.7334 0.6,-1.3334 1.3333,-1.3334 0.7333,0 1.3333,0.6 1.3333,1.3334 0,0.7333 -0.6,1.3333 -1.3333,1.3333 -0.7333,0 -1.3333,-0.6 -1.3333,-1.3333 z m -1454.6667,-72.0787 c 0,-0.7767 0.6,-1.0412 1.3333,-0.588 0.7334,0.4532 1.3334,1.0887 1.3334,1.412 0,0.3235 -0.6,0.588 -1.3334,0.588 -0.7333,0 -1.3333,-0.6355 -1.3333,-1.412 z m 1220.7236,-233.1625 c -0.9108,-1.4737 1.1925,-3.0649 2.4237,-1.8337 1.2678,1.2677 1.0315,3.0749 -0.402,3.0749 -0.69,0 -1.5998,-0.5586 -2.0217,-1.2412 z M 2888,821.23673 c 0,-0.7333 0.6,-1.3333 1.3334,-1.3333 0.7333,0 1.3333,0.6 1.3333,1.3333 0,0.7333 -0.6,1.3333 -1.3333,1.3333 -0.7334,0 -1.3334,-0.6 -1.3334,-1.3333 z"
       id="path177" />
  </g>
</svg>
