<?xml version="1.0" encoding="UTF-8" standalone="no"?>
<!-- Created with Inkscape (http://www.inkscape.org/) -->

<svg
   version="1.1"
   id="svg181"
   width="103.71405"
   height="146.60561"
   viewBox="0 0 103.71405 146.60561"
   sodipodi:docname="Orectochilus_villosus.svg"
   inkscape:version="1.2.2 (732a01da63, 2022-12-09)"
   xmlns:inkscape="http://www.inkscape.org/namespaces/inkscape"
   xmlns:sodipodi="http://sodipodi.sourceforge.net/DTD/sodipodi-0.dtd"
   xmlns="http://www.w3.org/2000/svg"
   xmlns:svg="http://www.w3.org/2000/svg">
  <defs
     id="defs185" />
  <sodipodi:namedview
     id="namedview183"
     pagecolor="#505050"
     bordercolor="#eeeeee"
     borderopacity="1"
     inkscape:showpageshadow="0"
     inkscape:pageopacity="0"
     inkscape:pagecheckerboard="0"
     inkscape:deskcolor="#505050"
     showgrid="false"
     inkscape:zoom="5.7114576"
     inkscape:cx="30.815251"
     inkscape:cy="15.144996"
     inkscape:window-width="3840"
     inkscape:window-height="2054"
     inkscape:window-x="-11"
     inkscape:window-y="-11"
     inkscape:window-maximized="1"
     inkscape:current-layer="g187" />
  <g
     inkscape:groupmode="layer"
     inkscape:label="Image"
     id="g187"
     transform="translate(-3.7265214,-4.632325)">
    <path
       style="fill:#000000;stroke-width:0.16"
       d="m 53.235972,151.09836 c -0.1031,-0.12424 -0.38307,-0.30763 -0.62216,-0.40755 -0.23908,-0.0999 -0.72269,-0.54294 -1.07469,-0.98449 -0.352,-0.44156 -0.82628,-1.03355 -1.05395,-1.31555 -0.22768,-0.282 -0.51548,-0.74724 -0.63957,-1.03386 l -0.22561,-0.52115 -1.60044,-0.007 c -0.88023,-0.004 -1.85243,-0.0216 -2.16043,-0.0388 -0.42417,-0.0238 -0.54744,0.0268 -0.50823,0.20863 0.0348,0.16149 -0.052,0.12954 -0.26544,-0.0977 -0.22297,-0.23735 -0.60738,-0.37051 -1.29382,-0.44817 -0.53714,-0.0608 -1.05084,-0.0646 -1.14157,-0.009 -0.0907,0.0561 -0.25181,0.0308 -0.35795,-0.0562 -0.10615,-0.087 -0.51699,-0.24364 -0.91299,-0.34816 -0.93849,-0.2477 -1.80724,-0.65057 -1.96795,-0.91262 -0.0704,-0.11475 -0.19929,-0.20863 -0.28648,-0.20863 -0.51128,0 -2.25343,-1.70284 -2.74247,-2.68059 -0.18722,-0.37432 -0.47151,-0.82131 -0.63175,-0.99331 -0.16025,-0.17205 -0.29135,-0.38179 -0.29135,-0.46614 0,-0.0843 -0.0629,-0.17735 -0.13983,-0.20669 -0.18004,-0.0687 -1.00671,-2.02407 -1.05049,-2.4848 -0.0184,-0.19331 -0.14906,-0.62531 -0.29045,-0.96 -0.39027,-0.92388 -1.15743,-3.46726 -1.10051,-3.64853 0.0276,-0.088 -0.0954,-0.664 -0.27344,-1.28 -0.17803,-0.616 -0.3978,-1.444 -0.48838,-1.84 -0.30634,-1.33927 -0.81422,-3.27437 -1.15481,-4.4 -0.70577,-2.33255 -0.82314,-2.54384 -1.15836,-2.0854 -0.12602,0.17234 -0.32178,0.25736 -0.46556,0.20219 -0.14112,-0.0541 -0.36965,0.0391 -0.52998,0.21626 -0.17847,0.1972 -0.39355,0.27603 -0.58626,0.21487 -0.22039,-0.07 -0.32851,-0.004 -0.39182,0.23773 -0.0871,0.33306 -0.53011,0.47876 -0.53011,0.17435 0,-0.28669 -0.29578,-0.16838 -0.4,0.16 -0.12209,0.38466 -0.48706,0.42087 -0.62478,0.062 -0.0802,-0.20896 -0.14428,-0.22044 -0.33711,-0.0604 -0.18603,0.15439 -0.28893,0.15544 -0.47044,0.005 -0.19219,-0.15951 -0.27511,-0.0904 -0.48002,0.39999 -0.20872,0.49954 -0.28544,0.56147 -0.48767,0.39363 -0.20049,-0.16662 -0.23998,-0.14352 -0.23998,0.14019 0,0.44008 -0.48092,0.45064 -0.59535,0.0131 -0.0853,-0.32608 -0.0857,-0.32607 -0.32162,0.0108 -0.13151,0.18776 -0.33795,0.29824 -0.46569,0.24922 -0.1262,-0.0484 -0.27266,0.0245 -0.32546,0.16214 -0.0595,0.15514 -0.21533,0.21899 -0.41005,0.16807 -0.37598,-0.0983 -1.10852,0.20372 -0.98374,0.40561 0.14686,0.23763 -0.11304,1.41085 -0.31216,1.40911 -0.10226,-9.6e-4 -0.31065,-0.29842 -0.46309,-0.66116 l -0.27715,-0.65954 -0.56379,0.43002 c -0.93748,0.71506 -1.08956,0.25302 -0.27776,-0.84387 0.36012,-0.48659 0.37986,-0.59276 0.21352,-1.14796 -0.18274,-0.60995 -0.0908,-2.31496 0.14208,-2.63587 0.10547,-0.1453 0.33009,-0.92337 0.32313,-1.11928 -0.002,-0.0444 0.14669,-0.23028 0.3295,-0.41309 0.1828,-0.1828 0.29406,-0.43222 0.24723,-0.55425 -0.0492,-0.12818 0.1145,-0.36404 0.38763,-0.55852 0.26002,-0.18516 0.47277,-0.45867 0.47277,-0.60781 0,-0.14914 0.15756,-0.34224 0.35014,-0.42911 0.2457,-0.11083 0.3565,-0.31061 0.37146,-0.66975 0.0137,-0.32828 -0.0402,-0.47323 -0.15014,-0.40422 -0.0943,0.0592 -0.24346,0.11029 -0.33146,0.11362 -0.088,0.003 -0.39612,0.13416 -0.6847,0.29076 -0.28858,0.1566 -0.59458,0.24154 -0.68,0.18875 -0.37374,-0.23099 -0.10089,-0.81266 0.8047,-1.71544 0.528,-0.52636 0.96,-1.02107 0.96,-1.09934 0,-0.0783 0.108,-0.14232 0.24,-0.14232 0.132,0 0.24,-0.0547 0.24,-0.12163 0,-0.0669 0.17214,-0.30729 0.38254,-0.5342 0.21041,-0.2269 0.50025,-0.64017 0.64411,-0.91836 0.14386,-0.27819 0.36606,-0.50581 0.49377,-0.50581 0.12771,0 0.33852,-0.162 0.46846,-0.36 0.12993,-0.198 0.64181,-0.648 1.1375,-1 1.70557,-1.21124 1.67362,-1.17608 1.67362,-1.84225 0,-0.34042 -0.0618,-0.65717 -0.13744,-0.70389 -0.0756,-0.0467 -0.18481,-0.50097 -0.2427,-1.00944 -0.12127,-1.06517 -0.52897,-2.9487 -0.78659,-3.63395 -0.0971,-0.25819 -0.18607,-0.79819 -0.19778,-1.2 -0.0117,-0.4018 -0.15479,-1.16255 -0.31797,-1.69055 -0.27548,-0.89144 -0.35116,-1.46003 -0.39903,-2.997969 -0.0123,-0.39424 -0.12386,-0.6717 -0.32753,-0.81435 -0.16991,-0.11901 -0.29138,-0.24713 -0.26994,-0.2847 0.0466,-0.0817 -0.43508,0.33452 -1.03375,0.8932 -0.238,0.2221 -0.49684,0.40382 -0.5752,0.40382 -0.0784,0 -0.27126,0.1423 -0.42866,0.31623 -0.1574,0.17392 -0.34906,0.277359 -0.42593,0.229849 -0.0769,-0.0475 -0.18376,0.0283 -0.23756,0.16855 -0.0573,0.14943 -0.20836,0.21982 -0.36499,0.17011 -0.14694,-0.0466 -0.54678,0.0578 -0.88854,0.232 -0.42639,0.21738 -0.68171,0.26674 -0.81361,0.15727 -0.31258,-0.25942 -1.19278,0.20884 -1.19278,0.63456 0,0.0943 -0.11151,0.17143 -0.2478,0.17143 -0.20614,0 -0.23051,0.1479 -0.145,0.88 0.0607,0.51993 0.0407,0.88 -0.0488,0.88 -0.21272,0 -0.99836,-0.74944 -0.99836,-0.95236 0,-0.39013 -0.50635,-0.12324 -0.75485,0.39788 -0.30331,0.63604 -0.73429,0.68818 -0.81809,0.099 -0.0291,-0.20474 0.099,-0.74654 0.28463,-1.20401 0.26554,-0.65423 0.30896,-0.96715 0.20346,-1.46611 -0.15066,-0.712559 0.11638,-2.318579 0.45297,-2.724139 0.11436,-0.1378 0.32774,-0.604443 0.47417,-1.036975 l 0.26623,-0.78642 -0.3739,0.09384 c -0.55745,0.139912 -0.87111,-0.02989 -0.73173,-0.396129 0.11296,-0.296818 2.23837,-2.985556 2.78413,-3.522052 0.14686,-0.144368 0.32074,-0.476716 0.3864,-0.738555 0.18717,-0.74643 0.89016,-1.743027 1.75439,-2.487126 0.4357,-0.375185 0.82819,-0.733172 0.87219,-0.795564 0.044,-0.06239 0.3888,-0.306875 0.76621,-0.543291 0.37742,-0.236418 0.75172,-0.602122 0.83177,-0.812677 0.1577,-0.414794 0.072,-1.34887 -0.18668,-2.035654 -0.0892,-0.23669 -0.11709,-0.503204 -0.062,-0.592253 0.055,-0.08905 0.12495,-0.778866 0.15537,-1.532923 0.0458,-1.134919 0.0105,-1.397498 -0.20466,-1.52482 -0.20241,-0.119758 -0.21489,-0.1836 -0.0564,-0.288387 0.12012,-0.07941 0.19477,-0.424973 0.18208,-0.842928 -0.0118,-0.38959 0.0259,-1.320347 0.0837,-2.068347 0.0579,-0.748 0.12848,-1.828 0.1569,-2.4 0.0284,-0.572 0.10484,-1.166 0.16982,-1.32 0.065,-0.154 0.0793,-0.38115 0.0319,-0.504779 -0.0474,-0.123629 0.0183,-0.717629 0.14603,-1.32 0.12776,-0.602371 0.21652,-1.239221 0.19725,-1.415221 -0.0193,-0.176 0.0568,-0.487626 0.16917,-0.692502 0.11231,-0.204877 0.16093,-0.48529 0.10803,-0.62314 -0.0529,-0.137849 0.0229,-0.382158 0.16832,-0.542907 0.14548,-0.16075 0.32076,-0.564337 0.38953,-0.896862 0.25476,-1.231954 0.66387,-2.698712 0.88266,-3.164589 0.40385,-0.859902 0.77122,-1.756509 0.78669,-1.92 0.008,-0.088 0.13871,-0.405062 0.28974,-0.704582 0.15103,-0.29952 0.27459,-0.669816 0.27459,-0.822882 0,-0.153064 0.108,-0.319742 0.24,-0.370397 0.132,-0.05065 0.24075,-0.184355 0.24166,-0.297118 0.002,-0.240131 0.54283,-1.262043 1.13497,-2.144282 0.5825,-0.867883 0.68188,-1.259374 0.39302,-1.548238 -0.21496,-0.214959 -0.20208,-0.266861 0.11827,-0.476763 0.22686,-0.148647 0.46859,-0.599791 0.65523,-1.222861 0.16266,-0.543024 0.269,-1.013018 0.2363,-1.044431 -0.11178,-0.107385 -2.11182,-0.728446 -2.34587,-0.728446 -0.12846,0 -0.67457,-0.187304 -1.21357,-0.416232 -0.53901,-0.22893 -1.16001,-0.492875 -1.38001,-0.586549 -0.22,-0.09367 -0.47872,-0.186341 -0.57492,-0.205928 -0.0962,-0.01959 -0.47278,-0.223641 -0.83682,-0.453453 -0.36405,-0.229811 -0.77359,-0.417838 -0.9101,-0.417838 -0.13651,0 -0.286,-0.0985 -0.3322,-0.218899 -0.0933,-0.243235 -1.53418,-1.221101 -1.79924,-1.221101 -0.0927,0 -0.27564,-0.152861 -0.4065,-0.33969 -0.22604,-0.322715 -0.58475,-0.576603 -1.30022,-0.920281 -0.176,-0.08454 -0.72685,-0.537634 -1.22411,-1.006871 -0.64006,-0.604 -0.95509,-1.043648 -1.07869,-1.505425 -0.11297,-0.422024 -0.31625,-0.728079 -0.5759,-0.867037 -0.22072,-0.118123 -0.4013,-0.258557 -0.4013,-0.312075 0,-0.05352 -0.23117,-0.347352 -0.51372,-0.652963 -1.04229,-1.127381 -2.68628,-3.242183 -2.68628,-3.455586 0,-0.12104 -0.072,-0.220072 -0.16,-0.220072 -0.088,0 -0.16,-0.102858 -0.16,-0.228571 0,-0.125715 -0.0943,-0.323715 -0.2095,-0.44 -0.17697,-0.178603 -0.50158,-0.76424 -1.23366,-2.225642 -0.17113,-0.341617 -1.0832096,-3.349478 -1.3784196,-4.545787 -0.65955,-2.67267 -1.0058,-4.236474 -1.09822,-4.96 -0.0562,-0.44 -0.20249,-1.196 -0.32507,-1.68 -0.12258,-0.484 -0.2961,-1.524978 -0.3856,-2.313282 -0.13655,-1.202796 -0.12391,-1.49252 0.0786,-1.801649 0.26977,-0.411715 0.23082,-0.491946 -0.67272,-1.385883 -0.27751,-0.274552 -0.58344,-0.787186 -0.67986,-1.139186 -0.0964,-0.352 -0.35671,-0.810845 -0.57843,-1.019656 -0.26894,-0.253296 -0.38881,-0.51956 -0.36014,-0.8 0.0324,-0.316518 -0.0262,-0.414854 -0.23702,-0.398122 -0.154,0.01222 -0.28,-0.0282 -0.28,-0.08983 0,-0.06163 -0.13426,-0.256165 -0.29836,-0.432302 -0.45387,-0.487172 -0.60576,-0.884697 -0.57318,-1.50009 0.0163,-0.308 -0.0771,-0.956 -0.20761,-1.44 -0.13049,-0.484 -0.24369,-1.6 -0.25156,-2.48 -0.0128,-1.431501 0.0298,-1.68425 0.40483,-2.4000001 0.23052,-0.44 0.46478,-1.124 0.52057,-1.52 0.12987,-0.9217837 0.76835,-2.2280733 1.37141,-2.8058501 0.63578,-0.609114 0.72405,-0.435756 0.22906,0.4498704 -0.27968,0.5004045 -0.39776,0.9317074 -0.37246,1.3604716 l 0.037,0.6277881 0.70238,-0.53614 c 0.38631,-0.2948771 0.78686,-0.5371235 0.89012,-0.5383251 0.10326,-0.0012 0.34975,-0.045599 0.54775,-0.098661 0.45247,-0.1212577 0.51091,0.3513836 0.0611,0.4941485 -0.73552,0.2334434 -1.33315,1.4485296 -1.10834,2.2534326 0.0727,0.260296 0.15862,0.679792 0.19093,0.932215 0.0323,0.2524221 0.12361,0.5044221 0.20288,0.5600001 0.1728,0.121148 0.17974,0.428075 0.0134,0.594383 -0.21432,0.214315 -0.12658,0.431308 0.0988,0.244285 0.16449,-0.136518 0.25908,-0.131455 0.38126,0.02041 0.16667,0.207165 0.0849,1.241883 -0.0982,1.242086 -0.056,6.2e-5 -0.11213,0.178466 -0.1247,0.396453 -0.0202,0.350106 0.0148,0.376162 0.30035,0.223368 0.36101,-0.193206 0.66406,0.08351 0.52014,0.47493 -0.20694,0.562837 -0.26365,1.019695 -0.17193,1.385136 0.12251,0.488134 0.34599,0.518477 0.46507,0.06314 0.16392,-0.626853 0.50816,-0.234004 0.53208,0.607225 0.0126,0.442035 0.12442,0.997532 0.24855,1.234438 l 0.22568,0.430736 0.4202796,-0.330587 c 0.5001,-0.393377 0.61468,-0.262656 0.58083,0.662618 -0.0186,0.508035 0.0835,0.852273 0.38326,1.292681 0.2331,0.34245 0.4577,0.96092 0.52293,1.44 0.0629,0.461861 0.19563,0.892644 0.29498,0.957296 0.30071,0.195688 0.53779,0.137738 0.64453,-0.15755 0.0557,-0.154 0.19007,-0.425466 0.29866,-0.603256 0.1086,-0.17779 0.40268,-0.670957 0.65352,-1.095923 0.25885,-0.438523 0.51632,-0.712431 0.59537,-0.633378 0.17854,0.178538 -0.24906,1.616325 -0.59407,1.997563 -0.21464,0.237168 -0.24149,0.494357 -0.15156,1.451615 0.15371,1.636208 0.20669,1.997083 0.3201,2.180584 0.0547,0.08848 0.13509,0.579806 0.17868,1.091835 0.0436,0.512027 0.12055,1.19992 0.17101,1.52865 0.0505,0.328729 0.0734,0.616729 0.051,0.64 -0.0224,0.02327 0.0551,0.221313 0.17217,0.440096 0.1171,0.218782 0.19764,0.774755 0.179,1.235496 -0.0186,0.46074 0.0425,0.980462 0.13588,1.154936 0.0934,0.174473 0.20541,0.698499 0.24896,1.164504 0.0436,0.466003 0.14771,1.171278 0.23147,1.567278 0.0838,0.396 0.26993,1.296 0.4137,2 0.14377,0.704 0.47083,1.733234 0.72679,2.287184 0.25597,0.553952 0.46539,1.04707 0.46539,1.095819 0,0.127319 0.52653,1.241784 0.63166,1.336997 0.10955,0.0992 0.38934,0.548448 0.79721,1.28 0.17172,0.308 0.58648,0.872232 0.92168,1.25385 0.56442,0.642584 0.68038,0.700062 1.56945,0.777913 0.528,0.04623 0.996,0.132563 1.04,0.19184 0.044,0.05928 0.44,0.186743 0.88,0.283258 0.44,0.09651 1.196,0.296952 1.68,0.445417 1.05392,0.323285 1.92735,0.491341 4.16,0.800423 1.81627,0.251438 4.0943,0.957032 4.54351,1.407299 0.35578,0.356606 0.89649,0.366382 0.89649,0.01621 0,-0.145086 0.22564,-0.739086 0.50143,-1.32 0.27578,-0.580915 0.65378,-1.380208 0.84,-1.776208 0.18621,-0.396 0.39257,-0.744 0.45857,-0.773333 0.066,-0.02933 0.12,-0.189144 0.12,-0.355134 0,-0.680083 1.52426,-2.95913 2.19058,-3.27532 0.56807,-0.269565 0.61437,-0.419077 0.75072,-2.424211 0.0429,-0.631399 0.19256,-1.369399 0.33249,-1.64 0.13994,-0.2706 0.21168,-0.492002 0.15943,-0.492002 -0.0523,0 0.0539,-0.209115 0.23589,-0.464699 0.18199,-0.255584 0.33089,-0.535039 0.33089,-0.62101 0,-0.08597 0.234,-0.336229 0.52,-0.556128 0.286,-0.219901 0.70302,-0.570446 0.9267,-0.77899 0.22369,-0.208546 0.57798,-0.492163 0.78731,-0.630263 0.48496,-0.319928 0.30875,-0.627299 -0.36345,-0.633998 -0.28081,-0.0028 -0.6482,-0.10925 -0.81643,-0.236555 -0.16823,-0.127307 -0.46066,-0.192616 -0.64986,-0.145131 -0.25914,0.06504 -0.39005,-0.01475 -0.5307,-0.323445 -0.11539,-0.253247 -0.31706,-0.409781 -0.52794,-0.409781 -0.18767,0 -0.68521,-0.288 -1.10563,-0.64 -0.42043,-0.352 -0.84189,-0.64 -0.93658,-0.64 -0.0947,0 -0.24923,-0.144 -0.34342,-0.32 -0.0942,-0.176 -0.14418,-0.32 -0.11108,-0.32 0.0331,0 -0.24551,-0.332963 -0.61913,-0.739917 -1.00114,-1.090446 -1.04105,-2.140083 -0.0814,-2.140083 0.59178,0 1.60112,0.426558 1.71567,0.725056 0.0496,0.129219 0.26245,0.234944 0.47304,0.234944 0.21058,0 0.38288,0.05628 0.38288,0.125069 0,0.06879 0.32463,0.220921 0.7214,0.338073 0.39677,0.117152 0.91056,0.361799 1.14175,0.543656 0.2312,0.18186 0.59713,0.338391 0.81317,0.347848 0.21605,0.0095 0.46184,0.140532 0.5462,0.291276 0.0844,0.150742 0.22472,0.274078 0.31191,0.274078 0.25861,0 1.10557,0.68409 1.10557,0.892971 0,0.161848 0.33343,0.387029 0.57308,0.387029 0.0368,0 0.0653,-0.162 0.0634,-0.36 -0.005,-0.475662 -0.5752,-1.72 -0.78866,-1.72 -0.26153,0 -0.19712,-0.798802 0.0728,-0.902365 0.13232,-0.05078 0.57002,0.06253 0.97265,0.251787 0.41543,0.195277 0.86674,0.301368 1.04343,0.245287 0.19919,-0.06322 0.29551,-0.02963 0.26735,0.09323 -0.0242,0.105632 0.046,0.225058 0.15598,0.265391 0.11,0.04033 0.2,-0.0024 0.2,-0.09498 0,-0.09257 0.10083,-0.129622 0.22406,-0.08233 0.12401,0.04759 0.21992,-0.0082 0.21479,-0.125021 -0.0518,-1.180731 0.0577,-1.698008 0.37725,-1.78157 0.18485,-0.04834 0.28966,-0.163027 0.23291,-0.25486 -0.22628,-0.366119 -0.55607,-2.971506 -0.39636,-3.131218 0.10757,-0.10757 0.20602,-0.08731 0.29787,0.0613 0.0814,0.131755 0.25049,0.178496 0.41596,0.115 0.22734,-0.08724 0.24381,-0.06484 0.0893,0.121379 -0.10924,0.13163 -0.1452,0.404915 -0.0849,0.645176 0.19056,0.759232 0.37963,0.599978 0.35595,-0.299822 -0.0128,-0.487512 -0.0646,-0.886855 -0.11505,-0.887426 -0.0504,-6.4e-4 -0.0961,-0.612573 -0.10155,-1.36 -0.009,-1.208739 0.0222,-1.35896 0.28,-1.35896 0.20061,0 0.28982,0.120222 0.28982,0.390557 0,0.214806 0.072,0.435056 0.16,0.489443 0.088,0.05439 0.16,0.230368 0.16,0.391069 0,0.471632 0.51481,1.928931 0.68142,1.928931 0.084,0 0.10667,-0.120243 0.0503,-0.267208 -0.0564,-0.146965 -0.0101,-0.332446 0.10289,-0.412181 0.14799,-0.104448 0.15406,-0.166141 0.0217,-0.220697 -0.11398,-0.04698 -0.15299,-0.304796 -0.10278,-0.679167 0.0582,-0.433565 0.005,-0.679072 -0.18771,-0.872094 -0.14775,-0.147757 -0.20129,-0.268651 -0.11897,-0.268651 0.22737,0 0.3831,-1.451162 0.18177,-1.69375 -0.20916,-0.252016 -0.13508,-1.05979 0.10437,-1.138232 0.0951,-0.03116 0.26597,0.251284 0.37963,0.627661 0.57737,1.911775 0.68346,2.207719 0.82225,2.293495 0.0827,0.05112 0.11359,0.152469 0.0686,0.225229 -0.045,0.07276 0.0216,0.331442 0.14784,0.574848 l 0.2296,0.442557 0.10734,-0.427659 c 0.059,-0.235213 0.0306,-0.876869 -0.0632,-1.425904 -0.28219,-1.651741 -0.3917,-4.390517 -0.18076,-4.520886 0.33866,-0.209303 0.53985,0.234995 0.65573,1.448069 0.13048,1.366098 0.6028,3.574567 0.82863,3.874572 0.29894,0.397122 0.36725,0.176616 0.37175,-1.2 0.006,-1.746213 0.21973,-4.364905 0.38146,-4.667426 0.15434,-0.288714 0.63947,0.587963 0.6295,1.137589 -0.004,0.20341 0.0341,0.693837 0.084,1.089837 0.0499,0.396 0.13055,1.098 0.1792,1.56 0.0486,0.462 0.15951,0.84 0.24637,0.84 0.0869,0 0.11148,-0.07515 0.0547,-0.167008 -0.0568,-0.09186 -0.0347,-0.253856 0.049,-0.36 0.0837,-0.106146 0.20618,-0.804992 0.27217,-1.552992 0.066,-0.748 0.1417,-1.504 0.16825,-1.68 0.0265,-0.176 0.0543,-0.596 0.0616,-0.933333 0.0165,-0.760885 0.34628,-0.721043 0.54039,0.0653 0.35763,1.448694 0.81936,5.024176 0.69175,5.356712 -0.0509,0.132614 -1e-5,0.183371 0.13274,0.132428 0.27576,-0.105819 0.42197,-0.856881 0.23486,-1.206492 -0.091,-0.170056 -0.0824,-0.289268 0.0233,-0.324524 0.26632,-0.08877 0.45242,-1.209351 0.37116,-2.23489 -0.0868,-1.095299 0.0332,-1.42047 0.35475,-0.961397 0.33512,0.478443 0.72324,2.33813 0.80688,3.866201 0.041,0.748 0.13635,1.422126 0.21202,1.498059 0.19131,0.191994 0.46489,-0.0083 0.46607,-0.341209 0.003,-0.884224 0.16837,-2.799179 0.24841,-2.879217 0.1397,-0.139695 0.55254,0.472809 0.56778,0.842367 0.0453,1.098528 0.21484,2.16 0.34501,2.16 0.0837,0 0.13105,0.09213 0.10519,0.204728 -0.0259,0.112602 0.025,0.223435 0.11299,0.246298 0.088,0.02286 0.196,-0.1801 0.24,-0.451026 0.20635,-1.270597 0.7646,-0.02419 0.82411,1.840005 0.0446,1.398691 0.21057,1.686675 0.36777,0.638361 0.0702,-0.468371 0.18784,-0.718371 0.33792,-0.718371 0.28706,0 0.30487,0.25348 0.22298,3.173333 -0.0107,0.381334 0.0208,0.733593 0.07,0.7828 0.1277,0.127704 0.5772,-0.276163 0.5772,-0.518607 0,-0.176915 0.32997,-0.397526 0.59458,-0.397526 0.0486,0 0.0524,0.503192 0.008,1.118205 -0.0775,1.083753 -0.0639,1.136745 0.44375,1.72 l 0.52376,0.601795 0.45475,-0.423411 c 0.5117,-0.476439 2.08675,-1.197925 2.25275,-1.031925 0.0595,0.05954 -0.043,0.411352 -0.22791,0.781798 -0.77578,1.554359 -0.94957,2.165407 -0.64871,2.280856 0.30244,0.116058 0.99379,-0.162484 1.39223,-0.560929 0.17952,-0.179514 0.4704,-0.326389 0.6464,-0.326389 0.176,0 0.32,-0.07054 0.32,-0.156749 0,-0.08621 0.288,-0.303673 0.64,-0.483251 0.352,-0.179578 0.64,-0.39704 0.64,-0.483251 0,-0.08621 0.14474,-0.156749 0.32164,-0.156749 0.1769,0 0.68016,-0.252 1.11836,-0.56 0.43819,-0.308 0.82625,-0.56 0.86236,-0.56 0.0361,0 0.31339,-0.247755 0.61621,-0.55057 0.63624,-0.636246 1.36085,-0.889249 1.57832,-0.551086 0.15021,0.233589 0.0262,1.12533 -0.17543,1.261656 -0.0651,0.044 -0.17405,0.26 -0.24214,0.48 -0.20414,0.659496 -1.17838,2.08 -1.42655,2.08 -0.12717,0 -0.27264,0.130552 -0.32329,0.290114 -0.0998,0.3144 -1.41577,1.309222 -1.73416,1.31094 -0.10743,6.4e-4 -0.41132,0.144106 -0.67532,0.318946 -0.264,0.17484 -0.75,0.318366 -1.08,0.318946 -0.33,6.4e-4 -0.6,0.0682 -0.6,0.150272 0,0.08207 -0.14032,0.193753 -0.31182,0.248185 -0.21917,0.06956 -0.27859,0.181287 -0.2,0.376024 0.1695,0.419976 0.68036,1.103837 1.39941,1.873311 0.98048,1.049243 1.40753,2.687003 1.12662,4.32063 -0.11124,0.646946 -0.11081,0.647619 0.65267,1.028923 0.98387,0.491368 1.54798,1.108491 2.21985,2.428491 0.29808,0.585631 0.63451,1.102149 0.74762,1.14782 0.15934,0.06434 0.15161,0.121256 -0.0343,0.252768 -0.13316,0.09417 -0.1589,0.17082 -0.0578,0.17218 0.1508,0.002 0.35274,0.593309 0.46531,1.36245 0.13062,0.892435 1.68807,3.977294 2.04443,4.049434 0.13431,0.02719 0.55557,-0.09135 0.93613,-0.263426 2.22647,-1.00671 3.87905,-1.580862 4.93193,-1.713496 1.38577,-0.174565 4.51438,-0.87732 5.12,-1.150064 0.75078,-0.338115 2.52702,-0.819627 3.20622,-0.869157 0.21658,-0.01579 0.54998,0.02276 0.74088,0.08568 0.26997,0.08898 0.37125,0.0383 0.45579,-0.228083 0.0598,-0.188365 0.24376,-0.477542 0.40884,-0.642616 0.16507,-0.165075 0.34232,-0.499966 0.39387,-0.744205 0.0515,-0.244238 0.16857,-0.580593 0.26003,-0.747456 0.0915,-0.166862 0.33674,-0.958862 0.54506,-1.76 0.20832,-0.801134 0.55741,-2.104611 0.77575,-2.896611 0.21834,-0.792 0.40072,-1.702074 0.40528,-2.022387 0.008,-0.542488 0.51855,-3.279408 0.71253,-3.817613 0.0476,-0.132 0.11792,-0.42 0.15632,-0.64 0.0384,-0.22 0.22713,-0.94 0.41941,-1.6 0.19227,-0.66 0.41018,-1.492168 0.48423,-1.849262 0.1296,-0.624944 0.25236,-0.971725 0.7511,-2.121936 0.12669,-0.29216 0.18477,-0.649965 0.12906,-0.795124 -0.0557,-0.145158 -0.0469,-0.209585 0.0195,-0.143171 0.0664,0.06642 0.2506,-0.209806 0.4093,-0.613824 0.23543,-0.599353 0.25293,-0.799198 0.0951,-1.08563 -0.20554,-0.372981 -0.2671,-3.225504 -0.0738,-3.418831 0.23065,-0.230644 0.42679,0.237165 0.51773,1.234783 0.10545,1.156925 0.3531,1.953345 0.5664,1.821518 0.0778,-0.04808 0.14143,-0.01115 0.14143,0.08203 0,0.09319 0.1312,0.169443 0.29156,0.169443 0.31584,0 0.31058,0.122299 0.12234,-2.84 -0.0638,-1.003786 -0.0353,-1.32 0.11911,-1.32 0.11164,0 0.27706,0.07407 0.36758,0.16459 0.11279,0.112789 0.15881,-0.05088 0.14623,-0.52 -0.0295,-1.100872 0.12487,-1.643646 0.46771,-1.644148 0.39472,-5.76e-4 0.577278,-0.684046 0.39382,-1.474331 -0.0774,-0.333361 -0.14243,-0.68937 -0.14453,-0.791132 -0.006,-0.305907 0.651848,-0.04048 0.783748,0.316069 0.10594,0.28637 0.13352,0.263518 0.22321,-0.184938 0.0563,-0.281426 0.0581,-0.834429 0.004,-1.228896 -0.0946,-0.68985 0.0896,-0.970738 0.35497,-0.541382 0.17605,0.284851 0.69985,-1.465787 0.6989,-2.335832 -6.4e-4,-0.6017151 -0.13621,-1.0548201 -0.54686,-1.8280951 -0.74216,-1.3975863 -0.53979,-1.7499183 0.42043,-0.731901 0.29051,0.308 0.62036,0.56 0.733,0.56 0.23703,0 0.27137,-0.536624 0.0597,-0.9322219 -0.17379,-0.3247163 -0.0382,-1.1822296 0.17562,-1.1109469 0.15157,0.050523 0.53029,0.6989864 0.99736,1.7077508 0.13868,0.29952 0.25215,0.961404 0.25215,1.470854 0,0.658145 0.0988,1.0937521 0.34137,1.5048471 0.27822,0.471551 0.32583,0.747009 0.25738,1.489146 -0.0462,0.500814 -0.21781,1.145943 -0.38137,1.433619 -0.20153,0.354458 -0.24205,0.560744 -0.12571,0.64 0.29785,0.20291 0.36833,0.617697 0.21368,1.257538 -0.0824,0.340678 -0.182,0.983914 -0.22146,1.429415 -0.0395,0.445501 -0.18203,1.021501 -0.31683,1.280001 -0.1348,0.258499 -0.24553,0.699312 -0.24607,0.979582 -0.001,0.654626 -0.25928,1.329162 -0.60728,1.587632 -0.2295,0.170459 -0.24141,0.256203 -0.0737,0.530869 0.33851,0.554433 0.20778,1.451915 -0.21149,1.451915 -0.11949,0 -0.29762,0.150166 -0.39584,0.333704 -0.0982,0.183536 -0.21733,0.294965 -0.26468,0.247619 -0.0474,-0.04735 -0.19382,0.02164 -0.32548,0.153314 -0.21254,0.212533 -0.21058,0.271251 0.0174,0.523209 0.19425,0.214642 0.24041,0.515141 0.18942,1.232983 -0.13265,1.867208 -0.29585,3.032395 -0.45255,3.231128 -0.0876,0.111077 -0.18451,0.435077 -0.21539,0.72 -0.0309,0.284923 -0.19564,0.986043 -0.36616,1.558043 -0.17052,0.572 -0.39888,1.4 -0.50748,1.84 -0.10859,0.44 -0.261138,0.882829 -0.338978,0.984064 -0.0779,0.101234 -0.15668,0.533234 -0.17517,0.96 -0.0227,0.523312 -0.1248,0.844005 -0.31364,0.985008 -0.154,0.11499 -0.28,0.31516 -0.28,0.444822 0,0.281898 -0.60001,1.746597 -1.43627,3.506106 -0.3346,0.704 -0.73886,1.568 -0.89837,1.92 -0.28841,0.636496 -1.1616,2.032232 -2.17476,3.476226 -0.29183,0.415923 -0.97838,1.070456 -1.52566,1.454516 -0.54728,0.384063 -1.23128,1.044023 -1.52,1.46658 -0.28873,0.422556 -0.81295,0.926891 -1.16495,1.120742 -0.352,0.193851 -1.18,0.700867 -1.84,1.126702 -0.66,0.425837 -2.316,1.347215 -3.68,2.047509 -2.36453,1.213978 -4.21954,1.86877 -6.14698,2.169802 -0.34484,0.05386 -0.65684,0.187923 -0.69333,0.297923 -0.0365,0.11 0.009,0.2 0.10195,0.2 0.0926,0 0.1301,0.0996 0.0834,0.221323 -0.10506,0.273791 0.32899,1.342343 0.72162,1.776493 0.25906,0.286454 1.00323,1.661299 1.12703,2.082184 0.0259,0.088 0.0776,0.268 0.11488,0.4 0.0373,0.132 0.18061,0.456 0.31848,0.72 0.13787,0.264 0.4904,1.2 0.7834,2.08 0.29301,0.88 0.75798,2.248 1.03328,3.04 0.55406,1.593952 1.11949,3.622824 1.18165,4.24 0.0222,0.22 0.15168,0.76 0.28783,1.2 0.51032,1.649221 0.87016,3.339301 0.90277,4.24 0.008,0.22 0.0899,1.012 0.18215,1.76 0.18982,1.539637 0.25074,8.051662 0.0982,10.502237 l -0.10094,1.622238 0.52229,0.427642 c 0.28726,0.235203 0.95429,0.751198 1.48229,1.146657 0.97993,0.73394 3.10197,3.019504 3.47355,3.741226 0.11327,0.22 0.24613,0.436 0.29524,0.48 0.21493,0.192566 1.75121,2.828531 1.75121,3.004751 0,0.34071 -0.56946,0.21156 -1.25417,-0.284437 l -0.66219,-0.479687 0.0299,0.439687 c 0.0165,0.241827 0.12068,0.584537 0.23162,0.761587 0.11094,0.17704 0.35361,0.81367 0.53925,1.41472 0.27981,0.905909 0.3221,1.343439 0.24723,2.558099 -0.0497,0.80591 -0.10861,1.93176 -0.13097,2.50191 -0.0329,0.83992 -0.0938,1.04708 -0.32067,1.09173 -0.20588,0.0405 -0.28,-0.0494 -0.28,-0.33951 0,-0.71981 -0.41591,-0.61317 -0.87121,0.22338 -0.67133,1.23345 -0.97588,1.04048 -0.69991,-0.44347 0.0981,-0.52739 0.12811,-1.15896 0.0667,-1.40349 -0.10275,-0.40938 -0.12804,-0.42209 -0.31933,-0.16049 -0.22433,0.30679 -0.57629,0.20039 -0.57629,-0.17422 0,-0.12681 -0.13915,-0.23056 -0.30922,-0.23056 -0.17007,0 -0.35257,-0.1366 -0.40556,-0.30356 -0.0654,-0.20598 -0.19681,-0.2773 -0.40884,-0.22185 -0.19979,0.0522 -0.34991,-0.0158 -0.41626,-0.18869 -0.0571,-0.14873 -0.25594,-0.33999 -0.44194,-0.42503 -0.33388,-0.15264 -0.7503,-0.39141 -1.21818,-0.69847 -0.132,-0.0866 -0.30987,-0.1586 -0.39527,-0.15995 -0.0854,-0.001 -0.23907,-0.17051 -0.34147,-0.37592 -0.5518,-1.106789 -1.02054,-0.735249 -1.09739,0.86983 -0.0291,0.607 -0.1608,1.49964 -0.29275,1.98364 -0.45735,1.67756 -0.59312,2.40843 -0.59312,3.19285 0,0.43355 -0.0625,0.82692 -0.13897,0.87416 -0.12997,0.0803 -0.42928,2.13304 -0.38568,2.645 0.0109,0.1276 -0.0839,0.43238 -0.2105,0.67729 -0.21135,0.40871 -0.20296,0.4685 0.10222,0.72799 1.30781,1.11201 3.08396,3.0899 3.43047,3.82013 0.13772,0.29021 0.35846,0.63572 0.49054,0.7678 0.13208,0.13208 0.5983,0.94146 1.03603,1.79861 0.67534,1.3224 0.79537,1.6931 0.79244,2.44732 l -0.004,0.88885 -0.8079,-0.84 c -0.44434,-0.462 -0.84311,-0.84 -0.88615,-0.84 -0.13531,0 0.0733,1.00383 0.22948,1.1043 0.3444,0.22153 1.14412,3.2975 1.30802,5.03108 0.10997,1.16308 -0.0762,2.94634 -0.35468,3.39689 -0.0561,0.0907 -0.0339,0.46802 0.0494,0.83843 0.19678,0.87583 -0.18096,1.9532 -0.57125,1.62929 -0.13664,-0.11341 -0.23999,-0.46227 -0.23999,-0.81014 0,-0.33603 -0.0685,-0.65328 -0.15214,-0.705 -0.0837,-0.0517 -0.40841,0.30658 -0.72163,0.7962 -0.58982,0.92204 -0.9535,1.19568 -1.22641,0.92276 -0.1049,-0.1049 -0.0266,-0.39677 0.23117,-0.86124 0.52035,-0.93776 0.63991,-1.5885 0.35923,-1.95522 -0.17738,-0.23174 -0.28998,-0.25733 -0.54111,-0.12293 -0.35548,0.19028 -0.50905,-0.0256 -0.50905,-0.71562 0,-0.30377 -0.0759,-0.37698 -0.35948,-0.34691 -0.26059,0.0276 -0.37307,-0.0562 -0.40887,-0.30459 -0.0362,-0.25149 -0.13219,-0.32105 -0.36051,-0.26134 -0.17359,0.0454 -0.31114,8e-4 -0.31114,-0.10073 0,-0.10015 -0.18,-0.2641 -0.4,-0.36434 -0.24599,-0.11208 -0.4,-0.31461 -0.4,-0.52599 0,-0.18906 -0.10021,-0.48078 -0.22269,-0.64828 -0.18103,-0.24757 -0.26716,-0.26763 -0.46045,-0.10721 -0.19472,0.1616 -0.25206,0.1427 -0.31667,-0.10436 -0.0774,-0.29605 -1.08639,-0.61899 -1.37557,-0.44027 -0.0715,0.0442 -0.21813,0.49766 -0.32593,1.00776 -0.10779,0.5101 -0.27018,1.14346 -0.36085,1.40746 -0.40848,1.18931 -0.65451,2.10839 -0.65316,2.44 8e-4,0.198 -0.0515,0.36 -0.11628,0.36 -0.0648,0 -0.2037,0.306 -0.30876,0.68 -0.49498,1.76215 -0.87527,2.96577 -1.09099,3.45299 -0.1298,0.29315 -0.19447,0.57453 -0.14371,0.62528 0.0508,0.0508 0.0308,0.17091 -0.0444,0.26701 -0.0752,0.0961 -0.35941,0.82272 -0.63162,1.61472 -0.54296,1.57979 -1.11475,3.00552 -1.60851,4.01079 -0.1758,0.35793 -0.36363,0.82603 -0.41739,1.04023 -0.0538,0.2142 -0.49035,0.82135 -0.9702,1.34922 -0.47985,0.52787 -0.87254,1.00332 -0.87264,1.05656 -9e-5,0.0532 -0.32381,0.30136 -0.71936,0.55139 -0.39555,0.25002 -0.76073,0.58551 -0.81152,0.74552 -0.0508,0.16002 -0.15915,0.24964 -0.24082,0.19917 -0.0817,-0.0505 -0.14848,-0.0155 -0.14848,0.0777 0,0.0932 -0.14757,0.16944 -0.32794,0.16944 -0.18037,0 -0.52237,0.0998 -0.76,0.22178 -0.23763,0.12198 -0.72006,0.26105 -1.07206,0.30905 -0.352,0.048 -0.784,0.12477 -0.96,0.17059 -1.99417,0.51918 -2.68332,0.59548 -5.71882,0.63318 -2.95212,0.0367 -3.23698,0.0646 -3.19416,0.31282 0.0259,0.14992 -0.0233,0.27258 -0.10922,0.27258 -0.0859,0 -0.20021,0.13856 -0.25396,0.3079 -0.0538,0.16935 -0.27243,0.56535 -0.48596,0.88 -0.21353,0.31466 -0.33838,0.5721 -0.27745,0.5721 0.0609,0 -0.0541,0.11547 -0.25557,0.2566 -0.20223,0.14164 -0.32795,0.35668 -0.28063,0.48 0.0471,0.12287 0.034,0.22932 -0.0293,0.23656 -0.585,0.0669 -1.09547,0.1898 -1.23099,0.29627 -0.34575,0.27165 -1.31455,0.34292 -1.50713,0.11088 z M 44.397402,39.199639 c 0.23194,-0.172479 0.77248,-0.829938 1.2012,-1.461019 0.6628,-0.975668 0.80486,-1.323604 0.94904,-2.324429 0.21388,-1.484591 -0.13544,-3.012965 -0.84372,-3.691538 -0.77729,-0.744694 -2.25411,-0.698717 -3.40113,0.105887 -0.26015,0.182488 -0.70242,0.86614 -1.09533,1.693164 -0.63312,1.332591 -0.6558,1.434429 -0.57733,2.59172 0.15784,2.327764 0.47486,3.059549 1.45598,3.360884 0.71436,0.219406 1.82423,0.08751 2.31129,-0.274669 z m 21.46612,-0.314247 c 1.06512,-0.734108 1.42772,-1.657856 1.43208,-3.648398 0.002,-0.880581 -0.0671,-1.847162 -0.15333,-2.147957 -0.21156,-0.737672 -0.87743,-1.413113 -1.84315,-1.869661 -1.29337,-0.611438 -2.27405,-0.471852 -3.24157,0.461391 -0.64301,0.620233 -0.83639,1.281286 -0.83754,2.863046 -10e-4,2.055488 0.90137,3.775656 2.30164,4.385171 0.70305,0.306026 1.86601,0.28438 2.34187,-0.04359 z m -5.03782,-15.897987 c 0.16417,-0.265633 0.0168,-0.302469 -0.21289,-0.05322 -0.11347,0.123127 -0.13572,0.223865 -0.0494,0.223865 0.0863,0 0.20432,-0.07679 0.26233,-0.170645 z m -3.02062,-3.069355 c -0.0444,-0.11 -0.0807,-0.02 -0.0807,0.2 0,0.22 0.0363,0.31 0.0807,0.2 0.0444,-0.11 0.0444,-0.29 0,-0.4 z m 49.537618,71.56 c 0,-0.396 0.0312,-0.558 0.0693,-0.36 0.0381,0.198 0.0381,0.522 0,0.72 -0.0381,0.198 -0.0693,0.036 -0.0693,-0.36 z"
       id="path191" />
  </g>
</svg>
