<?xml version="1.0" encoding="UTF-8" standalone="no"?>
<!-- Created with Inkscape (http://www.inkscape.org/) -->

<svg
   width="810.71429mm"
   height="234.33214mm"
   viewBox="0 0 810.71429 234.33214"
   version="1.1"
   id="svg5"
   xml:space="preserve"
   inkscape:version="1.2.2 (732a01da63, 2022-12-09)"
   sodipodi:docname="Prodiamesa_olivacea.svg"
   xmlns:inkscape="http://www.inkscape.org/namespaces/inkscape"
   xmlns:sodipodi="http://sodipodi.sourceforge.net/DTD/sodipodi-0.dtd"
   xmlns="http://www.w3.org/2000/svg"
   xmlns:svg="http://www.w3.org/2000/svg"><sodipodi:namedview
     id="namedview7"
     pagecolor="#505050"
     bordercolor="#eeeeee"
     borderopacity="1"
     inkscape:showpageshadow="0"
     inkscape:pageopacity="0"
     inkscape:pagecheckerboard="0"
     inkscape:deskcolor="#505050"
     inkscape:document-units="mm"
     showgrid="false"
     inkscape:zoom="0.55722854"
     inkscape:cx="1419.5253"
     inkscape:cy="451.34085"
     inkscape:window-width="3840"
     inkscape:window-height="2054"
     inkscape:window-x="-11"
     inkscape:window-y="-11"
     inkscape:window-maximized="1"
     inkscape:current-layer="layer1" /><defs
     id="defs2" /><g
     inkscape:label="Layer 1"
     inkscape:groupmode="layer"
     id="layer1"
     transform="translate(347.36019,-20.304716)"><path
       style="fill:#000000;stroke-width:0.352778"
       d="m 398.4175,254.07534 c -0.67607,-0.36861 -1.56704,-0.6702 -1.97997,-0.6702 -0.65405,0 -1.77274,-0.72281 -4.10555,-2.65261 -0.33659,-0.27845 -1.01904,-0.6084 -1.5166,-0.73328 -0.57407,-0.14411 -1.12384,-0.68965 -1.5047,-1.49317 -0.48493,-1.0232 -0.87083,-1.32454 -2.01118,-1.5706 -0.77612,-0.16747 -2.23782,-0.21298 -3.24824,-0.10111 -2.04724,0.2267 -2.52085,-0.0763 -3.76901,-2.41074 l -0.66724,-1.24802 0.93182,-1.22171 c 1.08176,-1.41824 1.12346,-1.77532 0.37494,-3.20904 -0.98358,-1.88401 -0.56702,-4.05695 0.77777,-4.05695 0.75212,0 2.99868,-1.2979 4.18754,-2.41924 0.58878,-0.55538 1.732,-1.34722 2.54046,-1.75966 0.80846,-0.41246 1.56944,-0.91094 1.69107,-1.10772 0.12161,-0.19681 0.48959,-0.36452 0.81767,-0.37274 0.72376,-0.018 2.18405,-2.20635 2.18405,-3.27272 0,-0.7365 -0.14274,-0.7693 -3.34804,-0.7693 -3.19916,0 -3.38808,-0.0432 -4.24762,-0.97014 -0.49477,-0.53358 -1.03621,-0.97014 -1.20322,-0.97014 -0.167,0 -0.62117,-0.53813 -1.00923,-1.19588 -0.44016,-0.74599 -1.15968,-1.34575 -1.91262,-1.59424 l -1.20706,-0.39836 0.32075,-1.84534 c 0.64382,-3.70385 0.95941,-4.50639 1.91519,-4.86975 0.50155,-0.19071 0.99575,-0.26292 1.0982,-0.16048 0.10241,0.10245 0,0.18627 -0.22532,0.18627 -0.22638,0 -0.41159,0.13705 -0.41159,0.30459 0,0.63115 4.21453,2.1609 7.42502,2.69508 1.83409,0.30515 3.70064,0.73907 4.14789,0.96425 0.60339,0.30381 1.08077,0.30843 1.85053,0.018 0.60862,-0.2297 1.11954,-0.25862 1.23614,-0.07 0.10929,0.17684 0.44055,0.32155 0.7361,0.32155 0.64393,0 4.0071,-3.26503 4.0071,-3.89015 0,-0.24126 0.37832,-0.78927 0.8407,-1.21779 0.81432,-0.75469 1.55357,-2.30039 1.10014,-2.30039 -0.46905,0 -1.77722,0.83019 -2.0575,1.30577 -0.22285,0.37811 -0.40898,0.40108 -0.77682,0.0957 -0.26607,-0.22081 -0.81185,-0.29736 -1.21281,-0.17008 -0.50116,0.15903 -1.05396,-0.042 -1.76859,-0.64336 -0.57174,-0.48108 -1.64034,-0.98002 -2.37468,-1.10871 -1.73729,-0.30452 -4.47376,-2.7892 -5.41479,-4.91656 -1.12822,-2.55051 -1.25349,-5.56644 -0.36565,-8.80265 0.90738,-3.30743 1.35943,-4.2237 3.42141,-6.93505 2.37758,-3.12628 2.48832,-3.67883 1.40698,-7.01922 -0.50175,-1.54996 -0.91228,-3.18554 -0.91228,-3.63463 0,-0.77572 1.35541,-4.34411 2.88265,-7.58927 1.20026,-2.55027 0.26441,-4.69057 -3.20914,-7.33954 -1.59523,-1.21656 -1.79018,-1.51042 -1.79018,-2.69875 0,-1.73885 -0.66159,-4.67121 -1.89508,-8.39926 -0.28889,-0.87312 -0.6156,-2.01182 -0.72609,-2.53044 -0.32597,-1.53038 -1.89992,-3.07241 -4.44355,-4.35334 -2.97244,-1.49688 -3.87139,-3.01876 -3.87139,-6.55394 0,-1.81819 -0.2117,-2.70489 -1.04725,-4.38655 -0.57602,-1.15923 -1.05227,-2.24349 -1.05833,-2.40951 -0.006,-0.16601 -0.40796,-0.77352 -0.89303,-1.35 -0.48507,-0.57647 -0.88194,-1.24437 -0.88194,-1.48422 0,-0.23986 -0.48137,-0.89729 -1.06973,-1.46097 -0.94851,-0.90873 -1.33826,-1.0304 -3.43958,-1.07373 -3.16759,-0.0653 -8.52357,-1.31431 -10.68818,-2.49244 -1.80897,-0.98456 -4.02269,-3.20766 -5.68907,-5.71315 -1.66448,-2.50258 -2.36661,-2.6981 -9.86981,-2.74832 -6.05564,-0.0405 -6.6652,-0.1024 -7.50319,-0.76156 -0.50165,-0.3946 -1.74251,-0.83104 -2.75752,-0.96986 -1.01498,-0.13883 -2.24229,-0.40459 -2.72736,-0.59059 -0.48507,-0.186 -2.78695,-0.48015 -5.11528,-0.65368 -6.82001,-0.50827 -13.19128,-1.94381 -25.57639,-5.76277 -2.23132,-0.68802 -4.29507,-1.25913 -4.58611,-1.26912 -0.29104,-0.01 -0.92604,-0.3286 -1.41111,-0.70803 -0.73039,-0.57132 -1.45782,-0.69241 -4.23333,-0.70469 -3.62758,-0.016 -10.48181,-0.73522 -14.99306,-1.57313 -4.99434,-0.92762 -9.45427,-1.57579 -12.34722,-1.79444 -1.55222,-0.11731 -4.8066,-0.61247 -7.23194,-1.100342 -3.55329,-0.71476 -6.19108,-0.95446 -13.58195,-1.23421 -5.04472,-0.19095 -11.14065,-0.42445 -13.54652,-0.51889 -2.77044,-0.10875 -4.71756,-0.0296 -5.31037,0.216 -0.79082,0.32757 -1.19154,0.24493 -2.58279,-0.53266 -2.16761,-1.2115 -4.7734,-1.4635 -7.61241,-0.73618 -2.7522,0.70508 -3.50912,0.71116 -5.11295,0.041 -0.88858,-0.37127 -2.5593,-0.5312 -5.59933,-0.536 -2.38305,-0.004 -7.42847,-0.33185 -11.21201,-0.7291 -4.03896,-0.42407 -11.54003,-0.84852 -18.16806,-1.02805 -6.20889,-0.16818 -13.67014,-0.51477 -16.58055,-0.7702 -2.91042,-0.25543 -7.83167,-0.46224 -10.93611,-0.45957 -5.45931,0.005 -5.74996,0.0423 -8.86132,1.14653 -2.60319,0.92388 -3.75532,1.14167 -6.03945,1.14167 -1.78181,0 -3.58751,0.24316 -4.89702,0.65945 -1.14095,0.3627 -3.50319,0.76993 -5.24944,0.90497 -6.9276,0.5357 -12.33723,1.31045 -15.26825,2.18665 -2.91127,0.870322 -3.67192,0.934702 -14.188689,1.200922 -6.11187,0.15471 -12.065,0.4362 -13.22916,0.62551 -3.81247,0.62 -9.08819,1.10808 -13.89331,1.28534 -4.193363,0.15469 -4.824271,0.10139 -5.644444,-0.47688 -0.507859,-0.35806 -1.796485,-1.10176 -2.863638,-1.65266 -2.55778,-1.320392 -5.884227,-1.428542 -7.774622,-0.25276 -1.383347,0.86039 -4.894193,2.21281 -11.804545,4.54726 -4.500386,1.52032 -4.734454,1.55957 -12.52361,2.10031 -4.365624,0.30307 -11.429999,0.69562 -15.6986093,0.87232 -8.365455,0.3463 -12.43972,0.94985 -19.045484,2.82135 -8.0730017,2.28718 -11.3445917,2.56856 -17.9961817,1.54781 -6.437171,-0.98785 -6.734704,-0.99455 -8.912824,-0.2007 -4.899871,1.78586 -18.189186,5.72882 -20.014952,5.93846 -6.482362,0.74434 -18.68904,3.40225 -25.57639,5.56906 -2.52687,0.79498 -12.28802,2.00305 -21.343051,2.64149 -4.16116,0.29339 -9.98023,1.18631 -17.63889,2.70664 -1.55222,0.30813 -4.82156,0.58398 -7.26518,0.61299 -2.76796,0.0329 -4.62996,0.20667 -4.93888,0.46103 -1.09383,0.90053 -8.35798,2.91181 -11.91941,3.30026 -2.01433,0.21967 -5.03058,0.70933 -6.70278,1.08811 -1.67224,0.37881 -5.34229,0.92741 -8.15569,1.2192 -7.39006,0.76637 -14.42389,1.82181 -18.87361,2.83199 -5.23593,1.18869 -10.56023,2.18927 -14.81667,2.78448 -1.94028,0.27132 -4.16278,0.71934 -4.93889,0.99564 -2.53107,0.90103 -9.4392,2.67656 -13.40555,3.44551 -2.13431,0.41377 -4.56699,0.89295 -5.40597,1.0649 -1.72074,0.3526 -5.0334,2.04826 -12.2247,6.25753 -2.71184,1.58733 -5.08268,2.88604 -5.26845,2.88604 -0.18581,0 -0.98327,0.29976 -1.77215,0.66615 -4.19932,1.95037 -6.06742,2.77171 -12.78854,5.62265 -8.15524,3.45923 -24.22338,9.06402 -24.85907,8.67113 -0.22451,-0.13875 -0.31782,-0.10604 -0.20737,0.0727 0.11046,0.17872 -0.25207,0.87793 -0.80561,1.55381 -0.80694,0.98528 -1.09468,1.14145 -1.4516,0.7879 -1.22911,-1.21758 -3.58498,0 -3.24918,1.67848 0.14621,0.73103 7.1e-4,1.14924 -0.56975,1.63615 -1.60531,1.37054 -3.18789,3.0094 -3.18789,3.30129 0,0.36989 1.40396,0.87835 2.06785,0.74888 0.72759,-0.14189 2.00275,1.22795 2.68574,2.88512 0.33548,0.81397 0.75354,1.71806 0.92904,2.00911 0.37552,0.62275 0.40894,0.70414 1.23142,2.99861 0.37524,1.04683 0.64598,2.83947 0.66598,4.40972 0.0435,3.41535 0.33706,4.29436 1.35161,4.04724 0.58626,-0.1428 0.90768,0.058 1.34836,0.84229 0.33587,0.59779 1.54052,1.56775 2.87152,2.31207 1.28333,0.7177 2.37242,1.58631 2.47348,1.97274 0.0993,0.37976 -0.12486,1.2887 -0.49815,2.01986 -0.77786,1.52361 -0.60949,3.08469 0.39041,3.61982 0.35378,0.18934 1.41244,0.33098 2.35257,0.31475 0.94014,-0.0162 2.16687,0.14905 2.72607,0.36735 1.28165,0.50023 2.33466,0.18309 2.33466,-0.70323 0,-0.87429 1.42751,-0.92036 2.83086,-0.0914 1.60539,0.94834 1.56133,1.73892 -0.13476,2.41755 -1.73454,0.69402 -2.00688,1.05552 -1.7527,2.32647 0.16097,0.80486 0.0162,1.04845 -0.90509,1.52495 -1.84226,0.95268 -1.22701,1.60733 1.51063,1.60733 1.85907,0 2.79213,0.63285 2.62971,1.78364 -0.0904,0.64054 -0.37109,0.89087 -1.09185,0.97381 -0.81248,0.0935 -0.97014,0.27979 -0.97014,1.14653 0,0.68675 0.17879,1.03491 0.5315,1.03491 0.29235,0 0.87658,0.39687 1.29833,0.88194 0.42178,0.48507 0.95938,0.88195 1.19464,0.88195 0.23531,0 0.51972,0.2395 0.63208,0.53223 0.25308,0.65952 -0.33472,2.28999 -0.82557,2.28999 -0.19887,0 -0.0282,0.33337 0.3793,0.74083 0.90869,0.90869 0.49153,1.46639 -1.13478,1.51695 -1.48463,0.0461 -1.82823,0.91722 -0.36184,0.91722 0.58681,0 1.16127,0.15264 1.27659,0.33926 0.29464,0.47671 -2.54176,1.85533 -3.31339,1.61043 -1.3438,-0.4265 -1.84146,0.13551 -1.59216,1.79801 0.22049,1.47045 0.1899,1.54396 -0.6429,1.54396 -0.48093,0 -1.27806,-0.3175 -1.77139,-0.70555 -0.49333,-0.38806 -1.29151,-0.70556 -1.77372,-0.70556 -0.48222,0 -0.96813,-0.23812 -1.07982,-0.52916 -0.11168,-0.29105 -0.56522,-0.52674 -1.00788,-0.52377 -0.49845,0.004 -0.64536,0.10678 -0.38592,0.27178 0.2304,0.14647 0.58644,0.707 0.79121,1.24558 0.29293,0.77047 0.25137,1.16385 -0.19489,1.84493 -0.31196,0.47611 -0.6339,0.86564 -0.71542,0.86564 -0.42937,0 -1.8873,-1.19711 -1.8873,-1.54968 0,-0.38502 -1.21451,-1.62532 -1.59153,-1.62532 -0.0948,0 -0.17236,0.38654 -0.17236,0.85898 0,1.1544 -0.60055,2.6688 -1.05833,2.6688 -0.20363,0 -0.5148,-0.38022 -0.69149,-0.84494 -0.3891,-1.02341 -1.02037,-1.2943 -1.92641,-0.82663 -0.52063,0.26875 -0.78628,0.20119 -1.14653,-0.29146 -0.2579,-0.35271 -0.4689,-0.84603 -0.4689,-1.09629 0,-0.25026 -0.43657,-0.54328 -0.97014,-0.65113 -2.40605,-0.48637 -2.73758,-0.68953 -2.62953,-1.61148 0.0939,-0.8012 -0.0818,-0.94238 -1.73194,-1.39171 -1.01005,-0.27506 -2.47123,-0.98044 -3.24707,-1.56754 -0.77584,-0.58709 -1.76886,-1.30556 -2.20671,-1.5966 -3.83378,-2.54836 -4.75616,-3.30552 -4.94546,-4.0598 -0.11737,-0.46764 -0.73223,-1.15637 -1.36635,-1.53053 -0.63412,-0.37412 -1.3587,-1.13467 -1.61017,-1.69008 -0.25147,-0.55542 -1.10613,-1.49151 -1.89923,-2.08019 -1.12365,-0.83404 -1.46782,-1.33964 -1.55891,-2.28999 -0.12023,-1.25444 -0.53345,-1.74015 -1.4885,-1.74957 -0.66031,-0.007 -2.09877,2.81711 -2.09877,4.11978 0,0.67335 -0.61888,1.55018 -2.23426,3.16558 -2.02886,2.02886 -2.36939,2.23425 -3.70416,2.23425 -1.49142,0 -1.60688,-0.1263 -1.48978,-1.62938 0.0849,-1.09012 -1.87419,-2.88777 -3.43344,-3.15051 -2.48654,-0.419 -2.53597,-0.45488 -2.31276,-1.67803 0.18494,-1.01346 1.17716,-4.33419 2.28391,-7.64367 0.51715,-1.54644 0.9805,-10.91244 0.58076,-11.73939 -0.40515,-0.83812 -1.92756,-0.78383 -2.47214,0.0882 -0.45343,0.72605 -1.49075,0.94767 -1.83425,0.39186 -0.10664,-0.17254 -0.60206,-0.41613 -1.10094,-0.54137 -0.68084,-0.17088 -1.06044,-0.0382 -1.52211,0.53192 -0.40621,0.50165 -1.24843,0.85968 -2.48032,1.05442 -2.16971,0.343 -2.49843,0.57563 -4.34452,3.0746 -1.70515,2.30815 -4.5131,3.75496 -6.29555,3.24375 -1.08146,-0.31016 -3.29794,0.49167 -7.74044,2.80021 -0.80503,0.41833 -1.68674,0.58374 -2.53363,0.47537 -2.28516,-0.29245 -1.98088,-1.08726 1.2979,-3.39016 0.50875,-0.35733 1.07036,-1.03201 1.24802,-1.4993 0.18571,-0.48846 0.60954,-0.84963 0.99699,-0.84963 0.37068,0 1.12867,-0.23714 1.68442,-0.52698 0.55576,-0.28988 1.30923,-0.52801 1.67439,-0.52917 0.36515,0 1.17893,-0.3205 1.80839,-0.70951 0.62946,-0.38904 2.15106,-0.91105 3.38133,-1.16007 2.11188,-0.42743 2.24997,-0.51682 2.47154,-1.60017 0.12907,-0.63108 0.49152,-1.43125 0.80544,-1.77814 0.74519,-0.82342 0.72122,-1.61886 -0.0842,-2.79428 -0.36024,-0.52571 -0.91952,-1.39241 -1.24285,-1.92599 -0.32333,-0.53358 -0.79313,-0.97014 -1.04399,-0.97014 -0.68607,0 -1.92863,-3.36257 -2.34648,-6.35 -0.20354,-1.45521 -0.6365,-3.57946 -0.96212,-4.72052 -0.5605,-1.96416 -0.55789,-2.19911 0.0489,-4.40972 1.07941,-3.93217 1.22017,-5.36258 0.69821,-7.0956 -0.59224,-1.96638 -0.30676,-5.04486 0.60927,-6.56995 0.37692,-0.6276 0.66123,-1.76389 0.66198,-2.64584 7.1e-4,-0.89609 0.28322,-2.00818 0.67196,-2.64569 0.3763,-0.61711 0.65412,-1.68285 0.633,-2.4282 -0.0293,-1.03403 0.16699,-1.49388 0.88587,-2.07518 0.67477,-0.54565 0.99198,-1.22192 1.17763,-2.51069 0.30671,-2.12915 3.09516,-8.40609 4.38807,-9.87778 0.51138,-0.58208 1.11682,-1.49934 1.34541,-2.03838 0.2286,-0.53901 0.69483,-1.08479 1.03605,-1.21285 0.88594,-0.33246 1.40173,-1.12208 1.82791,-2.79827 0.32304,-1.27052 0.6366,-1.61268 2.3791,-2.59608 2.26948,-1.28082 3.15747,-2.20433 3.48114,-3.6204 0.12283,-0.5374 0.6984,-1.41053 1.27905,-1.94028 0.58066,-0.52975 1.44051,-1.31318 1.91079,-1.74096 0.47027,-0.42778 1.43052,-0.88573 2.13387,-1.01768 0.70336,-0.13195 1.53236,-0.53601 1.84223,-0.89792 0.30987,-0.36191 0.71291,-0.65801 0.89563,-0.65801 0.93615,0 3.05215,-1.25414 2.95059,-1.74879 -0.12686,-0.61787 1.52922,-1.77899 2.53734,-1.77899 0.36754,0 1.32915,-0.635 2.13693,-1.41111 0.80778,-0.77611 1.68746,-1.41111 1.95484,-1.41111 0.2674,0 1.07555,-0.63701 1.79592,-1.41558 0.81452,-0.88035 1.5219,-1.34825 1.87085,-1.2375 0.78993,0.25071 4.62763,-1.65417 5.57675,-2.76809 0.43528,-0.51086 1.09779,-0.92883 1.47224,-0.92883 0.37445,0 1.15248,-0.39687 1.72895,-0.88194 0.57648,-0.48507 1.22707,-0.88195 1.44578,-0.88195 0.53919,0 5.95057,-2.14057 9.20189,-3.63998 1.45521,-0.6711 3.20146,-1.332652 3.88056,-1.470112 0.67909,-0.13747 1.72072,-0.52905 2.31473,-0.87017 0.594,-0.34113 1.94338,-0.81367 2.99861,-1.05009 1.05523,-0.23643 2.79173,-0.79983 3.85888,-1.252 1.06715,-0.45218 2.65465,-0.92833 3.52778,-1.05811 0.87312,-0.12978 2.12241,-0.47898 2.77622,-0.77599 0.88769,-0.40327 1.75619,-0.47927 3.42946,-0.30008 3.18223,0.34079 3.66959,0.1172 3.68331,-1.68988 0.0106,-1.37401 0.0469,-1.42842 0.52917,-0.79075 0.28487,0.37664 0.51795,1.05133 0.51795,1.49931 0,0.86088 0.54525,1.11905 0.79308,0.37552 0.13218,-0.39647 1.41365,-0.54245 5.30108,-0.60387 0.71184,-0.0112 1.07033,-0.25606 1.31417,-0.89741 0.18443,-0.48507 0.50641,-0.88194 0.71554,-0.88194 0.20913,0 0.96428,-0.39688 1.67813,-0.88195 0.71384,-0.48507 1.62253,-0.88194 2.01933,-0.88194 0.39677,0 1.24196,-0.47543 1.87816,-1.0565 1.40176,-1.28031 2.26624,-1.76572 3.14466,-1.76572 0.36449,0 1.12899,-0.48779 1.69887,-1.08396 0.92541,-0.96811 1.19059,-1.06093 2.48109,-0.86849 1.06941,0.15948 1.56195,0.0745 1.89526,-0.32715 0.24768,-0.29844 0.87947,-0.54263 1.40398,-0.54263 0.54515,0 1.28761,-0.35549 1.73327,-0.82987 0.4288,-0.45643 1.43718,-1.02688 2.24085,-1.26766 0.80369,-0.24079 1.82922,-0.6789 2.27894,-0.97357 0.56183,-0.36813 1.20936,-0.46231 2.06939,-0.30096 1.50827,0.28295 2.63197,-0.0196 2.63197,-0.70866 0,-0.37184 0.47001,-0.50539 1.7786,-0.50539 1.23801,0 2.46663,-0.32167 4.04224,-1.05833 1.24498,-0.58208 2.55647,-1.05833 2.9144,-1.05833 0.35793,0 1.27734,-0.45384 2.04318,-1.00853 0.84071,-0.60892 2.0568,-1.09553 3.06924,-1.22812 0.92227,-0.12079 2.27164,-0.52292 2.99861,-0.89363 0.72697,-0.37071 2.98866,-0.93376 5.02595,-1.25123 4.38062,-0.68262 7.37708,-1.34405 12.17084,-2.68654 1.94027,-0.54337 4.94577,-1.0835 6.67886,-1.20028 1.73312,-0.11679 4.035,-0.43869 5.11527,-0.71533 1.08032,-0.27665 3.39295,-0.67828 5.1392,-0.89251 1.74625,-0.21422 4.36562,-0.61471 5.82083,-0.88996 1.45521,-0.27525 4.34418,-0.82297 6.41989,-1.21716 2.07574,-0.3942 4.4173,-0.71672 5.20347,-0.71672 0.7862,0 1.42942,-0.16979 1.42942,-0.37732 0,-0.64781 7.08374,-3.75695 9.17222,-4.0258 2.16087,-0.27816 5.30952,-1.22035 7.00049,-2.09479 0.61044,-0.31568 2.68735,-0.72426 4.61532,-0.90796 5.23818,-0.4991 7.6999,-0.95227 10.6184,-1.95474 2.82423,-0.97008 6.06075,-1.34572 16.423571,-1.90614 4.23139,-0.22884 7.12036,-0.58581 9.70138,-1.19874 2.02156,-0.48007 5.70456,-1.04671 8.18448,-1.25919 2.74716,-0.23538 5.36611,-0.68052 6.70278,-1.13924 1.62299,-0.55698 3.524922,-0.81888 7.309134,-1.00648 2.813402,-0.13947 6.147152,-0.50609 7.408333,-0.81471 2.554993,-0.62524 9.183687,-1.83943 12.699999,-2.32629 1.26118,-0.17463 4.43618,-0.86572 7.055555,-1.53576 7.638979,-1.95408 9.6248,-2.38896 10.936111,-2.39498 2.002896,-0.009 4.216435,-0.63178 7.408333,-2.08372 4.083791,-1.85763 7.3572507,-2.43781 16.0513877,-2.84489 4.074583,-0.19078 8.043333,-0.52673 8.8194443,-0.74654 0.781297,-0.22128 5.977325,-0.51864 11.641666,-0.66622 11.572732,-0.30152 16.290253,-0.72038 21.87222,-1.942 5.145688,-1.12615 7.742873,-1.50402 12.071245,-1.75627 6.819547,-0.39742 13.688232,-1.49977 16.433552,-2.63739 3.50696,-1.45323 10.52615,-3.5374 11.94777,-3.54758 0.64636,-0.005 1.81021,-0.16434 2.58632,-0.35493 1.89287,-0.46481 7.82906,-1.32377 13.229169,-1.91423 2.42534,-0.2652 6.47347,-0.99025 8.99583,-1.61122 l 4.58611,-1.12905 15.16944,0.20988 c 9.55337,0.13218 17.43411,0.0661 21.28647,-0.1785 5.21632,-0.33119 6.77464,-0.30322 10.58334,0.18995 7.57572,0.98095 13.67345,1.28176 16.63714,0.82074 1.4552,-0.22637 3.3602,-0.37807 4.23333,-0.33711 0.87312,0.041 10.31875,0.13802 20.99028,0.21571 16.29007,0.1186 19.71403,0.23032 21.34305,0.69642 3.05943,0.8754 6.99523,1.23508 18.07757,1.65206 5.67658,0.21359 12.30542,0.62619 14.73076,0.9169 2.42535,0.2907 6.0766,0.67794 8.11389,0.86053 2.03729,0.18258 5.45042,0.56064 7.58472,0.84012 2.13431,0.27949 5.86493,0.68757 8.29028,0.90686 12.16371,1.0998 19.57952,2.47727 26.74137,4.96716 1.61085,0.56003 3.21853,1.01824 3.57258,1.01824 0.35404,0 2.15787,0.46609 4.0085,1.03575 2.93751,0.90423 7.83054,1.5955 12.22633,1.72731 0.47523,0.0143 1.77387,0.43422 2.8859,0.93327 1.39093,0.62421 3.37813,1.07636 6.36792,1.44892 2.39031,0.29785 5.61601,0.84044 7.16823,1.20575 1.55222,0.36531 4.56847,0.76646 6.70278,0.89145 5.65757,0.33132 10.71485,1.08534 12.99076,1.93687 1.09689,0.4104 3.54397,1.19491 5.43789,1.74336 1.89396,0.54846 4.47544,1.46962 5.73662,2.04705 1.26119,0.57742 4.1812,1.74514 6.48893,2.59493 3.88648,1.43114 4.39554,1.7298 6.90358,4.05044 1.48921,1.37796 3.49045,2.95443 4.44715,3.50326 0.95673,0.54883 3.00951,2.04666 4.56173,3.32851 6.87557,5.67793 9.08749,7.03789 12.88958,7.92485 1.17888,0.27501 2.36573,0.68455 2.63751,0.91009 0.27175,0.22554 2.67819,2.81721 5.34762,5.75927 5.10769,5.62929 10.96976,11.52281 11.46136,11.52281 0.15995,0 1.14822,1.15094 2.19615,2.55764 1.04792,1.4067 2.47766,3.19264 3.17726,3.96875 0.69955,0.77611 1.27204,1.58419 1.27218,1.79574 0,0.98921 2.38019,4.97521 4.04739,6.780052 1.01998,1.10415 2.29245,2.88067 2.82776,3.94782 1.81486,3.61797 3.81367,6.83267 5.14921,8.28157 1.00485,1.09012 1.46026,2.00218 1.85985,3.72477 0.65581,2.82714 1.65618,5.19506 3.05159,7.22322 0.58904,0.85615 1.47444,2.95194 1.96755,4.6573 0.49308,1.70535 1.43009,4.45002 2.08224,6.09925 1.51916,3.84193 1.4993,3.76509 2.09839,8.12465 0.27915,2.03137 0.76398,4.87352 1.07738,6.31592 0.5303,2.44056 0.52695,2.92122 -0.0482,6.92799 -0.58882,4.10242 -0.58882,4.53129 2.8e-4,9.09169 0.34001,2.63239 1.01463,6.42041 1.49913,8.4178 0.48447,1.99743 1.03875,5.31577 1.23176,7.37412 l 0.35087,3.74244 -1.61293,3.4895 c -0.8871,1.91922 -1.95944,4.1245 -2.38298,4.90062 -0.69931,1.28139 -0.76204,1.84887 -0.6822,6.17361 0.0729,3.94829 -0.0387,5.21483 -0.65264,7.40833 -0.40728,1.45521 -1.13909,4.15396 -1.62627,5.99722 -0.52793,1.99764 -1.20731,3.70763 -1.68183,4.23334 -0.43787,0.48507 -1.76594,2.56716 -2.95131,4.62685 -1.18533,2.0597 -2.76041,4.57687 -3.50012,5.59368 -1.52657,2.09847 -5.76813,7.12675 -6.96358,8.25529 -0.43731,0.41282 -1.91795,2.09994 -3.29029,3.74918 -3.54704,4.26268 -4.06771,4.68922 -8.20081,6.71805 -2.0373,1.00009 -4.69664,2.52522 -5.90963,3.38921 -2.82215,2.01016 -4.24406,2.59228 -6.33808,2.59471 -2.38382,0.004 -4.1633,0.57626 -5.54076,1.78569 -1.16865,1.02609 -1.20608,1.03357 -2.23019,0.44581 -1.04235,-0.59824 -2.29669,-0.54423 -9.2619,0.39871 -0.48507,0.0657 -1.4351,-0.18221 -2.11116,-0.55087 z m 29.651,-18.32151 c 0.78028,-0.41758 0.88643,-1.14953 0.24141,-1.66405 -0.24253,-0.19347 -2.00198,-0.42958 -3.90991,-0.52472 -2.86946,-0.14313 -3.50403,-0.0815 -3.6721,0.35648 -0.28201,0.7349 0.34252,1.60679 1.35358,1.88972 1.35477,0.37906 5.24108,0.34181 5.98702,-0.0574 z m -687.31243,-18.27625 c 0.32837,-0.20839 0.2158,-0.39335 -0.41419,-0.68037 -0.66411,-0.30258 -0.95268,-0.28878 -1.24167,0.0594 -0.66114,0.79665 0.62124,1.27752 1.65586,0.62093 z m -3.95977,-5.73095 c 0.36355,-0.58826 -0.4541,-1.26277 -0.94076,-0.77611 -0.40707,0.40707 -0.1523,1.15962 0.3926,1.15962 0.17112,0 0.4178,-0.17258 0.54816,-0.38351 z m -2.14518,22.94587 c -0.31931,-0.51665 0.14494,-1.0365 0.72637,-0.81337 0.28483,0.10929 0.51787,0.3235 0.51787,0.47601 0,0.43716 -1.01285,0.71176 -1.24424,0.33736 z m 9.00535,-2.45403 c -0.42573,-0.27513 -0.36992,-0.34304 0.2854,-0.34738 0.45424,-0.004 0.71811,0.15067 0.59655,0.34738 -0.26219,0.42421 -0.22554,0.42421 -0.88195,0 z m -0.49234,-19.15583 c -0.5849,-0.42771 -0.56652,-0.48624 0.27277,-0.86865 0.97787,-0.44556 1.48805,-0.0821 1.14385,0.81499 -0.24285,0.63288 -0.60569,0.64664 -1.41662,0.0537 z m -90.52432,-4.83306 c 0,-0.19403 0.15875,-0.35278 0.35278,-0.35278 0.19402,0 0.35277,0.15875 0.35277,0.35278 0,0.19403 -0.15875,0.35278 -0.35277,0.35278 -0.19403,0 -0.35278,-0.15875 -0.35278,-0.35278 z m 1.41111,-1.10726 c 0,-0.16711 0.39688,-0.30385 0.88194,-0.30385 0.48507,0 0.88195,0.0609 0.88195,0.13525 0,0.0744 -0.39688,0.21114 -0.88195,0.30389 -0.48506,0.0927 -0.88194,0.0318 -0.88194,-0.13529 z m 72.18799,-16.05721 c -0.49596,-1.04003 -0.52566,-1.3461 -0.15354,-1.58211 0.60737,-0.38519 0.90243,-0.37539 1.71003,0.0568 0.64169,0.34343 0.64579,0.41751 0.0879,1.5875 -0.32188,0.67501 -0.68519,1.22728 -0.80734,1.22728 -0.12216,0 -0.49881,-0.58028 -0.83701,-1.28947 z m -4.45466,-11.40379 c 0,-0.44009 1.60063,-0.85482 2.10237,-0.54473 0.20822,0.12866 0.28725,0.38174 0.17562,0.56237 -0.27095,0.43839 -2.27799,0.42284 -2.27799,-0.0176 z m 32.33579,-89.768382 c -0.246,-0.64105 0.16898,-0.95511 0.77067,-0.58325 0.34474,0.21306 0.3308,0.36375 -0.0639,0.69128 -0.39698,0.32949 -0.54779,0.30644 -0.70682,-0.10803 z m 37.6906,-17.48281 c -0.28611,-0.4629 4.39896,-0.4629 5.11527,0 0.36707,0.23722 -0.30201,0.34364 -2.18404,0.34738 -1.49225,0.003 -2.81133,-0.15335 -2.93123,-0.34738 z"
       id="path179" /></g></svg>
