<?xml version="1.0" encoding="UTF-8" standalone="no"?>
<!-- Created with Inkscape (http://www.inkscape.org/) -->

<svg
   version="1.1"
   id="svg181"
   width="500"
   height="357.16708"
   viewBox="0 0 500 357.16709"
   sodipodi:docname="ancylus_fluviatilis.svg"
   inkscape:version="1.3.2 (091e20e, 2023-11-25, custom)"
   xmlns:inkscape="http://www.inkscape.org/namespaces/inkscape"
   xmlns:sodipodi="http://sodipodi.sourceforge.net/DTD/sodipodi-0.dtd"
   xmlns="http://www.w3.org/2000/svg"
   xmlns:svg="http://www.w3.org/2000/svg">
  <defs
     id="defs185" />
  <sodipodi:namedview
     id="namedview183"
     pagecolor="#505050"
     bordercolor="#eeeeee"
     borderopacity="1"
     inkscape:showpageshadow="0"
     inkscape:pageopacity="0"
     inkscape:pagecheckerboard="0"
     inkscape:deskcolor="#505050"
     showgrid="false"
     inkscape:zoom="1.4596876"
     inkscape:cx="420.63795"
     inkscape:cy="23.292655"
     inkscape:window-width="3840"
     inkscape:window-height="2054"
     inkscape:window-x="-11"
     inkscape:window-y="-11"
     inkscape:window-maximized="1"
     inkscape:current-layer="g187" />
  <g
     inkscape:groupmode="layer"
     inkscape:label="Image"
     id="g187"
     transform="translate(-57.910735,-52.521038)">
    <path
       style="fill:#000000;stroke-width:1.46521"
       d="m 104.24775,407.63649 c -4.2137,-3.41204 2.13374,-9.25308 16.02954,-14.75072 17.28249,-6.8375 48.62928,-42.35811 39.93764,-45.25533 -5.84145,-1.94715 -34.44657,-24.68305 -40.10427,-31.87565 -2.50744,-3.18771 -3.65929,-3.34571 -27.96469,-3.83608 -44.16278,-0.89099 -46.105945,-10.23253 -2.876423,-13.82811 17.251623,-1.43488 17.645103,-1.94524 11.454643,-14.85714 -2.792826,-5.82522 -5.543544,-13.07801 -6.11269,-16.11731 -0.569157,-3.03929 -1.87556,-7.54042 -2.903126,-10.0025 -16.615234,-39.81074 19.949876,-100.14216 78.550346,-129.6059 6.72707,-3.38231 14.76644,-7.75018 17.86527,-9.70637 5.11838,-3.23111 32.4042,-13.98154 77.34203,-30.472231 9.26745,-3.400842 18.30533,-6.965378 20.08418,-7.921175 1.7788,-0.955807 10.67994,-4.093198 19.78032,-6.971983 9.10027,-2.878785 17.86472,-5.785197 19.47648,-6.458706 6.67048,-2.787422 17.6023,-5.853427 20.87023,-5.853427 1.92407,0 4.67662,-0.630597 6.11673,-1.401305 3.95937,-2.118989 38.30988,-5.875724 56.52998,-6.182396 59.53714,-1.002094 106.20223,37.602239 78.91329,65.282163 -5.5986,5.67882 -6.18553,6.77075 -3.63881,6.77075 3.18727,0 31.67732,20.82726 42.17199,30.82937 39.17637,37.3375 42.93716,104.00945 9.08796,161.11308 -4.94321,8.3391 -32.85501,33.69981 -37.08987,33.69981 -0.43539,0 -7.22191,4.12883 -15.08129,9.17519 -7.85928,5.04635 -15.60833,10.00702 -17.2201,11.02372 -2.78166,1.75467 -15.65261,7.98864 -32.63336,15.80565 -4.24871,1.95586 -9.22214,3.55609 -11.05215,3.55609 -1.83001,0 -10.22203,2.20912 -18.64889,4.90913 -27.44631,8.79391 -32.23908,9.95702 -47.32433,11.48481 -34.39359,3.48327 -75.30259,-0.44454 -100.59882,-9.65885 -3.6264,-1.32093 -12.33838,-4.32893 -19.35997,-6.68445 -7.02157,-2.35552 -19.20575,-7.43629 -27.07597,-11.29064 -18.6158,-9.11686 -21.92791,-9.06745 -35.14929,0.52448 -17.2687,12.52821 -44.19454,26.67848 -55.04555,28.92794 -2.21613,0.45942 -5.61008,1.16057 -7.54212,1.55812 -2.12381,0.437 -4.80819,-0.32613 -6.78891,-1.93003 z"
       id="path191" />
  </g>
</svg>
