<?xml version="1.0" encoding="UTF-8" standalone="no"?>
<!-- Created with Inkscape (http://www.inkscape.org/) -->

<svg
   width="500mm"
   height="599.08929mm"
   viewBox="0 0 499.99997 599.08928"
   version="1.1"
   id="svg5"
   xml:space="preserve"
   inkscape:version="1.3.2 (091e20e, 2023-11-25, custom)"
   sodipodi:docname="aphelocheirus_aestivalis.svg"
   xmlns:inkscape="http://www.inkscape.org/namespaces/inkscape"
   xmlns:sodipodi="http://sodipodi.sourceforge.net/DTD/sodipodi-0.dtd"
   xmlns="http://www.w3.org/2000/svg"
   xmlns:svg="http://www.w3.org/2000/svg"><sodipodi:namedview
     id="namedview7"
     pagecolor="#505050"
     bordercolor="#eeeeee"
     borderopacity="1"
     inkscape:showpageshadow="0"
     inkscape:pageopacity="0"
     inkscape:pagecheckerboard="0"
     inkscape:deskcolor="#505050"
     inkscape:document-units="mm"
     showgrid="false"
     inkscape:zoom="0.25411726"
     inkscape:cx="643.40375"
     inkscape:cy="956.25145"
     inkscape:window-width="1723"
     inkscape:window-height="1486"
     inkscape:window-x="824"
     inkscape:window-y="125"
     inkscape:window-maximized="0"
     inkscape:current-layer="layer1" /><defs
     id="defs2" /><g
     inkscape:label="Layer 1"
     inkscape:groupmode="layer"
     id="layer1"
     transform="translate(-75.184563,-163.34254)"><path
       style="fill:#000000;stroke-width:2.08217"
       d="m 301.00581,757.7976 c -11.51852,-4.97467 -17.6279,-11.2382 -22.62332,-23.19336 -3.07017,-7.34796 -3.18426,-7.40304 -9.06208,-4.36279 -3.27428,1.69346 -6.55937,4.65761 -7.30063,6.59019 -1.19725,3.11819 -1.94564,2.95599 -6.70758,-1.48534 -7.35751,-6.85951 -17.25425,-27.03832 -18.80314,-38.33875 -0.70432,-5.13892 -1.97563,-9.34337 -2.82572,-9.34337 -3.10114,0 -16.38032,6.24272 -17.65029,8.29771 -5.66902,9.1724 -19.92147,-17.29708 -24.87747,-46.20228 -1.05994,-6.18131 -2.03133,-7.44242 -4.88951,-6.34779 -1.96195,0.75083 -5.0552,3.20185 -6.87382,5.4419 -1.81832,2.24209 -4.33373,3.4428 -5.58952,2.66565 -1.25581,-0.77531 -5.29906,-9.12322 -8.98548,-18.55024 -5.01796,-12.83147 -6.95521,-21.56581 -7.70792,-34.74985 -0.62107,-10.88482 -2.08988,-18.6951 -3.84481,-20.44997 -1.56165,-1.56491 -2.83947,-6.83278 -2.83947,-11.71359 0,-6.50021 -0.83571,-8.87451 -3.1233,-8.87451 -2.3024,0 -3.12326,2.40552 -3.12326,9.14607 0,6.45267 -0.71696,8.70251 -2.43612,7.63992 -1.67713,-1.03647 -1.98562,-0.34481 -0.99098,2.26168 0.88733,2.31044 0.1163,5.23481 -1.9999,7.57259 -2.34462,2.592 -3.05197,5.77284 -2.21383,9.96342 0.69309,3.4677 0.30012,6.46695 -0.89957,6.86685 -1.44842,0.49171 -1.43924,2.52793 0.0286,6.39308 1.37047,3.60522 1.4174,5.68246 0.1265,5.68246 -1.11686,0 -2.03031,-1.46086 -2.03031,-3.24633 0,-1.78527 -0.93691,-2.66586 -2.08211,-1.95665 -1.14502,0.70798 -2.08209,4.97956 -2.08209,9.49272 0,4.51539 -0.70288,8.10449 -1.56165,7.98105 -0.85876,-0.14282 -3.60728,0.44071 -6.10706,1.24867 -4.2324,1.37313 -4.4985,2.57262 -3.86745,17.40339 0.37378,8.76147 1.67978,18.47414 2.90441,21.58275 1.40679,3.57073 1.48881,6.10805 0.22198,6.8899 -1.10135,0.67738 -2.00276,0.20403 -2.00276,-1.0936 0,-1.27928 -1.03158,-1.69346 -2.29216,-0.90998 -1.30334,0.80796 -1.77465,4.00369 -1.09319,7.41018 0.65942,3.2955 0.35909,5.99421 -0.66616,5.99421 -1.02546,0 -2.46469,2.73483 -3.19855,6.07256 -0.73328,3.33957 -2.82225,6.64405 -4.64163,7.34183 -2.85371,1.09768 -2.67173,1.94645 1.32498,6.20089 2.66339,2.83297 3.75681,5.47291 2.5719,6.20518 -1.13318,0.69778 -2.61959,0.10202 -3.30278,-1.34252 -0.6831,-1.43637 -0.68942,-0.29584 -0.0146,2.58731 0.67493,2.86255 1.41454,8.02982 1.64367,11.48161 0.23178,3.45301 2.02949,8.58009 4.00124,11.3951 4.95102,7.06884 4.43948,10.59999 -0.60699,4.19037 l -4.0996,-5.20522 0.56598,10.93134 c 0.37868,7.30041 -0.24586,10.93175 -1.8779,10.93175 -3.18524,0 -4.97185,-4.87939 -4.97185,-13.5817 0,-3.84638 -0.98323,-7.60217 -2.18531,-8.34484 -2.522226,-1.5588 -2.393891,-32.02258 0.20199,-47.82698 3.77942,-23.0132 8.26188,-52.5309 9.1993,-60.57847 0.54599,-4.6876 5.64477,-22.02284 11.3303,-38.52074 5.68562,-16.4977 14.25961,-42.45833 19.05338,-57.69001 4.7936,-15.23128 9.838,-28.81787 11.20945,-30.19161 1.3715,-1.37109 3.64023,-7.05517 5.04137,-12.62479 3.09327,-12.29447 12.86965,-32.20621 22.34986,-45.5198 6.93151,-9.73389 6.9593,-9.86365 2.61029,-12.19123 -3.83994,-2.05663 -5.43325,-1.28335 -12.59964,6.09969 -4.51227,4.64802 -8.0297,10.1346 -7.81697,12.19103 0.6531,6.3129 -0.0673,8.04349 -2.04818,4.91366 -2.75291,-4.35299 -8.40722,0.85081 -8.61994,7.92924 -0.0877,3.01026 -0.63699,4.29871 -1.2146,2.86744 -2.07599,-5.14524 -4.86737,-2.45918 -4.86737,4.6825 0,4.00838 -0.9369,7.28776 -2.08211,7.28776 -1.14502,0 -2.08209,-1.12829 -2.08209,-2.49856 0,-4.63822 -4.2678,1.5486 -5.40827,7.83763 -1.3821,7.62176 -2.64568,8.86716 -5.08401,5.0116 -1.06545,-1.68937 -1.95114,-1.99746 -1.9689,-0.69779 -0.0175,1.30376 -2.60879,2.87724 -5.75788,3.50198 -14.68156,2.90682 -19.49963,5.09403 -27.412179,12.43607 -4.67805,4.34299 -8.505498,8.87797 -8.505498,10.08257 0,1.20582 -1.767107,4.43644 -3.926974,7.18248 -3.155249,4.01369 -4.374555,4.45133 -6.204096,2.24699 -4.580156,-5.51862 20.1953,-34.04493 35.706017,-41.11254 2.83407,-1.28743 10.65386,-9.39315 17.37772,-18.00344 11.48002,-14.70203 37.0455,-40.12483 40.34992,-40.12483 0.82244,0 8.54644,-9.60392 17.16471,-21.3422 8.61829,-11.73848 17.53909,-23.02871 19.82407,-25.08962 3.47888,-3.13799 3.8645,-5.00038 2.37218,-11.45223 -2.17603,-9.40621 0.55435,-18.89158 8.99272,-31.24216 l 6.12336,-8.96244 -13.91669,-12.75251 c -13.9513,-12.78353 -18.49236,-19.57224 -15.69223,-23.45963 2.13896,-2.97109 9.8672,-36.20887 13.60714,-58.52449 3.60728,-21.52317 2.65948,-26.2626 -9.76792,-48.86876 -3.6766,-6.68751 -5.92806,-12.90125 -5.0028,-13.80776 2.20944,-2.16415 15.08174,12.73966 16.75239,19.39575 0.71553,2.85295 3.95694,10.66793 7.2026,17.36809 l 5.90107,12.18224 -6.79089,26.75778 c -3.73512,14.71671 -7.41942,30.62333 -8.18766,35.34868 l -1.39679,8.5905 14.10195,9.85793 c 7.75605,5.42211 15.24001,10.29476 16.63095,10.82871 1.39087,0.5366 7.79341,-3.31508 14.22786,-8.55887 8.53671,-6.95295 13.52417,-9.52863 18.45143,-9.52863 5.81207,0 6.81645,-0.77328 7.21198,-5.55208 1.53064,-18.49372 41.33634,-55.91311 54.89937,-51.60847 14.46622,4.59415 48.39499,36.23784 50.41912,47.02779 0.79776,4.24954 3.32198,8.32525 6.30523,10.17357 2.73617,1.69753 11.26838,8.93857 18.96049,16.09575 7.69213,7.15759 14.87259,13.01408 15.95671,13.01408 1.08401,0 8.0913,-3.68907 15.57166,-8.20304 7.48037,-4.5103 16.45443,-8.82982 19.94233,-9.59555 l 6.34173,-1.39353 -1.56757,-31.52739 c -2.76667,-55.64645 -2.92455,-53.38375 4.39225,-62.75997 6.93187,-8.88307 13.98069,-21.35443 17.35815,-30.71229 2.35609,-6.52775 6.33411,-7.66828 6.33411,-1.81587 0,5.23093 -5.77074,18.77345 -10.63468,24.95721 -8.40618,10.68629 -10.27238,30.93999 -7.15992,77.70539 1.56063,23.4533 1.44413,24.57404 -3.25067,31.23298 -2.67817,3.79701 -6.76898,8.44747 -9.09025,10.3319 -2.32119,1.8832 -6.35226,5.29377 -8.95777,7.57687 -2.60537,2.28127 -7.45056,5.27562 -10.76683,6.64935 l -6.02965,2.49856 8.16413,12.63152 c 9.12849,14.1236 10.44422,23.01953 3.99975,27.04444 -2.29044,1.4323 -4.16452,3.36936 -4.16452,4.30382 0,0.93854 0.83999,1.18542 1.86708,0.55088 4.13896,-2.55752 41.85892,29.1484 41.85892,35.18485 0,1.59755 1.17114,4.16589 2.6029,5.70938 14.35974,15.47122 30.9465,34.60009 45.69368,52.69596 6.52203,8.00248 15.42337,17.77962 19.78075,21.72557 6.93103,6.2772 19.37454,26.59761 19.37454,31.63879 0,6.22028 -11.10341,-3.03005 -13.77197,-11.47202 -2.29557,-7.26348 -11.33817,-17.85735 -20.79813,-24.36572 -9.91445,-6.82135 -13.32008,-7.58238 -13.32008,-2.97558 0,1.71794 -0.93691,3.12309 -2.08209,3.12309 -1.14502,0 -2.08211,-2.34206 -2.08211,-5.20522 0,-2.86255 -0.82,-5.20563 -1.82179,-5.20563 -1.00199,0 -1.82179,-2.41062 -1.82179,-5.36151 0,-2.9509 -1.05402,-6.41554 -2.34219,-7.70419 -1.73507,-1.7363 -2.34216,-1.42822 -2.34216,1.19562 0,7.12555 -3.67271,3.2857 -5.04068,-5.26807 -1.023,-6.39758 -1.92013,-7.98106 -3.27724,-5.78467 -2.0401,3.30019 -3.03621,1.76078 -4.6972,-7.27042 -0.42316,-2.29086 -1.92381,-3.91494 -3.3387,-3.61012 -1.41454,0.29585 -3.85862,-2.52793 -5.43043,-6.28883 -3.96484,-9.48986 -10.87037,-15.53671 -14.07851,-12.32874 -1.82709,1.82403 -1.83852,2.44939 -0.0449,2.44939 3.6776,0 18.52255,26.60434 22.37885,40.10626 1.88422,6.59834 5.56923,14.56267 8.18833,17.69882 15.27241,18.28623 48.89371,104.32974 48.7535,124.76991 -0.0286,4.36748 1.61368,15.44062 3.65298,24.60261 2.62357,11.78806 3.65596,24.87437 3.53103,44.76692 -0.21219,33.4865 -1.78975,59.29512 -3.83152,62.59838 -2.66833,4.3185 -5.21884,-2.67097 -4.98738,-13.66719 0.12241,-5.72611 0.0449,-11.34817 -0.16935,-12.49298 -0.21219,-1.14665 -0.22198,-5.10403 -0.0224,-8.79739 0.20199,-3.69376 -0.3542,-7.88067 -1.235,-9.30542 -0.88059,-1.42821 -1.86606,-9.63941 -2.18967,-18.25521 -0.32482,-8.6158 -1.50024,-15.96926 -2.61423,-16.34059 -1.22173,-0.39174 -1.32354,-2.51794 -0.25565,-5.32724 2.14749,-5.64777 0.32951,-24.22066 -2.3712,-24.22066 -1.06402,0 -1.35496,-0.93854 -0.64718,-2.08111 0.70778,-1.14665 0.37378,-2.08111 -0.73839,-2.08111 -1.19419,0 -1.39332,-2.35206 -0.48702,-5.72611 1.61674,-6.01339 -1.36231,-19.26006 -4.33079,-19.26006 -0.95323,0 -1.73283,-1.873 -1.73283,-4.1659 0,-2.2933 -0.93691,-4.1661 -2.08209,-4.1661 -1.14502,0 -2.14797,-4.45112 -2.22848,-9.89017 -0.10814,-7.4418 -0.58924,-8.8592 -1.93605,-5.72611 -1.31762,3.06903 -1.87748,1.14665 -2.12383,-7.28736 l -0.33441,-11.45243 -2.40949,7.28777 c -2.35902,7.13535 -2.42246,6.99395 -3.03083,-6.76688 -0.33931,-7.73051 -1.51534,-14.05484 -2.60831,-14.05484 -1.09299,0 -2.05648,-2.57711 -2.14162,-5.72611 -0.0837,-3.14778 -1.97481,-9.47395 -4.19995,-14.05464 l -4.0455,-8.32852 1.26601,7.28715 c 2.4986,14.3819 4.34506,34.41993 3.48086,37.77766 -0.68023,2.64097 -2.61471,3.18696 -8.50407,2.39573 l -7.62363,-1.02219 0.71859,21.11878 c 0.39358,11.61545 -0.35909,27.31865 -1.6808,34.89593 -2.55224,14.65592 -8.70096,29.13494 -9.93928,23.40495 -0.38378,-1.78119 -3.35887,-4.81022 -6.60857,-6.72954 l -5.9086,-3.49198 -1.38169,10.41392 c -2.01541,15.19578 -17.16806,48.71369 -23.90372,52.87612 -1.11298,0.68758 -5.498,-1.10789 -9.74478,-3.9886 -11.85212,-8.04349 -14.31438,-7.12719 -15.08029,5.61227 -0.76838,12.77516 -7.04638,28.4953 -13.9826,35.01203 l -4.92857,4.62823 -8.1286,-6.43798 -8.12857,-6.43798 -2.44649,8.16551 c -5.09078,16.99145 -18.69027,27.09279 -36.47586,27.09279 -13.22356,0 -15.76607,-3.38405 -16.14395,-21.49114 -0.17343,-8.22079 -0.67432,-12.13614 -1.11748,-8.70047 -2.32754,18.05057 -5.3673,28.2572 -8.99356,30.19793 -6.02959,3.22654 -14.62578,2.33248 -26.39266,-2.74951 z m -1.2809,-470.4603 c 1.1087,-14.66081 0.84856,-16.04149 -4.01697,-21.28833 l -5.20264,-5.61084 -4.18372,6.95683 c -5.81193,9.66328 -7.34469,17.66087 -4.43405,23.13623 3.58167,6.73811 12.96725,15.42817 14.95086,13.84306 0.93548,-0.74675 2.23507,-8.41442 2.88717,-17.03695 z m 73.87254,9.91812 c 1.30437,-2.86255 3.27773,-5.20522 4.3849,-5.20522 4.0396,0 0.20199,-20.74092 -4.82756,-26.0955 -2.65454,-2.82786 -5.36582,-5.13381 -6.02511,-5.12932 -2.29411,0.0145 -8.48629,17.77799 -8.48629,24.34409 0,15.74585 9.71072,23.59388 14.95406,12.08595 z"
       id="path179" /></g></svg>
