<?xml version="1.0" encoding="UTF-8" standalone="no"?>
<!-- Created with Inkscape (http://www.inkscape.org/) -->

<svg
   version="1.1"
   id="svg59"
   width="499.99973"
   height="225.20607"
   viewBox="0 0 499.99971 225.20607"
   sodipodi:docname="baetis_rhodani.svg"
   inkscape:version="1.3.2 (091e20e, 2023-11-25, custom)"
   xmlns:inkscape="http://www.inkscape.org/namespaces/inkscape"
   xmlns:sodipodi="http://sodipodi.sourceforge.net/DTD/sodipodi-0.dtd"
   xmlns="http://www.w3.org/2000/svg"
   xmlns:svg="http://www.w3.org/2000/svg">
  <defs
     id="defs63" />
  <sodipodi:namedview
     id="namedview61"
     pagecolor="#505050"
     bordercolor="#eeeeee"
     borderopacity="1"
     inkscape:showpageshadow="0"
     inkscape:pageopacity="0"
     inkscape:pagecheckerboard="0"
     inkscape:deskcolor="#505050"
     showgrid="false"
     inkscape:zoom="0.75946342"
     inkscape:cx="-306.79555"
     inkscape:cy="-159.32301"
     inkscape:window-width="3840"
     inkscape:window-height="2054"
     inkscape:window-x="-11"
     inkscape:window-y="-11"
     inkscape:window-maximized="1"
     inkscape:current-layer="g65" />
  <g
     inkscape:groupmode="layer"
     inkscape:label="Image"
     id="g65"
     transform="translate(-1387.7425,-423.06468)">
    <path
       style="fill:#000000;stroke-width:0.284763"
       d="m 1554.0883,648.24171 c -0.1618,-0.10548 -0.3739,-1.06798 -0.4715,-2.13892 -0.098,-1.07093 -0.3618,-2.28829 -0.5872,-2.70524 -1.6987,-3.141 -3.1224,-5.99999 -3.7424,-7.51487 -0.402,-0.98238 -0.85,-2.04241 -0.9956,-2.35565 -0.1456,-0.31324 -0.6485,-1.72281 -1.1174,-3.13239 -1.1564,-3.47576 -2.3901,-6.99811 -3.2914,-9.39718 -1.2357,-3.28907 -1.5657,-4.4527 -1.5674,-5.52694 -0.01,-2.34451 -1.235,-4.36391 -2.3907,-3.92048 -0.8702,0.33395 -7.0421,-1.97095 -8.637,-3.22551 -0.3975,-0.3127 -0.8939,-0.56855 -1.1031,-0.56855 -0.2091,0 -1.1209,-0.33751 -2.0262,-0.75001 -5.3062,-2.41807 -6.3203,-2.94312 -7.1304,-3.69153 -0.4921,-0.45462 -1.4122,-1.21101 -2.0446,-1.68087 -0.6325,-0.46986 -1.4302,-1.30279 -1.773,-1.85096 -0.3425,-0.54817 -1.1769,-1.59986 -1.8539,-2.33711 -0.7878,-0.85773 -1.231,-1.60524 -1.231,-2.07586 0,-0.94638 -0.9785,-2.86834 -1.5774,-3.09814 -0.2544,-0.0976 -0.7842,-0.17749 -1.1774,-0.17749 -0.3932,0 -1.0408,-0.25629 -1.4389,-0.56953 -0.3983,-0.31324 -0.9768,-0.56952 -1.2857,-0.56952 -0.3088,0 -1.2053,-0.51258 -1.9921,-1.13906 -0.7868,-0.62648 -1.6804,-1.13905 -1.9857,-1.13905 -0.5368,0 -1.6845,-0.85155 -4.4561,-3.30618 -2.3338,-2.06696 -3.2999,-2.28104 -4.897,-1.08515 -1.221,0.91426 -3.2832,1.96897 -4.3554,2.2275 -1.0727,0.25865 -2.6683,-0.29037 -3.088,-1.06256 -0.6089,-1.12029 -0.7931,-3.55202 -0.3496,-4.61356 0.2228,-0.53319 0.4051,-1.15828 0.4051,-1.38913 0,-0.53912 -2.6966,-3.63389 -3.5096,-4.02781 -0.4365,-0.21149 -3.1852,-0.19606 -9.3048,0.0522 -8.532,0.34615 -9.8155,0.48825 -12.1077,1.34046 -0.6293,0.23402 -2.6366,0.81038 -4.4606,1.28084 -1.824,0.47043 -3.5752,0.99388 -3.8915,1.16317 -0.3163,0.16929 -1.0824,0.3078 -1.7022,0.3078 -0.6199,0 -2.3902,0.24974 -3.9342,0.55495 -1.544,0.3052 -3.6402,0.63641 -4.6582,0.73599 -1.018,0.0996 -2.275,0.31082 -2.7931,0.46935 -0.6785,0.20756 -1.1776,0.19079 -1.7829,-0.0599 -0.7475,-0.30963 -0.9586,-0.2691 -1.9054,0.36549 -0.5856,0.39252 -1.4492,1.04987 -1.9191,1.46075 -0.4698,0.41088 -1.8582,1.35524 -3.0853,2.09859 -1.227,0.74332 -2.7647,1.76852 -3.4171,2.27822 -0.6524,0.5097 -1.5706,1.10673 -2.0405,1.32674 -0.4698,0.22003 -1.1746,0.64601 -1.5662,0.94666 -0.3915,0.30066 -2.6981,1.61028 -5.1257,2.91025 -2.4276,1.3 -4.6701,2.57967 -4.9834,2.8437 -0.3132,0.26407 -1.1461,0.71442 -1.8509,1.0008 -1.3252,0.53852 -4.9825,2.11437 -6.9767,3.00616 -0.6265,0.28015 -1.5876,0.59769 -2.1357,0.70565 -0.5482,0.10792 -1.5734,0.38921 -2.2781,0.62505 -1.5378,0.5146 -6.1889,0.28995 -7.445,-0.3596 -1.162,-0.60093 -3.6165,-0.51761 -4.7287,0.16049 -0.509,0.31037 -0.9254,0.69431 -0.9254,0.85324 0,0.15893 -0.1282,0.28895 -0.2848,0.28895 -0.1566,0 -0.2848,-0.19222 -0.2848,-0.42715 0,-0.23493 -0.1846,-0.42714 -0.4103,-0.42714 -1.1534,0 -0.7806,-1.11311 0.7214,-2.15401 1.0776,-0.74676 1.2234,-0.77091 3.6095,-0.598 1.3676,0.0991 2.907,0.30253 3.4209,0.45206 2.5185,0.73296 9.191,-0.50975 12.4238,-2.31381 0.9255,-0.51653 2.8476,-1.56047 4.2714,-2.31994 5.3869,-2.8734 15.1918,-8.96348 19.8168,-12.30879 1.3313,-0.9629 2.7409,-1.91122 3.1324,-2.10742 0.3916,-0.19617 1.3619,-1.04861 2.1563,-1.89433 1.0728,-1.14216 1.8583,-1.68315 3.054,-2.1034 0.8854,-0.31119 1.8373,-0.56677 2.1153,-0.56799 0.8948,-0.004 5.9226,-1.55196 6.7048,-2.06448 0.5765,-0.37782 1.3616,-0.4962 3.2904,-0.4962 1.9471,0 3.4812,-0.23475 6.6308,-1.01466 2.5149,-0.62278 4.43,-0.95245 4.9581,-0.85358 0.4733,0.0886 1.432,-0.004 2.1304,-0.20654 l 1.2698,-0.36763 0.09,-2.40018 c 0.086,-2.28733 0.1496,-2.49336 1.358,-4.38208 1.5011,-2.34619 1.5943,-2.84917 0.4849,-2.61612 -0.9723,0.20424 -1.3719,-0.043 -1.7725,-1.0969 -0.2381,-0.62603 -0.3927,-0.7442 -0.6444,-0.49253 -0.1821,0.18211 -0.4773,0.33112 -0.656,0.33112 -0.5791,0 -2.6407,-2.25167 -2.967,-3.24057 -0.25,-0.75721 -0.5801,-1.06197 -1.5533,-1.43364 -1.8755,-0.71624 -2.0727,-1.08372 -2.4129,-4.4953 -0.5904,-5.92236 -2.1823,-12.56397 -3.746,-15.62908 -0.3065,-0.60068 -0.5573,-1.23296 -0.5573,-1.40507 0,-1.24117 2.0074,2.6506 3.0873,5.98549 0.3297,1.01802 1.0424,3.51682 1.5839,5.55288 1.3101,4.92628 1.8565,6.40717 2.3643,6.40717 0.3335,0 0.3782,-0.24567 0.2204,-1.21025 -0.1089,-0.66563 -0.1994,-1.27431 -0.2011,-1.35262 -0.024,-1.10201 0.1787,-1.40502 1.3531,-2.02495 1.7066,-0.90088 2.2019,-2.02173 2.9614,-6.70156 0.3342,-2.05872 0.9126,-4.8138 1.2855,-6.1224 0.373,-1.3086 0.9549,-3.66069 1.2932,-5.22689 0.3383,-1.56619 0.721,-3.29613 0.8504,-3.8443 l 0.2352,-0.99667 0.029,1.13917 c 0.016,0.62653 -0.1652,2.03611 -0.4033,3.13239 -1.7761,8.18121 -2.8416,14.82855 -2.4188,15.08991 0.095,0.0589 0.3596,-0.0105 0.5871,-0.1544 0.5428,-0.3434 1.8844,-0.34137 2.5294,0.004 0.5832,0.31213 1.0603,-0.0746 2.0946,-1.69793 1.7478,-2.74292 7.0573,-3.11089 8.5451,-0.59216 0.6177,1.04545 0.6043,1.5851 -0.076,3.08384 l -0.5493,1.21024 h 0.6818 c 0.375,0 0.8599,-0.25424 1.0776,-0.56497 0.2176,-0.3107 1.4743,-1.69471 2.7925,-3.07555 3.5491,-3.71744 4.6303,-4.95804 5.0791,-5.82785 0.2222,-0.43071 0.5105,-0.7831 0.6407,-0.7831 0.1302,0 0.4856,-0.24888 0.7898,-0.55307 0.5208,-0.52083 0.6187,-0.52726 1.6793,-0.11068 0.8778,0.34482 1.1641,0.63169 1.2979,1.30057 0.2817,1.40852 0.1967,2.40496 -0.2356,2.76376 -0.2239,0.18587 -0.6617,1.09147 -0.9727,2.01248 -0.6756,2.0006 -0.4681,2.18035 1.4212,1.2314 1.1761,-0.59074 1.7201,-0.66444 4.9049,-0.66444 h 3.582 l 0.4784,-0.92548 c 1.2343,-2.38793 3.4094,-4.85466 12.4928,-14.16696 2.3679,-2.4276 5.3276,-5.50304 6.577,-6.83431 1.2494,-1.33127 3.1758,-3.38156 4.2806,-4.55621 1.105,-1.17465 2.574,-2.77596 3.2644,-3.55848 0.6905,-0.78253 1.9081,-2.12804 2.7058,-2.99002 6.1581,-6.65408 14.8561,-17.31171 22.5438,-27.62307 2.3938,-3.2107 4.6764,-6.23522 5.0724,-6.72114 0.3961,-0.48592 1.002,-1.27588 1.3464,-1.75548 0.4812,-0.67016 4.078,-5.2743 5.9446,-7.60958 3.1632,-3.95749 7.3535,-9.48323 7.3535,-9.69703 0,-0.318 3.6586,-5.23913 5.707,-7.67642 2.1863,-2.60134 5.3261,-5.86532 7.8205,-8.12974 3.0464,-2.76553 5.9031,-5.24457 6.5176,-5.65591 0.3302,-0.22099 1.4973,-1.07602 2.5936,-1.90006 2.027,-1.52355 7.3282,-4.31347 9.3972,-4.94552 0.6265,-0.19138 1.5235,-0.51802 1.9933,-0.72585 0.4699,-0.20784 1.6872,-0.52212 2.7053,-0.69841 1.018,-0.17629 2.5227,-0.45266 3.3437,-0.61417 5.1122,-1.00555 12.059,-0.92277 15.1874,0.181 0.6146,0.21684 1.1175,0.33749 1.1175,0.2681 0,-0.33316 3.3839,1.4264 4.5344,2.35786 2.0073,1.62493 4.1866,3.97022 4.7055,5.06384 0.2578,0.54332 0.5789,0.98785 0.7135,0.98785 0.1346,0 0.1743,0.2694 0.088,0.59868 -0.089,0.33918 0.01,0.69812 0.2147,0.82812 0.2042,0.1262 0.3907,0.46548 0.4143,0.75395 0.024,0.28848 0.1983,0.80996 0.3881,1.15886 0.4806,0.88346 0.1571,8.17076 -0.5281,11.89522 -0.1441,0.7831 -0.3329,2.45861 -0.4196,3.72336 -0.087,1.26475 -0.2201,2.61025 -0.2962,2.99001 -0.076,0.37976 -0.2076,1.90783 -0.2922,3.39572 -0.085,1.48788 -0.4037,3.51964 -0.7092,4.515 -0.3054,0.99538 -0.5553,2.38645 -0.5553,3.0913 0,0.70484 -0.2045,2.06888 -0.4544,3.03121 -0.2501,0.9623 -0.553,2.32632 -0.6734,3.03111 -0.5101,2.98656 -1.2535,6.15435 -1.6662,7.10019 -0.2437,0.55857 -0.4139,1.17573 -0.3783,1.37151 0.036,0.19577 -0.09,0.35595 -0.2798,0.35595 -0.1896,0 -0.2644,0.0803 -0.1662,0.17849 0.098,0.0982 0.01,0.51462 -0.2077,0.92548 -0.7022,1.35849 -2.9206,9.46994 -3.1637,11.56799 -0.091,0.78309 -0.3272,1.6801 -0.5252,1.99334 -0.3743,0.59165 -1.0217,2.49139 -1.6015,4.69859 -0.1851,0.70479 -1.0393,2.69101 -1.8984,4.41383 -0.8591,1.72281 -1.8774,3.90125 -2.263,4.84097 -0.9814,2.39172 -1.0926,2.64812 -1.9271,4.44222 -0.408,0.87701 -0.7418,1.74383 -0.7418,1.92625 0,0.33419 -3.2523,6.96823 -6.6516,13.56819 -0.2411,0.46806 -0.5101,1.04326 -0.5977,1.27818 -0.088,0.23493 -0.3939,0.81158 -0.6804,1.28144 -0.2865,0.46986 -0.7448,1.52875 -1.0184,2.35311 -0.2736,0.82433 -0.6467,1.65837 -0.8291,1.85338 -0.1826,0.19503 -0.7163,1.12234 -1.1862,2.06072 -0.4698,0.93838 -1.0343,1.9304 -1.2543,2.20449 -0.2201,0.27408 -0.2842,0.5003 -0.1424,0.50269 0.1417,0.003 0.1295,0.0985 -0.027,0.21357 -0.3722,0.27352 -1.6542,2.6297 -1.4308,2.6297 0.095,0 -0.5352,0.99312 -1.3995,2.20692 -0.8643,1.2138 -2.6523,3.8087 -3.9733,5.76645 -1.3209,1.95775 -2.7013,3.89852 -3.0672,4.31279 -0.366,0.41431 -1.2018,1.38446 -1.8574,2.15592 -4.05,4.76568 -10.2909,9.77195 -16.3209,13.09221 -5.94,3.27067 -13.0518,6.63196 -14.0601,6.64531 -1.0727,0.0142 -3.64,1.00248 -4.3305,1.66709 -1.0353,0.9965 -1.1079,2.16542 -0.2761,4.44606 0.3996,1.09566 0.7266,2.01373 0.7266,2.04019 0,0.0265 0.6087,0.38881 1.3526,0.80525 1.4285,0.79967 1.5151,0.80016 4.485,0.0245 2.4635,-0.64334 2.9757,-0.45331 3.9881,1.47943 0.9675,1.84714 1.0451,1.88396 4.8396,2.29536 1.4096,0.1528 3.3317,0.55557 4.2714,0.89501 2.2321,0.80628 4.9137,1.52314 9.0809,2.42766 1.9334,0.41963 3.9009,1.03682 4.5869,1.43882 1.9897,1.16605 4.5674,1.74036 10.1955,2.27156 2.1239,0.20047 4.9443,0.9484 6.401,1.6975 0.5535,0.28462 1.4232,0.44816 2.1357,0.4016 3.0784,-0.2011 10.1288,1.12439 11.0892,2.08478 0.3185,0.31848 0.9792,0.6246 1.4684,0.68024 0.4891,0.0557 2.7139,0.29371 4.944,0.52898 3.2013,0.33773 4.3401,0.57647 5.4105,1.1343 1.1231,0.5853 2.0398,0.76023 5.3425,1.01965 2.5272,0.1985 4.2211,0.46501 4.627,0.72802 0.8203,0.53148 7.0806,1.62634 8.0334,1.40494 2.5364,-0.58938 11.0453,-3.3323 14.8192,-4.77716 17.9563,-6.87466 37.2551,-16.16554 44.423,-21.3863 2.1486,-1.56486 8.7042,-6.96528 11.2406,-9.25973 1.1471,-1.03776 2.799,-2.46348 3.6708,-3.16827 0.8719,-0.70479 1.9522,-1.60179 2.4007,-1.99334 2.3514,-2.05272 5.0496,-4.46828 5.4463,-4.87589 0.2474,-0.25412 1.2828,-1.14113 2.3008,-1.97113 1.018,-0.83 2.0557,-1.71128 2.3059,-1.95843 1.6848,-1.66429 6.4462,-5.92013 8.2303,-7.35657 1.1747,-0.94572 2.6529,-2.2132 3.2849,-2.81664 0.632,-0.60342 2.1698,-1.98158 3.4172,-3.06254 2.2289,-1.93161 3.2682,-2.87964 9.8125,-8.95127 3.6886,-3.42226 8.5151,-8.25474 11.6355,-11.65012 1.4845,-1.61532 2.2902,-2.27878 2.7674,-2.27878 0.855,0 0.6829,0.34348 -1.3199,2.63405 -5.2543,6.00947 -11.2219,12.17596 -16.0713,16.60696 -2.3582,2.15471 -3.1687,2.90085 -7.3259,6.74361 -2.644,2.44415 -6.4148,5.86521 -7.6053,6.89993 -1.2499,1.08625 -8.283,7.46312 -11.1704,10.12802 -1.513,1.39648 -3.1319,2.77069 -3.5975,3.0538 -0.4656,0.28314 -1.0216,0.75838 -1.2357,1.05616 -0.214,0.29775 -2.1191,1.9789 -4.2335,3.73589 -2.1143,1.75699 -5.0616,4.28913 -6.5495,5.627 -3.4689,3.1191 -5.7783,4.81956 -8.9701,6.60468 -1.4095,0.78837 -2.9473,1.69696 -3.4171,2.01909 -0.9357,0.64146 -5.7018,2.99086 -6.7285,3.31672 -0.3533,0.11214 -1.4432,0.69405 -2.422,1.29311 -0.9788,0.59908 -3.0364,1.62132 -4.5727,2.27167 -1.5362,0.65034 -2.9853,1.34835 -3.2202,1.5511 -0.2349,0.20278 -1.196,0.69004 -2.1357,1.08278 -1.7085,0.71408 -8.2903,4.03672 -8.8277,4.45646 -0.1566,0.12233 -0.7444,0.30507 -1.3061,0.40607 -0.5617,0.10104 -1.9072,0.62993 -2.99,1.1753 -1.0828,0.54541 -2.3054,0.99203 -2.717,0.99252 -0.4115,0 -0.9077,0.1931 -1.1026,0.42803 -0.195,0.23492 -0.5071,0.42714 -0.6935,0.42714 -0.1865,0 -1.0031,0.32036 -1.8147,0.71191 -0.8117,0.39155 -1.6643,0.7119 -1.8946,0.7119 -0.2304,0 -0.9038,0.2064 -1.4965,0.4587 -2.3899,1.01737 -2.8315,1.18265 -3.9251,1.46907 -1.5449,0.40459 -5.5945,1.75898 -6.1224,2.04761 -0.2672,0.14614 -0.4,0.56551 -0.3547,1.12037 0.068,0.8365 0.021,0.88268 -0.8432,0.81434 -0.6794,-0.0538 -0.9424,0.0561 -1.0188,0.42589 -0.069,0.33468 0.073,0.49834 0.433,0.49834 0.4816,0 3.7046,0.72221 6.3399,1.42062 0.5482,0.14529 1.6695,0.39765 2.4917,0.56082 0.8223,0.16317 2.1678,0.43016 2.99,0.59333 0.8223,0.16317 1.9435,0.40587 2.4917,0.53934 1.3292,0.32366 7.1169,1.4026 9.2548,1.72527 1.7214,0.25981 2.7147,0.43338 7.4038,1.29356 1.4096,0.25856 3.2677,0.57482 4.1291,0.70282 1.7601,0.2615 5.8243,0.92659 8.4005,1.37473 2.3744,0.41304 6.5427,1.06786 10.2515,1.6105 1.7228,0.25205 4.2857,0.64311 5.6952,0.86901 8.1171,1.30086 21.2708,2.9428 29.7578,3.71454 22.5143,2.04733 38.8458,2.4894 56.6678,1.53396 5.1644,-0.27688 17.9646,-1.64382 21.2149,-2.2656 0.7831,-0.14979 2.5771,-0.46166 3.9867,-0.69306 1.4095,-0.23137 3.2035,-0.56238 3.9866,-0.73557 0.7831,-0.17319 2.0005,-0.42669 2.7053,-0.56332 2.8263,-0.54791 9.2579,-2.05508 10.3603,-2.4278 0.6449,-0.21808 2.39,-0.7114 3.8778,-1.09631 5.0043,-1.29456 8.2215,-2.32495 16.8252,-5.38863 1.971,-0.70186 4.2135,-1.55777 4.9834,-1.90202 0.7697,-0.34425 3.1936,-1.32255 5.3863,-2.17402 2.1927,-0.85147 4.243,-1.67464 4.5562,-1.82926 1.5239,-0.75226 4.5794,-1.64206 4.822,-1.40428 0.1462,0.14323 0.2103,0.3158 0.1424,0.38349 -0.068,0.0677 -2.3018,1.04397 -4.9644,2.16952 -2.6625,1.12555 -5.3535,2.27509 -5.98,2.5545 -6.4766,2.88858 -18.2115,7.06482 -25.4863,9.07007 -10.8708,2.99645 -12.9217,3.50173 -18.0824,4.455 -1.253,0.23146 -2.9829,0.55908 -3.8443,0.72809 -7.1906,1.4108 -16.0558,2.43335 -27.1949,3.1368 -4.8335,0.30524 -25.5663,0.40989 -33.0325,0.16673 -11.2808,-0.36737 -14.5239,-0.59572 -18.9368,-1.33332 -0.8614,-0.14397 -2.4632,-0.27886 -3.5595,-0.29977 -1.0964,-0.0208 -2.5933,-0.14665 -3.3265,-0.27943 -0.7332,-0.13282 -3.0398,-0.3807 -5.1258,-0.55088 -2.0859,-0.17017 -4.3175,-0.35279 -4.9591,-0.40584 -3.0491,-0.25205 -7.5178,-0.78153 -8.8001,-1.04269 -0.7831,-0.15947 -3.0256,-0.46493 -4.9834,-0.67876 -4.7121,-0.51471 -7.0744,-0.8939 -9.8243,-1.57693 -1.253,-0.31125 -3.4955,-0.686 -4.9834,-0.83282 -1.4879,-0.1468 -3.9226,-0.54097 -5.4105,-0.87591 -1.4878,-0.33493 -3.8585,-0.71911 -5.2681,-0.85366 -1.4096,-0.13458 -3.378,-0.50158 -4.3742,-0.81553 -0.9963,-0.31395 -2.4699,-0.64208 -3.2748,-0.72917 -8.4385,-0.913 -11.0765,-1.30002 -14.4201,-2.11559 -0.7048,-0.17191 -2.5629,-0.5747 -4.1291,-0.89512 -1.5662,-0.32041 -3.232,-0.71604 -3.7019,-0.87918 -0.4699,-0.16311 -1.9077,-0.36942 -3.1951,-0.45844 l -2.3409,-0.16186 -3.6391,1.80742 c -2.0016,0.99405 -3.9862,2.0419 -4.4103,2.32854 -0.6396,0.43227 -1.7323,0.5697 -6.4072,0.80591 -3.0998,0.15659 -6.9175,0.21163 -8.4837,0.12227 -1.5662,-0.0893 -6.4356,-0.28584 -10.821,-0.43662 -4.3854,-0.15078 -8.8704,-0.41109 -9.9667,-0.57841 -1.0963,-0.16736 -4.0436,-0.40397 -6.5496,-0.52582 -2.8917,-0.14059 -5.6844,-0.46211 -7.6446,-0.88009 -2.3793,-0.50736 -3.1378,-0.57852 -3.3039,-0.3099 -0.2594,0.41976 -5.6886,-0.21363 -9.5514,-1.11431 -1.3254,-0.30905 -3.9186,-0.63796 -5.7627,-0.73087 -4.6986,-0.23678 -10.203,-1.4755 -12.6793,-2.85336 -0.431,-0.23983 -0.8874,-0.37196 -1.0141,-0.29365 -0.4248,0.26256 -5.6928,-0.37039 -8.1809,-0.98288 -2.2413,-0.55176 -3.3924,-0.96156 -6.0111,-2.14 -0.4935,-0.22209 -1.1106,-0.40379 -1.3714,-0.40379 -0.2607,0 -0.7539,-0.15395 -1.0959,-0.34209 -0.3422,-0.18814 -1.1346,-0.36788 -1.7611,-0.39946 -2.0478,-0.10317 -7.7267,-2.36906 -10.2515,-4.09031 -0.6264,-0.42709 -1.4594,-0.98967 -1.8509,-1.25017 -0.3916,-0.26047 -1.1739,-0.7825 -1.7386,-1.16004 -0.5646,-0.37754 -1.8234,-0.84318 -2.7973,-1.0348 -0.9739,-0.19159 -2.2173,-0.65139 -2.7631,-1.02179 -0.5458,-0.37036 -1.5295,-0.94359 -2.186,-1.2738 -1.4834,-0.74619 -5.2991,-3.05775 -5.9455,-3.60188 -0.5273,-0.44389 -1.0858,-0.25566 -1.0858,0.36595 0,0.2179 0.5782,0.87946 1.2848,1.47017 1.36,1.13684 5.6799,3.501 6.408,3.507 0.2373,0.003 0.8816,0.24487 1.4319,0.5398 0.5502,0.2949 1.7605,0.694 2.6896,0.88687 0.929,0.19287 1.9914,0.54873 2.3609,0.79084 0.3695,0.24211 1.5474,0.90019 2.6175,1.46243 5.0996,2.67911 4.8493,2.48817 4.8493,3.6993 0,0.70601 0.3976,1.90518 1.1079,3.34115 0.6094,1.23194 1.646,3.90576 2.3037,5.94181 0.6576,2.03606 1.5112,4.40671 1.8968,5.26812 0.3857,0.86141 0.7379,1.92357 0.7829,2.36037 0.045,0.4368 0.2305,0.94296 0.4124,1.12481 0.1818,0.18185 0.3306,0.60869 0.3306,0.94852 0,0.95977 3.8175,12.30091 4.7954,14.24644 1.0754,2.13926 1.7738,3.97199 1.9428,5.09757 0.1126,0.75035 -0.01,0.92958 -0.9742,1.4732 -0.6063,0.34037 -1.2347,0.53259 -1.3965,0.42714 z m -78.3198,-76.05674 c 1.5971,-0.29983 3.7172,-0.67876 4.7111,-0.84207 2.3989,-0.3942 2.7,-0.67401 2.5381,-2.35867 -0.1776,-1.84851 -0.8464,-2.80366 -1.9632,-2.80366 -0.7021,0 -1.1682,0.31509 -2.3101,1.56193 -1.1733,1.28086 -1.5518,1.53151 -2.1039,1.39294 -0.5797,-0.14548 -0.6733,-0.0651 -0.6733,0.57799 0,0.85807 -1.3814,1.87194 -2.5628,1.88094 -0.9103,0.007 -1.553,0.4116 -1.3011,0.81915 0.2538,0.41083 0.2617,0.41034 3.6652,-0.22855 z m -6.8311,-18.8127 c 1.3431,-0.9064 3.1785,-3.34537 3.4869,-4.63344 0.2899,-1.21104 -0.087,-2.17114 -1.0921,-2.78421 -1.3952,-0.85067 -2.7896,-0.73036 -4.2153,0.36373 -1.9056,1.46248 -2.3098,2.18806 -2.4706,4.43535 -0.133,1.86036 -0.093,2.04565 0.5928,2.73128 0.9817,0.98175 2.1284,0.94681 3.6983,-0.11271 z m 29.4727,49.06345 c 0.2056,-0.0823 0.4512,-0.0722 0.5458,0.0225 0.095,0.0946 -0.074,0.16194 -0.3737,0.14958 -0.3318,-0.0137 -0.3993,-0.0812 -0.1721,-0.17205 z m 243.5258,-35.25848 c 0,-0.0783 0.064,-0.14238 0.1424,-0.14238 0.078,0 0.1424,0.0641 0.1424,0.14238 0,0.0783 -0.064,0.14238 -0.1424,0.14238 -0.078,0 -0.1424,-0.0641 -0.1424,-0.14238 z m 1.4238,-0.85429 c 0,-0.0783 0.064,-0.14238 0.1424,-0.14238 0.078,0 0.1424,0.0641 0.1424,0.14238 0,0.0783 -0.064,0.14238 -0.1424,0.14238 -0.078,0 -0.1424,-0.0641 -0.1424,-0.14238 z m 41.0059,-45.36552 c 0,-0.15291 0.2029,-0.35589 0.4509,-0.45106 0.2774,-0.10642 0.4075,-0.0428 0.3382,0.16531 -0.1419,0.42569 -0.7891,0.66005 -0.7891,0.28575 z m 0.9967,-1.19324 c 0.097,-0.15662 0.2325,-0.28476 0.3015,-0.28476 0.069,0 0.1256,0.12814 0.1256,0.28476 0,0.15662 -0.1357,0.28477 -0.3015,0.28477 -0.1659,0 -0.2224,-0.12815 -0.1256,-0.28477 z m 0.9966,-0.14238 c 0,-0.0783 0.064,-0.14238 0.1424,-0.14238 0.078,0 0.1424,0.0641 0.1424,0.14238 0,0.0783 -0.064,0.14238 -0.1424,0.14238 -0.078,0 -0.1424,-0.0641 -0.1424,-0.14238 z m 0.1546,-0.69223 c -0.09,-0.1458 -0.055,-0.33238 0.078,-0.41461 0.1331,-0.0822 0.242,0.037 0.242,0.26508 0,0.48017 -0.09,0.52211 -0.3201,0.14953 z m 0.6997,-0.87397 c 0,-0.15662 0.1242,-0.28476 0.2758,-0.28476 0.1518,0 0.2016,-0.19367 0.1107,-0.43036 -0.1194,-0.31133 -0.035,-0.38036 0.306,-0.2496 0.4363,0.16744 0.4355,0.2203 -0.013,0.71516 -0.5492,0.60686 -0.6801,0.65487 -0.6801,0.24956 z"
       id="path177" />
  </g>
</svg>
