<?xml version="1.0" encoding="UTF-8" standalone="no"?>
<!-- Created with Inkscape (http://www.inkscape.org/) -->

<svg
   version="1.1"
   id="svg179"
   width="500.00058"
   height="271.0159"
   viewBox="0 0 500.00059 271.0159"
   sodipodi:docname="eiseniella_tetraedra.svg"
   inkscape:version="1.3.2 (091e20e, 2023-11-25, custom)"
   xmlns:inkscape="http://www.inkscape.org/namespaces/inkscape"
   xmlns:sodipodi="http://sodipodi.sourceforge.net/DTD/sodipodi-0.dtd"
   xmlns="http://www.w3.org/2000/svg"
   xmlns:svg="http://www.w3.org/2000/svg">
  <defs
     id="defs183" />
  <sodipodi:namedview
     id="namedview181"
     pagecolor="#505050"
     bordercolor="#eeeeee"
     borderopacity="1"
     inkscape:showpageshadow="0"
     inkscape:pageopacity="0"
     inkscape:pagecheckerboard="0"
     inkscape:deskcolor="#505050"
     showgrid="false"
     inkscape:zoom="3.4405164"
     inkscape:cx="306.64002"
     inkscape:cy="131.08497"
     inkscape:window-width="3840"
     inkscape:window-height="2054"
     inkscape:window-x="-11"
     inkscape:window-y="-11"
     inkscape:window-maximized="1"
     inkscape:current-layer="g185" />
  <g
     inkscape:groupmode="layer"
     inkscape:label="Image"
     id="g185"
     transform="translate(-836.07031,-291.10087)">
    <path
       style="fill:#000000;stroke-width:0.209701"
       d="m 1238.8683,561.13937 c -0.8438,-0.57773 -1.8016,-1.03469 -2.4688,-1.17777 -0.5996,-0.12859 -1.4026,-0.36436 -1.7845,-0.52392 -0.9259,-0.38688 -2.5048,-0.36696 -3.7194,0.0469 -0.6678,0.22754 -1.483,0.31211 -2.509,0.26032 -1.2817,-0.0647 -1.6856,-0.18323 -2.579,-0.75647 -0.5826,-0.37384 -1.1925,-0.68031 -1.3554,-0.68102 -0.1629,0 -0.5793,-0.1533 -0.9253,-0.3391 -1.4845,-0.79714 -2.5665,-0.92653 -5.8445,-0.69891 -2.9602,0.20556 -3.1599,0.19487 -3.9384,-0.21087 -0.451,-0.2351 -0.9931,-0.42743 -1.2046,-0.42743 -0.2116,0 -0.6172,-0.18289 -0.9014,-0.40641 -0.2841,-0.22352 -0.7923,-0.47269 -1.1292,-0.55367 -0.3369,-0.081 -0.8957,-0.29727 -1.2417,-0.48058 -0.5907,-0.31296 -1.9194,-0.44666 -7.2578,-0.73028 -1.9918,-0.10581 -2.638,-0.41106 -3.4353,-1.62262 -0.7322,-1.1126 -1.7214,-2.07809 -2.1293,-2.07809 -0.1562,0 -0.4522,-0.16514 -0.658,-0.36699 -0.549,-0.53864 -2.0246,-1.52033 -2.2852,-1.52033 -0.1239,0 -0.3406,-0.13906 -0.4816,-0.309 -0.1411,-0.16997 -0.6009,-0.3718 -1.0218,-0.44854 -0.4209,-0.0767 -1.0956,-0.31081 -1.4993,-0.52017 -0.6808,-0.35311 -1.5051,-0.67054 -4.0208,-1.54834 -1.4038,-0.48981 -2.625,-1.43487 -2.7828,-2.1535 -0.073,-0.33076 -0.604,-1.11504 -1.1808,-1.74282 -0.5768,-0.62782 -1.4462,-1.73103 -1.932,-2.45161 -0.9675,-1.43524 -1.8318,-1.98483 -4.348,-2.76494 -2.359,-0.73136 -2.7499,-1.22667 -3.2553,-4.12496 -0.3646,-2.09038 -0.4743,-2.33411 -1.7005,-3.77557 -0.5012,-0.58911 -0.9112,-1.17315 -0.9112,-1.29787 0,-0.12472 -0.3774,-0.66289 -0.8388,-1.19593 -0.4613,-0.53304 -0.8388,-1.09413 -0.8388,-1.24686 0,-0.15272 -0.2595,-0.44467 -0.5767,-0.64877 -1.2793,-0.82327 -2.6111,-2.08344 -2.9931,-2.83232 -0.2225,-0.43599 -0.6989,-1.72099 -1.0587,-2.85553 -0.3599,-1.13455 -0.9204,-2.48747 -1.2456,-3.00648 -0.3252,-0.51901 -0.6993,-1.36831 -0.8314,-1.88732 -0.3686,-1.4487 -1.4547,-3.51376 -2.2352,-4.24994 -0.8392,-0.79154 -1.0449,-1.39754 -1.2246,-3.608 -0.075,-0.91947 -0.2369,-1.79329 -0.3601,-1.94184 -0.1233,-0.14853 -0.2881,-1.19216 -0.3663,-2.31914 -0.1522,-2.19463 -0.3311,-2.60835 -1.8325,-4.23783 -1.0824,-1.17476 -1.3828,-2.11313 -1.1243,-3.51155 0.2652,-1.43479 0.291,-7.53268 0.033,-7.69244 -0.1019,-0.063 -0.3795,-0.52763 -0.6168,-1.03249 -0.2373,-0.50486 -0.7327,-1.21916 -1.1009,-1.58733 -0.6344,-0.63448 -0.6637,-0.73277 -0.5595,-1.88175 0.06,-0.66674 0.2789,-1.53428 0.4854,-1.92783 0.6418,-1.22311 1.809,-5.86089 1.8952,-7.53084 0.062,-1.19374 -0.026,-1.91455 -0.3651,-2.99114 -0.2926,-0.93034 -0.4074,-1.7076 -0.3334,-2.25899 0.1497,-1.11623 1.2374,-3.18051 1.8385,-3.48928 0.264,-0.13557 0.6357,-0.65458 0.8261,-1.15335 0.1905,-0.49877 0.6084,-1.32043 0.9289,-1.82587 0.5235,-0.82592 0.6206,-1.28747 0.9583,-4.55647 0.2745,-2.65824 0.4876,-3.85221 0.7914,-4.43515 0.2287,-0.43872 0.5238,-1.30115 0.6557,-1.91649 0.3258,-1.51918 1.0136,-3.57674 1.3184,-3.94398 0.2265,-0.27293 0.4947,-2.48685 0.706,-5.82822 0.044,-0.69202 0.083,-1.31592 0.088,-1.38644 0,-0.0705 0.4717,-0.81144 1.0377,-1.64645 0.5661,-0.83501 1.0865,-1.82357 1.1565,-2.1968 0.07,-0.37321 0.4417,-1.0478 0.826,-1.49907 1.1111,-1.30483 1.5073,-2.30551 1.226,-3.09661 -0.2617,-0.73584 0.1652,-5.01203 0.5771,-5.7818 0.5531,-1.0334 2.5116,-1.94943 4.7838,-2.23746 0.6081,-0.0771 1.1563,-0.22209 1.2182,-0.32223 0.062,-0.10012 0.2901,-0.18206 0.5072,-0.18206 0.5297,0 0.5901,-0.13391 0.8329,-1.84618 0.1151,-0.81156 0.2953,-1.69542 0.4003,-1.96414 0.1051,-0.26871 0.3132,-0.89841 0.4626,-1.39932 0.3345,-1.12216 2.7214,-3.40984 3.9379,-3.77429 0.433,-0.12974 1.0175,-0.48138 1.299,-0.7814 0.4501,-0.47985 0.5053,-0.7113 0.4585,-1.92278 -0.042,-1.08175 0.053,-1.6098 0.443,-2.46102 0.5219,-1.14005 1.8326,-2.3722 2.9654,-2.78778 0.6629,-0.24318 3.2644,-0.76363 5.0329,-1.00686 1.7299,-0.23792 1.7817,-0.30002 1.7874,-2.14256 0.01,-2.46586 0.204,-3.02189 1.4913,-4.22245 0.6818,-0.63577 1.322,-1.05232 1.6249,-1.05716 1.2853,-0.0205 2.1451,-0.51378 3.7495,-2.15071 1.739,-1.77422 2.2562,-2.12951 3.4047,-2.33858 1.5437,-0.28099 3.5597,-2.12559 3.5696,-3.26598 0,-0.29477 0.1912,-0.94731 0.4194,-1.45007 0.488,-1.07557 0.5333,-1.97683 0.1167,-2.3226 -0.1869,-0.15504 -1.6738,-0.30358 -3.984,-0.39791 -3.4864,-0.14238 -3.7036,-0.17577 -4.0127,-0.61709 -0.619,-0.88372 -1.8915,-0.54317 -3.2968,0.88226 -1.3858,1.40569 -2.0236,1.24067 -3.1786,-0.82234 -0.4823,-0.86157 -1.3533,-1.32018 -2.5627,-1.34933 -0.5674,-0.0137 -0.7389,0.11591 -1.204,0.90945 -0.7563,1.29059 -1.8214,1.92239 -2.8234,1.67479 -0.7823,-0.19331 -0.9616,-0.509 -1.3732,-2.41638 -0.1435,-0.66484 -0.8844,-1.01165 -2.29,-1.07189 -0.9377,-0.0402 -1.0774,0.0224 -1.8874,0.84525 -1.4439,1.46704 -2.4229,2.19412 -2.7732,2.05968 -0.7175,-0.27535 -1.2211,-2.00814 -1.3415,-4.61621 -0.095,-2.06769 -0.178,-2.53394 -0.4822,-2.72505 -0.5549,-0.34866 -1.0166,0.0566 -1.422,1.24823 -0.1938,0.56951 -0.7212,1.64887 -1.172,2.39854 -0.4508,0.74969 -0.9495,1.61757 -1.1082,1.92863 -0.1588,0.31105 -0.41,0.61212 -0.5583,0.66904 -0.3961,0.152 -1.3023,-1.10765 -2.6072,-3.62394 -1.0574,-2.03909 -1.2075,-2.22938 -1.8036,-2.28748 -0.5543,-0.054 -0.86,0.1393 -2.0724,1.31063 -1.4502,1.40105 -1.8683,1.57151 -2.8962,1.18069 -0.3762,-0.14303 -0.5422,-0.40379 -0.6379,-1.0024 -0.071,-0.445 -0.4978,-1.41961 -0.948,-2.16582 -0.6794,-1.12594 -0.9249,-1.36755 -1.443,-1.42024 -0.538,-0.0547 -0.8677,0.1795 -2.3842,1.69385 -1.6957,1.69327 -3.2822,3.02496 -3.4013,2.85506 -0.031,-0.0449 -0.3112,-0.39464 -0.6216,-0.77715 -0.3104,-0.38252 -0.7181,-1.23181 -0.906,-1.88732 -0.661,-2.30556 -1.0652,-2.29403 -3.4693,0.0989 l -1.8234,1.81501 -0.1343,-0.81893 c -0.4192,-2.55461 -1.2891,-5.63268 -1.6847,-5.96103 -0.1574,-0.1306 -0.5036,-0.20662 -0.7695,-0.16894 -0.4392,0.0623 -0.4891,0.19104 -0.5466,1.41064 -0.058,1.22743 -0.143,1.44361 -0.9961,2.52948 -0.5131,0.65304 -0.9328,1.30967 -0.9328,1.45916 0,0.45184 -1.105,0.0675 -1.5728,-0.54699 -0.2307,-0.30304 -0.7846,-0.97958 -1.231,-1.50344 l -0.8115,-0.95245 0.1468,-1.47849 c 0.2575,-2.59212 0.2439,-2.87896 -0.1489,-3.12955 -0.5533,-0.35299 -1.0753,0.0841 -1.2469,1.04418 -0.5608,3.13601 -0.7932,3.85726 -1.2426,3.85726 -0.1213,0 -0.6465,0.30594 -1.1672,0.67988 l -0.9467,0.67987 -0.5048,-0.62745 c -0.5588,-0.69471 -0.9178,-1.76041 -0.9196,-2.73023 0,-0.77991 -0.5221,-1.567 -1.0366,-1.567 -0.431,0 -1.1397,0.85962 -1.9883,2.41156 -0.7322,1.33926 -1.0495,1.57277 -2.1369,1.57277 -0.7818,0 -0.9385,-0.0841 -1.3267,-0.71226 -0.5268,-0.85242 -1.2829,-1.38476 -1.9667,-1.38476 -0.616,0 -2.2528,1.15436 -2.3921,1.68703 -0.1267,0.48446 -0.99,1.0724 -1.358,0.92483 -0.1502,-0.0602 -0.7761,-0.75565 -1.3909,-1.54532 -1.0598,-1.36134 -1.1811,-1.44924 -2.3395,-1.69506 -0.6965,-0.14781 -1.3429,-0.18282 -1.5035,-0.0814 -0.155,0.0978 -0.8676,0.3266 -1.5837,0.50843 -1.3011,0.33037 -1.3024,0.33023 -1.9757,-0.19669 -0.3706,-0.29 -0.9073,-0.7437 -1.1927,-1.00819 -0.8169,-0.75705 -1.7664,-0.63431 -3.6032,0.46581 l -1.5727,0.94197 -1.1173,-1.17155 c -1.3145,-1.37842 -2.2494,-1.83743 -3.35,-1.64478 -1.1612,0.20325 -2.4625,1.03016 -2.763,1.75577 -0.3204,0.77334 -0.6333,0.6432 -0.6343,-0.26382 0,-0.90581 -0.6638,-1.93045 -1.4189,-2.19367 -0.8094,-0.28217 -1.9491,0.21157 -3.1707,1.37363 -0.722,0.68681 -0.9101,0.78087 -0.9978,0.49866 -0.442,-1.42396 -1.2629,-3.05152 -1.6755,-3.32185 -0.6545,-0.42883 -1.7484,-0.21753 -2.3857,0.46087 -0.7707,0.8204 -2.0227,0.7314 -2.9951,-0.21292 -0.4156,-0.40368 -0.9255,-0.74744 -1.133,-0.76391 -1.845,-0.14647 -2.7214,-0.0601 -5.8963,0.58145 -1.9973,0.40359 -4.0734,0.92323 -4.6134,1.15477 -0.6195,0.2656 -1.8912,0.50461 -3.4455,0.64756 -2.1366,0.19653 -2.6059,0.1806 -3.5366,-0.11996 -0.5901,-0.1906 -1.6178,-0.34656 -2.2837,-0.34656 -1.2827,0 -4.3216,0.78445 -5.6355,1.45473 -0.4304,0.21959 -1.3744,0.50659 -2.0978,0.63776 -1.4505,0.26304 -3.7765,1.28696 -4.3414,1.91118 -0.4649,0.51366 -0.9729,0.50831 -1.4467,-0.0153 -0.7119,-0.78662 -1.5741,-0.74859 -4.1614,0.18359 -1.7792,0.64099 -2.7055,0.86082 -3.6275,0.86082 -0.8376,0 -1.4914,0.1357 -2.0207,0.41939 -0.5999,0.32149 -1.1867,0.41999 -2.5134,0.4219 -2.0274,0.003 -3.1764,0.28357 -5.6102,1.37041 -2.5324,1.13082 -4.8299,1.78191 -7.1299,2.02051 -3.3784,0.35046 -6.095,1.50616 -8.3117,3.53588 -0.477,0.43677 -1.1847,0.9558 -1.5727,1.15341 -0.3881,0.19761 -1.3097,0.77868 -2.0481,1.29126 -1.1309,0.78509 -1.6101,0.9757 -3.0406,1.20936 -2.1337,0.34849 -3.7368,0.7604 -7.0237,1.80458 -1.42962,0.45416 -3.39087,0.91569 -4.35831,1.02563 -0.96744,0.10992 -3.00618,0.4309 -4.53052,0.71329 -1.52436,0.28239 -3.76237,0.56381 -4.9734,0.62538 -2.21898,0.1128 -6.88411,1.02547 -9.35059,1.82931 -0.70239,0.22892 -1.91955,0.83819 -2.7048,1.35393 -0.78525,0.51576 -1.61033,0.93775 -1.83353,0.93775 -0.22318,0 -1.17557,0.19653 -2.11641,0.43676 -1.36508,0.34852 -2.03413,0.40811 -3.31215,0.29498 -1.4372,-0.12722 -1.63105,-0.10013 -1.88926,0.26393 -0.43481,0.61309 -1.10309,0.89165 -2.13915,0.89165 -0.51444,0 -1.53508,0.18451 -2.26809,0.41003 -2.31446,0.71209 -2.95884,0.7401 -4.91751,0.21372 l -1.78831,-0.48057 -1.19294,0.50508 c -0.96349,0.40796 -1.45508,0.48853 -2.556,0.41897 -0.74967,-0.0474 -2.35389,-0.0886 -3.56492,-0.0917 -1.93335,-0.005 -2.36094,0.0632 -3.50619,0.55795 -0.71737,0.30991 -1.66103,0.56686 -2.09703,0.57096 -0.43597,0.004 -1.35889,0.14418 -2.0509,0.31128 -0.69202,0.16709 -2.02517,0.30528 -2.96259,0.30708 -1.29138,0.003 -1.77068,0.0832 -1.97814,0.33316 -0.83635,1.00777 -4.62626,2.04727 -7.28096,1.99705 -2.09152,-0.0396 -3.15735,0.21755 -3.81829,0.92109 -0.40725,0.43351 -0.69067,0.52661 -1.60298,0.52661 -0.60952,0 -1.79624,0.0914 -2.63715,0.20313 -0.84088,0.11171 -2.07668,0.2607 -2.74622,0.33108 -0.94444,0.0993 -1.37824,0.26926 -1.93527,0.75834 -0.91269,0.80134 -2.47861,1.21823 -4.58794,1.22139 -1.8985,0.003 -3.82334,0.51983 -4.14027,1.11202 -0.31177,0.58251 -1.47293,0.98748 -2.8314,0.98748 -0.65993,0 -1.77177,0.10423 -2.47072,0.23161 -0.69897,0.12739 -1.46693,0.26666 -1.70659,0.3095 -0.23966,0.0428 -0.69648,0.31952 -1.01516,0.61486 -1.18261,1.09601 -1.46676,1.18416 -4.40655,1.367 -2.42399,0.15076 -2.95763,0.24955 -3.72827,0.69016 -1.64285,0.9393 -2.80032,1.18229 -5.40795,1.13528 -1.32638,-0.0239 -2.61335,0.0289 -2.85996,0.11747 -0.24663,0.0885 -0.68864,0.52397 -0.98226,0.96766 -0.85281,1.28869 -1.94763,1.69618 -4.55965,1.69712 -2.43786,0.002 -3.42351,0.36131 -3.66963,1.34198 -0.18122,0.72201 -1.03735,0.96352 -3.42531,0.96626 -3.21585,0.004 -3.48487,0.0883 -4.45492,1.40143 -0.4608,0.62375 -1.05858,1.21804 -1.32839,1.32063 -0.2698,0.10258 -1.56079,0.25139 -2.86886,0.33071 -1.59371,0.0966 -2.92524,0.31469 -4.03617,0.66101 -2.21948,0.69192 -3.06868,0.67462 -4.8429,-0.0986 -2.19031,-0.95459 -3.57862,-1.18857 -4.70154,-0.79239 -1.26919,0.4478 -3.68195,0.40981 -4.73505,-0.0745 -0.46135,-0.21219 -1.59374,-1.13024 -2.51642,-2.0401 -2.60799,-2.57175 -3.81665,-5.30154 -3.53967,-7.99442 0.0684,-0.66492 0.0327,-1.72795 -0.0793,-2.3623 -0.28656,-1.62262 0.20221,-5.04507 0.90324,-6.3246 0.20941,-0.38222 0.29921,-1.15482 0.28529,-2.45438 -0.0122,-1.13469 0.12486,-2.51119 0.3411,-3.42654 0.45316,-1.91825 0.55706,-2.16195 1.39531,-3.27238 0.62381,-0.82637 0.68503,-1.04385 0.71609,-2.54387 0.0312,-1.5058 0.13341,-1.86543 1.24699,-4.38672 l 1.21302,-2.74646 1.17056,-0.32987 c 2.27111,-0.64001 2.2185,-0.60951 2.22651,-1.29039 0.004,-0.34763 0.15499,-0.8587 0.33534,-1.13573 0.18035,-0.27701 0.39558,-0.8681 0.47829,-1.31349 0.0997,-0.53664 0.39805,-1.0367 0.88466,-1.48249 0.40386,-0.36997 0.84584,-0.89416 0.98219,-1.16487 0.44399,-0.88145 2.70476,-2.41493 4.50141,-3.0533 1.57938,-0.56118 1.72557,-0.66375 2.06694,-1.45045 0.20204,-0.46561 0.52448,-1.08247 0.71655,-1.37082 0.19207,-0.28833 0.45682,-0.85453 0.58834,-1.25821 0.13151,-0.40367 0.64004,-1.1848 1.13005,-1.73583 0.48999,-0.55103 1.18349,-1.40124 1.5411,-1.88936 0.95898,-1.30895 2.41105,-2.01913 4.44987,-2.17636 l 1.6679,-0.12862 0.4955,-0.82655 c 0.79363,-1.32389 1.47538,-2.08296 2.394,-2.66554 0.47203,-0.29934 1.1587,-0.88649 1.52594,-1.30475 0.45811,-0.52176 0.91407,-0.80269 1.4526,-0.89498 0.43171,-0.074 1.11519,-0.26523 1.51887,-0.42499 0.40368,-0.15976 1.30016,-0.40077 1.99217,-0.53558 1.49543,-0.2913 1.92749,-0.60666 2.7329,-1.99472 0.33365,-0.57503 0.75172,-1.16892 0.92903,-1.31975 0.5857,-0.49822 2.52555,-1.29852 3.14747,-1.29852 0.38707,0 0.72664,-0.16478 0.92595,-0.44931 0.22303,-0.31844 0.66785,-0.5047 1.52713,-0.63944 0.66682,-0.10457 1.35626,-0.31575 1.53207,-0.46928 0.1758,-0.15355 0.85508,-0.34352 1.50949,-0.42218 1.07536,-0.12925 1.21059,-0.20254 1.40555,-0.76178 0.11863,-0.34033 0.38531,-0.67777 0.59261,-0.74988 0.20731,-0.0721 1.11146,-0.44772 2.00922,-0.8347 0.89777,-0.38698 2.01533,-0.76485 2.48346,-0.8397 0.46815,-0.0749 1.10191,-0.3425 1.40838,-0.59475 0.86299,-0.71034 1.24576,-0.77144 2.10055,-0.33535 l 0.78513,0.40054 1.451,-0.61217 c 0.79805,-0.3367 1.61886,-0.61218 1.82403,-0.61218 0.25296,0 0.37303,-0.16045 0.37303,-0.49857 0,-0.61416 0.30796,-0.87025 1.25821,-1.04628 0.74359,-0.13773 4.17614,-1.16609 5.83171,-1.74714 0.86987,-0.30528 0.89022,-0.33208 0.54302,-0.71574 -0.47904,-0.52932 -0.30326,-0.65575 1.01319,-0.72879 1.54867,-0.0859 3.07286,-0.4568 3.84912,-0.93655 0.36335,-0.22456 0.97505,-0.40828 1.35932,-0.40828 0.54347,0 0.64281,-0.0559 0.44709,-0.25164 -0.51833,-0.51833 -0.27574,-0.79687 0.69408,-0.79687 0.6862,0 1.04425,-0.11508 1.30479,-0.41941 0.50999,-0.59559 1.31443,-0.55997 1.31443,0.0582 0,0.26269 -0.1469,0.68733 -0.32645,0.94366 -0.32126,0.45868 -0.31296,0.46607 0.52425,0.46607 0.70021,0 0.8507,-0.0715 0.8507,-0.40418 0,-0.61662 0.98296,-1.27344 1.90573,-1.27344 0.44037,0 1.01744,-0.0858 1.28235,-0.19077 0.26494,-0.10494 1.15669,-0.30707 1.98166,-0.4492 1.38916,-0.23933 1.58899,-0.34329 2.70534,-1.40745 1.16425,-1.10981 1.22977,-1.14156 1.91893,-0.93005 0.53666,0.1647 0.85366,0.15024 1.27899,-0.0583 3.39306,-1.66388 4.16359,-2.07578 4.36637,-2.33414 0.16086,-0.20493 0.59483,-0.28793 1.36306,-0.26067 1.28634,0.0456 2.49015,-0.18161 2.49015,-0.47012 0,-0.27474 2.90378,-1.65824 3.48046,-1.65824 0.28654,0 0.64954,-0.24466 0.91395,-0.61601 0.24123,-0.33879 0.9324,-0.84204 1.5359,-1.11834 0.60347,-0.27629 1.39611,-0.8012 1.76139,-1.16646 0.49301,-0.49301 0.85346,-0.66413 1.39898,-0.66413 0.52402,0 0.84741,-0.14307 1.12711,-0.49866 0.2414,-0.30688 0.71809,-0.55372 1.23948,-0.6418 0.65897,-0.11133 1.15869,-0.44257 2.24885,-1.49066 0.77087,-0.74114 1.65903,-1.40066 1.97369,-1.46558 1.76692,-0.36465 2.80193,-0.80388 3.71761,-1.57771 0.23068,-0.19493 0.91777,-0.51634 1.52684,-0.71425 1.33042,-0.43228 2.30661,-1.20892 2.69853,-2.1469 0.34316,-0.82132 0.54331,-0.86086 0.98042,-0.19374 0.35725,0.54523 1.17771,0.54698 1.6288,0.003 0.13297,-0.16021 0.42988,-0.29132 0.65979,-0.29132 0.6264,0 2.4137,-0.62088 3.80964,-1.3234 0.87698,-0.44135 1.72004,-0.67178 2.88898,-0.78961 1.01909,-0.10273 1.90931,-0.32396 2.32661,-0.57818 0.37178,-0.22646 1.6668,-0.61902 2.87783,-0.87236 1.47086,-0.30768 2.73226,-0.73247 3.79951,-1.27949 0.92314,-0.47317 1.89701,-0.81946 2.30673,-0.8202 0.38998,0 0.99216,-0.14982 1.33817,-0.33134 0.42513,-0.22303 0.8932,-0.28835 1.44362,-0.20144 0.8757,0.13828 2.11372,-0.16828 2.68242,-0.66421 0.19326,-0.16853 0.94818,-0.38837 1.6776,-0.48854 3.11859,-0.42822 3.93191,-0.60343 4.75835,-1.02505 0.83541,-0.42619 2.76594,-0.70704 5.06086,-0.73621 0.8087,-0.0102 1.0554,-0.12622 1.7255,-0.81083 1.0804,-1.10371 4.0711,-3.04687 5.0878,-3.30565 0.4624,-0.11772 1.0767,-0.30362 1.3651,-0.41312 0.2883,-0.10949 1.8925,-0.38405 3.5649,-0.61012 1.6724,-0.22608 3.4653,-0.50544 3.9843,-0.62078 0.519,-0.11537 1.4553,-0.21385 2.0807,-0.21887 0.6254,-0.005 1.8993,-0.14458 2.831,-0.31013 0.9317,-0.16557 2.4349,-0.36325 3.3406,-0.43931 1.4765,-0.12401 1.7264,-0.21039 2.419,-0.83613 1.3934,-1.25887 4.1427,-2.00991 8.4116,-2.2979 1.0957,-0.0739 2.6527,-0.26698 3.4601,-0.42902 0.8073,-0.16206 2.27,-0.34423 3.2504,-0.40484 0.9803,-0.0606 2.2543,-0.26168 2.8309,-0.44681 0.7203,-0.23128 1.9673,-0.34985 3.9844,-0.37893 1.8706,-0.0269 3.1075,-0.13691 3.4091,-0.30305 0.4008,-0.22074 2.4366,-0.99369 4.979,-1.89035 0.6207,-0.21893 2.2749,-0.62641 4.9181,-1.21143 1.4887,-0.32952 5.9841,-0.64463 11.9629,-0.83856 l 3.8794,-0.12584 2.0777,0.67311 c 1.1427,0.37021 2.5839,0.94703 3.2026,1.2818 1.3057,0.70638 2.4283,0.78277 3.8007,0.25863 0.7457,-0.28476 1.0412,-0.30499 1.5848,-0.10839 0.985,0.35615 3.4112,0.36477 3.8343,0.0135 0.4213,-0.34967 3.3945,-0.50795 6.7104,-0.35724 1.0597,0.0482 1.617,0.17554 1.9038,0.43509 0.5091,0.4609 0.6879,0.45827 2.6793,-0.0394 1.849,-0.46207 3.3217,-0.39021 4.5434,0.22169 0.423,0.21184 1.461,0.49094 2.3068,0.62024 0.8457,0.1293 1.9623,0.41214 2.4813,0.62854 0.519,0.21639 1.404,0.49325 1.9666,0.61523 0.5626,0.12197 1.2206,0.36021 1.4621,0.52941 0.4858,0.3402 2.036,0.41677 2.3486,0.11599 0.4481,-0.43109 2.5649,-0.21644 5.2474,0.5321 0.5851,0.16328 1.2457,0.27385 1.4679,0.2457 0.6709,-0.0849 2.632,0.25568 3.9909,0.69321 0.9283,0.29887 1.7928,0.40322 3.1455,0.37971 2.2837,-0.0397 3.4006,0.0715 4.0011,0.39835 0.2519,0.13713 0.7064,0.24931 1.0099,0.24931 0.6206,0 1.2404,0.28878 1.8612,0.86718 0.2859,0.26632 0.7334,0.39104 1.403,0.39104 0.6183,0 1.0803,0.11679 1.2444,0.31455 0.1866,0.22484 0.6873,0.31587 1.7557,0.31916 1.0332,0.003 1.7769,0.13268 2.4088,0.41941 0.6936,0.31474 1.3765,0.4159 2.831,0.41939 1.4544,0.003 2.1373,0.10467 2.8309,0.41941 0.5028,0.22813 1.0314,0.4148 1.1746,0.4148 0.1432,0 0.6789,0.22253 1.1905,0.49451 0.6415,0.34112 1.1454,0.46291 1.6245,0.39259 0.758,-0.11125 1.9119,0.17348 3.3795,0.83398 1.2009,0.54042 2.7023,0.99985 3.2772,1.00278 0.2453,0.002 0.5527,0.13068 0.6829,0.28762 0.1639,0.19748 0.978,0.31808 2.6431,0.39156 2.1901,0.0967 2.4713,0.15578 3.1301,0.6583 0.3981,0.30365 0.8792,0.5521 1.069,0.5521 0.1899,0 0.9446,0.23977 1.6771,0.5328 0.7324,0.29304 2.0514,0.61351 2.9309,0.71214 0.8796,0.0986 1.759,0.31741 1.9544,0.48615 0.4541,0.39235 2.1299,0.80292 2.6848,0.65781 0.2478,-0.0648 0.54,0.0263 0.6989,0.2178 0.183,0.2205 0.6281,0.32938 1.3484,0.32992 0.6756,0 1.3115,0.14483 1.7107,0.38828 0.3496,0.21314 1.1341,0.43542 1.7435,0.49399 0.6713,0.0645 1.3511,0.28617 1.7247,0.56234 0.5152,0.38091 0.8664,0.44942 2.136,0.41657 2.1211,-0.0549 4.9763,0.23712 5.6506,0.57792 0.3114,0.15742 0.9372,0.28623 1.3905,0.28623 0.4533,0 1.4253,0.22616 2.1598,0.50261 2.8469,1.07129 4.7562,1.61749 6.3685,1.82189 0.9227,0.11697 2.143,0.34956 2.7118,0.51686 0.5687,0.16729 1.4835,0.30417 2.0327,0.30417 0.7317,0 1.0717,0.10336 1.2725,0.3869 0.2223,0.31377 0.657,0.40947 2.3004,0.50635 1.9961,0.11769 3.5655,0.58505 4.3619,1.29893 0.1772,0.15885 0.9356,0.44535 1.6853,0.63664 0.7497,0.1913 1.7405,0.5648 2.2018,0.83 0.6227,0.35793 1.2727,0.50641 2.5223,0.57618 1.4665,0.0819 1.8511,0.19232 2.9858,0.8573 0.7163,0.41981 2.1292,1.04175 3.1397,1.38205 1.0105,0.34031 2.1204,0.76799 2.4664,0.95039 0.4018,0.2118 1.1679,0.33212 2.12,0.33294 1.2562,0.002 1.7376,0.11536 3.06,0.72631 0.863,0.39875 1.6857,0.8654 1.8281,1.03699 0.1424,0.17159 0.7471,0.61328 1.3437,0.98156 0.5967,0.36828 1.5567,0.98035 2.1334,1.36019 0.5766,0.37982 1.3315,0.75801 1.6776,0.84042 0.346,0.0824 0.865,0.30775 1.1533,0.50077 0.2884,0.19301 1.0861,0.56087 1.7728,0.81745 0.6867,0.25658 1.8663,0.8729 2.6213,1.36959 0.755,0.49668 1.6756,1.05915 2.0457,1.24992 0.3701,0.19078 0.8931,0.56708 1.1623,0.83623 0.2691,0.26914 0.9571,0.65521 1.5289,0.85791 1.6326,0.57878 2.8936,1.19697 3.302,1.61869 0.2064,0.21306 0.5456,0.38737 0.7539,0.38737 0.2083,0 0.5495,0.18873 0.7583,0.41941 0.2088,0.23068 0.5566,0.41941 0.773,0.41941 0.2164,0 0.4462,0.13719 0.5105,0.30488 0.1526,0.39775 1.4562,1.16303 1.9812,1.16303 0.2253,0 0.8097,0.18112 1.2986,0.40248 0.4889,0.22137 1.1249,0.46876 1.4132,0.54976 0.2883,0.081 1.01,0.53685 1.6037,1.013 0.5936,0.47616 1.6081,1.28089 2.2543,1.7883 0.6461,0.50742 1.1748,1.03227 1.1748,1.16635 0,0.45699 1.1999,1.13212 3.1778,1.78796 l 1.9748,0.65484 1.8275,1.9852 c 1.0051,1.09186 1.8274,2.08087 1.8274,2.19777 0,0.1169 0.4011,0.38496 0.8913,0.59568 0.4901,0.21074 1.2915,0.70279 1.7808,1.09348 0.4893,0.39069 1.1805,0.93567 1.5359,1.21105 0.3555,0.27537 0.8772,0.84157 1.1594,1.25821 1.9019,2.80784 3.1585,3.76631 5.1853,3.95516 1.0218,0.0952 1.2775,0.20282 1.5679,0.65991 0.1909,0.3004 0.4073,0.59337 0.481,0.65103 0.074,0.0577 0.3253,0.48232 0.5592,0.94366 0.2339,0.46135 0.6241,1.01871 0.8673,1.23858 0.2431,0.21988 0.7248,0.99839 1.0705,1.73004 0.3457,0.73165 0.7596,1.33028 0.9198,1.33028 0.1602,0 0.782,0.33756 1.3818,0.75013 0.5998,0.41258 1.4084,0.80173 1.797,0.86478 0.9011,0.14622 1.2172,0.51081 1.7408,2.00764 0.2329,0.66605 0.7498,1.65689 1.1486,2.20187 0.3988,0.54499 0.867,1.32117 1.0404,1.72485 0.199,0.46304 0.8689,1.15968 1.8148,1.88732 0.8247,0.63434 1.8019,1.3917 2.1716,1.68303 0.3697,0.29132 0.9178,0.65375 1.2181,0.80538 0.3587,0.18112 0.7115,0.68283 1.0286,1.4625 0.2654,0.65272 0.697,1.56425 0.959,2.02559 0.262,0.46135 0.6437,1.26346 0.8481,1.78248 0.3851,0.97769 2.7633,3.61113 3.6687,4.06256 0.2706,0.13488 0.5741,0.52632 0.6745,0.86988 0.1003,0.34357 0.5973,1.80445 1.1044,3.2464 0.507,1.44196 0.9219,2.84422 0.9219,3.11612 0,0.55126 1.6715,2.5 2.9564,3.4467 0.9177,0.67621 0.9478,0.75371 1.1335,2.92013 0.1265,1.47584 0.2129,1.71265 0.9731,2.66743 1.0529,1.32243 1.25,1.99004 1.2414,4.2059 0,0.98035 0.063,1.89187 0.1478,2.02557 0.085,0.1337 0.5581,0.40454 1.0513,0.60189 0.4932,0.19734 0.9868,0.52693 1.0967,0.73241 0.11,0.20548 0.196,1.16137 0.1912,2.12422 -0.011,2.17823 0.4856,4.60248 1.0753,5.2502 1.5756,1.73077 3.3577,5.23923 3.4949,6.88067 0.1448,1.73229 1.4223,5.29092 2.2585,6.29106 0.1723,0.20619 0.3023,1.39924 0.3772,3.46306 0.136,3.74479 0.6775,6.30319 1.7377,8.20948 0.9376,1.68581 0.9732,2.80987 0.1218,3.85006 -0.3283,0.40112 -0.7058,0.93542 -0.8388,1.18735 -0.3578,0.67753 -0.3048,3.32046 0.082,4.06753 0.2927,0.56619 0.9433,2.53666 1.6498,4.99681 0.2601,0.90594 0.2527,0.93601 -0.3656,1.48839 -0.5889,0.52626 -0.6371,0.68281 -0.7248,2.35362 -0.068,1.29612 0,2.07144 0.244,2.81052 0.1859,0.56135 0.4212,1.84493 0.5229,2.85241 0.2297,2.27679 -0.053,7.62696 -0.4848,9.17758 -0.4466,1.60367 -0.4056,2.42377 0.1941,3.87948 0.8634,2.09603 0.6174,3.42922 -0.7776,4.21318 -0.1866,0.10481 -0.8136,1.13893 -1.3938,2.29806 -0.9776,1.95386 -1.0773,2.29786 -1.3672,4.71829 -0.2232,1.86313 -0.5,3.08945 -0.9665,4.28214 -0.3596,0.91925 -0.7302,1.76854 -0.8235,1.88731 -0.093,0.11881 -0.289,0.59344 -0.4347,1.05479 -0.1457,0.46134 -0.5389,1.44923 -0.8738,2.19533 -0.3349,0.74607 -0.7538,2.05762 -0.9306,2.91454 -0.1986,0.96104 -0.6175,2.06553 -1.0933,2.88248 -1.2972,2.22688 -3.2039,4.95877 -4.1566,5.95527 -0.7055,0.73787 -1.0945,1.45336 -1.7676,3.25039 -0.4747,1.26735 -1.0745,2.54019 -1.3329,2.82852 -0.2584,0.28834 -0.7171,1.04386 -1.0192,1.67891 -0.3023,0.63507 -0.9771,1.65549 -1.4997,2.26766 -1.3254,1.55289 -2.4326,3.9681 -2.6026,5.6781 -0.1516,1.52464 0.036,1.34308 -2.6049,2.51783 -1.0643,0.47335 -1.511,0.80292 -1.7826,1.31497 -0.1992,0.37581 -0.7692,1.06393 -1.2666,1.52915 -2.3729,2.21905 -4.6442,4.618 -4.8557,5.12847 -0.1287,0.31102 -0.5369,0.74227 -0.9068,0.95833 -0.3699,0.21607 -1.2861,0.87893 -2.0357,1.47302 -1.3468,1.06731 -2.3063,1.63917 -3.8149,2.27375 -0.4493,0.18898 -1.143,0.7916 -1.6529,1.43579 -0.8469,1.07028 -1.1237,1.57577 -1.6735,3.05788 -0.328,0.88396 -0.7736,1.10963 -2.5948,1.31397 -0.9439,0.10589 -1.9785,0.40198 -2.8461,0.81451 -0.7497,0.35649 -1.7164,0.70596 -2.1484,0.77657 -0.5824,0.0953 -1.0191,0.38533 -1.6902,1.12275 -0.4976,0.54687 -1.158,1.12697 -1.4675,1.28912 -0.3095,0.16215 -0.7757,0.71685 -1.036,1.23265 -0.6574,1.30294 -1.1535,1.51138 -3.2353,1.35956 -1.5279,-0.11141 -1.8509,-0.0671 -2.9819,0.40891 -0.826,0.34767 -1.6601,0.53385 -2.3915,0.53385 -0.933,0 -1.2083,0.0906 -1.6259,0.53514 -0.2765,0.29431 -0.9041,0.7127 -1.3947,0.92971 -0.4906,0.21702 -1.2571,0.77831 -1.7032,1.24732 -0.4462,0.46903 -0.991,0.85046 -1.2107,0.84764 -0.8019,-0.0102 -2.2902,-0.44729 -2.6585,-0.78054 -0.3374,-0.30537 -0.5509,-0.31292 -1.9939,-0.0705 -0.8888,0.14935 -2.2511,0.26186 -3.0274,0.25007 l -1.4114,-0.0215 -1.3648,1.34482 c -1.7961,1.76975 -2.0665,1.82164 -4.6226,0.8872 -0.6248,-0.22843 -1.6411,-0.29361 -3.9843,-0.25556 -3.4225,0.0556 -3.8085,0.16948 -5.512,1.62674 -1.0839,0.92722 -2.1628,0.82886 -3.8914,-0.3547 z m 1.1202,-52.52513 c 2.2953,-0.13099 3.6509,-0.31387 4.6134,-0.62239 0.7497,-0.24028 2.376,-0.66826 3.614,-0.95106 2.7521,-0.62867 3.2704,-0.88566 4.0472,-2.00654 l 0.6086,-0.87818 1.5449,0.13999 c 2.5329,0.22951 3.2432,-0.18816 3.8061,-2.23812 0.1502,-0.54688 0.4924,-1.23104 0.7605,-1.52035 0.4222,-0.45555 0.6666,-0.52599 1.8246,-0.52599 1.1491,0 1.4775,-0.0929 2.3348,-0.66077 1.1037,-0.73111 1.9317,-1.83085 2.1319,-2.83152 0.1252,-0.62595 0.1825,-0.65831 1.3152,-0.74309 1.4903,-0.11154 2.7029,-0.84863 3.7161,-2.25893 0.4431,-0.61683 1.2759,-1.36934 2.0711,-1.8716 1.6784,-1.05998 2.1674,-1.74777 2.3876,-3.35793 0.1775,-1.29733 0.7945,-2.42487 2.4845,-4.54012 0.9257,-1.15851 1.5236,-2.54493 1.5324,-3.55287 0,-0.50362 0.2576,-1.33245 0.6337,-2.07415 0.6968,-1.37411 0.7383,-1.7627 0.3757,-3.51803 -0.234,-1.13335 -0.2212,-1.24526 0.1942,-1.69024 0.2447,-0.26212 0.5093,-0.73605 0.588,-1.05323 0.079,-0.31718 0.2787,-0.57669 0.4445,-0.57669 0.1657,0 0.5404,-0.23906 0.8325,-0.53123 l 0.5313,-0.53122 -0.149,-2.81199 -0.1491,-2.81201 0.7894,-0.74451 c 0.7253,-0.68395 0.78,-0.81495 0.6734,-1.61014 -0.075,-0.56122 -0.3343,-1.09634 -0.7366,-1.52179 -1.3351,-1.41179 -1.4029,-2.1072 -0.2507,-2.56826 1.0521,-0.42095 1.8866,-1.38886 1.8866,-2.18823 0,-0.45062 -0.2987,-0.92142 -1.1534,-1.81802 -1.2983,-1.36195 -1.4337,-1.93716 -0.6526,-2.7728 0.9699,-1.03784 0.8221,-2.06183 -0.3959,-2.74232 l -0.6291,-0.35145 0.063,-2.92644 c 0.036,-1.66179 -0.03,-3.1712 -0.1525,-3.49282 -0.1291,-0.33951 -0.5322,-0.71291 -1.0065,-0.93222 -0.9439,-0.4365 -1.098,-0.61946 -1.1032,-1.30953 0,-0.28834 -0.1924,-0.83324 -0.4227,-1.21086 -0.2302,-0.37763 -0.4186,-0.83054 -0.4186,-1.00649 0,-0.55646 -0.574,-1.45693 -1.1123,-1.74506 -0.3624,-0.1939 -0.5577,-0.51914 -0.6469,-1.07729 -0.07,-0.43975 -0.4478,-1.2186 -0.8387,-1.73081 -0.391,-0.51221 -0.7808,-1.15647 -0.8663,-1.43171 -0.3403,-1.09581 -1.3743,-2.89362 -1.9037,-3.31009 -0.3089,-0.24299 -0.8668,-0.4407 -1.2435,-0.4407 -0.8066,0 -0.9376,-0.24371 -0.9386,-1.7472 0,-1.85899 -1.2966,-3.28318 -2.9875,-3.28486 -0.7366,-0.002 -0.7864,-0.0412 -0.7864,-0.6403 0,-0.79368 -0.421,-1.62678 -1.1334,-2.2425 -0.4373,-0.37803 -0.5442,-0.65807 -0.5442,-1.4255 0,-1.16023 -0.5977,-1.82024 -1.9588,-2.16296 -1.0108,-0.25452 -1.5054,-0.70127 -1.7175,-1.55125 -0.079,-0.31751 -0.4241,-0.81293 -0.7664,-1.10094 -0.5082,-0.42758 -0.847,-0.52363 -1.8473,-0.52363 -1.7191,0 -1.9055,-0.098 -1.6394,-0.86136 0.3078,-0.88279 -0.078,-1.66628 -1.4268,-2.89917 -1.176,-1.0748 -2.8876,-1.82736 -3.6242,-1.59356 -0.2883,0.0915 -0.4443,0.0105 -0.5358,-0.27781 -0.2538,-0.79944 -1.3453,-2.07473 -1.8935,-2.21233 -0.3439,-0.0863 -0.8059,-0.0164 -1.2041,0.18232 -0.3554,0.17729 -0.7939,0.32235 -0.9746,0.32235 -0.1806,0 -1.1333,-0.8572 -2.1172,-1.90488 -1.8612,-1.9819 -2.2568,-2.18211 -3.5199,-1.78123 -0.3275,0.10395 -0.4708,0.0642 -0.4708,-0.13061 0,-0.421 -1.8732,-2.59197 -2.8524,-3.30583 -0.6041,-0.4404 -1.306,-0.70358 -2.3573,-0.88385 -1.4026,-0.2405 -1.5335,-0.22952 -2.0756,0.17406 -0.3182,0.23692 -0.6462,0.65704 -0.7289,0.9336 -0.8992,3.00761 -1.2799,4.80899 -1.4134,6.68903 -0.1781,2.50777 -0.5443,3.43694 -1.9595,4.97223 -1.055,1.14458 -1.1189,1.95141 -0.2794,3.52845 0.7226,1.35729 0.7549,2.7695 0.078,3.40544 -0.2608,0.2451 -1.0361,0.59196 -1.7228,0.77083 -0.6867,0.17885 -1.3605,0.44302 -1.4974,0.587 -0.3391,0.3568 -1.548,3.44495 -1.548,3.95442 0,0.71976 -1.0192,2.4526 -1.6679,2.83582 -1.0238,0.60474 -1.3321,1.68003 -1.3755,4.7963 -0.03,2.15565 -0.1165,2.8789 -0.4131,3.45242 -0.2063,0.39901 -0.735,1.7341 -1.1747,2.96687 -1.0947,3.06877 -1.7927,4.12369 -3.7193,5.62084 -2.6586,2.06607 -2.5534,1.92547 -2.5586,3.41709 -0.01,1.8149 -0.5169,2.85198 -1.9153,3.89022 -1.9563,1.45245 -1.9493,1.43738 -1.8857,4.01149 0.05,2.00767 0,2.3891 -0.4522,3.40928 -0.3958,0.89505 -0.7342,1.29404 -1.5327,1.80713 -0.5636,0.36216 -1.2183,0.79443 -1.4547,0.96063 -0.7445,0.52318 -0.9022,1.56678 -0.778,5.1468 0.1087,3.13179 0.089,3.37696 -0.3249,4.04676 -0.2424,0.39214 -0.5004,1.08637 -0.5734,1.54272 -0.1578,0.98653 0.3282,1.74387 1.5494,2.41464 1.8152,0.99713 2.9388,2.04206 2.6675,2.48097 -0.063,0.10135 -0.4384,0.24513 -0.8351,0.31955 -1.7698,0.33203 -2.6556,2.30939 -1.457,3.25226 0.3039,0.23903 0.7207,0.43462 0.9262,0.43462 0.6088,0 0.5904,0.47458 -0.05,1.27304 -0.9652,1.20419 -1.2863,4.06542 -0.7025,6.25905 0.375,1.40887 0.6937,1.73714 1.8345,1.88938 l 0.8988,0.11997 0.1057,1.18462 c 0.1132,1.26971 0.5352,1.9443 1.3431,2.14706 0.5748,0.14427 0.9628,1.27097 0.9628,2.79581 0,1.49898 0.6358,2.15574 2.087,2.15574 h 1.0585 l 0.01,1.10093 c 0,0.60552 0.1423,1.33685 0.3072,1.62519 0.435,0.76104 0.3835,2.10183 -0.1049,2.72612 -0.5714,0.73055 -0.5286,1.58748 0.1113,2.2274 0.4932,0.49314 0.6241,0.52072 1.8482,0.38965 1.2277,-0.13149 1.3858,-0.0977 2.3228,0.49655 1.4692,0.93172 2.0552,1.00531 3.1138,0.39107 0.8233,-0.4777 0.9449,-0.49448 1.689,-0.23288 0.441,0.15506 1.0853,0.52038 1.4317,0.81184 0.7975,0.67109 1.5341,0.85777 2.1955,0.55643 0.2853,-0.12997 1.1181,-0.23632 1.8508,-0.23632 1.2283,0 1.4192,0.0654 2.4485,0.83882 1.2793,0.96124 1.156,0.94954 6.6847,0.63396 z"
       id="path189" />
  </g>
</svg>
