<?xml version="1.0" encoding="UTF-8" standalone="no"?>
<!-- Created with Inkscape (http://www.inkscape.org/) -->

<svg
   version="1.1"
   id="svg59"
   width="499.99997"
   height="266.49509"
   viewBox="0 0 499.99997 266.4951"
   sodipodi:docname="Ephemera_danica.svg"
   inkscape:version="1.3.2 (091e20e, 2023-11-25, custom)"
   xmlns:inkscape="http://www.inkscape.org/namespaces/inkscape"
   xmlns:sodipodi="http://sodipodi.sourceforge.net/DTD/sodipodi-0.dtd"
   xmlns="http://www.w3.org/2000/svg"
   xmlns:svg="http://www.w3.org/2000/svg">
  <defs
     id="defs63" />
  <sodipodi:namedview
     id="namedview61"
     pagecolor="#505050"
     bordercolor="#eeeeee"
     borderopacity="1"
     inkscape:showpageshadow="0"
     inkscape:pageopacity="0"
     inkscape:pagecheckerboard="0"
     inkscape:deskcolor="#505050"
     showgrid="false"
     inkscape:zoom="0.62099998"
     inkscape:cx="1028.9855"
     inkscape:cy="913.04351"
     inkscape:window-width="3840"
     inkscape:window-height="2054"
     inkscape:window-x="-11"
     inkscape:window-y="-11"
     inkscape:window-maximized="1"
     inkscape:current-layer="g65" />
  <g
     inkscape:groupmode="layer"
     inkscape:label="Image"
     id="g65"
     transform="translate(-295.84639,-107.15955)">
    <path
       style="fill:#000000;stroke-width:0.312631"
       d="m 724.80282,373.24357 c -0.10786,-0.28113 -0.0676,-0.74089 0.0896,-1.02167 0.50606,-0.90427 -1.6903,-3.46944 -2.98784,-3.48956 -0.63425,-0.01 -2.61159,-1.90142 -2.61159,-2.49834 0,-0.15279 -0.33199,-0.67545 -0.73775,-1.16149 -0.46841,-0.5611 -0.8004,-1.45442 -0.90936,-2.4469 -0.3945,-3.59367 -0.9303,-6.919 -1.21019,-7.51093 -0.16462,-0.34817 -0.5659,-2.3881 -0.89168,-4.53318 -1.58157,-10.41344 -1.97772,-12.27954 -3.18617,-15.00964 l -0.90437,-2.04318 -3.80406,0.44341 c -3.77522,0.44006 -3.80741,0.43837 -4.24681,-0.22338 -0.2435,-0.36674 -0.56274,-0.66682 -0.7094,-0.66682 -0.14669,0 -1.15732,-0.40792 -2.24589,-0.90648 -1.08855,-0.49858 -3.72992,-1.49667 -5.86966,-2.21798 -2.13978,-0.72131 -4.02413,-1.43888 -4.18749,-1.59457 -0.16334,-0.15569 -0.63833,-0.28308 -1.05553,-0.28308 -0.89609,0 -3.79466,-1.42527 -5.90333,-2.90274 -0.8238,-0.5772 -2.17664,-1.44595 -3.00633,-1.93054 -1.49285,-0.87191 -1.51609,-0.87494 -2.23637,-0.29046 -0.40029,0.32481 -1.99389,1.64572 -3.54133,2.93533 -1.54745,1.2896 -3.46029,2.7262 -4.2508,3.19243 -0.90725,0.53514 -1.43723,1.06705 -1.43723,1.44253 0,0.41251 -0.41045,0.75158 -1.33913,1.10625 -1.65229,0.63102 -1.78753,0.63132 -3.34688,0.007 -0.84525,-0.33823 -1.32163,-0.75095 -1.44804,-1.25453 -0.10361,-0.41276 -0.39014,-0.8634 -0.63671,-1.00139 -0.40344,-0.22577 -0.59118,-0.94451 -0.69677,-2.66758 -0.0343,-0.5592 -0.0568,-0.55826 -0.58273,0.024 -0.94512,1.04641 -3.93907,3.12333 -5.08162,3.52515 -0.72931,0.25647 -1.44773,0.89611 -2.14909,1.9134 -0.61636,0.89402 -1.29233,1.52814 -1.62896,1.52814 -0.31652,0 -0.73245,0.29332 -0.9243,0.65183 -0.52855,0.98758 -2.70194,1.8345 -4.72784,1.84236 -2.0969,0.008 -2.76112,-0.19883 -2.76112,-0.86026 0,-0.26819 -0.0941,-0.39352 -0.20908,-0.27851 -0.11501,0.11501 -0.45638,-0.0145 -0.75859,-0.28817 -0.30219,-0.27349 -1.96808,-0.96852 -3.70197,-1.5445 -2.72177,-0.90413 -3.36963,-1.01291 -4.74144,-0.79606 -3.25075,0.51389 -3.85634,2.19838 -3.54862,9.87069 0.21351,5.32378 -0.27124,15.07548 -0.77442,15.57866 -0.18388,0.18388 -0.33431,0.58823 -0.33431,0.89858 0,0.31035 -0.32832,1.24484 -0.72962,2.07669 l -0.72961,1.5124 0.78478,0.90896 0.78481,0.90894 -1.17122,0.0983 c -1.32182,0.11097 -2.06546,-0.34594 -2.06546,-1.26912 0,-0.48763 -0.0924,-0.54862 -0.41954,-0.27705 -0.23077,0.1915 -0.52386,0.2439 -0.65132,0.11644 -0.12749,-0.12748 -0.18489,-0.0241 -0.12756,0.22976 0.0643,0.28498 -0.17599,0.50403 -0.62839,0.57268 -0.63894,0.0969 -0.704,0.0181 -0.50885,-0.61786 0.12307,-0.40093 0.37689,-0.91984 0.56407,-1.15312 0.18721,-0.23326 0.4893,-0.72288 0.67135,-1.08805 0.18204,-0.36515 0.65456,-0.82524 1.05004,-1.02238 1.70425,-0.84966 1.89361,-1.70941 1.88623,-8.56386 -0.008,-7.21863 -0.0101,-7.30257 -0.33096,-12.19264 -0.3451,-5.25954 -0.31016,-5.15109 -1.46753,-4.5526 -0.77763,0.40215 -2.17835,0.80137 -4.46581,1.27282 -0.28622,0.059 -2.70827,1.17277 -5.38237,2.47509 -4.5661,2.22375 -6.46063,2.79068 -6.90779,2.06714 -0.1081,-0.17494 -0.47535,-0.19344 -0.87818,-0.0443 -1.30234,0.48232 -5.69277,0.94582 -10.69658,1.12923 -6.88362,0.25232 -8.81505,0.4051 -10.62948,0.84092 -2.35909,0.56663 -6.32592,0.5051 -7.85439,-0.12181 l -1.28909,-0.52874 -1.5246,1.57065 c -2.63307,2.7126 -2.99418,3.01648 -4.46572,3.75751 -0.78963,0.39765 -1.51214,0.82685 -1.60558,0.95379 -0.0934,0.12695 -0.44515,0.27732 -0.78157,0.33415 -0.33643,0.0569 -1.10409,0.37012 -1.70592,0.69616 -1.75534,0.95095 -5.69181,2.52233 -8.5507,3.41335 -3.35497,1.04561 -6.48245,2.33773 -5.70009,2.35499 1.97212,0.0435 -3.49467,1.37202 -7.78976,1.89305 -1.71947,0.20858 -3.61871,0.52979 -4.22053,0.71378 -1.30126,0.39783 -1.83281,0.47959 -3.9447,0.6067 -1.12988,0.068 -1.96817,0.35143 -2.85315,0.96472 -0.93444,0.64757 -1.46173,0.81607 -2.07343,0.66253 -0.45119,-0.11323 -0.8203,-0.33131 -0.8203,-0.48461 0,-0.15332 -0.20273,-0.27874 -0.45052,-0.27874 -0.89923,0 -0.89447,-0.73238 0.01,-1.47405 0.50039,-0.41049 1.28297,-1.07586 1.73905,-1.47856 0.78647,-0.69445 3.6736,-1.36056 5.89235,-1.35946 0.42986,2.1e-4 1.34431,-0.16341 2.03212,-0.3636 1.72444,-0.50191 2.55569,-0.6513 4.4256,-0.79526 2.38802,-0.18386 6.9748,-1.48228 9.95546,-2.81822 0.51584,-0.23119 2.2744,-0.86024 3.90791,-1.39786 3.04891,-1.0035 5.70325,-2.1683 5.88787,-2.58381 0.0573,-0.12896 0.28517,-0.23447 0.50628,-0.23447 0.32027,0 3.24254,-2.09074 3.9227,-2.80649 0.086,-0.0905 0.52771,-0.35563 0.98163,-0.58921 0.45394,-0.23359 1.00526,-0.76092 1.22519,-1.17188 0.21994,-0.41094 0.5721,-0.74715 0.78256,-0.74715 0.21046,0 0.46316,-0.20976 0.56152,-0.46614 0.0984,-0.25635 1.23068,-0.98655 2.51618,-1.62263 1.28556,-0.6361 2.26692,-1.27045 2.18089,-1.40968 -0.086,-0.13923 -1.1964,-0.25314 -2.46748,-0.25314 -2.20232,0 -4.70995,-0.47387 -6.40576,-1.21051 -0.42986,-0.18672 -1.97739,-0.47552 -3.43896,-0.64178 -7.17729,-0.81639 -9.59451,-1.42987 -12.90301,-3.27481 -1.09555,-0.61092 -3.17745,-1.37633 -4.76069,-1.7503 -6.30528,-1.48926 -10.40898,-2.60374 -12.03632,-3.2688 -0.94573,-0.38648 -2.91531,-1.06709 -4.37685,-1.51243 -1.46153,-0.44536 -3.82772,-1.16974 -5.2582,-1.60978 -1.43045,-0.44001 -2.82623,-0.80002 -3.10169,-0.80002 -0.27548,0 -0.72298,-0.19316 -0.99445,-0.42925 -0.27145,-0.23607 -1.54868,-0.73742 -2.83829,-1.11408 -1.2896,-0.37666 -4.455,-1.37681 -7.03421,-2.22256 -2.57922,-0.84575 -5.95564,-1.9025 -7.50317,-2.34833 -2.67659,-0.77109 -7.9403,-3.05954 -8.29475,-3.60619 -0.21462,-0.33096 -4.19437,-2.51633 -5.61739,-3.08462 -0.6018,-0.24034 -4.41367,-2.06494 -8.47079,-4.05467 -4.05718,-1.98974 -9.01578,-4.39146 -11.01915,-5.33719 -2.00339,-0.9457 -3.64305,-1.82498 -3.6437,-1.95394 0,-0.12896 -0.14958,-0.23447 -0.33096,-0.23447 -0.18139,0 -1.13101,-0.53699 -2.11027,-1.19333 -1.70985,-1.14599 -5.17831,-2.9027 -8.8147,-4.46446 -3.67542,-1.5785 -12.00863,-5.93859 -13.24083,-6.92783 -1.25761,-1.00963 -4.09087,-2.7064 -7.18089,-4.30042 -1.96965,-1.01607 -2.31627,-1.43421 -1.83185,-2.20989 0.27992,-0.44823 0.28578,-0.74216 0.0232,-1.16264 -0.46803,-0.74945 -3.11601,-2.41982 -7.31332,-4.61333 -1.89142,-0.98844 -4.56442,-2.42682 -5.94,-3.19642 -1.37558,-0.76956 -3.34517,-1.86554 -4.37685,-2.43548 -1.03169,-0.56996 -3.51986,-1.99394 -5.52927,-3.16441 -2.0094,-1.17049 -4.86387,-2.83158 -6.34326,-3.6913 -4.37242,-2.54102 -13.10009,-7.66076 -13.60696,-7.98199 -0.25793,-0.16345 -1.10203,-0.65026 -1.8758,-1.08181 -0.77376,-0.43155 -2.74334,-1.62031 -4.37684,-2.64173 -1.6335,-1.02139 -4.23616,-2.57518 -5.78369,-3.45284 -1.54753,-0.87768 -4.07985,-2.4276 -5.62738,-3.4443 -1.54753,-1.01668 -3.19639,-2.06689 -3.66413,-2.33381 -0.46775,-0.26688 -2.27843,-1.43344 -4.02373,-2.5923 -1.74531,-1.15889 -3.61356,-2.37654 -4.15167,-2.70592 -0.5381,-0.32939 -2.80728,-1.79387 -5.04259,-3.25441 -2.23532,-1.46054 -4.90832,-3.19253 -5.94001,-3.84889 -1.03169,-0.65634 -2.7199,-1.77187 -3.75158,-2.4789 -4.22817,-2.89775 -5.69295,-3.84315 -10.62949,-6.86053 -1.20363,-0.7357 -2.25876,-1.43699 -2.34474,-1.5584 -0.086,-0.12141 -0.7894,-0.6143 -1.56316,-1.09528 -3.5002,-2.17578 -9.98253,-6.4877 -11.311,-7.52387 -0.80471,-0.62764 -1.84974,-1.34175 -2.32229,-1.58692 -0.47255,-0.24516 -1.57271,-1.00629 -2.4448,-1.6914 -1.43003,-1.12343 -4.96873,-3.57964 -10.41747,-7.23073 -1.07467,-0.72012 -1.95395,-1.49944 -1.95395,-1.73183 0,-0.50953 0.28038,-0.37574 4.00594,1.9116 1.4295,0.87766 3.04737,1.86775 3.59526,2.20019 1.49727,0.90844 9.41593,6.07285 16.33032,10.65032 3.37652,2.23531 6.37228,4.20423 6.65724,4.37535 0.28497,0.17115 1.22881,0.82289 2.09743,1.44833 0.86863,0.62543 2.27547,1.50558 3.12632,1.95588 0.85086,0.45029 2.84039,1.69778 4.42119,2.77221 1.58079,1.07443 3.53841,2.37555 4.35026,2.8914 3.81438,2.42364 4.53305,2.8874 6.10242,3.9381 3.50275,2.34509 8.9008,5.82427 9.65159,6.22069 0.42987,0.22697 2.32911,1.41969 4.22053,2.65052 1.89142,1.2308 5.19751,3.33996 7.34685,4.68704 2.14935,1.34705 4.61132,2.89502 5.47106,3.43994 2.91526,1.8477 4.99692,3.0794 6.72159,3.97708 1.7108,0.89044 2.91507,1.59102 5.00211,2.90996 1.9928,1.25938 8.55748,5.05095 11.09843,6.41012 1.37558,0.7358 2.64174,1.44382 2.81369,1.57337 0.40543,0.30545 2.29619,1.37078 4.84579,2.73028 2.93819,1.56671 4.27792,2.32085 6.89529,3.88132 7.21276,4.30028 14.28868,7.8795 15.22195,7.69977 0.38764,-0.0747 0.11431,-0.3745 -0.94701,-1.0389 -3.66783,-2.29611 -13.25964,-8.70093 -13.84352,-9.24386 -0.35498,-0.33007 -0.75819,-0.60011 -0.89601,-0.60011 -0.13783,0 -0.90253,-0.45722 -1.69933,-1.01607 -0.7968,-0.55882 -1.68404,-1.15673 -1.97165,-1.32867 -0.97478,-0.58278 -6.65956,-4.54216 -8.07446,-5.62376 -0.77376,-0.59149 -2.32129,-1.71394 -3.43895,-2.49431 -1.11766,-0.78038 -2.59485,-1.82001 -3.28263,-2.31028 -0.68779,-0.49026 -2.23532,-1.50886 -3.43896,-2.26354 -1.20363,-0.7547 -2.46979,-1.63128 -2.81368,-1.94801 -0.3439,-0.3167 -1.96177,-1.48834 -3.59527,-2.60362 -4.25358,-2.90415 -6.02239,-4.12419 -6.61984,-4.56612 -0.28793,-0.21297 -1.32278,-0.94997 -2.29967,-1.63776 -0.97689,-0.6878 -2.49986,-1.82315 -3.38438,-2.52303 -0.88453,-0.69986 -2.45234,-1.86175 -3.48402,-2.58198 -2.35661,-1.64516 -4.54103,-3.2514 -6.87524,-5.05554 -1.00111,-0.77376 -2.34747,-1.78118 -2.9919,-2.23871 -0.64444,-0.45753 -1.99404,-1.47693 -2.99913,-2.26537 -1.00509,-0.78842 -2.46051,-1.92151 -3.23428,-2.51802 -4.38202,-3.37806 -5.58719,-4.32423 -6.68137,-5.2456 -0.66567,-0.56053 -1.95832,-1.5819 -2.87254,-2.26968 -4.03722,-3.03729 -5.3771,-4.08126 -6.58634,-5.13177 -0.70962,-0.61648 -2.23676,-1.8243 -3.39362,-2.68403 -1.15682,-0.85986 -2.70078,-2.05568 -3.43098,-2.6575 -0.73019,-0.6018 -2.76865,-2.21967 -4.52991,-3.59526 -1.76126,-1.37559 -3.52012,-2.78243 -3.90858,-3.12631 -0.38846,-0.3439 -2.50708,-2.03212 -4.70804,-3.75158 -2.20096,-1.7195 -4.71868,-3.72261 -5.59492,-4.45137 -0.87625,-0.72877 -2.36694,-1.9196 -3.31265,-2.64625 -0.94572,-0.72666 -2.29357,-1.81861 -2.99524,-2.42653 -0.70167,-0.60794 -2.22412,-1.87912 -3.38324,-2.82482 -4.49832,-3.67013 -6.66089,-5.53054 -8.17671,-7.03422 -0.86668,-0.85975 -1.98212,-1.83577 -2.47875,-2.16896 -0.49663,-0.33316 -0.74455,-0.65859 -0.55093,-0.72311 0.36211,-0.12071 0.85032,0.2227 6.91299,4.86249 1.95409,1.49548 4.06435,3.05567 4.68948,3.4671 0.62513,0.41143 1.71188,1.25554 2.41499,1.87579 0.70311,0.62025 2.64621,2.18288 4.318,3.47249 1.6718,1.28961 5.23157,4.10329 7.91063,6.25265 2.67905,2.14933 5.51921,4.38639 6.31147,4.97124 0.79227,0.58485 2.03525,1.60481 2.76219,2.26659 0.72693,0.66178 1.43876,1.20323 1.58184,1.20323 0.14308,0 0.98732,0.59791 1.87609,1.32867 0.88877,0.73078 2.62411,2.10246 3.85631,3.04816 1.2322,0.94573 2.74756,2.1532 3.36748,2.68327 0.61991,0.5301 1.90105,1.52863 2.84696,2.21899 0.94592,0.69034 1.92046,1.49691 2.16566,1.79235 0.24519,0.29543 0.85134,0.74687 1.34698,1.00317 0.49566,0.25633 1.44529,0.95759 2.11029,1.55838 0.66501,0.6008 1.62946,1.40176 2.14323,1.77994 0.51377,0.37819 2.02174,1.5317 3.35105,2.56339 1.3293,1.03169 3.15521,2.43853 4.05758,3.12633 0.90237,0.68779 2.72289,2.09463 4.04561,3.12632 1.32271,1.03168 2.80072,2.15716 3.28446,2.50106 0.48375,0.3439 2.2653,1.66866 3.95902,2.94391 5.20024,3.91548 6.84273,5.12439 9.16775,6.74767 1.2314,0.85975 3.17898,2.23857 4.32795,3.06406 1.14898,0.82551 3.0035,2.13737 4.12116,2.91524 1.11766,0.77789 3.93134,2.73805 6.25264,4.35589 6.0978,4.24998 20.47652,13.8938 20.71534,13.8938 0.11177,0 0.7215,0.35171 1.35495,0.78158 1.37101,0.93039 2.33126,1.08563 1.6519,0.26704 -0.79276,-0.95523 -8.8781,-8.37762 -11.69949,-10.74022 -1.54003,-1.28961 -4.00052,-3.47022 -5.46775,-4.84578 -1.46723,-1.37559 -5.26571,-4.89146 -8.44106,-7.81305 -6.89585,-6.34475 -10.46461,-9.77813 -14.93981,-14.37304 -1.83636,-1.8855 -5.64313,-5.72445 -8.45948,-8.53096 -2.81636,-2.80654 -5.04734,-5.17611 -4.95775,-5.2657 0.42705,-0.42705 2.51555,0.9846 4.96344,3.35488 4.76425,4.61313 13.40831,12.77585 19.48831,18.40311 3.25119,3.00907 8.10006,7.59667 10.77527,10.19467 2.67522,2.59799 5.66527,5.41168 6.64456,6.25264 0.9793,0.84097 2.94888,2.5417 4.37685,3.77944 11.26345,9.76286 21.45003,17.56004 25.88663,19.81455 1.38262,0.7026 2.22255,0.91349 3.63849,0.91349 1.11948,0 2.81958,0.3145 4.33817,0.80251 1.3735,0.4414 3.5524,0.87466 4.842,0.9628 1.28961,0.0881 2.69646,0.27342 3.12634,0.41173 0.42986,0.13832 1.41465,0.42733 2.18842,0.64225 0.77376,0.21492 2.1806,0.63444 3.12631,0.93229 0.94572,0.29783 2.35257,0.71609 3.12633,0.92943 0.77377,0.21337 2.81369,0.87804 4.53316,1.47707 1.71947,0.59901 3.54836,1.20766 4.0642,1.35254 0.51585,0.14486 1.78201,0.49526 2.81369,0.77867 1.86874,0.51333 7.0466,2.20002 9.39467,3.06033 0.67915,0.24882 2.28997,0.76832 3.57957,1.15443 2.34669,0.7026 5.58857,1.94632 12.03633,4.61761 1.89143,0.78361 4.14238,1.54816 5.0021,1.69898 1.71839,0.30146 4.53972,0.73829 6.72159,1.04073 0.77377,0.10725 1.68822,0.31692 2.03212,0.46593 0.3439,0.149 1.18801,0.33264 1.87579,0.4081 1.90412,0.20887 7.69766,1.71302 11.80537,3.06497 2.02231,0.6656 3.95672,1.21017 4.29868,1.21017 0.34195,0 0.62175,0.14068 0.62175,0.31265 0,0.18235 1.04207,0.31262 2.50104,0.31262 1.37559,0 2.50106,0.10643 2.50106,0.23651 0,0.2881 2.24366,1.01401 3.13419,1.01401 0.35361,0 1.58683,0.28854 2.74044,0.64122 1.15361,0.35267 3.22296,0.97939 4.59853,1.3927 1.37559,0.41331 3.89222,1.1856 5.59248,1.71619 2.39938,0.74874 3.39739,0.91883 4.45787,0.75981 0.75154,-0.11271 1.54099,-0.0714 1.75436,0.0918 0.4511,0.3451 4.06277,1.44828 6.32796,1.93287 0.85972,0.18394 2.47759,0.56937 3.59526,0.85651 1.11766,0.28716 3.36861,0.60625 5.0021,0.70914 1.63351,0.10286 3.26423,0.3553 3.62382,0.56098 1.15968,0.6633 3.3825,1.33373 4.43746,1.33842 0.88385,0.004 0.98548,-0.0718 0.72896,-0.54257 -0.65732,-1.20651 -1.69435,-1.964 -3.34622,-2.4442 -0.9545,-0.27748 -2.60503,-1.12072 -3.66788,-1.87385 -1.06287,-0.75313 -2.35449,-1.57133 -2.87034,-1.81821 -1.11333,-0.53281 -5.25611,-4.52654 -7.66068,-7.38506 -2.19864,-2.61365 -2.177,-2.5919 -3.28144,-3.30221 -0.51584,-0.33176 -1.99303,-1.38075 -3.28264,-2.33107 -1.2896,-0.9503 -2.90747,-2.09177 -3.59526,-2.53659 -0.6878,-0.44482 -1.77185,-1.35605 -2.40903,-2.02496 -0.63716,-0.66893 -1.83298,-1.92288 -2.65736,-2.78656 -0.82439,-0.86368 -2.14354,-1.87326 -2.93147,-2.24354 -1.64886,-0.77487 -3.84914,-3.06999 -6.31046,-6.58258 -0.94515,-1.34885 -2.70933,-3.60285 -3.92041,-5.00887 -1.21103,-1.40605 -2.3015,-2.87625 -2.42322,-3.26714 -0.12169,-0.39089 -0.87285,-1.55482 -1.66917,-2.58651 -4.19411,-5.43349 -10.75244,-16.29031 -15.20271,-25.16688 -0.38791,-0.77377 -1.28472,-2.063 -1.99288,-2.86497 -0.88667,-1.00411 -1.54122,-2.21334 -2.10216,-3.88341 -0.44798,-1.33389 -1.21884,-3.08234 -1.71299,-3.88544 -0.49418,-0.8031 -1.11031,-2.0606 -1.36924,-2.79446 -0.25893,-0.73386 -0.97487,-2.16415 -1.59102,-3.17841 -0.61613,-1.01427 -1.44706,-2.67812 -1.84653,-3.69742 -0.72124,-1.84039 -1.43547,-2.94415 -3.6524,-5.64435 -0.63526,-0.77377 -1.45772,-2.18061 -1.82768,-3.12631 -0.36993,-0.94571 -1.10001,-2.63392 -1.62239,-3.75159 -0.52236,-1.11766 -1.48966,-3.53315 -2.14952,-5.36774 -0.65988,-1.83459 -1.74575,-4.44126 -2.41306,-5.79261 -0.66732,-1.35134 -1.30685,-2.82975 -1.4212,-3.28538 -0.11435,-0.4556 -0.78192,-1.66021 -1.48347,-2.67687 -1.08458,-1.57173 -1.38478,-2.38254 -2.00489,-5.41534 -0.40114,-1.96175 -1.08393,-4.55161 -1.51731,-5.75526 -0.43337,-1.20362 -0.88591,-3.24355 -1.00563,-4.53315 -0.11972,-1.28961 -0.47884,-3.18885 -0.79806,-4.22053 -0.31921,-1.03169 -0.5822,-2.12399 -0.5844,-2.42732 -0.002,-0.30334 -0.61854,-1.30595 -1.36959,-2.22805 l -1.36555,-1.67653 -0.045,-3.3575 c -0.0686,-5.11259 -1.82911,-11.69798 -3.6362,-13.60167 -0.99766,-1.05101 -1.04423,-1.21151 -1.17912,-4.06424 -0.18915,-4.0005 -1.07218,-8.57208 -2.01943,-10.45493 -0.70478,-1.40096 -0.76061,-1.79431 -0.59897,-4.22053 0.0981,-1.47158 0.0467,-4.15279 -0.11421,-5.95824 -0.16085,-1.80545 -0.30437,-3.5256 -0.31891,-3.82254 -0.0295,-0.60175 1.49989,-2.95018 2.70799,-4.15827 1.17094,-1.17095 1.97725,-1.60022 3.79358,-2.01964 0.90326,-0.20858 1.71367,-0.49474 1.80092,-0.63592 0.29206,-0.47255 4.03607,-0.67715 6.24838,-0.34146 2.38183,0.36141 7.38542,1.39237 9.37896,1.93248 0.68781,0.18635 1.81328,0.45827 2.50106,0.60429 3.60262,0.76479 7.08393,2.05376 8.96399,3.31895 0.8646,0.58185 1.75199,1.0579 1.97195,1.0579 0.92401,0 9.42001,4.68655 13.762,7.59135 4.289,2.86935 5.89418,4.04205 12.9742,9.47847 6.76898,5.19756 16.34424,14.40704 21.25809,20.44601 0.76952,0.94571 1.47826,1.78981 1.57498,1.87579 0.24235,0.21539 5.66234,7.36582 6.2417,8.23445 1.17835,1.76671 4.33286,6.16594 5.64043,7.86611 0.79346,1.03168 2.20347,3.00126 3.13337,4.37683 0.92985,1.37559 2.48158,3.55619 3.4482,4.8458 0.96662,1.28961 1.9395,2.69645 2.16194,3.12631 0.22245,0.42989 1.20342,1.83673 2.17995,3.12634 4.07251,5.37808 11.16446,14.92429 11.95567,16.09305 1.12864,1.6672 6.29626,7.8292 10.0903,12.03196 1.62467,1.7997 11.45462,12.18772 13.9123,14.70217 5.71767,5.84968 18.91539,20.15981 22.49288,24.38869 1.09091,1.28961 2.16813,2.55577 2.39374,2.81369 5.02579,5.74517 8.86514,12.09731 10.89746,18.02976 0.57899,1.69009 1.43644,3.90282 1.90545,4.91715 0.46902,1.01436 1.10599,2.98394 1.4155,4.37686 0.34719,1.56237 0.7623,2.65234 1.08355,2.8452 0.28641,0.17196 1.43175,1.05124 2.54515,1.95396 1.1134,0.90273 2.28614,1.64132 2.6061,1.64132 0.31994,0 0.82062,0.40442 1.11263,0.89871 0.44892,0.76003 0.78403,0.92486 2.17151,1.06806 1.18376,0.12218 2.12682,0.49218 3.38686,1.32878 1.64012,1.08897 1.82749,1.14091 3.08274,0.85447 0.73508,-0.16774 2.25095,-0.27867 3.3686,-0.24652 1.85811,0.0535 3.2964,0.35879 9.44255,2.00468 1.49048,0.39912 2.19242,0.46445 2.43069,0.22617 0.23828,-0.23827 0.53181,-0.21212 1.01642,0.0905 0.45805,0.28606 0.71834,0.31486 0.794,0.0879 0.0619,-0.18573 0.31772,-0.25893 0.56851,-0.1627 0.25077,0.0962 1.52396,-0.3458 2.8293,-0.98231 2.13048,-1.03888 2.55356,-1.13961 4.13514,-0.98439 0.96901,0.0951 2.04196,0.18371 2.38436,0.19693 0.34236,0.0131 0.98885,0.375 1.43663,0.80399 0.70536,0.6758 0.86544,0.71817 1.19825,0.31713 0.21129,-0.25457 0.34913,-0.99863 0.3063,-1.65346 -0.0428,-0.65484 -0.0366,-1.8237 0.0138,-2.59746 0.086,-1.32009 0.1064,-1.34902 0.33035,-0.46895 0.13128,0.51584 0.25529,1.59696 0.27565,2.40249 0.0204,0.80554 0.26467,2.81238 0.54297,4.45965 l 0.50604,2.99503 -1.02463,0.89459 c -0.9488,0.82839 -1.02671,1.04202 -1.05309,2.88722 l -0.0285,1.99263 -2.03209,1.00866 c -1.11766,0.55476 -2.47431,1.01199 -3.01472,1.01604 -0.57965,0.004 -1.0564,0.1997 -1.16255,0.47634 -0.12781,0.333 -0.65861,0.47183 -1.83108,0.47889 -0.90814,0.005 -1.89497,0.1951 -2.19296,0.42139 -0.50937,0.38681 -0.49784,0.50321 0.19281,1.944 0.40404,0.84291 0.83824,1.88428 0.96493,2.31414 0.12668,0.42986 0.55317,1.55534 0.94774,2.50107 0.39457,0.94571 0.89222,2.18326 1.10585,2.75013 l 0.38843,1.03065 2.22263,-0.2186 c 2.03556,-0.20019 5.22337,-1.26419 7.42926,-2.47968 1.15122,-0.63433 1.60703,-0.57702 2.57959,0.32435 0.46383,0.42986 1.2062,0.78157 1.64966,0.78157 0.44348,0 2.22638,0.22577 3.96202,0.5017 2.75592,0.43814 4.00172,0.45493 9.83431,0.13253 6.24285,-0.3451 6.71834,-0.33324 7.28764,0.18197 0.33499,0.30315 0.54388,0.72099 0.46426,0.9285 -0.0967,0.2521 0.41837,0.44768 1.55212,0.58932 0.93332,0.11663 1.69694,0.31237 1.69694,0.43505 0,0.5727 12.07904,8.50458 17.59443,11.55365 1.54303,0.85302 7.23364,4.19395 10.16501,5.96781 0.73812,0.44667 2.14497,1.33936 3.12631,1.98375 0.98134,0.6444 1.88707,1.17197 2.0127,1.17236 0.12561,0 0.96971,0.4736 1.87579,1.0515 0.90606,0.57791 1.94539,1.14424 2.30957,1.25852 0.36421,0.11426 0.91356,0.48552 1.22081,0.82504 0.30726,0.3395 0.72997,0.61728 0.9394,0.61728 0.42895,0 2.82063,0.97761 4.63215,1.89342 0.66105,0.3342 1.37324,0.60764 1.5826,0.60764 0.20937,0 0.96304,0.28137 1.67483,0.62525 0.71177,0.3439 1.81375,0.62527 2.44882,0.62527 1.06815,0 5.67455,1.91748 6.07398,2.52838 0.0903,0.13813 0.65301,0.14727 1.25052,0.0204 0.59746,-0.12697 1.26215,-0.2072 1.47709,-0.17832 0.21494,0.0289 0.54126,0.0701 0.72518,0.0916 0.1839,0.0216 0.28941,0.34078 0.23448,0.70954 -0.0765,0.51331 -0.46635,0.76659 -1.66308,1.08043 -2.36263,0.6196 -3.07705,0.53315 -4.41203,-0.53392 -1.57665,-1.26023 -2.46451,-1.61829 -4.18536,-1.68796 -0.77376,-0.0313 -2.10074,-0.37541 -2.94886,-0.76466 -0.84811,-0.38925 -1.83291,-0.74593 -2.18841,-0.79262 -0.35554,-0.0467 -1.63119,-0.59158 -2.83484,-1.21089 -1.20363,-0.61929 -2.47722,-1.12864 -2.83024,-1.13185 -0.353,-0.003 -1.19711,-0.4128 -1.87579,-0.91016 -0.67867,-0.49739 -2.25761,-1.43125 -3.50877,-2.07528 -1.25115,-0.64403 -2.35118,-1.29451 -2.4445,-1.44551 -0.0933,-0.15103 -0.29204,-0.19898 -0.44154,-0.10659 -0.3459,0.21379 -3.3259,-1.39271 -5.42109,-2.92246 -4.41512,-3.22365 -11.28457,-7.15101 -14.51877,-8.30062 -2.27528,-0.80877 -6.76844,-3.62262 -10.07039,-6.30667 -1.57194,-1.27779 -1.82677,-1.38128 -2.97002,-1.20639 -2.2837,0.34937 -7.11227,0.54682 -13.99026,0.57207 -3.73986,0.0138 -6.79459,0.0964 -6.78825,0.18378 0.006,0.0873 0.26256,1.07324 0.56939,2.1909 0.39321,1.43215 0.6898,1.99915 1.00458,1.92051 2.21857,-0.55441 2.60114,-0.45486 4.33062,1.12695 2.35836,2.15695 2.13324,2.57992 -1.3731,2.57992 -1.46697,0 -2.66691,0.10551 -2.66658,0.23447 0,0.22167 1.30109,6.60328 2.81629,13.81997 0.37748,1.79773 0.81252,3.60063 0.9668,4.00641 0.15426,0.40578 0.28051,1.20383 0.28051,1.77344 0,0.56963 0.21008,1.53853 0.46688,2.15313 0.32196,0.77053 0.37931,1.34785 0.18474,1.85961 -0.16544,0.43511 -0.16955,1.74664 -0.0101,3.16995 0.34024,3.03388 0.44055,3.40069 1.4796,5.40847 0.64724,1.25071 1.17195,1.79764 2.24945,2.34474 0.77292,0.39244 2.06611,1.34661 2.87381,2.12037 0.80764,0.77376 1.93483,1.68033 2.50486,2.01458 1.44415,0.84682 1.90775,1.36475 1.70181,1.90137 -0.25701,0.66977 -1.98016,0.57111 -2.76302,-0.15825 -0.66349,-0.61814 -0.66511,-0.61802 -1.01081,0.0754 -0.42698,0.85642 -1.27824,1.0639 -1.54226,0.37591 z m -14.54737,-42.69156 c 0.58771,-0.58771 0.63298,-0.88127 0.44599,-2.89184 -0.21321,-2.29283 -1.41097,-5.33285 -2.22406,-5.64487 -0.22762,-0.0873 -1.36918,0.31136 -2.53679,0.88601 -2.54414,1.25209 -3.76835,1.64701 -5.97367,1.92714 -1.24851,0.15858 -1.77975,0.39035 -2.13404,0.93103 -0.25943,0.39593 -0.77752,0.76344 -1.15137,0.81667 -0.47495,0.0676 -0.67964,0.31551 -0.67964,0.82298 0,0.61613 0.49741,0.95904 3.28263,2.26298 l 3.28264,1.53681 3.51711,0.004 c 3.15463,0.003 3.5845,-0.0638 4.1712,-0.6505 z m -41.23844,-6.82948 c 0.39807,-0.16118 1.63822,-1.13938 2.75587,-2.17381 1.11766,-1.0344 2.61621,-2.19629 3.33009,-2.58198 1.2965,-0.70042 1.2995,-0.70054 2.65739,-0.10797 1.5464,0.67486 3.80084,2.10161 4.95464,3.13559 0.91124,0.81661 2.06101,1.22977 2.30838,0.82948 0.23602,-0.38184 -3.10317,-4.28368 -5.09515,-5.95365 -1.46872,-1.23132 -1.67496,-1.31695 -2.15425,-0.89433 -0.32078,0.28284 -1.3859,0.51914 -2.69788,0.59859 l -2.16783,0.13124 -1.91492,2.1127 c -1.70111,1.87675 -2.00888,2.08912 -2.75615,1.90156 -0.83825,-0.21039 -0.84115,-0.20502 -0.84115,1.54225 0,1.8727 0.18678,2.04098 1.62096,1.46033 z m 21.93037,-15.18051 c 1.44134,-0.60222 2.70975,-2.69 2.70975,-4.46016 0,-1.02226 -0.20141,-1.47857 -1.00913,-2.28629 -1.05291,-1.0529 -3.12216,-2.14663 -4.0836,-2.15842 -0.87698,-0.0108 -2.91031,1.14193 -3.63144,2.05868 -1.24716,1.58554 -0.49389,4.9474 1.48082,6.60841 0.99481,0.83682 2.86511,0.9349 4.5336,0.23778 z m -327.91323,-102.15423 -1.23582,-1.32869 1.32869,1.23582 c 0.73078,0.67969 1.32868,1.2776 1.32868,1.32869 0,0.23654 -0.27225,-1.6e-4 -1.42155,-1.23582 z"
       id="path177" />
  </g>
</svg>
