<?xml version="1.0" encoding="UTF-8" standalone="no"?>
<!-- Created with Inkscape (http://www.inkscape.org/) -->

<svg
   width="1889.7638"
   height="1281.7252"
   viewBox="0 0 500.00001 339.12315"
   version="1.1"
   id="svg5"
   inkscape:version="1.3.2 (091e20e, 2023-11-25, custom)"
   sodipodi:docname="Gammarus_roselii.svg"
   xmlns:inkscape="http://www.inkscape.org/namespaces/inkscape"
   xmlns:sodipodi="http://sodipodi.sourceforge.net/DTD/sodipodi-0.dtd"
   xmlns="http://www.w3.org/2000/svg"
   xmlns:svg="http://www.w3.org/2000/svg">
  <sodipodi:namedview
     id="namedview7"
     pagecolor="#ffffff"
     bordercolor="#666666"
     borderopacity="1.0"
     inkscape:pageshadow="2"
     inkscape:pageopacity="0.0"
     inkscape:pagecheckerboard="true"
     inkscape:document-units="mm"
     showgrid="false"
     inkscape:zoom="0.73406285"
     inkscape:cx="1174.2864"
     inkscape:cy="657.98181"
     inkscape:window-width="3840"
     inkscape:window-height="2054"
     inkscape:window-x="-11"
     inkscape:window-y="-11"
     inkscape:window-maximized="1"
     inkscape:current-layer="layer1"
     lock-margins="true"
     fit-margin-top="2"
     fit-margin-left="2"
     fit-margin-right="2"
     fit-margin-bottom="2"
     units="px"
     inkscape:showpageshadow="0"
     inkscape:deskcolor="#d1d1d1"
     showborder="false" />
  <defs
     id="defs2" />
  <g
     inkscape:label="Layer 1"
     inkscape:groupmode="layer"
     id="layer1"
     transform="translate(-54.91569,-44.985284)">
    <path
       style="fill:#000000;stroke-width:1.31353"
       d="m 501.96944,383.73405 c -1.32617,-0.29738 -4.38929,-4.59071 -7.09352,-9.94302 -5.12688,-10.14716 -17.61665,-43.8628 -21.00683,-56.70713 -4.05314,-15.35594 -6.30803,-14.46272 -7.509,2.97435 -0.97196,14.11203 -2.29933,20.66923 -4.18406,20.66923 -0.67051,0 -1.40705,-1.63551 -1.63681,-3.63448 -0.72209,-6.28187 -2.86608,-2.45789 -2.86608,5.11188 0,7.24172 -1.63134,12.31467 -3.9601,12.31467 -1.63731,0 -6.04269,-8.75217 -9.11553,-18.10997 -6.51734,-19.84715 -9.54134,-27.35755 -21.00331,-52.16398 -1.33526,-2.8898 -2.86096,-6.69949 -3.39047,-8.46597 -1.31104,-4.37355 -8.3296,-16.01246 -11.21047,-18.59019 -1.29018,-1.15445 -3.26601,-4.10994 -4.39073,-6.56768 -1.12471,-2.45774 -2.79012,-5.65083 -3.70086,-7.09571 -0.91074,-1.44488 -4.17363,-6.59786 -7.25085,-11.45104 -3.07722,-4.85318 -5.59493,-9.197 -5.59493,-9.65299 0,-0.45575 -0.93656,-2.80273 -2.08133,-5.21505 -1.50138,-3.16399 -1.93101,-7.00659 -1.54189,-13.79107 0.34305,-5.984 0.0248,-9.59863 -0.8741,-9.93721 -0.77745,-0.29291 -7.12406,0.85266 -14.1036,2.54522 -8.26163,2.00343 -13.42459,2.66625 -14.795,1.89933 -1.62693,-0.9105 -4.56151,1.17093 -12.92382,9.16661 -5.95039,5.6895 -15.39418,13.72212 -20.98618,17.85023 -5.592,4.12811 -13.02669,10.88538 -16.52152,15.01612 -3.49483,4.13074 -8.67254,9.92674 -11.50605,12.87999 -5.69496,5.93565 -16.3168,25.02611 -16.3168,29.32585 0,3.22391 -1.99873,3.64525 -3.14329,0.66256 -1.6989,-4.42722 -0.63687,-10.73555 3.15775,-18.75675 5.66677,-11.97853 17.21189,-29.03681 23.49267,-34.71107 6.13244,-5.54032 6.42267,-6.19048 2.76351,-6.19048 -3.87134,0 -3.15049,-1.7007 1.67037,-3.9406 3.56016,-1.65418 4.30762,-2.78838 4.65852,-7.06915 0.22985,-2.80436 -0.19958,-5.71626 -0.95409,-6.47092 -1.83543,-1.83544 -6.47842,2.33582 -8.85752,7.95755 -0.99365,2.34793 -2.55068,4.26901 -3.46003,4.26901 -0.90935,0 -3.88877,1.84258 -6.62095,4.09464 -4.76764,3.92988 -5.04362,3.99596 -6.85751,1.64192 -1.03947,-1.34901 -2.24313,-3.73993 -2.67469,-5.31314 -1.12213,-4.09018 -3.13524,-4.40086 -9.40274,-1.45103 -5.97663,2.81285 -14.78852,11.6456 -14.78852,14.82345 0,1.08162 -0.49621,1.96655 -1.10268,1.96655 -1.28178,0 -4.15145,-5.86043 -4.15145,-8.47803 0,-2.0865 10.46444,-11.80532 21.56097,-20.02465 6.43354,-4.76545 11.27733,-10.38168 11.27733,-13.07573 0,-0.30731 -3.68155,-0.38724 -8.18128,-0.17823 -8.16148,0.37929 -8.18468,0.37035 -9.56889,-3.82493 -1.89964,-5.75722 -2.85988,-6.42122 -5.64316,-3.90242 -1.31611,1.19109 -4.27518,2.54204 -6.57572,3.00216 -3.52878,0.70575 -4.18279,0.44581 -4.18279,-1.66243 0,-4.1777 3.76496,-8.18567 8.52892,-9.07939 8.33123,-1.56298 8.2011,-3.84259 -0.48355,-8.47148 -8.59487,-4.58102 -20.15881,-6.07936 -22.75706,-2.94868 -0.97379,1.17337 -1.8924,1.27673 -3.02101,0.34007 -1.13646,-0.94316 -2.08308,-0.79006 -3.16343,0.5117 -0.84793,1.0217 -2.88411,2.19457 -4.52486,2.60638 -2.22475,0.55836 -4.38171,3.79359 -8.48408,12.72529 -3.02551,6.58714 -5.50092,12.5905 -5.50092,13.34074 0,0.75029 -1.73136,4.39153 -3.84747,8.09169 -5.55704,9.71689 -11.34036,32.8815 -15.94496,63.86624 -3.76555,25.33863 -4.00676,46.80989 -0.67582,60.15629 1.31575,5.27193 2.02007,9.95751 1.56519,10.41241 -2.48363,2.48361 -9.36097,-14.09674 -11.4608,-27.63045 -2.08761,-13.45498 -0.86218,-29.12791 4.94915,-63.298 4.80952,-28.27952 16.75772,-61.91364 29.01323,-81.67213 6.47345,-10.43659 6.9867,-12.24547 3.47454,-12.24547 -2.56058,0 -16.47957,14.03657 -23.44558,23.64359 -3.40495,4.6959 -12.82688,15.36637 -20.93763,23.71225 -24.42169,25.12962 -42.56267,50.06424 -58.2447,80.05682 -9.1331,17.46752 -11.09525,21.92378 -23.423659,53.1981 -6.824342,17.31177 -13.468556,32.18154 -14.379563,32.18154 -0.321155,0 0.657339,-3.10323 2.174466,-6.89603 1.517127,-3.79286 5.089744,-13.1025 7.939158,-20.68816 19.512118,-51.94474 37.793608,-85.99201 63.476528,-118.21794 4.89397,-6.14078 10.21864,-13.23386 11.83259,-15.76239 1.61395,-2.52854 4.17937,-5.71075 5.70093,-7.07158 1.52156,-1.36083 2.44498,-2.99441 2.05205,-3.63022 -0.71176,-1.15162 -9.85779,4.8162 -15.79188,10.30424 -1.71647,1.58746 -3.94714,3.36074 -4.95704,3.9406 -8.16653,4.6891 -39.41412,40.24176 -52.878142,60.16329 -6.252969,9.252 -21.706881,36.28344 -26.658671,46.63042 -4.310059,9.00605 -13.253462,24.9571 -13.99291,24.9571 -1.08903,0 21.072548,-43.01459 30.115183,-58.45216 16.28565,-27.80287 41.32997,-59.09979 59.67624,-74.57503 6.18853,-5.22011 13.96118,-11.99323 17.27258,-15.05138 3.31139,-3.0581 6.41302,-5.57025 6.89251,-5.58247 1.32265,-0.0348 17.01293,-19.31069 23.18266,-28.48197 2.99696,-4.45498 9.00703,-12.52284 13.35571,-17.92857 4.34869,-5.40573 7.90671,-10.71093 7.90671,-11.78933 0,-4.78397 14.35519,-17.93333 51.64701,-47.308724 39.67848,-31.255412 84.35591,-41.338677 133.99454,-30.241356 13.33866,2.982046 39.72069,12.917914 48.76488,18.365646 4.36725,2.630557 11.78247,6.866347 16.47837,9.412904 14.12991,7.662509 18.4351,10.696733 19.62754,13.833126 1.49233,3.92506 8.15687,9.679504 20.00508,17.273304 8.98496,5.75861 20.78988,15.8801 20.78988,17.82505 0,0.47163 -1.4777,0.57544 -3.28384,0.23036 -2.43372,-0.46518 -3.28384,-0.0645 -3.28384,1.54799 0,3.89433 5.40563,12.89652 11.83391,19.70746 5.17805,5.48631 19.69092,26.96099 19.69092,29.1367 0,0.33361 -1.14333,-0.005 -2.54075,-0.75317 -5.23152,-2.79985 -6.23624,-1.76519 -7.08215,7.29325 -0.59713,6.39471 -0.1127,11.62251 1.85654,20.03134 2.75923,11.78268 4.89433,33.05168 3.31784,33.05168 -0.49397,0 -2.44955,-1.01659 -4.3459,-2.25906 -3.28568,-2.15292 -3.51509,-2.14423 -4.87949,0.18418 -0.78747,1.3438 -3.52963,4.91911 -6.09377,7.94514 -5.06655,5.97929 -8.76736,17.74662 -7.35331,23.38072 0.48106,1.91636 7.30605,9.0353 16.59603,17.31059 13.88779,12.37097 17.64753,16.48801 15.05709,16.48801 -2.22501,0 -9.61263,-5.16838 -24.23512,-16.95488 -9.03058,-7.2791 -16.85047,-13.23957 -17.37765,-13.24552 -1.45352,-0.0149 -6.26599,10.02334 -6.26599,13.07216 0,1.92018 -0.85598,2.67941 -3.02112,2.67941 -3.66094,0 -6.17359,2.28691 -6.17359,5.61915 0,1.35661 4.63727,8.18374 10.30503,15.17127 10.68725,13.17586 17.04245,23.23068 15.59683,24.67635 -0.91234,0.91229 -23.27478,-21.56294 -23.27478,-23.39217 0,-1.10675 -5.57413,-3.68518 -7.96674,-3.68518 -2.36038,0 -1.14988,5.96628 2.58479,12.73964 3.95961,7.18124 3.93171,9.74909 -0.0665,6.13064 -5.76655,-5.2186 -3.33845,2.92397 7.34458,24.63 6.31688,12.83466 11.23812,24.51079 11.23857,26.66426 3.9e-4,2.10715 -0.40809,3.42245 -0.90757,2.92287 -0.49958,-0.49953 -1.53399,0.97622 -2.29868,3.27947 -1.37686,4.14697 -3.14662,5.08795 -7.66509,4.07539 z m 6.93148,-11.48178 c 0,-1.08366 -0.57256,-1.97032 -1.27231,-1.97032 -0.69975,0 -0.93204,0.88666 -0.51621,1.97032 0.41603,1.08366 0.98839,1.97028 1.27231,1.97028 0.28397,0 0.51621,-0.88662 0.51621,-1.97028 z m -2.62708,-6.42217 c 0,-1.00358 -1.19491,-3.22019 -2.65538,-4.92571 l -2.65538,-3.101 2.24194,4.92577 c 2.41256,5.30078 3.06882,5.96394 3.06882,3.10094 z m -61.73601,-63.19507 c 0,-3.24596 -1.77978,-4.40389 -3.21056,-2.08883 -0.94937,1.53613 0.50564,5.37267 2.03754,5.37267 0.64514,0 1.17302,-1.47775 1.17302,-3.28384 z m 3.34918,-17.07591 c 1.26183,-5.77956 3.36089,-13.62278 4.66452,-17.42939 l 2.37032,-6.9211 -4.01457,-4.57229 c -2.20798,-2.51478 -4.85849,-4.57233 -5.88997,-4.57233 -1.03153,0 -2.20262,-0.85256 -2.60251,-1.89462 -0.39965,-1.04205 -6.58779,-6.73285 -13.75086,-12.64625 -7.16313,-5.91341 -13.02386,-11.18669 -13.02386,-11.71839 0,-0.53165 -1.3929,-2.37727 -3.09534,-4.10125 -1.70239,-1.72403 -3.84826,-5.49892 -4.76853,-8.38872 -3.17681,-9.97563 -6.58496,-10.88315 -6.58496,-1.75337 0,3.92525 1.03089,6.61752 3.9406,10.29137 2.16732,2.73646 3.9406,5.35758 3.9406,5.82469 0,0.46717 1.08897,2.45089 2.41996,4.40836 8.33332,12.25579 12.13108,19.10486 10.99113,19.82179 -0.75302,0.47362 2.18891,8.65209 7.04408,19.58261 8.72765,19.64863 13.32341,27.48941 15.04243,25.66351 0.56253,-0.59749 2.05517,-5.81506 3.31696,-11.59462 z m 61.01391,-19.00002 c 0,-1.43971 -4.27089,-3.98682 -6.68489,-3.98682 -1.00427,0 -0.71504,0.98169 0.77402,2.62709 2.48679,2.74782 5.91087,3.53554 5.91087,1.35973 z m -55.00539,-33.23482 c -1.29723,-1.2876 -1.4481,-1.13673 -0.7353,0.7353 0.49348,1.29544 1.22773,2.02444 1.63219,1.62003 0.40461,-0.40461 8e-4,-1.46429 -0.89689,-2.35533 z M 230.18992,140.52514 c 1.21678,-0.66113 3.69006,-3.96508 5.49617,-7.3421 l 3.28383,-6.13999 -4.54775,-3.82294 c -5.06154,-4.2548 -8.55766,-4.87993 -9.76058,-1.74518 -1.40821,3.66974 -0.85027,17.04687 0.77894,18.67608 1.89092,1.89094 1.94945,1.89556 4.74939,0.37433 z"
       id="path854" />
  </g>
</svg>
