<?xml version="1.0" encoding="UTF-8" standalone="no"?>
<!-- Created with Inkscape (http://www.inkscape.org/) -->

<svg
   version="1.1"
   id="svg59"
   width="499.99997"
   height="152.94699"
   viewBox="0 0 499.99997 152.94699"
   sodipodi:docname="hydropsyche_siltalai.svg"
   inkscape:version="1.3.2 (091e20e, 2023-11-25, custom)"
   xmlns:inkscape="http://www.inkscape.org/namespaces/inkscape"
   xmlns:sodipodi="http://sodipodi.sourceforge.net/DTD/sodipodi-0.dtd"
   xmlns="http://www.w3.org/2000/svg"
   xmlns:svg="http://www.w3.org/2000/svg">
  <defs
     id="defs63" />
  <sodipodi:namedview
     id="namedview61"
     pagecolor="#505050"
     bordercolor="#eeeeee"
     borderopacity="1"
     inkscape:showpageshadow="0"
     inkscape:pageopacity="0"
     inkscape:pagecheckerboard="true"
     inkscape:deskcolor="#505050"
     showgrid="false"
     inkscape:zoom="2.5875"
     inkscape:cx="275.55556"
     inkscape:cy="157.29469"
     inkscape:window-width="3840"
     inkscape:window-height="2054"
     inkscape:window-x="-11"
     inkscape:window-y="-11"
     inkscape:window-maximized="1"
     inkscape:current-layer="g65"
     showborder="false" />
  <g
     inkscape:groupmode="layer"
     inkscape:label="Image"
     id="g65"
     transform="translate(-294.15744,-536.97757)">
    <path
       style="fill:#000000;stroke-width:0.148486"
       d="m 491.66263,689.53068 c -0.29879,-0.23743 -0.84191,-0.51532 -1.20698,-0.61753 -1.19888,-0.33566 -1.25648,-0.4606 -1.17891,-2.55687 0.0491,-1.32684 0.14418,-2.01343 0.3468,-2.50413 0.23098,-0.55948 0.28121,-1.08444 0.29126,-3.04397 0.007,-1.30236 0.0152,-2.73543 0.019,-3.1846 0.0117,-1.39356 -0.25956,-4.2075 -0.45515,-4.72044 -0.12615,-0.33084 -0.16337,-1.00207 -0.11528,-2.07882 0.0618,-1.38432 0.0238,-1.7507 -0.29367,-2.82949 -0.34055,-1.15716 -0.35875,-1.38836 -0.27453,-3.48945 0.0976,-2.43374 0.095,-4.26205 -0.0113,-8.18962 -0.0931,-3.43889 0.21672,-5.58053 0.91289,-6.31068 0.57377,-0.60179 1.21223,-2.3192 1.32481,-3.56368 0.15497,-1.71302 0.12877,-4.09691 -0.0487,-4.42845 -0.17228,-0.32193 -1.18122,-0.61456 -2.45131,-0.711 -0.8846,-0.0672 -1.52333,-0.42636 -1.27986,-0.71973 0.0898,-0.10825 0.37829,-0.27798 0.64101,-0.37717 0.2627,-0.0992 0.6781,-0.26782 0.92311,-0.37473 0.245,-0.10691 0.71575,-0.2654 1.04611,-0.35218 0.87024,-0.22861 1.77603,-1.0637 2.07214,-1.91039 0.13537,-0.38706 0.33589,-0.9042 0.44563,-1.1492 0.10971,-0.245 0.24368,-0.71274 0.29772,-1.0394 0.13527,-0.81793 0.78324,-1.9621 1.32786,-2.34471 0.58621,-0.41184 0.71362,-0.53915 1.04181,-1.04099 0.21055,-0.32194 0.23204,-0.45597 0.0951,-0.59293 -0.21034,-0.21033 -1.63278,-0.37699 -4.16241,-0.48771 -1.60005,-0.07 -1.92706,-0.12871 -2.46126,-0.44177 -0.33882,-0.19858 -0.96615,-0.42743 -1.39406,-0.50858 -0.53735,-0.10191 -0.98946,-0.32041 -1.46154,-0.70638 -0.81395,-0.66546 -1.52441,-1.60258 -1.52441,-2.01071 0,-0.26214 -0.0675,-0.28287 -0.62832,-0.1932 -1.62464,0.25979 -4.40288,1.71497 -4.63364,2.427 -0.0459,0.14161 -0.52062,0.52476 -1.05494,0.85143 -0.53433,0.32667 -1.11254,0.71088 -1.28492,0.8538 -0.17237,0.14291 -0.48167,0.25984 -0.68734,0.25984 -0.20565,0 -0.50258,0.11644 -0.65983,0.25875 -0.24573,0.22238 -0.64373,0.26247 -2.83293,0.28523 -1.40086,0.0145 -2.7809,-0.0305 -3.06674,-0.10012 -0.78322,-0.19079 -1.62165,-0.52124 -1.81631,-0.7159 -0.0954,-0.0954 -0.3849,-0.17341 -0.64339,-0.17341 -0.2585,0 -0.62934,-0.12444 -0.8241,-0.27655 -0.19476,-0.1521 -0.50693,-0.32444 -0.6937,-0.38296 -0.18676,-0.0585 -0.73801,-0.49388 -1.22501,-0.96746 -0.76015,-0.7392 -0.88544,-0.93715 -0.88544,-1.39888 0,-0.49235 -0.0358,-0.53783 -0.4233,-0.53783 -0.66793,0 -1.29673,0.27785 -1.88558,0.83321 -0.37357,0.35233 -0.6313,0.48544 -0.82245,0.42477 -0.19885,-0.0631 -0.44226,0.0839 -0.85208,0.51472 -0.31553,0.33169 -0.71372,0.60309 -0.88489,0.60309 -0.17116,0 -0.3525,0.0668 -0.40298,0.14848 -0.0505,0.0817 -0.19404,0.14849 -0.31904,0.14849 -0.12502,0 -0.34272,0.14253 -0.48377,0.31674 -0.21427,0.2646 -0.30837,0.28898 -0.57162,0.14808 -0.17333,-0.0927 -0.35088,-0.11082 -0.39458,-0.0401 -0.16437,0.26598 -1.33718,0.47899 -1.83178,0.33271 -0.2943,-0.087 -0.48259,-0.0888 -0.48259,-0.005 0,0.076 -0.22991,0.13812 -0.51094,0.13812 -0.28101,0 -0.55612,0.0731 -0.61132,0.16244 -0.0983,0.15909 -0.74012,0.12129 -1.58762,-0.0935 -0.34782,-0.0882 -0.40834,-0.0577 -0.40834,0.20554 0,0.30786 -0.38997,0.61648 -0.77899,0.61648 -0.11251,0 -0.35533,-0.2039 -0.53958,-0.45312 -0.4028,-0.54482 -0.32155,-1.25943 0.16062,-1.41247 0.24184,-0.0767 0.2631,-0.12455 0.10104,-0.22718 -0.31332,-0.19845 -0.41231,-0.16672 -0.80636,0.25848 -0.23469,0.25325 -0.31606,0.45126 -0.22881,0.55682 0.0745,0.0901 0.15471,0.47995 0.17828,0.86633 0.0421,0.68994 0.0302,0.71088 -0.6659,1.17197 -0.38982,0.2582 -0.9945,0.52285 -1.34373,0.5881 -1.02997,0.19243 -3.383,1.38949 -3.69389,1.87922 -0.0653,0.10286 -0.21052,0.18704 -0.3227,0.18704 -0.11217,0 -0.40247,0.16705 -0.64512,0.37122 -0.24264,0.20417 -0.54028,0.37122 -0.6614,0.37122 -0.12113,0 -0.28628,0.0835 -0.36702,0.1856 -0.0807,0.10209 -0.18562,1.62222 -0.23312,3.37808 -0.0507,1.8737 -0.15996,3.40053 -0.26452,3.69618 l -0.17816,0.50371 -0.1978,-0.37748 c -0.10878,-0.20763 -0.23651,-0.7684 -0.28381,-1.24616 -0.0473,-0.47777 -0.17701,-1.20275 -0.28816,-1.6111 -0.11118,-0.40833 -0.24214,-0.92617 -0.29106,-1.15076 -0.0606,-0.2781 -0.18274,-0.40834 -0.38309,-0.40834 -0.16177,0 -0.29414,-0.0668 -0.29414,-0.14849 0,-0.0817 0.0505,-0.14848 0.11225,-0.14848 0.0617,0 0.20381,-0.20687 0.31573,-0.4597 0.18484,-0.41763 0.17578,-0.48743 -0.0992,-0.76242 l -0.3027,-0.30272 -0.49561,0.55937 c -0.27257,0.30766 -0.5624,0.67385 -0.64407,0.81379 -0.26104,0.44724 -1.21127,1.18637 -1.57678,1.22651 -0.37445,0.0411 -0.44696,-0.25307 -0.20414,-0.82829 0.1071,-0.25371 0.053,-0.26559 -0.75948,-0.16701 -0.48114,0.0584 -0.89692,0.12545 -0.92395,0.14908 -0.027,0.0236 0.0249,0.18126 0.11537,0.35032 0.15791,0.29506 0.13742,0.30368 -0.5104,0.21489 -0.50043,-0.0686 -0.74138,-0.0331 -0.93204,0.13725 -0.14141,0.12636 -0.42417,0.25254 -0.62834,0.2804 -0.31008,0.0423 -0.36384,0.12008 -0.32642,0.47212 0.0246,0.23181 0.19338,0.76636 0.375,1.1879 0.3792,0.88015 0.35748,1.37998 -0.0658,1.51431 -0.22692,0.072 -0.51608,-0.12412 -1.24835,-0.84678 -0.52855,-0.52161 -0.99328,-1.12238 -1.04342,-1.34885 -0.10742,-0.48506 -0.22705,-0.51292 -0.47783,-0.11137 -0.10201,0.16334 -0.34377,0.29698 -0.53724,0.29698 -0.19349,0 -0.4343,0.0994 -0.53515,0.22094 -0.54668,0.65871 -2.73827,1.41465 -3.75666,1.29576 -0.42416,-0.0495 -0.64294,0.0192 -0.98945,0.31076 -0.24467,0.20588 -0.69712,0.45659 -1.00546,0.55717 -0.30834,0.10055 -0.71995,0.30675 -0.91472,0.45821 -0.21667,0.1685 -0.59674,0.27538 -0.97927,0.27538 -0.59573,0 -1.11619,0.31681 -1.11691,0.67987 0,0.0752 -0.37164,0.14562 -0.82557,0.1564 -0.98916,0.0235 -1.50055,0.4094 -1.62879,1.22916 -0.0459,0.2932 -0.21296,0.86718 -0.37132,1.27552 -0.15837,0.40834 -0.35307,1.14335 -0.43268,1.63336 -0.0796,0.49 -0.20585,1.22312 -0.28057,1.62914 -0.0747,0.40603 -0.10219,0.98928 -0.061,1.29612 0.0949,0.70719 -0.26329,1.3066 -0.78069,1.3066 -0.50514,0 -0.55797,-0.28918 -0.54266,-2.96973 0,-0.1225 -0.0438,-0.92433 -0.099,-1.78184 -0.0826,-1.28453 -0.13945,-1.54807 -0.32296,-1.49649 -0.1225,0.0344 -0.47829,0.0492 -0.79064,0.0327 -0.40087,-0.0211 -0.76218,0.0915 -1.22825,0.38283 -0.55408,0.34634 -0.64874,0.47249 -0.5883,0.78396 0.0396,0.20418 0.11497,0.60509 0.16745,0.89092 0.0525,0.28584 0.17748,0.58653 0.27778,0.66819 0.10029,0.0817 0.2242,0.40864 0.27535,0.72661 0.0512,0.31797 0.22095,0.71889 0.37731,0.89092 1.01293,1.1145 0.49913,2.16652 -0.72069,1.47566 -0.26409,-0.14957 -0.6349,-0.35724 -0.82405,-0.46151 -0.42803,-0.23596 -1.25206,-1.64909 -1.25206,-2.14715 0,-0.20362 -0.13364,-0.54012 -0.29698,-0.74777 -0.16334,-0.20765 -0.29697,-0.54921 -0.29697,-0.75904 0,-0.36998 -0.0278,-0.38111 -0.91913,-0.36856 -0.50552,0.007 -1.03464,0.0851 -1.17584,0.17325 -0.19158,0.11964 -0.32034,0.10749 -0.50756,-0.0479 -0.21853,-0.18136 -0.27748,-0.17177 -0.45752,0.0744 -0.11366,0.15544 -0.20666,0.34597 -0.20666,0.42341 0,0.0817 -0.3117,0.10388 -0.74243,0.0529 -0.40833,-0.0484 -0.74243,-0.0374 -0.74243,0.0243 0,0.16303 -1.86816,0.72412 -2.81564,0.84565 -0.44608,0.0572 -1.18109,0.29208 -1.63334,0.52189 -0.45227,0.22982 -1.13969,0.50273 -1.52761,0.60647 -0.38792,0.10374 -0.70531,0.27051 -0.70531,0.37056 0,0.10006 -0.13363,0.22434 -0.29697,0.27618 -0.16334,0.0518 -0.29698,0.18255 -0.29698,0.29046 0,0.1079 -0.23721,0.24069 -0.52712,0.29508 -0.43565,0.0817 -0.5113,0.14881 -0.43589,0.38641 0.13316,0.41955 -0.0361,0.61916 -0.3724,0.43919 -0.21699,-0.11614 -0.29642,-0.0918 -0.36198,0.11097 -0.10331,0.31947 -0.97381,0.92792 -1.32756,0.92792 -0.14276,0 -0.56586,0.23387 -0.9402,0.5197 -0.37435,0.28584 -0.73575,0.51971 -0.80311,0.51971 -0.17857,0 -1.96687,1.22876 -2.10662,1.44751 -0.0653,0.10221 -0.17921,0.18584 -0.2531,0.18584 -0.17364,0 -0.83824,0.66472 -1.03823,1.03839 -0.12273,0.22931 -0.25446,0.2708 -0.63454,0.19981 -0.39547,-0.0738 -0.44708,-0.0549 -0.29405,0.10825 0.10208,0.10879 0.1856,0.27743 0.1856,0.37474 0,0.25893 -0.73178,0.40282 -0.98399,0.1935 -0.16739,-0.13891 -0.25207,-0.1294 -0.39415,0.0443 -0.0995,0.12166 -0.48165,0.39992 -0.84916,0.61834 -1.74451,1.03685 -2.39392,1.46083 -2.70487,1.76593 -0.14567,0.14291 -0.3243,0.25984 -0.39694,0.25984 -0.0726,0 -0.39004,0.23232 -0.70532,0.51626 -0.31526,0.28393 -0.65224,0.5178 -0.74882,0.51971 -0.0966,0.002 -0.21655,0.13243 -0.26658,0.29009 -0.05,0.15767 -0.27445,0.32696 -0.49868,0.37621 -0.22425,0.0493 -0.68402,0.3498 -1.02173,0.6679 -0.33771,0.31811 -0.78599,0.69105 -0.99618,0.82877 -0.21019,0.13773 -0.38218,0.36912 -0.38218,0.51421 0,0.14943 -0.14485,0.30059 -0.33409,0.34868 -0.18375,0.0467 -0.55538,0.28779 -0.82584,0.5358 -0.27046,0.24801 -0.60519,0.45092 -0.74384,0.45092 -0.13865,0 -0.33555,0.13363 -0.43755,0.29697 -0.10485,0.16788 -0.34628,0.29698 -0.55542,0.29698 -0.37392,0 -0.49466,0.20237 -0.22147,0.37121 0.29058,0.1796 0.14084,0.35919 -0.38108,0.4571 -0.36258,0.068 -0.76059,0.33405 -1.26215,0.84357 -0.40291,0.40932 -0.73256,0.79481 -0.73256,0.85665 0,0.0618 -0.3675,0.43641 -0.81668,0.83237 -0.44917,0.39597 -0.81668,0.81185 -0.81668,0.9242 0,0.29189 -1.13805,1.35738 -1.44982,1.35738 -0.14388,0 -0.34056,0.15035 -0.43706,0.3341 -0.26305,0.50087 -0.58195,1.19212 -0.68505,1.48487 -0.0504,0.14314 -0.24365,0.26133 -0.43027,0.26315 -0.18631,0.002 -0.47764,0.11876 -0.64739,0.25984 -0.42278,0.35143 -1.38338,1.56912 -1.69804,2.15251 -0.18209,0.33764 -0.34851,0.46669 -0.56149,0.43547 -0.19871,-0.0291 -0.33589,0.0602 -0.39931,0.26 -0.0531,0.16742 -0.21236,0.36635 -0.35385,0.44206 -0.14148,0.0757 -0.45109,0.52081 -0.688,0.98905 -0.23692,0.46827 -0.60639,0.95219 -0.82104,1.07537 -0.21466,0.12321 -0.50247,0.41946 -0.63958,0.65838 -0.13711,0.23891 -0.382,0.46908 -0.54418,0.51149 -0.18298,0.0478 -0.3592,0.29185 -0.46442,0.64301 -0.0932,0.31124 -0.35127,0.76486 -0.57336,1.00801 -0.2221,0.24318 -0.44727,0.65936 -0.50037,0.92485 -0.14396,0.71981 -0.34956,0.88224 -1.11675,0.88224 -0.53175,0 -0.78135,-0.086 -1.09548,-0.37723 -0.22375,-0.20747 -0.40681,-0.43969 -0.40681,-0.51602 0,-0.086 -0.13855,-0.0861 -0.36387,0 -0.32204,0.12242 -0.41899,0.0665 -0.84333,-0.48627 -0.2637,-0.34352 -0.59399,-0.72483 -0.73397,-0.84733 -0.56936,-0.49826 -0.50353,-0.83053 0.44493,-2.24615 0.49626,-0.74068 0.90299,-1.45706 0.90386,-1.59195 0.001,-0.13491 0.2366,-0.47364 0.52384,-0.75274 0.3239,-0.31474 0.58419,-0.75345 0.68533,-1.15511 0.0897,-0.3562 0.3458,-0.84326 0.56913,-1.08233 0.22333,-0.23908 0.4927,-0.64384 0.59858,-0.89947 0.10727,-0.25899 0.46157,-0.63226 0.80023,-0.84309 0.79891,-0.49738 1.12743,-0.85286 1.12743,-1.21999 0,-0.70162 1.00272,-2.17371 2.98697,-4.38515 0.29532,-0.32914 0.64479,-0.8097 0.7766,-1.0679 0.1318,-0.25821 0.39562,-0.5923 0.58628,-0.74243 0.19064,-0.15014 0.47035,-0.47343 0.62155,-0.71843 0.1512,-0.245 0.4545,-0.61251 0.674,-0.81667 0.21949,-0.20417 0.55079,-0.73872 0.73622,-1.1879 0.45623,-1.10514 0.79507,-1.55245 1.38971,-1.83464 0.27574,-0.13084 0.85009,-0.57051 1.27631,-0.97704 0.42624,-0.40651 0.89149,-0.77611 1.03388,-0.82129 0.14239,-0.0452 0.4018,-0.27545 0.57644,-0.51168 0.17464,-0.2362 0.69034,-0.64277 1.146,-0.90348 0.63699,-0.36444 0.80898,-0.53545 0.74411,-0.73984 -0.0571,-0.17988 0.0649,-0.39143 0.37707,-0.65414 0.25379,-0.21355 0.52463,-0.38827 0.60187,-0.38827 0.0772,0 0.47346,-0.34916 0.8805,-0.77591 0.71164,-0.74613 0.72733,-0.78063 0.4085,-0.89859 -0.18238,-0.0675 -0.49136,-0.0826 -0.68664,-0.0335 -0.22464,0.0564 -0.45273,0 -0.62104,-0.15162 -0.24297,-0.21988 -0.30516,-0.2205 -0.71761,-0.007 -0.24836,0.12844 -0.62461,0.23352 -0.83609,0.23352 -0.21147,0 -0.63882,0.12975 -0.94967,0.28831 -0.3395,0.17322 -1.00865,0.31961 -1.67589,0.36665 -0.6109,0.0431 -1.30608,0.1802 -1.54485,0.30471 -0.23878,0.12452 -0.56777,0.22705 -0.73111,0.22787 -0.16333,10e-4 -0.51574,0.13485 -0.78314,0.29788 -0.26739,0.16304 -0.68501,0.29642 -0.92804,0.29642 -0.24303,0 -0.44187,0.0668 -0.44187,0.14848 0,0.0817 -0.22993,0.1485 -0.51095,0.1485 -0.28102,0 -0.55223,-0.0668 -0.6027,-0.1485 -0.13579,-0.2197 -0.37122,-0.1801 -0.37122,0.0625 0,0.11645 -0.2123,0.25756 -0.47401,0.31504 -0.39029,0.0857 -0.52362,0.0429 -0.7549,-0.24278 l -0.28088,-0.34688 -0.28121,0.36595 c -0.15467,0.20125 -0.28473,0.53298 -0.28903,0.73714 -0.007,0.3242 -0.027,0.33831 -0.15916,0.11137 -0.0833,-0.14292 -0.28071,-0.25985 -0.43882,-0.25985 -0.45924,0 -1.64899,0.32079 -2.32392,0.62659 -0.47239,0.21404 -0.97026,0.28234 -2.0743,0.28461 -0.88974,0.002 -1.64198,0.082 -1.9411,0.20704 -0.42326,0.17684 -0.57236,0.17249 -1.11817,-0.0326 -0.76425,-0.28723 -2.83211,-0.3307 -4.9359,-0.10375 -0.81667,0.0881 -1.55242,0.10874 -1.635,0.0459 -0.0826,-0.0629 -0.53819,-0.0241 -1.01247,0.0861 -0.72799,0.16923 -0.9706,0.16852 -1.55745,-0.005 -0.38232,-0.11278 -0.929,-0.20385 -1.21483,-0.20241 -1.43807,0.007 -10.46597,-0.17082 -11.43347,-0.22557 -0.77502,-0.0439 -1.65546,-0.24442 -2.89549,-0.65961 -1.29472,-0.4335 -2.30956,-0.65966 -3.71217,-0.82725 -5.06798,-0.60556 -8.25114,-1.27839 -10.91376,-2.30683 -1.02085,-0.39431 -2.34815,-0.82675 -2.94957,-0.96098 -0.60142,-0.13422 -1.33643,-0.36791 -1.63335,-0.51928 -0.77797,-0.39666 -4.20522,-1.45193 -5.53832,-1.70527 -1.22134,-0.23212 -1.68791,-0.43532 -3.33616,-1.45291 -0.58232,-0.35952 -1.33751,-0.74568 -1.6782,-0.85811 -0.64923,-0.21427 -1.03215,-0.59834 -2.01461,-2.0207 -0.32667,-0.47292 -1.15058,-1.42677 -1.83091,-2.11964 -1.15535,-1.17663 -1.24574,-1.31441 -1.36975,-2.08791 -0.073,-0.4555 -0.31427,-1.65822 -0.5361,-2.67272 l -0.40332,-1.84453 0.25324,-1.49677 c 0.13927,-0.82321 0.29465,-1.96434 0.34528,-2.53582 0.0693,-0.78207 0.21357,-1.25937 0.58338,-1.92996 0.27022,-0.49001 0.64816,-1.49706 0.83987,-2.23787 0.37667,-1.45561 0.44199,-1.55034 3.46298,-5.02192 2.40977,-2.76917 3.71543,-4.4065 4.63081,-5.80703 1.82557,-2.79317 2.04409,-3.10798 2.98488,-4.30018 0.51814,-0.65661 1.19924,-1.69498 1.51356,-2.30748 0.80753,-1.57365 2.07971,-3.08511 4.06659,-4.83148 0.94383,-0.82958 2.29275,-2.20338 2.9976,-3.05288 1.17904,-1.421 3.44464,-3.66108 7.34268,-7.26 2.18765,-2.01978 3.09919,-3.31841 4.49042,-6.3973 0.55417,-1.22641 1.85903,-3.08959 2.6504,-3.7844 0.653,-0.57335 2.78389,-2.09468 3.91215,-2.79305 0.49001,-0.3033 1.20102,-0.75023 1.58002,-0.99318 0.379,-0.24295 1.14741,-0.56612 1.70759,-0.71814 0.56018,-0.15203 1.41942,-0.44997 1.90943,-0.66208 0.78754,-0.34091 1.09766,-0.38706 2.67275,-0.39774 1.23559,-0.008 2.07773,-0.0947 2.74701,-0.28157 0.53084,-0.14822 1.94473,-0.54198 3.14199,-0.87504 2.79929,-0.77872 4.59085,-1.47471 6.41187,-2.4909 0.80373,-0.44851 1.98789,-0.98183 2.63148,-1.18513 1.0821,-0.34184 1.26235,-0.3581 2.39542,-0.21602 0.6739,0.0845 2.32954,0.15493 3.6792,0.15652 1.41031,0.002 3.08541,0.0978 3.93879,0.22611 2.47733,0.37241 7.01168,0.44262 10.17133,0.15748 1.51085,-0.13634 3.91634,-0.30748 5.34552,-0.38029 1.42919,-0.0728 3.40035,-0.26714 4.38036,-0.43183 3.22339,-0.54168 4.55144,-0.65265 9.13192,-0.7631 2.63031,-0.0634 4.87121,-0.18611 5.34552,-0.29266 0.44917,-0.1009 1.41805,-0.47605 2.15305,-0.83367 l 1.33638,-0.65021 3.19247,-0.14512 c 3.57544,-0.16254 4.62544,-0.35723 6.07354,-1.12617 0.79545,-0.42238 1.13094,-0.51532 1.86563,-0.51679 0.49268,-10e-4 1.896,-0.1694 3.1185,-0.37424 1.34381,-0.22518 3.36949,-0.42841 5.12279,-0.51394 1.92995,-0.0942 3.3471,-0.24335 4.23645,-0.446 0.735,-0.16749 2.27184,-0.46746 3.41519,-0.6666 1.14334,-0.19915 2.61839,-0.45737 3.2779,-0.57382 0.65949,-0.11644 1.69518,-0.42475 2.30154,-0.68511 1.00729,-0.43253 1.33683,-0.49099 3.81769,-0.67745 1.49338,-0.11225 3.69841,-0.34796 4.90006,-0.52381 2.01949,-0.29554 2.33909,-0.30577 4.22362,-0.13523 3.30169,0.2988 5.40739,0.068 8.05829,-0.88313 3.75446,-1.34748 4.39934,-1.49812 6.41216,-1.49812 2.07125,0 4.46012,-0.41339 6.80315,-1.1773 0.73501,-0.23964 1.83752,-0.58058 2.45003,-0.75765 0.61251,-0.17707 1.9618,-0.68289 2.99842,-1.12404 1.41916,-0.60393 2.24451,-0.85753 3.34095,-1.02654 2.69688,-0.41568 3.38115,-0.55792 4.79712,-0.99707 1.31909,-0.4091 1.63708,-0.44532 4.90006,-0.55794 3.78321,-0.13058 5.00736,-0.32994 7.24205,-1.17945 1.76652,-0.67153 2.29849,-0.77898 3.03703,-0.61347 0.35645,0.0799 1.34668,0.14739 2.20051,0.14999 0.96329,0.003 1.8623,0.0943 2.36907,0.24072 1.40474,0.40588 1.98804,0.52506 2.50239,0.51131 0.27379,-0.007 0.71456,0.11456 0.97949,0.27086 0.33735,0.19906 0.55568,0.24278 0.7287,0.14596 0.17622,-0.0986 0.27118,-0.0753 0.33126,0.0812 0.0463,0.12072 0.31617,0.32955 0.59968,0.46408 0.49132,0.23315 0.53995,0.23013 1.03931,-0.0645 0.59968,-0.35381 0.87689,-0.28498 0.6394,0.15878 -0.15272,0.28538 -0.11679,0.29719 0.85339,0.28043 0.55707,-0.01 1.17989,-0.0149 1.38407,-0.0117 6.88009,0.1081 6.8956,0.1076 6.95617,-0.22633 0.0805,-0.44371 0.26002,-0.54924 0.61305,-0.3603 0.26265,0.14056 0.37517,0.12893 0.58446,-0.0605 0.32772,-0.29659 0.95949,-0.30282 1.20098,-0.0118 0.23872,0.28764 0.72482,0.28469 1.04644,-0.006 0.22857,-0.20686 0.30608,-0.20385 0.79857,0.031 0.51751,0.24677 0.59639,0.24703 1.54039,0.005 0.54722,-0.14024 1.2142,-0.25443 1.48219,-0.25374 0.29019,10e-4 0.52074,-0.0861 0.57009,-0.21464 0.0456,-0.11874 0.31808,-0.35469 0.60561,-0.52433 0.55901,-0.32982 0.93319,-0.21978 0.93784,0.27582 0.002,0.18878 0.0297,0.19838 0.12767,0.0439 0.0709,-0.11183 0.52033,-0.23361 1.03399,-0.28019 0.74431,-0.0675 0.92499,-0.0397 0.9992,0.1537 0.0745,0.19407 0.14292,0.2043 0.38471,0.0575 0.25333,-0.15385 0.33979,-0.12199 0.62343,0.22972 0.25167,0.31204 0.4584,0.40833 0.8766,0.40833 0.301,0 0.84983,0.147 1.2196,0.32665 0.61743,0.29997 0.7428,0.3121 1.53491,0.14849 1.11793,-0.2309 2.78007,-0.22826 3.1931,0.005 0.65136,0.36796 1.84068,0.59923 3.17409,0.6172 1.27361,0.0172 1.39331,0.0457 1.78997,0.42566 0.29329,0.281 0.58369,0.4081 0.93665,0.40996 0.31922,0.002 0.75728,0.1692 1.165,0.44546 0.35936,0.24352 0.77186,0.44276 0.91666,0.44276 0.14477,0 0.46174,0.16705 0.70438,0.37122 0.24264,0.20416 0.49836,0.37153 0.56823,0.37192 0.0699,0 0.37786,0.23107 0.6844,0.51263 0.30656,0.28155 0.65948,0.56906 0.78428,0.6389 0.12481,0.0698 0.34173,0.35701 0.48205,0.63815 0.20275,0.40623 0.34988,0.51595 0.71668,0.53453 0.25386,0.0129 0.73563,0.16319 1.07061,0.3341 0.41239,0.21038 0.8893,0.31071 1.47688,0.31071 0.77911,0 0.92391,0.0514 1.41655,0.50262 0.30458,0.27899 0.54871,0.64374 0.54871,0.81985 0,0.19041 0.14188,0.3819 0.35484,0.47893 0.37457,0.17067 0.68457,0.69773 0.68457,1.16393 0,0.31298 0.73074,1.25348 0.86761,1.11662 0.0485,-0.0485 0.0903,-0.51569 0.0929,-1.03817 0.003,-0.52248 0.076,-1.02135 0.16324,-1.10861 0.0872,-0.0873 0.56407,-0.23007 1.05969,-0.31737 0.71719,-0.12633 1.07882,-0.11349 1.77176,0.0629 1.64041,0.41761 2.53411,0.4631 3.19988,0.16289 0.60109,-0.27106 0.6035,-0.27088 0.87512,0.0646 0.21585,0.26655 0.33062,0.3052 0.55295,0.18622 0.3049,-0.16318 0.62304,0.0336 0.62304,0.38534 0,0.10617 0.0883,0.19303 0.19628,0.19303 0.36715,0 1.65846,-0.49096 2.01393,-0.7657 0.19475,-0.15053 0.46839,-0.2737 0.60805,-0.2737 0.13966,0 0.37486,-0.13364 0.52269,-0.29698 0.14781,-0.16333 0.37866,-0.29697 0.51301,-0.29697 0.13434,0 0.30775,-0.058 0.38533,-0.12896 0.23024,-0.21049 1.41714,-0.61399 2.3702,-0.80578 1.04544,-0.21037 4.38055,-0.1112 4.69283,0.13955 0.11296,0.0907 0.57638,0.1942 1.02981,0.22999 0.61454,0.0485 0.99939,0.18543 1.51163,0.53786 0.37796,0.26005 0.75868,0.4728 0.84605,0.4728 0.0874,0 0.15885,0.15981 0.15885,0.35512 0,0.25257 0.10456,0.38137 0.3621,0.446 0.2777,0.0697 0.51995,0.41325 1.0394,1.47402 0.37253,0.76072 0.67731,1.48808 0.67731,1.61636 0,0.12827 0.12425,0.38668 0.27612,0.57423 0.26289,0.32465 0.36437,0.34007 2.11594,0.32142 1.28986,-0.0137 2.00482,-0.0886 2.39187,-0.25031 0.30363,-0.1269 0.65016,-0.23073 0.77009,-0.23073 0.37239,0 3.0663,-0.71573 4.46689,-1.18679 0.73396,-0.24685 1.88576,-0.54504 2.55956,-0.66266 0.6738,-0.1176 1.5351,-0.35096 1.91401,-0.51857 0.40402,-0.17872 1.00519,-0.30474 1.45371,-0.30474 0.58105,0 0.82588,-0.0713 1.01908,-0.29697 0.13984,-0.16333 0.38678,-0.29697 0.54873,-0.29697 0.16194,0 0.58021,-0.12886 0.92948,-0.28636 0.34929,-0.1575 1.03596,-0.38335 1.52597,-0.5019 0.49001,-0.11855 1.69724,-0.55353 2.68273,-0.96663 1.87581,-0.78629 3.81233,-1.36265 4.58396,-1.36431 0.25004,-0.001 0.65507,-0.13374 0.90007,-0.29599 0.245,-0.16226 0.68702,-0.29547 0.98226,-0.296 0.29553,0 0.69597,-0.1249 0.89092,-0.27669 0.66387,-0.51685 1.80981,-0.93535 2.30755,-0.84271 0.27519,0.0512 0.73479,-0.011 1.11365,-0.1508 0.3548,-0.13091 0.94578,-0.30724 1.31328,-0.39185 0.36751,-0.0846 0.771,-0.24419 0.89667,-0.35464 0.45665,-0.40139 6.40403,-2.04017 7.2787,-2.00562 0.29057,0.0115 0.75831,-0.0739 1.03941,-0.18973 0.2811,-0.11583 0.8786,-0.25911 1.32776,-0.3184 0.44918,-0.0593 0.93649,-0.17083 1.08294,-0.24785 0.14643,-0.077 0.71439,-0.23244 1.26213,-0.34537 1.28777,-0.26551 2.75201,-0.62731 3.59441,-0.88813 0.3675,-0.1138 0.96887,-0.25125 1.33637,-0.30547 0.36751,-0.0542 1.30297,-0.26642 2.07881,-0.47155 0.77585,-0.20512 1.81154,-0.44083 2.30155,-0.52376 0.49,-0.0829 1.12478,-0.25437 1.41062,-0.38095 0.28583,-0.12658 0.8872,-0.25983 1.33638,-0.2961 0.44917,-0.0363 0.89297,-0.12679 0.98622,-0.20113 0.0932,-0.0743 0.73671,-0.19961 1.42996,-0.27839 0.69322,-0.0788 1.45216,-0.24322 1.68653,-0.36545 0.23438,-0.12224 0.59108,-0.22266 0.79268,-0.22316 0.20162,0 1.17049,-0.22818 2.15306,-0.50596 2.10309,-0.59455 3.52763,-0.95272 4.75624,-1.19586 0.49,-0.097 1.07901,-0.25508 1.30891,-0.35136 0.22991,-0.0963 0.49718,-0.17796 0.59396,-0.18155 0.0968,-0.004 0.44321,-0.10415 0.76989,-0.2235 0.32666,-0.11934 1.0565,-0.28485 1.62187,-0.3678 0.56536,-0.0829 1.09991,-0.20852 1.18789,-0.27906 0.088,-0.0705 0.46065,-0.19884 0.82815,-0.28512 0.36751,-0.0863 1.3499,-0.35487 2.18309,-0.59684 0.83319,-0.24198 1.785,-0.4856 2.11514,-0.54137 0.33017,-0.0558 0.63798,-0.16243 0.68406,-0.23698 0.0461,-0.0746 0.36383,-0.1385 0.70609,-0.14208 0.34228,-0.004 0.88958,-0.10987 1.21625,-0.23616 0.32668,-0.12631 0.99487,-0.31491 1.48487,-0.41912 0.49001,-0.10421 1.05797,-0.26765 1.26213,-0.3632 0.20417,-0.0956 1.30668,-0.39892 2.45003,-0.67415 1.14335,-0.27523 2.56241,-0.64029 3.15346,-0.81126 0.59107,-0.17097 1.20903,-0.31084 1.3733,-0.31084 0.45411,0 4.67367,-1.00104 6.60974,-1.56808 1.22288,-0.35816 4.6542,-1.10262 6.16219,-1.33695 2.12853,-0.33077 5.32627,-0.95259 6.1622,-1.19827 0.40833,-0.12002 1.27698,-0.28378 1.93032,-0.36392 0.65335,-0.0801 1.522,-0.23706 1.93033,-0.34873 1.00776,-0.27558 3.752,-0.79612 5.52391,-1.04781 0.80022,-0.11367 2.1347,-0.30371 2.9655,-0.42233 0.8308,-0.11861 1.58116,-0.2593 1.66746,-0.31263 0.0863,-0.0533 0.90062,-0.19469 1.80958,-0.31412 0.90897,-0.11942 1.70412,-0.24894 1.76702,-0.28781 0.0629,-0.0389 0.84068,-0.17982 1.72843,-0.31321 2.40983,-0.36211 3.03225,-0.46576 3.76712,-0.62733 0.3675,-0.0808 1.73729,-0.25544 3.04397,-0.3881 1.30669,-0.13266 3.07739,-0.34998 3.9349,-0.48297 0.85751,-0.13298 2.12707,-0.29244 2.82124,-0.35438 1.41586,-0.12631 3.60391,-0.36405 5.494,-0.59696 2.54057,-0.31305 8.80945,-0.60102 10.26244,-0.47141 0.59176,0.0528 0.93631,0.01 1.18789,-0.14866 0.25001,-0.15735 0.93407,-0.24465 2.32294,-0.29644 1.08272,-0.0404 2.05159,-0.13846 2.15306,-0.21798 0.10145,-0.0795 1.22017,-0.14604 2.48602,-0.14786 1.26584,-0.002 3.237,-0.0949 4.38035,-0.20678 1.14335,-0.11191 2.61337,-0.18022 3.2667,-0.15179 1.44147,0.0627 4.51598,0.0844 7.12736,0.0502 1.06169,-0.0139 2.32942,0.0467 2.81718,0.13455 0.48866,0.088 1.38872,0.11761 2.00457,0.0658 2.39082,-0.20104 7.43811,0.55769 10.1361,1.5237 1.67628,0.60019 1.93103,0.7373 2.24323,1.20739 0.19372,0.29166 0.71254,0.79508 1.15296,1.11869 0.87891,0.64585 1.7058,1.64468 1.85557,2.24148 0.0866,0.34499 -0.0194,0.29493 -1.07332,-0.5072 -0.7854,-0.59774 -1.62375,-1.06834 -2.553,-1.43308 -0.76098,-0.2987 -1.76326,-0.76811 -2.2273,-1.04313 -0.50456,-0.29905 -1.20184,-0.5595 -1.73462,-0.64793 -0.49001,-0.0813 -1.62212,-0.28507 -2.5158,-0.45275 -1.83244,-0.34384 -2.8509,-0.38037 -3.89492,-0.13968 -0.56197,0.12955 -1.29346,0.10902 -3.3894,-0.0951 -3.39105,-0.33028 -16.00447,-0.4905 -17.74415,-0.22538 -0.61251,0.0933 -1.88207,0.23131 -2.82125,0.30661 -1.65099,0.13237 -13.45517,0.6813 -16.63103,0.77341 -1.27341,0.0369 -1.65491,0.10294 -2.07881,0.35974 -0.46572,0.28212 -0.80968,0.32252 -3.34042,0.39234 -2.39011,0.0659 -3.04764,0.13664 -4.3027,0.46265 -0.81482,0.21164 -1.85226,0.38481 -2.30544,0.38481 -1.20363,0 -3.18262,0.27277 -4.3737,0.60283 -0.70873,0.19639 -1.51104,0.28809 -2.52088,0.28809 -1.23052,0 -1.70863,0.0733 -2.82423,0.43309 -1.50631,0.48576 -3.05891,0.73629 -5.57483,0.8995 -1.57744,0.10234 -2.94075,0.42592 -3.91573,0.9294 -0.1528,0.0789 -0.9846,0.20483 -1.84845,0.27985 -1.05122,0.0913 -1.72273,0.22611 -2.03056,0.40774 -0.29485,0.17397 -0.93237,0.30971 -1.77625,0.37817 -0.75112,0.061 -1.64078,0.23835 -2.07197,0.41316 -0.54781,0.22208 -1.26621,0.33445 -2.61175,0.4085 -2.06562,0.11369 -3.07559,0.43311 -3.67367,1.16189 -0.33173,0.4042 -0.33792,0.40529 -2.02368,0.35879 -1.7919,-0.0494 -2.36507,0.0806 -3.17987,0.72156 -0.33686,0.26497 -0.5192,0.29732 -1.21841,0.21617 -0.73181,-0.0849 -0.91762,-0.0453 -1.68907,0.36054 -0.47674,0.25079 -1.03147,0.45596 -1.23272,0.45596 -0.20124,0 -0.50953,0.0769 -0.68508,0.17084 -0.17556,0.0939 -1.08994,0.22294 -2.03194,0.28664 -1.84619,0.12484 -3.71418,0.64927 -5.00305,1.4046 -0.35968,0.21078 -1.03605,0.44507 -1.50307,0.52066 -0.467,0.0756 -1.36245,0.33544 -1.98989,0.57746 -0.87881,0.33898 -1.4926,0.46214 -2.67276,0.53632 -1.23598,0.0777 -1.71203,0.17838 -2.46384,0.52118 -0.51254,0.23368 -1.18073,0.4685 -1.48487,0.52181 -0.68385,0.11985 -1.18383,0.4114 -1.66665,0.97187 -0.30328,0.35206 -0.58417,0.47141 -1.53505,0.65223 -0.64011,0.12173 -1.38504,0.22133 -1.65539,0.22133 -0.27036,0 -0.85011,0.1886 -1.28832,0.41912 -0.6844,0.36001 -1.0809,0.443 -2.81107,0.58838 -1.38992,0.1168 -2.23385,0.26339 -2.72268,0.47293 -0.42924,0.18399 -1.30228,0.35722 -2.21545,0.4396 -1.608,0.14505 -3.74607,0.69931 -4.5693,1.18453 -0.75075,0.44249 -2.13876,0.75608 -3.34657,0.75608 -1.70341,0 -3.30876,0.40508 -5.24738,1.32407 -0.62761,0.29753 -1.19884,0.45839 -1.63334,0.45997 -0.89787,0.003 -2.68795,0.45221 -4.15764,1.0427 -1.60263,0.64392 -2.3369,0.87354 -3.27779,1.02504 -1.01849,0.164 -2.76626,0.68668 -4.22078,1.26224 -0.63536,0.25143 -1.35246,0.38312 -2.49987,0.45912 -1.48669,0.0985 -1.66411,0.14368 -2.33479,0.59501 -0.39921,0.26866 -0.94473,0.53527 -1.21229,0.59249 -0.26756,0.0572 -0.55328,0.15744 -0.63494,0.22271 -0.0817,0.0653 -0.61622,0.29337 -1.1879,0.50689 -0.57167,0.21352 -1.60736,0.64734 -2.30154,0.96405 -0.69418,0.31671 -1.49601,0.67649 -1.78184,0.79953 -0.28584,0.12302 -0.88721,0.38818 -1.33637,0.58924 -0.44918,0.20106 -1.06874,0.41059 -1.37682,0.46564 -0.30808,0.055 -0.97627,0.31392 -1.48486,0.5753 -0.50861,0.26137 -1.19201,0.5654 -1.51869,0.6756 -0.32666,0.11021 -1.01009,0.39904 -1.51871,0.64185 -0.50864,0.24282 -0.99111,0.40049 -1.07218,0.35038 -0.0811,-0.0501 -0.34648,0.0119 -0.58984,0.13771 -0.24334,0.12584 -0.63719,0.2288 -0.87525,0.2288 -0.23804,0 -0.59582,0.12823 -0.79507,0.28496 -0.19924,0.15672 -0.95997,0.47865 -1.69049,0.7154 -1.08889,0.35289 -1.33682,0.48895 -1.37577,0.75511 -0.097,0.66274 0.44352,0.57969 3.23998,-0.49772 1.18355,-0.45599 1.59141,-0.54278 3.74247,-0.79634 0.50859,-0.0599 0.98315,-0.21655 1.18788,-0.39198 0.49183,-0.42146 0.96294,-0.66338 1.29188,-0.66338 0.2602,0 1.25787,-0.42852 2.25561,-0.96882 0.21192,-0.11476 0.88011,-0.28726 1.48486,-0.38334 0.77742,-0.12351 1.35686,-0.32829 1.97777,-0.69898 0.58869,-0.35146 1.22508,-0.5837 1.93033,-0.70446 1.18159,-0.20234 2.15087,-0.47565 3.35366,-0.94563 0.44916,-0.17552 1.21758,-0.41006 1.70759,-0.52123 0.49,-0.11115 1.82638,-0.41324 2.96973,-0.67129 1.14335,-0.25807 2.21246,-0.52887 2.37579,-0.60181 0.16333,-0.0729 0.63107,-0.16333 1.03941,-0.20088 1.33647,-0.1229 3.23815,-0.5476 4.82581,-1.07775 1.60019,-0.53433 3.74989,-1.04045 6.23644,-1.46827 0.96568,-0.16616 1.65631,-0.38315 2.18956,-0.68799 0.73729,-0.42149 0.90401,-0.45199 3.11821,-0.57058 1.44842,-0.0776 2.76341,-0.23528 3.45294,-0.41408 1.51925,-0.39396 1.89318,-0.46213 3.86065,-0.70384 0.93918,-0.11538 2.7767,-0.34234 4.08338,-0.50437 1.30668,-0.16202 2.64306,-0.32524 2.96974,-0.36271 3.08385,-0.35369 4.66757,-0.57951 5.86521,-0.83632 2.2059,-0.47302 4.28692,-0.66148 7.42434,-0.67232 3.56297,-0.0123 9.16911,-0.30439 11.35922,-0.59176 4.22284,-0.55411 5.29349,-0.58842 13.73501,-0.44011 4.3474,0.0764 6.9994,0.0546 9.0049,-0.0741 3.6311,-0.23293 22.82793,-0.25554 26.03794,-0.0307 1.26586,0.0887 3.37065,0.23503 4.67733,0.32522 1.30668,0.0902 2.60965,0.19593 2.89549,0.23494 0.91465,0.12484 3.45873,0.2049 11.23727,0.35361 6.66138,0.12737 7.76102,0.18129 8.9092,0.43689 0.72042,0.16036 2.11165,0.33944 3.09164,0.39793 1.3983,0.0835 1.9416,0.18076 2.52427,0.45211 0.60939,0.28378 0.99088,0.34602 2.12822,0.34721 1.21333,10e-4 1.51199,0.0569 2.40067,0.44691 0.55822,0.245 1.18314,0.44546 1.38872,0.44546 0.59581,0 1.03773,0.22626 1.71748,0.87937 0.34909,0.3354 0.94,0.78873 1.31316,1.00742 0.66484,0.38962 1.96556,1.57735 1.96556,1.79481 0,0.0606 0.1612,0.34734 0.35823,0.63729 0.19702,0.28993 0.43271,0.80377 0.52374,1.14184 0.091,0.33807 0.21776,0.64697 0.28162,0.68643 0.18659,0.11532 0.10168,4.3271 -0.12172,6.03771 -0.18418,1.4103 -0.17964,1.67175 0.0452,2.59851 0.13753,0.56674 0.24987,1.16462 0.24965,1.32863 0,0.32964 0.7264,2.46049 1.03653,3.03884 0.10833,0.202 0.51322,0.70315 0.89978,1.11365 0.9887,1.04994 1.97945,2.54865 2.51174,3.79954 0.50538,1.18763 1.80263,3.407 2.1693,3.71131 0.13028,0.10813 0.42581,0.57088 0.65673,1.02832 0.42697,0.84582 1.45377,2.00343 1.90551,2.14828 0.1369,0.0439 0.41597,0.39623 0.62014,0.78298 0.20417,0.38676 0.60509,0.85928 0.89091,1.05005 0.28585,0.19078 0.61066,0.52627 0.72183,0.74553 0.11117,0.21927 0.51834,0.73277 0.90484,1.1411 0.38648,0.40835 0.8876,1.06766 1.11358,1.46514 0.44037,0.77458 1.61174,2.23065 2.76327,3.43492 0.46118,0.4823 1.04227,1.39455 1.65841,2.60355 0.52168,1.02361 1.10461,2.07227 1.29542,2.33033 0.26832,0.36295 0.36321,0.72334 0.41891,1.59121 0.047,0.7326 0.0177,1.12198 -0.0844,1.12198 -0.3282,0 -1.27566,-1.32818 -2.11848,-2.96974 -0.65423,-1.27424 -1.10215,-1.9337 -1.76499,-2.59851 -0.48855,-0.49001 -0.89073,-0.97445 -0.89373,-1.07653 -0.003,-0.10208 -0.0668,-0.1856 -0.14183,-0.1856 -0.075,0 -0.29036,-0.25058 -0.47857,-0.55683 -0.564,-0.91778 -2.59187,-3.37891 -3.00961,-3.65263 -0.21405,-0.14026 -0.74503,-0.80658 -1.1799,-1.48069 -0.67824,-1.05137 -1.34226,-1.82609 -3.50918,-4.09431 -0.46548,-0.48724 -1.04103,-1.32048 -1.04103,-1.50713 0,-0.078 -0.0702,-0.14189 -0.15606,-0.14189 -0.0858,0 -0.25378,-0.23386 -0.3732,-0.5197 -0.11944,-0.28583 -0.28229,-0.5197 -0.3619,-0.5197 -0.0796,0 -0.18748,-0.26728 -0.23971,-0.59395 -0.0522,-0.32667 -0.14872,-0.59394 -0.21438,-0.59394 -0.2393,0 -0.78134,-0.9415 -0.89631,-1.5568 -0.0744,-0.39806 -0.28623,-0.79966 -0.57333,-1.08676 -0.25047,-0.25046 -0.49516,-0.65426 -0.54377,-0.89734 -0.0521,-0.26038 -0.20384,-0.47213 -0.36944,-0.51543 -0.16283,-0.0426 -0.28104,-0.20425 -0.28104,-0.38437 0,-0.17098 -0.0886,-0.31088 -0.19685,-0.31088 -0.28564,0 -0.80447,-0.60343 -0.92036,-1.07044 -0.0549,-0.22123 -0.19349,-0.47998 -0.30797,-0.575 -0.11451,-0.095 -0.20817,-0.32345 -0.20817,-0.50761 0,-0.18418 -0.1072,-0.42381 -0.23821,-0.53255 -0.13101,-0.10872 -0.30092,-0.33406 -0.37758,-0.50075 -0.0767,-0.1667 -0.23577,-0.47013 -0.35356,-0.67429 -0.11779,-0.20418 -0.21516,-0.6853 -0.21636,-1.06916 -0.002,-0.50871 -0.0726,-0.73738 -0.26203,-0.84344 -0.23095,-0.1293 -0.25982,-0.41508 -0.25948,-2.56876 0,-2.02583 0.0429,-2.50121 0.25985,-2.89849 0.35619,-0.65229 0.38615,-4.12174 0.0367,-4.25581 -0.1225,-0.047 -0.22273,-0.21098 -0.22273,-0.36439 0,-0.15339 -0.1266,-0.42487 -0.28132,-0.60328 -0.15474,-0.1784 -0.32358,-0.53942 -0.37525,-0.80227 -0.0632,-0.32165 -0.2696,-0.59928 -0.63126,-0.84912 -0.667,-0.46079 -1.68191,-1.42855 -1.68191,-1.60379 0,-0.0718 -0.28398,-0.22001 -0.63106,-0.32938 -0.34709,-0.10937 -0.87898,-0.32053 -1.18198,-0.46923 -0.303,-0.1487 -0.70574,-0.27036 -0.89501,-0.27036 -0.18924,0 -0.48371,-0.0978 -0.65437,-0.21734 -0.22625,-0.15846 -0.96919,-0.24227 -2.74292,-0.30945 -1.39776,-0.0529 -2.65371,-0.17437 -2.95234,-0.28546 -0.32179,-0.1197 -1.70717,-0.23484 -3.63792,-0.30235 -1.91763,-0.0671 -3.31832,-0.18307 -3.63792,-0.3013 -0.34697,-0.12836 -1.75348,-0.22 -4.23187,-0.27575 -2.44738,-0.055 -4.06631,-0.15963 -4.75157,-0.30699 -0.80762,-0.17366 -2.18179,-0.2251 -6.16219,-0.23066 -2.90271,-0.004 -5.60542,-0.0778 -6.23644,-0.1702 -0.61251,-0.0897 -1.51456,-0.18824 -2.00457,-0.21905 -1.59964,-0.10062 -19.12888,-0.31607 -20.11994,-0.2473 -0.53084,0.0368 -1.44459,-0.027 -2.03058,-0.14194 -0.59842,-0.11734 -1.16114,-0.15534 -1.28379,-0.0867 -0.12009,0.0672 -4.15095,0.15996 -8.95742,0.20612 -12.22308,0.11739 -13.30296,0.14304 -13.63949,0.32389 -0.17479,0.0939 -1.88867,0.20164 -4.15763,0.26129 -2.12315,0.0558 -4.08787,0.16003 -4.36601,0.23159 -0.27816,0.0716 -0.60581,0.0741 -0.72813,0.006 -0.13893,-0.0777 -0.46269,-0.0182 -0.86257,0.15871 -0.53455,0.23646 -0.99819,0.28317 -2.81072,0.28317 -1.7123,0 -2.24489,0.0487 -2.52254,0.23061 -0.27024,0.17707 -0.96542,0.25035 -2.99454,0.31567 -1.91167,0.0615 -2.68366,0.13852 -2.79108,0.27835 -0.10421,0.13564 -0.83485,0.22314 -2.45002,0.29339 -1.26586,0.0551 -2.40886,0.15525 -2.54004,0.22262 -0.13116,0.0674 -0.86617,0.19766 -1.63334,0.28952 -0.76717,0.0918 -1.6468,0.26168 -1.9547,0.37742 -0.32379,0.12171 -1.09675,0.21044 -1.83323,0.21044 -0.70038,0 -1.61777,0.098 -2.03869,0.21778 -0.4209,0.11979 -1.4416,0.28522 -2.26822,0.36764 -0.82661,0.0824 -1.66185,0.20896 -1.85609,0.28117 -0.19422,0.0722 -0.76608,0.17684 -1.27079,0.2325 -0.50472,0.0557 -1.10609,0.1917 -1.33638,0.3023 -0.2303,0.11061 -0.81964,0.24823 -1.30965,0.3058 -0.49,0.0576 -1.01973,0.17345 -1.17716,0.2575 -0.15742,0.0841 -0.78237,0.20845 -1.38878,0.27645 -0.6064,0.068 -1.18781,0.19441 -1.29203,0.2809 -0.1042,0.0865 -0.74879,0.19933 -1.43244,0.25078 -0.76252,0.0574 -1.44305,0.19962 -1.7605,0.36796 -0.28463,0.15092 -0.77143,0.2744 -1.08176,0.2744 -0.31034,0 -0.71445,0.0984 -0.89802,0.2187 -0.18358,0.12029 -0.83185,0.265 -1.4406,0.32158 -0.60875,0.0566 -1.19018,0.18622 -1.29208,0.28811 -0.10188,0.10189 -0.68561,0.23214 -1.29715,0.28945 -0.62814,0.0589 -1.18355,0.19051 -1.27656,0.30258 -0.0906,0.10911 -0.47657,0.24488 -0.85782,0.3017 -0.38125,0.0568 -0.83615,0.19659 -1.01091,0.31061 -0.17476,0.11401 -0.64249,0.26546 -1.03941,0.33653 -0.3969,0.0711 -1.12281,0.20066 -1.6131,0.28797 -0.4903,0.0873 -1.15591,0.29356 -1.47915,0.45834 -0.32322,0.1648 -0.74297,0.29963 -0.93273,0.29963 -0.18978,0 -0.50975,0.10792 -0.71108,0.23984 -0.20576,0.1348 -0.80488,0.2699 -1.36827,0.30851 -0.55124,0.0378 -1.31532,0.19713 -1.69797,0.35411 -0.38264,0.15699 -0.82549,0.28544 -0.9841,0.28544 -0.15861,0 -0.36439,0.0916 -0.45727,0.20347 -0.0929,0.11191 -0.44033,0.23988 -0.77212,0.28438 -0.33182,0.0445 -0.72028,0.18682 -0.86331,0.31623 -0.143,0.12942 -0.4552,0.23573 -0.69377,0.23623 -0.23857,0 -0.62594,0.10114 -0.86082,0.22363 -0.23487,0.12251 -0.79123,0.26552 -1.23633,0.31784 -0.44511,0.0523 -1.05218,0.21895 -1.34906,0.37031 -0.29688,0.15137 -0.61177,0.27521 -0.69973,0.27521 -0.088,0 -0.42206,0.13363 -0.74243,0.29696 -0.32038,0.16334 -0.72264,0.29698 -0.89394,0.29698 -0.17129,0 -0.44114,0.0981 -0.59968,0.21802 -0.15851,0.11989 -0.48967,0.22012 -0.73587,0.22273 -0.24623,0.003 -0.68056,0.12856 -0.96517,0.27992 -0.28464,0.15137 -0.78168,0.324 -1.10455,0.38362 -0.32287,0.0596 -0.84491,0.23995 -1.16007,0.40074 -0.31516,0.16078 -0.71917,0.27213 -0.89782,0.24745 -0.26247,-0.0363 -0.31757,0.0218 -0.2871,0.30237 0.0351,0.32339 0,0.34075 -0.52181,0.25271 -0.55645,-0.094 -1.71574,0.28219 -2.2629,0.73434 -0.1225,0.10122 -0.43779,0.22454 -0.70066,0.27403 -0.26288,0.0495 -0.61368,0.22571 -0.77955,0.3916 -0.16589,0.16589 -0.4089,0.30162 -0.54003,0.30162 -0.13113,0 -0.4375,0.16751 -0.68082,0.37225 -0.24334,0.20474 -0.7333,0.44551 -1.08883,0.53503 -0.35552,0.0895 -0.76111,0.28951 -0.9013,0.44442 -0.14018,0.1549 -0.38088,0.28164 -0.53486,0.28164 -0.25917,0 -0.95198,0.41502 -1.42531,0.85381 -0.11014,0.10208 -0.32151,0.18561 -0.46973,0.18561 -0.44056,0 -0.46818,0.79774 -0.049,1.41467 0.27389,0.40304 0.42499,0.49991 0.68001,0.43597 0.18033,-0.0452 1.78864,-0.0159 3.57402,0.0652 3.01117,0.13672 3.28284,0.17215 3.75309,0.48928 0.86237,0.58162 1.11634,1.18104 1.40312,3.31163 0.14289,1.06167 0.33123,2.33077 0.41854,2.82022 0.17066,0.95673 0.0809,3.17384 -0.15376,3.79852 -0.0922,0.24546 -0.44666,0.54096 -0.99018,0.82551 -0.67997,0.35598 -0.93786,0.60217 -1.31043,1.25104 -0.72598,1.26432 -1.1261,1.62453 -1.80462,1.62453 -0.3189,0 -0.90783,0.0995 -1.30872,0.22111 -0.40091,0.12162 -1.17177,0.22185 -1.71306,0.22273 -0.54128,0.001 -1.21021,0.0961 -1.48649,0.21151 -0.27629,0.11543 -1.03615,0.29037 -1.68861,0.38875 -0.65245,0.0984 -1.52036,0.23977 -1.9287,0.31419 -0.40835,0.0744 -1.14336,0.1727 -1.63336,0.21836 -0.89357,0.0833 -2.21368,0.52874 -3.52163,1.18835 -0.3852,0.19427 -0.95316,0.35375 -1.26213,0.35441 -0.30896,0.001 -1.33018,0.10378 -2.26935,0.22916 -0.93918,0.12539 -2.24215,0.29498 -2.89549,0.37686 -0.65335,0.0819 -1.44655,0.2174 -1.7627,0.30111 -0.41738,0.11052 -0.69293,0.10328 -1.00607,-0.0264 -0.35256,-0.14604 -0.47801,-0.13909 -0.68733,0.038 -0.32362,0.27387 -1.47562,0.60875 -1.67345,0.48649 -0.082,-0.0507 -0.5232,-0.12258 -0.98038,-0.15974 -0.45717,-0.0372 -0.97151,-0.16582 -1.14297,-0.28591 -0.86014,-0.60248 -4.80466,0.20335 -4.84404,0.98957 -0.0123,0.24713 0.88239,0.62238 1.90572,0.79923 0.62344,0.10774 1.56786,0.27163 2.0987,0.3642 1.02422,0.17862 2.00589,0.72862 2.15845,1.20932 0.0489,0.15398 0.2055,0.27997 0.34805,0.27997 0.41557,0 1.35415,1.18411 1.35415,1.7084 0,0.16584 0.0963,0.20341 0.35502,0.13847 0.42648,-0.10704 0.63551,0.15574 0.37428,0.47051 -0.16138,0.19443 -0.13493,0.21244 0.19154,0.13051 0.33985,-0.0853 0.37161,-0.0577 0.30918,0.26884 -0.0727,0.38025 0.57446,1.58938 0.85065,1.58938 0.0806,0 0.14663,0.0979 0.14663,0.21751 0,0.11963 0.13364,0.28903 0.29698,0.37644 0.16333,0.0874 0.29696,0.24073 0.29696,0.34072 0,0.1 0.13364,0.26525 0.29698,0.36725 0.16334,0.10201 0.29698,0.31481 0.29698,0.47292 0,0.15809 0.23355,0.54173 0.51898,0.85253 0.28545,0.31081 0.51932,0.67823 0.51971,0.81653 0,0.13828 0.11948,0.33874 0.26466,0.44546 0.4634,0.34062 0.92395,1.03944 0.92395,1.40195 0,0.20582 0.088,0.35118 0.21271,0.35118 0.11699,0 0.25952,0.15034 0.31668,0.33409 0.0572,0.18375 0.32896,0.58487 0.60396,0.89136 0.27499,0.30648 0.49999,0.65129 0.49999,0.76622 0,0.11493 0.26728,0.54709 0.59396,0.96037 0.32666,0.41326 0.59394,0.90434 0.59394,1.09125 0,0.18693 0.13364,0.42333 0.29698,0.52533 0.16499,0.10305 0.29696,0.34629 0.29696,0.54733 0,0.24453 0.12833,0.42465 0.39584,0.55555 0.40108,0.19629 1.20955,1.468 1.22764,1.93106 0.005,0.13886 0.10627,0.30642 0.22409,0.37235 0.1178,0.0659 0.27523,0.28488 0.34984,0.48657 0.0918,0.24826 0.25047,0.3678 0.49111,0.37009 0.28148,0.003 0.34591,0.0722 0.3096,0.33394 -0.0294,0.21163 0.11152,0.48439 0.39154,0.75812 0.24056,0.23516 0.48669,0.58755 0.54696,0.78308 0.0603,0.19555 0.32739,0.5378 0.59361,0.76056 0.30911,0.25864 0.51998,0.5967 0.58354,0.93546 0.0844,0.44983 0.14571,0.5158 0.40341,0.43402 0.27419,-0.087 0.29401,-0.0515 0.20281,0.36378 -0.0582,0.26476 -0.0407,0.46024 0.0412,0.46024 0.0783,0 0.23105,0.2143 0.33953,0.47621 0.10848,0.26192 0.30034,0.58808 0.42635,0.7248 0.50118,0.54384 0.76613,0.97545 0.92569,1.50797 0.0919,0.30675 0.22332,0.55772 0.29207,0.55772 0.0687,0 0.12498,0.0963 0.12498,0.21398 0,0.31329 0.27748,0.43252 0.52622,0.22608 0.17984,-0.14926 0.21622,-0.11472 0.21622,0.2053 0,0.25696 0.0649,0.35984 0.1953,0.30978 0.10741,-0.0412 0.35689,-0.0152 0.55439,0.0579 l 0.35908,0.13284 -0.33165,0.10526 c -0.49241,0.15628 -0.40643,0.33525 0.31422,0.65403 0.39465,0.17457 0.83239,0.53826 1.12537,0.93498 0.26371,0.35712 0.67816,0.81634 0.92095,1.02051 0.86512,0.72742 1.48581,1.39374 1.72901,1.85608 0.23763,0.45171 1.48813,1.70747 1.70137,1.7085 0.10345,0 0.55023,0.3346 0.99284,0.74243 0.48939,0.45095 0.94145,0.74153 1.15361,0.74153 0.29518,0 0.33494,0.0554 0.25838,0.36049 -0.0741,0.29529 -0.009,0.40267 0.36101,0.59394 0.24832,0.12839 0.55713,0.23346 0.68625,0.23346 0.12912,0 0.27214,0.11694 0.31781,0.25985 0.17631,0.55166 0.41044,0.92805 0.5773,0.92805 0.0957,0 0.49233,0.30069 0.8814,0.66819 0.38906,0.3675 0.80061,0.66819 0.91454,0.66819 0.11393,0 0.20716,0.10023 0.20716,0.22273 0,0.1225 0.10647,0.22273 0.23663,0.22273 0.13014,0 0.26777,0.11908 0.30583,0.26465 0.0381,0.14555 0.28237,0.35472 0.54292,0.46479 1.82432,0.77073 1.89911,0.81872 1.81329,1.16376 -0.0656,0.26359 -0.0198,0.3341 0.21671,0.3341 0.1951,0 0.2998,0.0981 0.2998,0.28087 0,0.34745 0.67642,0.55272 0.98295,0.29832 0.11667,-0.0968 0.25349,-0.1347 0.30403,-0.0841 0.0505,0.0506 -0.0179,0.13404 -0.15208,0.18553 -0.34521,0.13247 -0.30269,0.46866 0.0744,0.58836 0.17513,0.0556 0.50696,0.29395 0.73743,0.5297 0.23045,0.23575 0.51113,0.42866 0.62374,0.42866 0.11259,0 0.32411,0.13192 0.47004,0.29318 0.14594,0.16124 0.39015,0.3328 0.54272,0.38122 0.15256,0.0484 0.27739,0.18378 0.27739,0.30077 0,0.11698 0.12803,0.21271 0.28451,0.21271 0.15649,0 0.57116,0.26728 0.92148,0.59396 0.35032,0.32666 0.75291,0.59394 0.89461,0.59394 0.14171,0 0.30318,0.0736 0.35879,0.16363 0.0556,0.09 0.32684,0.25795 0.60271,0.37323 0.27586,0.11525 0.50158,0.27017 0.50158,0.34426 0,0.0741 0.20045,0.17872 0.44546,0.23253 0.245,0.0538 0.44546,0.18019 0.44546,0.28085 0,0.18193 0.77198,0.82978 0.99627,0.8361 0.0645,0.002 0.28442,0.13398 0.48859,0.29368 0.20417,0.15969 0.47145,0.29226 0.59395,0.29458 0.1225,0.002 0.41411,0.10402 0.64803,0.22604 0.23394,0.122 0.68872,0.2218 1.01066,0.2218 0.46999,0 0.67149,0.0943 1.02245,0.47856 0.24039,0.2632 0.43708,0.52288 0.43708,0.57708 0,0.0542 0.30422,0.14416 0.67605,0.19992 0.77693,0.1165 1.11633,0.56856 0.85933,1.14453 -0.11569,0.25926 -0.27574,0.32613 -0.80282,0.33537 -0.57253,0.0101 -0.66472,0.0567 -0.70738,0.35789 -0.027,0.19048 0.071,0.47904 0.21782,0.64121 0.24238,0.26784 0.24645,0.33122 0.0445,0.69111 -0.35078,0.62494 -0.86411,0.72643 -1.49812,0.2962 -0.29289,-0.19877 -0.74861,-0.60749 -1.01271,-0.90829 -0.26408,-0.30077 -0.54006,-0.54687 -0.61326,-0.54687 -0.0732,0 -0.26674,-0.13363 -0.43008,-0.29697 -0.1831,-0.1831 -0.5105,-0.30265 -0.85379,-0.31178 -0.88239,-0.0234 -1.29459,-0.18789 -1.3452,-0.53666 -0.0284,-0.19576 -0.21426,-0.37523 -0.48701,-0.47031 -0.24259,-0.0846 -0.54408,-0.25677 -0.66997,-0.38267 -0.1259,-0.1259 -0.44612,-0.2289 -0.71157,-0.2289 -0.30545,0 -0.69679,-0.16204 -1.06592,-0.44134 -0.3208,-0.24273 -0.66167,-0.44319 -0.75749,-0.44546 -0.0958,-0.002 -0.3631,-0.15707 -0.59395,-0.344 -0.23085,-0.18692 -0.58678,-0.42032 -0.79094,-0.51864 -0.20417,-0.0983 -0.47144,-0.24206 -0.59395,-0.31946 -0.1225,-0.0774 -0.39331,-0.17608 -0.6018,-0.21929 -0.20849,-0.0432 -0.57599,-0.27921 -0.81667,-0.52443 -0.24068,-0.24522 -0.55076,-0.44769 -0.68904,-0.44997 -0.13829,-0.002 -0.33875,-0.12209 -0.44546,-0.26626 -0.10672,-0.14418 -0.36108,-0.34415 -0.56524,-0.44438 -0.43308,-0.21262 -0.74448,-0.39962 -1.55911,-0.93627 -0.78078,-0.51436 -2.12372,-1.17846 -2.38304,-1.17846 -0.11308,0 -0.43698,-0.21716 -0.7198,-0.48258 -1.21469,-1.13996 -1.44638,-1.32292 -1.9326,-1.52609 -0.28204,-0.11783 -0.6941,-0.38228 -0.91571,-0.58765 -0.22159,-0.20539 -0.48302,-0.37342 -0.58093,-0.37342 -0.0979,0 -0.29898,-0.13363 -0.4468,-0.29696 -0.14781,-0.16334 -0.35531,-0.29698 -0.46109,-0.29698 -0.10579,0 -0.24577,-0.0839 -0.31108,-0.18642 -0.13765,-0.21611 -1.04146,-0.55601 -1.47844,-0.55601 -0.2787,0 -1.38731,-1.06471 -1.38731,-1.33239 0,-0.0661 -0.16328,-0.16126 -0.36285,-0.21136 -0.19957,-0.0501 -0.58378,-0.29502 -0.8538,-0.54431 -0.27001,-0.24929 -0.68433,-0.59977 -0.92071,-0.77883 -0.23637,-0.17906 -0.7041,-0.56192 -1.03941,-0.85079 -0.33529,-0.28886 -0.89362,-0.70741 -1.2407,-0.93014 -0.34709,-0.22272 -0.63107,-0.46631 -0.63107,-0.54131 0,-0.075 -0.14054,-0.18098 -0.31228,-0.23548 -0.47266,-0.15002 -1.16001,-0.66316 -2.04434,-1.52617 -0.43865,-0.42807 -1.1517,-0.99371 -1.58459,-1.257 -1.77547,-1.07982 -2.22687,-1.41092 -3.11914,-2.28773 -0.51385,-0.50496 -1.15677,-1.03213 -1.42869,-1.17149 -0.27192,-0.13935 -0.52782,-0.30086 -0.56864,-0.35891 -0.17066,-0.24257 -0.76005,-0.44698 -1.28951,-0.4472 -0.31161,0 -0.80045,-0.11706 -1.08629,-0.25985 -0.45138,-0.22549 -0.51969,-0.33076 -0.51969,-0.80078 0,-0.29763 -0.10312,-0.66513 -0.22914,-0.81668 -0.12603,-0.15153 -0.3251,-0.47597 -0.44242,-0.72097 -0.11731,-0.245 -0.56873,-0.83701 -1.00314,-1.31557 -0.43442,-0.47855 -0.89452,-1.02981 -1.02241,-1.22501 -0.1279,-0.1952 -0.36226,-0.35491 -0.52081,-0.35491 -0.31982,0 -0.95426,-0.63702 -1.54661,-1.55288 -0.21348,-0.33011 -0.75644,-0.90086 -1.20655,-1.26836 -0.45013,-0.36751 -0.94722,-0.80183 -1.10464,-0.96517 -0.15743,-0.16334 -0.72085,-0.74974 -1.25207,-1.3031 -0.5312,-0.55339 -1.22344,-1.19276 -1.5383,-1.42084 -0.31488,-0.22809 -0.99474,-0.89454 -1.51081,-1.48102 -0.5161,-0.58646 -1.02104,-1.06631 -1.12213,-1.06631 -0.10107,0 -0.5655,-0.47244 -1.03204,-1.04988 -0.46655,-0.57743 -1.25455,-1.34081 -1.75112,-1.69641 -0.49657,-0.35561 -1.20355,-0.9638 -1.57105,-1.35156 -0.88707,-0.93594 -2.77898,-2.41931 -3.23001,-2.5325 -0.86356,-0.21674 -2.24474,0.0859 -4.49129,0.9841 -0.44917,0.17958 -1.07658,0.38996 -1.39423,0.46751 -0.31766,0.0776 -0.96703,0.2722 -1.44307,0.43257 -0.47602,0.16036 -1.15492,0.29157 -1.50869,0.29157 -0.35373,0 -0.71256,0.0694 -0.79738,0.15422 -0.38563,0.38563 -3.26594,0.84514 -5.91888,0.94429 -2.21473,0.0827 -2.77623,0.14986 -3.27647,0.3916 -0.33204,0.16045 -0.67154,0.29173 -0.75445,0.29173 -0.0829,0 -0.23957,0.16593 -0.34812,0.36875 -0.10854,0.20282 -0.30359,0.4037 -0.43343,0.44641 -0.12985,0.0427 -0.57018,0.45388 -0.97851,0.91371 -0.40834,0.45985 -1.09323,1.19581 -1.52199,1.63548 -0.55139,0.56542 -0.78022,0.918 -0.78183,1.20467 -0.003,0.53922 -0.11288,0.68191 -0.8122,1.05487 -0.70979,0.37851 -0.78707,0.38275 -1.40044,0.0768 -0.45526,-0.22711 -0.49504,-0.22348 -0.81194,0.0743 -0.18327,0.17218 -0.43227,0.31304 -0.55332,0.31304 -0.27042,0 -0.72216,0.32633 -1.59309,1.15078 -0.36665,0.34708 -0.72085,0.63106 -0.78712,0.63106 -0.0662,0 -0.50627,0.38958 -0.97782,0.86573 -0.47153,0.47615 -1.0745,0.9917 -1.33992,1.14566 -0.26543,0.15397 -0.48259,0.36744 -0.48259,0.47437 0,0.10694 -0.20045,0.23452 -0.44546,0.28352 -0.245,0.049 -0.44546,0.17793 -0.44546,0.28651 0,0.1762 -0.66516,0.95335 -0.81597,0.95335 -0.22643,0 -1.4646,0.99389 -1.59517,1.28043 -0.0884,0.19411 -0.2336,0.3531 -0.32257,0.35327 -0.28687,0 -1.18029,0.86207 -1.4169,1.36623 -0.1394,0.29703 -0.46329,0.60966 -0.82368,0.79506 -0.55223,0.28407 -1.47553,1.11979 -2.26345,2.04872 -0.18319,0.216 -0.43377,0.39273 -0.55682,0.39273 -0.12304,0 -0.22371,0.0899 -0.22371,0.19972 0,0.10985 -0.13364,0.32065 -0.29697,0.46847 -0.18504,0.16747 -0.29698,0.45734 -0.29698,0.76912 0,0.401 -0.0759,0.52924 -0.38239,0.64575 -0.21032,0.08 -0.48238,0.24536 -0.60456,0.36755 -0.12219,0.12218 -0.3444,0.22215 -0.49383,0.22215 -0.14942,0 -0.6625,0.38775 -1.14017,0.86164 -0.47767,0.47391 -0.98541,0.90612 -1.12834,0.9605 -0.14291,0.0544 -0.25985,0.16779 -0.25985,0.25201 0,0.0842 -0.0835,0.15357 -0.18561,0.15408 -0.10207,0 -0.29966,0.18428 -0.43905,0.40835 -0.1394,0.22406 -0.46784,0.65719 -0.72989,0.9625 -0.43928,0.51182 -0.45814,0.57549 -0.24194,0.81667 0.17317,0.19319 0.21339,0.44599 0.15375,0.9669 -0.0444,0.38791 -0.0219,0.70633 0.0499,0.70758 0.0719,10e-4 0.22973,0.0649 0.35079,0.14146 0.18379,0.1162 0.14831,0.21413 -0.21481,0.59318 -0.41087,0.42882 -0.43708,0.53192 -0.47342,1.8606 -0.0416,1.52024 -0.19778,2.00556 -0.64553,2.00556 -0.37231,0 -0.55259,-0.35627 -0.68199,-1.3478 -0.0578,-0.4429 -0.23155,-0.97229 -0.38611,-1.17646 -0.15457,-0.20418 -0.39924,-0.53005 -0.54373,-0.72417 -0.20146,-0.27071 -0.3418,-0.32786 -0.60208,-0.24524 -0.27124,0.0861 -0.32418,0.18678 -0.26363,0.50143 0.0565,0.2938 -0.0772,0.61806 -0.52681,1.27753 -0.40019,0.58694 -0.62717,1.10205 -0.67581,1.53361 -0.0468,0.41482 -0.17319,0.71222 -0.3496,0.82239 -0.15199,0.0949 -0.2768,0.27344 -0.27733,0.39671 0,0.12327 -0.13373,0.42461 -0.296,0.66961 -0.16226,0.245 -0.29545,0.55762 -0.29599,0.6947 0,0.13708 -0.0979,0.34617 -0.21638,0.46465 -0.11847,0.11846 -0.26011,0.40722 -0.31478,0.64166 -0.0547,0.23445 -0.19191,0.5007 -0.30501,0.59165 -0.11309,0.091 -0.26338,0.47447 -0.33395,0.85227 -0.0706,0.37778 -0.19618,0.77109 -0.27912,0.87402 -0.0829,0.10294 -0.19622,0.3997 -0.25173,0.65947 -0.0555,0.25978 -0.19686,0.55195 -0.31413,0.64925 -0.11725,0.0973 -0.21317,0.3201 -0.21317,0.49505 0,0.17497 -0.13364,0.56745 -0.29698,0.8722 -0.16334,0.30474 -0.29698,0.6882 -0.29698,0.85213 0,0.16393 -0.13364,0.5474 -0.29696,0.85214 -0.16334,0.30475 -0.29698,0.69205 -0.29698,0.86069 0,0.16862 -0.0573,0.37007 -0.12744,0.44765 -0.0701,0.0776 -0.21404,0.56422 -0.31988,1.0814 -0.10582,0.51718 -0.28234,1.03026 -0.39225,1.14018 -0.11964,0.11961 -0.19983,0.53185 -0.19983,1.0271 0,0.62931 -0.0711,0.89835 -0.29698,1.12426 -0.18089,0.18089 -0.29698,0.49495 -0.29698,0.80344 0,0.27857 -0.13277,0.93005 -0.29505,1.44774 -0.16228,0.51771 -0.29592,1.31062 -0.29698,1.76204 -10e-4,0.45219 -0.0936,0.95228 -0.20603,1.11365 -0.11226,0.16109 -0.2538,0.59358 -0.31453,0.96108 -0.0607,0.3675 -0.20274,0.84862 -0.31557,1.06915 -0.11286,0.22052 -0.20518,0.80731 -0.20518,1.30395 0,0.52152 -0.13039,1.29002 -0.30866,1.81919 -0.18418,0.5467 -0.36019,1.60784 -0.43644,2.63096 -0.0703,0.9431 -0.20261,2.04882 -0.29407,2.45716 -0.0915,0.40834 -0.1644,1.10994 -0.16205,1.55911 0.002,0.44917 -0.0554,1.01713 -0.1283,1.26213 -0.0729,0.245 -0.21284,0.81297 -0.31097,1.26215 -0.19916,0.91176 -0.80736,2.88415 -1.03021,3.34094 -0.0797,0.16333 -0.34092,0.83152 -0.58053,1.48487 -0.2396,0.65334 -0.5966,1.48858 -0.79333,1.85608 -0.30627,0.57212 -0.43194,0.67456 -0.87408,0.71252 -0.38908,0.0334 -0.65035,-0.0621 -1.05961,-0.38738 z m 2.26607,-8.3974 c 0,-0.77414 0.27751,-2.05312 0.50155,-2.31149 0.11114,-0.12817 0.24547,-0.66736 0.29849,-1.19821 0.053,-0.53084 0.20027,-1.43289 0.3272,-2.00456 0.12693,-0.57167 0.31988,-1.44032 0.42879,-1.93033 0.12344,-0.55534 0.17706,-1.49848 0.14237,-2.50395 -0.0552,-1.59953 0.20935,-3.53878 0.75221,-5.51432 0.11221,-0.40835 0.34477,-1.74473 0.51678,-2.96974 0.39302,-2.79896 0.52786,-3.22611 1.85145,-5.86522 0.59389,-1.18418 1.1664,-2.41999 1.27223,-2.74623 0.10581,-0.32624 0.45628,-1.16148 0.7788,-1.85609 0.32253,-0.6946 0.81371,-2.03132 1.09153,-2.9705 0.27781,-0.93918 0.60471,-1.95951 0.72645,-2.26741 0.4249,-1.07465 0.22388,-2.48416 -0.35428,-2.48416 -0.30972,0 -1.87499,-1.59041 -2.3783,-2.4165 -0.3896,-0.63946 -0.98186,-0.99869 -1.64656,-0.99869 -1.08683,0 -2.15005,0.87778 -2.29848,1.89757 -0.0442,0.30385 -0.28077,1.15383 -0.52566,1.88884 -0.2449,0.73501 -0.5765,2.05464 -0.73691,2.9325 -0.16038,0.87787 -0.36083,1.72541 -0.44539,1.88344 -0.0846,0.15803 -0.15377,0.49483 -0.15377,0.74846 0,0.25363 -0.15034,0.74245 -0.3341,1.08628 -0.35772,0.66935 -0.35236,0.51342 -0.25081,7.30705 0.0213,1.42639 -0.028,1.79329 -0.38947,2.89549 -0.39082,1.19185 -0.41735,1.44408 -0.47607,4.52885 -0.0438,2.29986 -0.007,3.49725 0.12375,4.04565 0.16354,0.68512 0.15626,0.81172 -0.0604,1.05109 -0.3255,0.35969 -0.31263,0.85331 0.0286,1.09416 0.6557,0.46285 1.1336,2.32568 0.77065,3.00387 -0.11823,0.2209 -0.15489,0.6777 -0.10354,1.29033 0.0437,0.5216 0.0793,1.76651 0.0792,2.76648 0,0.99996 0.0412,1.88531 0.092,1.96745 0.18896,0.30572 0.37174,0.13358 0.37174,-0.35011 z M 377.40667,655.40169 c -0.10053,-0.0407 -0.30099,-0.0432 -0.44546,-0.005 -0.14448,0.0377 -0.0622,0.0709 0.18278,0.074 0.245,0.003 0.36321,-0.0278 0.26268,-0.0685 z m 224.60915,-8.89948 c -0.10779,-0.12987 -0.63381,-0.54641 -1.16894,-0.92564 -0.53513,-0.37922 -1.10661,-0.81484 -1.26995,-0.96803 -0.16334,-0.15319 -0.63107,-0.5283 -1.0394,-0.83358 -1.26771,-0.94772 -7.03563,-6.81666 -8.05355,-8.19455 -0.33014,-0.44692 -0.93797,-1.11619 -1.35069,-1.48728 -0.41274,-0.37108 -0.7951,-0.85267 -0.8497,-1.07019 -0.15013,-0.59824 -0.70472,-0.94357 -1.70099,-1.0592 l -0.88917,-0.10319 v -0.85562 c 0,-0.68378 -0.0796,-0.97161 -0.39621,-1.43318 -0.21795,-0.31763 -0.52142,-0.90299 -0.67441,-1.30078 -0.15299,-0.39778 -0.55936,-1.00559 -0.90303,-1.35069 -0.34368,-0.3451 -0.97909,-1.08875 -1.41205,-1.65256 -0.86552,-1.1271 -3.46973,-5.03024 -3.84381,-5.76106 -0.1298,-0.25358 -0.42511,-0.67816 -0.65624,-0.94352 -0.23112,-0.26535 -0.64512,-0.83331 -0.91999,-1.26213 -0.27487,-0.42883 -0.61549,-0.87506 -0.75696,-0.99166 -0.14146,-0.1166 -0.73086,-1.01866 -1.30979,-2.00457 -0.57895,-0.98592 -1.25103,-2.02159 -1.49356,-2.30148 -0.24252,-0.2799 -0.5375,-0.73996 -0.65548,-1.02237 -0.42339,-1.01329 -1.39721,-2.376 -2.07574,-2.90464 -1.02693,-0.80008 -1.73006,-0.76021 -6.43329,0.36481 -2.38312,0.57004 -4.02745,1.21138 -4.41173,1.72069 -0.26323,0.34892 0.004,0.74128 0.74312,1.09253 0.34356,0.16319 1.35965,0.96294 2.25799,1.77724 0.89835,0.81429 1.70164,1.48159 1.78512,1.48287 0.22747,0.004 2.44871,2.32624 3.18679,3.3324 1.1018,1.50198 5.70802,5.96828 6.87015,6.66145 1.06272,0.63389 1.4475,1.02409 1.4475,1.46797 0,0.54707 3.00603,3.30119 4.3337,3.97054 0.21934,0.11058 0.68708,0.50225 1.0394,0.87038 0.35233,0.36815 0.84106,0.87121 1.08607,1.11793 0.245,0.24673 0.99774,0.70863 1.67274,1.02647 1.21055,0.57003 1.23424,0.59173 1.7386,1.59325 0.51331,1.01932 1.33679,1.87127 1.96348,2.03137 0.17945,0.0459 0.42776,0.23825 0.5518,0.42754 0.12402,0.18929 0.42877,0.38883 0.67723,0.4434 0.24844,0.0546 0.52034,0.22742 0.6042,0.38412 0.0839,0.15669 0.2931,0.28489 0.46497,0.28489 0.17189,0 0.38669,0.0904 0.47738,0.2008 0.33945,0.41349 5.23982,4.1937 5.88158,4.53715 0.73619,0.39397 2.08437,1.3663 3.11822,2.24889 1.40379,1.1984 2.96986,2.11848 2.36464,1.38923 z M 503.992,644.02849 c 0.0478,-0.18376 0.44246,-1.03432 0.87702,-1.89015 0.43458,-0.85583 0.79013,-1.67581 0.79013,-1.82215 0,-0.14634 -0.16176,-0.33979 -0.35947,-0.42987 -0.29328,-0.13363 -0.43681,-0.11013 -0.77956,0.12757 -0.5512,0.38229 -1.74331,0.79966 -2.54673,0.89163 -0.353,0.0404 -0.67311,0.15508 -0.71137,0.25481 -0.15336,0.39963 0.48673,1.4626 1.63774,2.71967 0.51852,0.5663 0.96769,0.62738 1.09224,0.14849 z m 3.89445,-1.29926 c 0,-0.34646 -0.066,-0.44546 -0.29697,-0.44546 -0.23099,0 -0.29698,0.099 -0.29698,0.44546 0,0.34646 0.066,0.44546 0.29698,0.44546 0.23098,0 0.29697,-0.099 0.29697,-0.44546 z m -4.16958,-5.05858 c 0.7816,-0.18016 2.66195,-1.74586 5.43172,-4.52281 2.06543,-2.07081 6.41821,-6.20369 7.63058,-7.24507 1.0132,-0.87032 1.89594,-1.47986 2.82493,-1.9506 0.81969,-0.41538 1.09712,-0.70707 1.02326,-1.0759 -0.0389,-0.1941 -0.17395,-0.25873 -0.49485,-0.23681 -1.03341,0.0706 -1.17512,0.11382 -2.81716,0.85863 -1.86336,0.8452 -3.13638,1.44761 -5.2025,2.46187 -2.2809,1.11969 -2.44419,1.23017 -3.87473,2.6213 -0.82139,0.7988 -1.98828,1.93031 -2.59303,2.51446 -2.36371,2.28315 -2.65025,2.62704 -2.85883,3.4311 -0.12072,0.46542 -0.45376,1.08896 -0.85278,1.5966 -0.92626,1.17848 -0.93482,1.1935 -0.83146,1.46285 0.0728,0.18979 0.29713,0.24212 1.02591,0.23928 0.51299,-0.002 1.22802,-0.0717 1.58894,-0.1549 z m 76.48382,-39.12432 c 2.22889,-0.38464 2.87708,-0.75483 4.53713,-2.59117 0.94434,-1.04464 1.15288,-1.37583 1.42002,-2.25534 0.32752,-1.07829 0.32615,-1.73738 -0.007,-3.38636 -0.0908,-0.44918 -0.23341,-1.19071 -0.31702,-1.64785 -0.3273,-1.7896 -2.30303,-4.28569 -3.79452,-4.79389 -1.15772,-0.39446 -2.8478,-0.46743 -4.01629,-0.17337 -2.56856,0.64641 -5.34485,2.16607 -6.06456,3.31957 -0.16332,0.26178 -0.57589,0.91211 -0.91677,1.44517 -0.99053,1.54889 -1.1131,2.88155 -0.39348,4.27844 0.38924,0.75556 2.11114,2.88885 2.74896,3.40573 0.32366,0.26228 0.92602,0.7573 1.33858,1.10002 0.84174,0.69929 1.51178,1.05551 2.494,1.32592 0.9031,0.24862 1.40067,0.24412 2.97099,-0.0269 z m 11.24351,-16.34086 c -0.0493,-0.0493 -0.17741,-0.0546 -0.2846,-0.0117 -0.11845,0.0474 -0.0833,0.0826 0.0897,0.0897 0.15651,0.006 0.24422,-0.0287 0.19488,-0.078 z m -227.58977,76.47731 c 0,-0.12733 0.0679,-0.18952 0.15091,-0.13823 0.083,0.0513 0.11247,0.15547 0.0655,0.2315 -0.12729,0.20594 -0.21639,0.16754 -0.21639,-0.0933 z m 249.68024,-7.78679 c -0.0505,-0.0817 0.0125,-0.14848 0.13973,-0.14848 0.12731,0 0.23149,0.0668 0.23149,0.14848 0,0.0817 -0.0629,0.14849 -0.13973,0.14849 -0.0768,0 -0.18102,-0.0668 -0.23149,-0.14849 z m -3.24599,-3.22125 c -0.16722,-0.16721 -0.10184,-0.34242 0.12777,-0.34242 0.1225,0 0.22273,0.0629 0.22273,0.13973 0,0.18723 -0.23187,0.32133 -0.3505,0.20269 z m -5.73744,-3.60913 c 0,-0.0817 0.0668,-0.14849 0.14848,-0.14849 0.0817,0 0.14848,0.0668 0.14848,0.14849 0,0.0817 -0.0668,0.14849 -0.14848,0.14849 -0.0817,0 -0.14848,-0.0668 -0.14848,-0.14849 z m -161.9989,-8.02704 c 0,-0.0865 0.0668,-0.11595 0.14848,-0.0655 0.0817,0.0505 0.1485,0.12124 0.1485,0.15725 0,0.036 -0.0668,0.0655 -0.1485,0.0655 -0.0817,0 -0.14848,-0.0708 -0.14848,-0.15725 z m 135.94583,-25.96613 c -0.10143,-0.16412 0.13281,-0.34132 0.26992,-0.20421 0.14119,0.14118 0.11487,0.34244 -0.0448,0.34244 -0.0768,0 -0.17816,-0.0622 -0.22515,-0.13823 z m 4.5225,-41.43803 c 0,-0.0817 0.0668,-0.14848 0.14849,-0.14848 0.0817,0 0.14849,0.0668 0.14849,0.14848 0,0.0817 -0.0668,0.14848 -0.14849,0.14848 -0.0817,0 -0.14849,-0.0668 -0.14849,-0.14848 z"
       id="path177" />
  </g>
</svg>
