<?xml version="1.0" encoding="UTF-8" standalone="no"?>
<!-- Created with Inkscape (http://www.inkscape.org/) -->

<svg
   version="1.1"
   id="svg181"
   width="500"
   height="706.77783"
   viewBox="0 0 500 706.77785"
   sodipodi:docname="Orectochilus_villosus.svg"
   inkscape:version="1.3.2 (091e20e, 2023-11-25, custom)"
   xmlns:inkscape="http://www.inkscape.org/namespaces/inkscape"
   xmlns:sodipodi="http://sodipodi.sourceforge.net/DTD/sodipodi-0.dtd"
   xmlns="http://www.w3.org/2000/svg"
   xmlns:svg="http://www.w3.org/2000/svg">
  <defs
     id="defs185" />
  <sodipodi:namedview
     id="namedview183"
     pagecolor="#505050"
     bordercolor="#eeeeee"
     borderopacity="1"
     inkscape:showpageshadow="0"
     inkscape:pageopacity="0"
     inkscape:pagecheckerboard="0"
     inkscape:deskcolor="#505050"
     showgrid="false"
     inkscape:zoom="2.0193052"
     inkscape:cx="242.1625"
     inkscape:cy="366.9579"
     inkscape:window-width="3840"
     inkscape:window-height="2054"
     inkscape:window-x="-11"
     inkscape:window-y="-11"
     inkscape:window-maximized="1"
     inkscape:current-layer="g187" />
  <g
     inkscape:groupmode="layer"
     inkscape:label="Image"
     id="g187"
     transform="translate(-3.7265214,-4.632325)">
    <path
       style="fill:#000000;stroke-width:0.771352"
       d="m 242.40898,710.73738 c -0.49704,-0.59895 -1.84676,-1.48307 -2.9994,-1.96478 -1.15259,-0.48161 -3.48405,-2.61748 -5.18102,-4.74617 -1.69698,-2.12874 -3.98346,-4.98269 -5.08104,-6.3422 -1.09764,-1.35951 -2.4851,-3.6024 -3.08334,-4.98418 l -1.08765,-2.51244 -7.71564,-0.0337 c -4.24354,-0.0193 -8.93046,-0.10413 -10.41532,-0.18705 -2.0449,-0.11474 -2.63918,0.1292 -2.45015,1.00579 0.16777,0.77854 -0.25069,0.62451 -1.27967,-0.471 -1.07493,-1.14425 -2.92815,-1.78621 -6.23744,-2.16061 -2.58952,-0.29311 -5.06604,-0.31143 -5.50345,-0.0434 -0.43726,0.27045 -1.21396,0.14848 -1.72565,-0.27094 -0.51175,-0.41942 -2.49239,-1.17458 -4.40148,-1.67846 -4.52441,-1.19415 -8.71261,-3.13637 -9.48738,-4.3997 -0.3394,-0.5532 -0.96077,-1.00579 -1.38111,-1.00579 -2.46485,0 -10.86367,-8.2093 -13.2213,-12.92298 -0.90258,-1.80458 -2.27313,-3.9595 -3.04564,-4.7887 -0.77255,-0.82944 -1.40458,-1.84059 -1.40458,-2.24724 0,-0.4064 -0.30324,-0.85499 -0.67411,-0.99644 -0.86797,-0.3312 -4.8533,-9.75793 -5.06436,-11.97909 -0.0887,-0.93193 -0.71861,-3.01458 -1.40024,-4.62811 -1.88147,-4.45397 -5.57991,-16.71548 -5.3055,-17.58937 0.13305,-0.42424 -0.45992,-3.20111 -1.31824,-6.17081 -0.85828,-2.9697 -1.91778,-6.96145 -2.35446,-8.87054 -1.47685,-6.45655 -3.92531,-15.78557 -5.56728,-21.21217 -3.40248,-11.2451 -3.96831,-12.26372 -5.58439,-10.05361 -0.60754,0.83085 -1.55128,1.24072 -2.24444,0.97475 -0.68033,-0.26081 -1.78206,0.1885 -2.55501,1.04258 -0.86039,0.95069 -1.89728,1.33072 -2.82632,1.03588 -1.06249,-0.33747 -1.58373,-0.0193 -1.88895,1.14608 -0.4199,1.60566 -2.55563,2.30808 -2.55563,0.84053 0,-1.38212 -1.42594,-0.81175 -1.92838,0.77135 -0.58859,1.85443 -2.34809,2.029 -3.01203,0.2989 -0.38664,-1.00738 -0.69557,-1.06273 -1.62519,-0.29118 -0.89684,0.7443 -1.39292,0.74936 -2.26797,0.0241 -0.92653,-0.76899 -1.32629,-0.43581 -2.31415,1.92833 -1.00623,2.40826 -1.37609,2.70682 -2.35103,1.89767 -0.96655,-0.80326 -1.15693,-0.6919 -1.15693,0.67585 0,2.1216 -2.31849,2.17251 -2.870152,0.0632 -0.411226,-1.57201 -0.413155,-1.57196 -1.550513,0.0521 -0.634003,0.90518 -1.629239,1.4378 -2.245067,1.20148 -0.608403,-0.23334 -1.314479,0.11811 -1.569025,0.78167 -0.286847,0.74792 -1.038095,1.05574 -1.97683,0.81025 -1.81258,-0.4739 -5.344116,0.98213 -4.742559,1.95543 0.708005,1.1456 -0.544959,6.80163 -1.504907,6.79324 -0.49299,-0.005 -1.497627,-1.43866 -2.232532,-3.18742 l -1.336126,-3.1796 -2.718002,2.0731 c -4.519541,3.44727 -5.252711,1.2198 -1.339066,-4.06825 1.73612,-2.34583 1.831285,-2.85767 1.029369,-5.53426 -0.88098,-2.94053 -0.437742,-11.1603 0.68496,-12.70739 0.508465,-0.70048 1.591346,-4.45152 1.557793,-5.39599 -0.0096,-0.21405 0.707184,-1.11017 1.588502,-1.99148 0.881269,-0.88127 1.417648,-2.08371 1.191883,-2.67201 -0.237191,-0.61795 0.551998,-1.75502 1.868744,-2.6926 1.253542,-0.89265 2.279199,-2.21122 2.279199,-2.93022 0,-0.71899 0.759588,-1.64992 1.688006,-2.06872 1.184507,-0.5343 1.718668,-1.49743 1.79079,-3.22882 0.06605,-1.58263 -0.193803,-2.28142 -0.723818,-1.94873 -0.454615,0.2854 -1.173707,0.5317 -1.597951,0.54776 -0.424243,0.0145 -1.909673,0.64678 -3.300902,1.40174 -1.391229,0.75496 -2.866439,1.16445 -3.278245,0.90995 -1.801781,-1.11359 -0.486385,-3.91779 3.879417,-8.27005 2.54546,-2.53755 4.628109,-4.92252 4.628109,-5.29986 0,-0.37748 0.520663,-0.68611 1.157028,-0.68611 0.636365,0 1.157027,-0.26371 1.157027,-0.58638 0,-0.32252 0.829878,-1.48142 1.844205,-2.57535 1.014376,-1.09387 2.411679,-3.08622 3.105221,-4.42736 0.693541,-1.34114 1.764752,-2.43848 2.380442,-2.43848 0.61568,0 1.63198,-0.781 2.25842,-1.73554 0.62638,-0.95455 3.09413,-3.12398 5.48383,-4.82095 8.22246,-5.83933 8.06843,-5.66982 8.06843,-8.88139 0,-1.64115 -0.29793,-3.16818 -0.66259,-3.39342 -0.36447,-0.22514 -0.89096,-2.41515 -1.17005,-4.86646 -0.58463,-5.13513 -2.55013,-14.21552 -3.7921,-17.51908 -0.46812,-1.24472 -0.89704,-3.84803 -0.95349,-5.78514 -0.0564,-1.93705 -0.74624,-5.60459 -1.53292,-8.15005 -1.32807,-4.29758 -1.69292,-7.03873 -1.9237,-14.45305 -0.0593,-1.90061 -0.59712,-3.23823 -1.57901,-3.92594 -0.81912,-0.57374 -1.40472,-1.1914 -1.30136,-1.37252 0.22465,-0.39387 -2.0975,1.6127 -4.983657,4.30607 -1.147385,1.07073 -2.395239,1.94679 -2.773008,1.94679 -0.377963,0 -1.307731,0.68602 -2.066548,1.52453 -0.758817,0.83846 -1.6828,1.33714 -2.053386,1.10809 -0.370731,-0.22899 -0.885897,0.13643 -1.145264,0.81257 -0.27624,0.7204 -1.004493,1.05974 -1.759598,0.82009 -0.70839,-0.22465 -2.635997,0.27865 -4.283604,1.11846 -2.055604,1.04798 -3.286489,1.28594 -3.922371,0.75819 -1.506932,-1.25065 -5.75033,1.00681 -5.75033,3.05918 0,0.45462 -0.537584,0.82646 -1.194631,0.82646 -0.99379,0 -1.111277,0.71302 -0.699037,4.24243 0.292631,2.50656 0.196212,4.24244 -0.235263,4.24244 -1.025511,0 -4.813041,-3.61301 -4.813041,-4.59128 0,-1.8808 -2.441086,-0.59413 -3.639092,1.91816 -1.462241,3.06631 -3.539973,3.31768 -3.943969,0.47727 -0.140289,-0.98704 0.477274,-3.59903 1.372187,-5.80447 1.280154,-3.15401 1.48948,-4.66258 0.98087,-7.06804 -0.726324,-3.43521 0.561061,-11.17774 2.183744,-13.13293 0.551324,-0.66432 1.580017,-2.91398 2.285949,-4.9992 l 1.283481,-3.79129 -1.802553,0.4524 c -2.687437,0.67451 -4.199575,-0.1441 -3.527631,-1.90972 0.544574,-1.43094 10.791064,-14.39321 13.422144,-16.97963 0.708004,-0.69599 1.546271,-2.29822 1.862814,-3.56053 0.902337,-3.5985 4.291415,-8.40304 8.457822,-11.9903 2.100487,-1.80875 3.99266,-3.53459 4.204782,-3.83538 0.212122,-0.30078 1.874384,-1.47942 3.693858,-2.61917 1.819522,-1.13976 3.624003,-2.9028 4.00992,-3.91788 0.760262,-1.9997 0.347108,-6.50283 -0.899975,-9.81378 -0.430028,-1.14107 -0.564485,-2.42592 -0.298899,-2.85522 0.265153,-0.4293 0.602378,-3.75487 0.749031,-7.39014 0.220799,-5.47138 0.05062,-6.73726 -0.986655,-7.35108 -0.975808,-0.57734 -1.035973,-0.88512 -0.271902,-1.39029 0.579093,-0.38284 0.938976,-2.04878 0.877799,-4.06372 -0.05689,-1.87819 0.124862,-6.36532 0.403513,-9.97139 0.279133,-3.60607 0.619395,-8.81269 0.756407,-11.57027 0.136913,-2.75758 0.505423,-5.62123 0.818693,-6.36365 0.31336,-0.74243 0.3823,-1.83751 0.15379,-2.43352 -0.22851,-0.596 0.0882,-3.45965 0.704,-6.36365 0.61593,-2.904 1.04383,-5.97422 0.95093,-6.8227 -0.093,-0.84849 0.27383,-2.35082 0.81556,-3.33852 0.54144,-0.9877 0.77584,-2.33956 0.52081,-3.00412 -0.25503,-0.66457 0.1104,-1.84237 0.81146,-2.61733 0.70135,-0.77497 1.54637,-2.72064 1.87791,-4.32372 1.22818,-5.93919 3.20048,-13.01035 4.25525,-15.25632 1.94694,-4.14554 3.71801,-8.46804 3.79259,-9.25622 0.0386,-0.42424 0.66872,-1.95278 1.39682,-3.39675 0.72811,-1.44397 1.32379,-3.22915 1.32379,-3.96707 0,-0.73792 0.52066,-1.54146 1.15703,-1.78567 0.63636,-0.24418 1.16064,-0.88876 1.16503,-1.43239 0.01,-1.15766 2.61695,-6.08424 5.47163,-10.33747 2.8082,-4.18402 3.2873,-6.07138 1.89473,-7.46397 -1.03631,-1.03631 -0.97422,-1.28653 0.57017,-2.29845 1.09368,-0.71662 2.25905,-2.89156 3.15883,-5.89535 0.78417,-2.61789 1.29683,-4.88371 1.13919,-5.03515 -0.53889,-0.5177 -10.18097,-3.5118 -11.30932,-3.5118 -0.6193,0 -3.25206,-0.90298 -5.85055,-2.00663 -2.59854,-1.10366 -5.59235,-2.37613 -6.65296,-2.82772 -1.06061,-0.45158 -2.30788,-0.89834 -2.77166,-0.99277 -0.46377,-0.0944 -2.27925,-1.07816 -4.03426,-2.18607 -1.75507,-1.10791 -3.729441,-2.01438 -4.387549,-2.01438 -0.658107,0 -1.378791,-0.47486 -1.601518,-1.0553 -0.449795,-1.17262 -7.396202,-5.88686 -8.674042,-5.88686 -0.446902,0 -1.328846,-0.73694 -1.959715,-1.63763 -1.089727,-1.55579 -2.819049,-2.77977 -6.268292,-4.43663 -0.848487,-0.40756 -3.504106,-2.5919 -5.90137,-4.85407 -3.085696,-2.91185 -4.604439,-5.03137 -5.200308,-7.25757 -0.544622,-2.03456 -1.524625,-3.51003 -2.776384,-4.17994 -1.064079,-0.56947 -1.934646,-1.24649 -1.934646,-1.5045 0,-0.25802 -1.114458,-1.67457 -2.476617,-3.1479 -5.024825,-5.43505 -12.950415,-15.6304 -12.950415,-16.6592 0,-0.58353 -0.347108,-1.06096 -0.771351,-1.06096 -0.424244,0 -0.771352,-0.49587 -0.771352,-1.10192 0,-0.60607 -0.454615,-1.56062 -1.009988,-2.12122 -0.853163,-0.86104 -2.418091,-3.68436 -5.94741,-10.7297 -0.825009,-1.64692 -5.222097,-16.14766 -6.645289,-21.915 -3.179656,-12.88481 -4.848909,-20.42382 -5.294461,-23.9119 -0.270937,-2.12122 -0.976193,-5.76586 -1.567145,-8.0992 -0.590952,-2.33333 -1.427483,-7.35183 -1.858957,-11.152206 -0.658301,-5.798617 -0.597364,-7.195361 0.378926,-8.685655 1.300547,-1.984857 1.112771,-2.371646 -3.243148,-6.681269 -1.337861,-1.323601 -2.812733,-3.794983 -3.277569,-5.491956 -0.464739,-1.696974 -1.71968,-3.909041 -2.788581,-4.915708 -1.296545,-1.221127 -1.874432,-2.504772 -1.736216,-3.856758 0.156199,-1.525917 -0.126308,-1.99999 -1.142661,-1.919325 -0.742425,0.05891 -1.349865,-0.135951 -1.349865,-0.433066 0,-0.297115 -0.6472602,-1.234958 -1.4383777,-2.084105 C 6.5245559,62.573571 5.7923022,60.657124 5.9493686,57.690347 6.0279501,56.205495 5.5776736,53.081521 4.9484918,50.748182 4.3194063,48.414844 3.7736751,43.034666 3.7357342,38.792233 3.6740261,31.891042 3.8793985,30.672552 5.6873984,27.221958 6.7987232,25.100742 7.9280783,21.803213 8.197039,19.894118 8.8231354,15.450248 11.901214,9.152694 14.808534,6.3672625 c 3.065062,-2.9365066 3.490607,-2.1007568 1.104287,2.1688015 -1.348323,2.412424 -1.91758,4.491712 -1.79561,6.558762 l 0.178375,3.026533 3.386137,-2.584702 c 1.86238,-1.421587 3.79341,-2.589444 4.291221,-2.595237 0.497811,-0.0058 1.686127,-0.219831 2.640674,-0.47564 2.181334,-0.584577 2.463071,1.694002 0.29456,2.382264 -3.545903,1.125419 -6.427046,6.983285 -5.343249,10.86368 0.350483,1.254874 0.764699,3.277242 0.920464,4.49416 0.155717,1.216913 0.595917,2.431792 0.978074,2.699731 0.833059,0.584048 0.866517,2.063727 0.0646,2.865489 -1.033225,1.033201 -0.610235,2.079313 0.47631,1.177685 0.792998,-0.658146 1.249011,-0.633737 1.838034,0.0984 0.803508,0.998731 0.409299,5.987052 -0.473417,5.988031 -0.269973,2.99e-4 -0.540572,0.860375 -0.601172,1.911279 -0.09738,1.687843 0.07135,1.813457 1.447972,1.076845 1.74041,-0.931436 3.201398,0.402598 2.507567,2.289613 -0.997646,2.713408 -1.271042,4.915896 -0.828865,6.677668 0.590614,2.353268 1.668,2.49955 2.242078,0.304394 0.79025,-3.022025 2.449813,-1.12812 2.56513,2.9274 0.06074,2.131028 0.599822,4.80905 1.198246,5.951161 l 1.087992,2.076556 2.026145,-1.593743 c 2.410956,-1.89645 2.96334,-1.266251 2.800151,3.194447 -0.08967,2.44921 0.402549,4.108763 1.847677,6.231947 1.123762,1.650933 2.206547,4.632545 2.521018,6.942164 0.303237,2.226608 0.943122,4.30339 1.422083,4.615074 1.449707,0.943401 2.592657,0.664027 3.107245,-0.759541 0.268527,-0.742425 0.916317,-2.051149 1.439824,-2.908265 0.523555,-0.857116 1.941299,-3.234648 3.150586,-5.283387 1.247902,-2.114097 2.489151,-3.434593 2.870247,-3.053482 0.860732,0.860722 -1.200705,7.792218 -2.86398,9.630146 -1.034768,1.143374 -1.164211,2.383269 -0.730663,6.99816 0.741028,7.888072 0.996442,9.627832 1.543185,10.512474 0.263706,0.42656 0.651262,2.79522 0.861407,5.26368 0.210194,2.46846 0.581166,5.78475 0.824431,7.36954 0.243457,1.58479 0.353857,2.97322 0.245868,3.08541 -0.107989,0.11218 0.265634,1.06694 0.830022,2.12168 0.564533,1.05474 0.952812,3.73505 0.86295,5.95626 -0.08967,2.2212 0.20489,4.72676 0.65507,5.56789 0.450277,0.84112 0.990271,3.36742 1.200223,5.61401 0.210194,2.24657 0.712103,5.64667 1.115905,7.55576 0.403995,1.9091 1.301318,6.24795 1.994426,9.6419 0.693108,3.39395 2.269847,8.35583 3.503816,11.02639 1.234018,2.67058 2.243621,5.04787 2.243621,5.28289 0,0.6138 2.538374,5.98657 3.0452,6.44559 0.528135,0.47824 1.876987,2.64404 3.843307,6.17081 0.827853,1.48485 2.82739,4.20499 4.443371,6.04475 2.721039,3.09786 3.280076,3.37496 7.566236,3.75028 2.54546,0.22287 4.801664,0.63907 5.013785,0.92485 0.212122,0.28578 2.121217,0.90027 4.242434,1.36557 2.121217,0.46527 5.765858,1.43159 8.099188,2.14733 5.0809,1.55854 9.29166,2.36873 20.05515,3.8588 8.75614,1.21217 19.7384,4.6138 21.90402,6.78451 1.71519,1.71918 4.32193,1.76631 4.32193,0.0781 0,-0.69945 1.0878,-3.5631 2.41737,-6.36365 1.32952,-2.80056 3.15184,-6.65391 4.04959,-8.56301 0.89771,-1.90909 1.89256,-3.58678 2.21074,-3.72819 0.31819,-0.1414 0.57852,-0.91186 0.57852,-1.71209 0,-3.27864 7.34838,-14.26581 10.56067,-15.79014 2.73863,-1.29956 2.96184,-2.02035 3.61918,-11.687 0.20682,-3.04394 0.92832,-6.6018 1.60292,-7.90635 0.67464,-1.30455 1.0205,-2.37192 0.7686,-2.37192 -0.25213,0 0.25985,-1.00813 1.13721,-2.24029 0.87737,-1.23215 1.59521,-2.57939 1.59521,-2.99385 0,-0.41446 1.1281,-1.62094 2.50689,-2.68107 1.37879,-1.06013 3.38922,-2.75009 4.46757,-3.75547 1.0784,-1.00538 2.78641,-2.37269 3.79558,-3.03846 2.33797,-1.54236 1.48847,-3.02418 -1.75217,-3.05647 -1.35377,-0.0135 -3.12494,-0.52669 -3.93597,-1.14042 -0.81102,-0.61374 -2.22081,-0.92859 -3.13294,-0.69967 -1.2493,0.31355 -1.88041,-0.0711 -2.55847,-1.55931 -0.55629,-1.22089 -1.52853,-1.97553 -2.54518,-1.97553 -0.90474,0 -3.30336,-1.38844 -5.33018,-3.08541 -2.02687,-1.69697 -4.05871,-3.08541 -4.5152,-3.08541 -0.45655,0 -1.20153,-0.69421 -1.65561,-1.5427 -0.45414,-0.84849 -0.69509,-1.5427 -0.53551,-1.5427 0.15957,0 -1.18359,-1.6052 -2.9848,-3.5671 -4.82644,-5.25699 -5.01884,-10.31723 -0.39242,-10.31723 2.85294,0 7.71891,2.05641 8.27115,3.49546 0.23912,0.62295 1.26526,1.13265 2.2805,1.13265 1.0152,0 1.84585,0.27132 1.84585,0.60295 0,0.33163 1.56502,1.06505 3.47783,1.62983 1.91281,0.56479 4.38976,1.74422 5.50432,2.62094 1.1146,0.87674 2.87873,1.63136 3.92025,1.67696 1.04156,0.0458 2.2265,0.67749 2.6332,1.40422 0.40689,0.72672 1.08336,1.32132 1.5037,1.32132 1.24675,0 5.32989,3.29796 5.32989,4.30496 0,0.78026 1.60745,1.86585 2.76279,1.86585 0.17741,0 0.31481,-0.78099 0.30565,-1.73554 -0.0241,-2.29314 -2.77301,-8.29203 -3.80209,-8.29203 -1.26082,0 -0.9503,-3.85098 0.35097,-4.35025 0.63791,-0.24481 2.74803,0.30145 4.68909,1.21385 2.00277,0.94142 4.17851,1.45288 5.03032,1.18251 0.96029,-0.30478 1.42464,-0.14284 1.28888,0.44946 -0.11666,0.50925 0.22177,1.08499 0.75198,1.27944 0.5303,0.19442 0.96418,-0.0116 0.96418,-0.4579 0,-0.44627 0.4861,-0.6249 1.08019,-0.39691 0.59784,0.22943 1.06022,-0.0395 1.03549,-0.60272 -0.24973,-5.69224 0.27817,-8.186 1.8187,-8.58885 0.89115,-0.23305 1.39644,-0.78595 1.12285,-1.22867 -1.09089,-1.765035 -2.68079,-14.325468 -1.91083,-15.095431 0.51859,-0.51859 0.99321,-0.420917 1.43601,0.295524 0.39243,0.635184 1.2076,0.860519 2.00532,0.554409 1.096,-0.42058 1.1754,-0.312591 0.43051,0.585161 -0.52664,0.634582 -0.7,1.952074 -0.40929,3.11036 0.91868,3.660218 1.83017,2.892462 1.71601,-1.445426 -0.0617,-2.35027 -0.31143,-4.275481 -0.55465,-4.278234 -0.24297,-0.0031 -0.46329,-2.953182 -0.48957,-6.556489 -0.0434,-5.827267 0.10703,-6.551474 1.34987,-6.551474 0.96713,0 1.39721,0.579583 1.39721,1.882854 0,1.035569 0.3471,2.097382 0.77135,2.359579 0.42424,0.262212 0.77135,1.110592 0.77135,1.885323 0,2.273713 2.48187,9.299275 3.28509,9.299275 0.40496,0 0.51425,-0.579685 0.24249,-1.288195 -0.2719,-0.708511 -0.0487,-1.602705 0.49603,-1.987103 0.71345,-0.503539 0.74272,-0.800957 0.10462,-1.063969 -0.5495,-0.226488 -0.73756,-1.469405 -0.4955,-3.274228 0.28058,-2.090194 0.0241,-3.273771 -0.90494,-4.20432 -0.7123,-0.712328 -0.97041,-1.295152 -0.57355,-1.295152 1.09614,0 1.84691,-6.995976 0.8763,-8.16548 -1.00835,-1.214956 -0.65121,-5.109192 0.50317,-5.487356 0.45847,-0.150221 1.28222,1.211427 1.83017,3.02592 2.78347,9.216567 3.29493,10.643298 3.96403,11.056819 0.39869,0.246447 0.54761,0.735045 0.33071,1.085817 -0.21694,0.350772 0.10414,1.597865 0.71273,2.771312 l 1.10689,2.133544 0.51748,-2.061721 c 0.28444,-1.13395 0.14752,-4.22734 -0.30468,-6.874208 -1.36042,-7.962957 -1.88837,-21.166452 -0.87144,-21.794954 1.63267,-1.009039 2.60259,1.132898 3.16124,6.981064 0.62904,6.585887 2.90607,17.2328 3.99479,18.679108 1.44117,1.914505 1.77049,0.851457 1.79218,-5.785137 0.0289,-8.418401 1.05931,-21.042977 1.839,-22.501415 0.74407,-1.391875 3.08285,2.834539 3.03479,5.484257 -0.0193,0.980629 0.16439,3.344951 0.40496,5.254047 0.24056,1.909095 0.62937,5.2934 0.86391,7.520678 0.2343,2.227277 0.76899,4.049595 1.18774,4.049595 0.41894,0 0.53744,-0.362294 0.2637,-0.805136 -0.27383,-0.442853 -0.16728,-1.223827 0.23623,-1.735541 0.40351,-0.511725 0.99398,-3.880825 1.31212,-7.486893 0.31818,-3.606069 0.68313,-7.250705 0.81112,-8.099192 0.12776,-0.848487 0.26178,-2.873285 0.29697,-4.499549 0.0796,-3.668187 1.6694,-3.476111 2.60519,0.314808 1.72412,6.984077 3.9501,24.221288 3.33489,25.824427 -0.24538,0.639325 -4e-5,0.884022 0.63994,0.638428 1.32942,-0.510148 2.03429,-4.130978 1.13224,-5.816434 -0.4387,-0.819832 -0.39724,-1.394546 0.11233,-1.564514 1.28392,-0.427955 2.1811,-5.830217 1.78935,-10.774287 -0.41846,-5.280379 0.16005,-6.848011 1.71023,-4.634844 1.61559,2.306548 3.4867,11.272002 3.88992,18.638752 0.19766,3.606068 0.65734,6.855994 1.02214,7.222063 0.9223,0.925593 2.24121,-0.04001 2.2469,-1.64495 0.0145,-4.262798 0.8117,-13.494695 1.19757,-13.880554 0.67349,-0.673462 2.66377,2.279387 2.73724,4.061007 0.21839,5.295946 1.03573,10.413246 1.66327,10.413246 0.40352,0 0.63179,0.444154 0.50712,0.986983 -0.12486,0.542848 0.12052,1.077169 0.54472,1.18739 0.42424,0.110207 0.9449,-0.868253 1.15702,-2.174373 0.99481,-6.125481 3.6861,-0.116618 3.973,8.870568 0.21501,6.743015 1.01514,8.131371 1.773,3.077504 0.33843,-2.257992 0.90556,-3.463228 1.62909,-3.463228 1.3839,0 1.46976,1.222013 1.07497,15.298471 -0.0516,1.838384 0.10028,3.536614 0.33747,3.773834 0.61564,0.61565 2.78265,-1.33137 2.78265,-2.50018 0,-0.852891 1.59077,-1.916445 2.86644,-1.916445 0.2343,0 0.25262,2.425855 0.0386,5.390805 -0.37362,5.22471 -0.30806,5.48019 2.13929,8.29203 l 2.52502,2.90122 2.19233,-2.04124 c 2.46688,-2.29689 10.06011,-5.77514 10.86039,-4.97486 0.28684,0.28704 -0.2073,1.98311 -1.09874,3.76901 -3.74,7.49348 -4.57783,10.43931 -3.1274,10.99589 1.45805,0.55951 4.79101,-0.78333 6.71187,-2.70421 0.86545,-0.86543 2.26777,-1.57351 3.11626,-1.57351 0.84848,0 1.5427,-0.34007 1.5427,-0.75568 0,-0.41561 1.38843,-1.46399 3.08541,-2.32972 1.69697,-0.86574 3.0854,-1.91411 3.0854,-2.32973 0,-0.41562 0.69779,-0.75568 1.55061,-0.75568 0.85283,0 3.27902,-1.21488 5.39156,-2.69973 2.11249,-1.48485 3.98331,-2.69973 4.15739,-2.69973 0.17404,0 1.51084,-1.19442 2.97072,-2.65427 3.06728,-3.06731 6.56058,-4.28702 7.60899,-2.65676 0.72416,1.12612 0.12631,5.42516 -0.84573,6.08238 -0.31385,0.21212 -0.83909,1.25345 -1.16735,2.31405 -0.98415,3.1794 -5.68091,10.02758 -6.87732,10.02758 -0.61308,0 -1.31438,0.62938 -1.55857,1.39862 -0.48113,1.51571 -6.82535,6.31169 -8.36029,6.31997 -0.51791,0.003 -1.98295,0.69473 -3.25568,1.53762 -1.27273,0.8429 -3.61571,1.53483 -5.20663,1.53763 -1.59091,0.003 -2.89256,0.32878 -2.89256,0.72445 0,0.39565 -0.67648,0.93407 -1.50327,1.19649 -1.05661,0.33534 -1.34307,0.87397 -0.96419,1.81279 0.81715,2.02468 3.27998,5.32154 6.74648,9.03113 4.72684,5.05835 6.78563,12.9539 5.43138,20.82953 -0.53629,3.1189 -0.53421,3.12214 3.14648,4.96039 4.74319,2.36886 7.46273,5.34397 10.70178,11.70762 1.43703,2.8233 3.05894,5.31341 3.60424,5.53358 0.76817,0.31018 0.73091,0.58457 -0.16536,1.21858 -0.64195,0.45399 -0.76605,0.82352 -0.27865,0.83008 0.727,0.01 1.70054,2.86031 2.24324,6.5683 0.62971,4.30238 8.13809,19.17432 9.85609,19.5221 0.6475,0.13109 2.67837,-0.44039 4.51303,-1.26996 10.73369,-4.8533 18.7007,-7.62125 23.77658,-8.26067 6.68072,-0.84157 21.76358,-4.22952 24.68325,-5.5444 3.61947,-1.63004 12.18263,-3.95138 15.45701,-4.19016 1.04413,-0.0761 2.65143,0.10972 3.57175,0.41306 1.30151,0.42896 1.78977,0.18464 2.19734,-1.09958 0.28829,-0.9081 1.17515,-2.3022 1.97099,-3.09802 0.7958,-0.79581 1.65031,-2.41031 1.89883,-3.58777 0.24828,-1.17746 0.81267,-2.79901 1.25359,-3.60345 0.44112,-0.80443 1.62341,-4.62262 2.62771,-8.48486 1.0043,-3.86223 2.68724,-10.14622 3.73985,-13.96441 1.0526,-3.81819 1.93185,-8.20561 1.95383,-9.74982 0.0386,-2.61531 2.4999,-15.80986 3.43507,-18.40452 0.22948,-0.63636 0.56849,-2.02479 0.75361,-3.0854 0.18512,-1.06061 1.09498,-4.53169 2.02195,-7.71352 0.92693,-3.18182 1.97746,-7.19366 2.33445,-8.91519 0.6248,-3.01283 1.21662,-4.68464 3.62101,-10.22975 0.61077,-1.40848 0.89077,-3.13344 0.6222,-3.83325 -0.26853,-0.699791 -0.22611,-1.01039 0.094,-0.690212 0.32012,0.320207 1.20813,-1.011464 1.97322,-2.959213 1.13499,-2.88945 1.21936,-3.852892 0.45847,-5.233765 -0.9909,-1.798122 -1.28767,-15.549986 -0.35579,-16.482005 1.11196,-1.111923 2.05754,1.14336 2.49595,5.952824 0.50837,5.577475 1.70228,9.416974 2.73059,8.781443 0.37507,-0.231792 0.68183,-0.05375 0.68183,0.395462 0,0.449264 0.6325,0.816876 1.40559,0.816876 1.52265,0 1.49729,0.589597 0.5898,-13.691491 -0.30758,-4.8392 -0.17018,-6.363651 0.57422,-6.363651 0.53821,0 1.33569,0.357088 1.77208,0.79348 0.54376,0.54375 0.76562,-0.24529 0.70497,-2.506893 -0.14222,-5.307246 0.60199,-7.923931 2.2548,-7.926351 1.90293,-0.0028 2.78303,-3.297749 1.89859,-7.107672 -0.37314,-1.607116 -0.68665,-3.323416 -0.69677,-3.814006 -0.0289,-1.474761 3.14252,-0.195152 3.77841,1.523752 0.51073,1.380575 0.64369,1.270407 1.07608,-0.891576 0.27142,-1.35674 0.2801,-4.022738 0.0193,-5.924443 -0.45606,-3.325731 0.43196,-4.679877 1.7113,-2.609974 0.84872,1.373251 3.37394,-7.066482 3.36936,-11.260923 -0.003,-2.900837 -0.65667,-5.085233 -2.63639,-8.813151 -3.57791,-6.73769 -2.6023,-8.436264 2.02687,-3.528456 1.40054,1.484852 2.99073,2.69973 3.53376,2.69973 1.14271,0 1.30826,-2.587036 0.28781,-4.494192 -0.83783,-1.565441 -0.18416,-5.699467 0.84665,-5.355817 0.73071,0.243569 2.5565,3.369777 4.80822,8.232977 0.66857,1.44397 1.21561,4.634878 1.21561,7.09091 0,3.172882 0.4763,5.272921 1.64572,7.254788 1.34129,2.273323 1.57081,3.601292 1.24082,7.179095 -0.22273,2.414398 -1.05005,5.524531 -1.83857,6.911402 -0.97156,1.708823 -1.16691,2.703317 -0.60604,3.085406 1.43592,0.978219 1.7757,2.977885 1.03014,6.062525 -0.39724,1.642391 -0.87741,4.743398 -1.06765,6.891134 -0.19042,2.147737 -0.87755,4.924603 -1.52742,6.170818 -0.64986,1.24621 -1.18368,3.371346 -1.18629,4.722513 -0.005,3.155918 -1.24997,6.40782 -2.92766,7.653891 -1.10641,0.821774 -1.16383,1.235141 -0.35531,2.559291 1.63194,2.672893 1.0017,6.999606 -1.01958,6.999606 -0.57605,0 -1.43481,0.723942 -1.90832,1.60877 -0.47342,0.884817 -1.04774,1.42201 -1.27601,1.193758 -0.22851,-0.228272 -0.9344,0.104325 -1.56912,0.739118 -1.02465,1.024611 -1.0152,1.307687 0.0839,2.522364 0.93647,1.034777 1.15901,2.483468 0.91319,5.944138 -0.6395,9.00172 -1.42628,14.61902 -2.18172,15.5771 -0.42232,0.5355 -0.88952,2.09749 -1.03839,3.47108 -0.14896,1.3736 -0.94317,4.75367 -1.76524,7.51125 -0.82206,2.75758 -1.92297,6.74932 -2.44653,8.87054 -0.52351,2.12122 -1.25893,4.25607 -1.63419,4.74412 -0.37556,0.48805 -0.75535,2.57069 -0.84449,4.62811 -0.10944,2.52286 -0.60165,4.0689 -1.51204,4.74867 -0.74243,0.55436 -1.34987,1.51937 -1.34987,2.14447 0,1.35901 -2.89261,8.42025 -6.92418,16.90275 -1.61309,3.39395 -3.562,7.55924 -4.33099,9.25622 -1.39041,3.06851 -5.60002,9.79728 -10.48441,16.7587 -1.40689,2.00514 -4.71672,5.16061 -7.35512,7.01215 -2.63841,1.85154 -5.93594,5.03318 -7.32784,7.0703 -1.39196,2.03712 -3.91919,4.46849 -5.61617,5.40304 -1.69697,0.93454 -5.68872,3.37884 -8.87054,5.43177 -3.18183,2.05294 -11.16531,6.49485 -17.74109,9.87093 -11.39927,5.85253 -20.34218,9.00925 -29.63426,10.46051 -1.66246,0.25965 -3.1666,0.90596 -3.34251,1.43627 -0.17597,0.5303 0.0434,0.96419 0.49149,0.96419 0.44642,0 0.62721,0.48016 0.40207,1.06698 -0.50649,1.31993 1.58604,6.47137 3.47889,8.56438 1.24892,1.38098 4.83652,8.00904 5.43336,10.0381 0.12486,0.42424 0.3741,1.29202 0.55383,1.92838 0.17982,0.63637 0.87071,2.19835 1.53537,3.47108 0.66467,1.27273 2.36419,5.78514 3.77673,10.02757 1.41259,4.24244 3.65418,10.83749 4.98139,14.65568 2.67109,7.68436 5.397,17.46545 5.69667,20.44082 0.10703,1.06061 0.73124,3.66392 1.38762,5.78514 2.46022,7.95081 4.19499,16.09859 4.3522,20.44081 0.0386,1.06061 0.43341,4.8788 0.87814,8.48487 0.91511,7.42251 1.2088,38.81664 0.47342,50.63073 l -0.48663,7.82073 2.51793,2.06164 c 1.38487,1.1339 4.60058,3.62148 7.14604,5.52797 4.72419,3.53829 14.95444,14.55687 16.74581,18.03626 0.54606,1.0606 1.18658,2.10193 1.42333,2.31405 1.03617,0.92835 8.44249,13.6362 8.44249,14.48575 0,1.64254 -2.74533,1.01992 -6.04628,-1.37126 l -3.19239,-2.31255 0.14415,2.11971 c 0.0795,1.16584 0.58179,2.81802 1.11663,3.67157 0.53483,0.8535 1.70473,3.92266 2.59969,6.82029 1.34895,4.36734 1.55283,6.47665 1.19189,12.33247 -0.23961,3.88524 -0.52361,9.31291 -0.6314,12.06157 -0.15861,4.04921 -0.45221,5.04792 -1.54594,5.26317 -0.99253,0.19525 -1.34986,-0.23815 -1.34986,-1.63676 0,-3.47016 -2.00508,-2.95606 -4.20006,1.07691 -3.23645,5.9464 -4.70467,5.0161 -3.37423,-2.13795 0.47294,-2.54252 0.61761,-5.58728 0.32156,-6.76615 -0.49535,-1.9736 -0.61728,-2.03487 -1.53948,-0.77371 -1.08148,1.47902 -2.77826,0.96607 -2.77826,-0.83991 0,-0.61134 -0.67083,-1.11152 -1.49073,-1.11152 -0.8199,0 -1.69972,-0.65854 -1.95519,-1.46344 -0.31529,-0.99302 -0.94881,-1.33685 -1.97099,-1.06953 -0.96318,0.25165 -1.6869,-0.0762 -2.00677,-0.90966 -0.27528,-0.71702 -1.23387,-1.63908 -2.13057,-2.04905 -1.60962,-0.73587 -3.61716,-1.88697 -5.87278,-3.36729 -0.63637,-0.41749 -1.49387,-0.7646 -1.90558,-0.77111 -0.41171,-0.005 -1.15254,-0.82202 -1.64621,-1.81229 -2.66019,-5.33577 -4.91997,-3.5446 -5.29046,4.1934 -0.14029,2.92632 -0.7752,7.22969 -1.41133,9.56303 -2.20486,8.08743 -2.8594,11.61091 -2.8594,15.39256 0,2.09012 -0.30131,3.98654 -0.66997,4.21428 -0.62657,0.38712 -2.06953,10.28327 -1.85934,12.75141 0.0525,0.61515 -0.40448,2.08448 -1.01481,3.26518 -1.0189,1.97036 -0.97846,2.25861 0.4928,3.5096 6.30488,5.36094 14.86761,14.89624 16.53812,18.41664 0.66394,1.39909 1.72811,3.06478 2.36486,3.70153 0.63675,0.63675 2.88438,4.53873 4.99465,8.671 3.25578,6.37522 3.83444,8.16235 3.82031,11.7984 l -0.0193,4.2851 -3.89485,-4.04959 c -2.14214,-2.22728 -4.06459,-4.0496 -4.27208,-4.0496 -0.65232,0 0.35338,4.83941 1.10631,5.32377 1.66034,1.06799 5.51574,15.89708 6.3059,24.25457 0.53016,5.60715 -0.36736,14.20415 -1.7099,16.37623 -0.27045,0.43726 -0.16343,2.2563 0.23816,4.04203 0.94866,4.22233 -0.8724,9.41627 -2.75397,7.85472 -0.65873,-0.54674 -1.15698,-2.22858 -1.15698,-3.90564 0,-1.61999 -0.33023,-3.14943 -0.73346,-3.39877 -0.40351,-0.24924 -1.96892,1.47801 -3.47894,3.83844 -2.84349,4.4451 -4.59677,5.76431 -5.91245,4.44858 -0.50572,-0.50572 -0.12824,-1.91281 1.11445,-4.152 2.50858,-4.52089 3.08498,-7.65807 1.73183,-9.42601 -0.85514,-1.11721 -1.39798,-1.24057 -2.60866,-0.59264 -1.71375,0.91733 -2.4541,-0.12342 -2.4541,-3.44997 0,-1.46445 -0.36591,-1.8174 -1.73304,-1.67243 -1.25629,0.13306 -1.79855,-0.27094 -1.97114,-1.46841 -0.17452,-1.21242 -0.63728,-1.54777 -1.738,-1.25991 -0.83687,0.21887 -1.49999,0.004 -1.49999,-0.48561 0,-0.48282 -0.86777,-1.27322 -1.92838,-1.75647 -1.1859,-0.54033 -1.92838,-1.51672 -1.92838,-2.53577 0,-0.91145 -0.4831,-2.31781 -1.07357,-3.12532 -0.87274,-1.19352 -1.28797,-1.29023 -2.21981,-0.51685 -0.93873,0.77906 -1.21517,0.68794 -1.52665,-0.50312 -0.37314,-1.42724 -5.23743,-2.98412 -6.63155,-2.12252 -0.3447,0.21309 -1.05159,2.3992 -1.57129,4.85836 -0.51965,2.45917 -1.30252,5.51256 -1.73964,6.78529 -1.96926,5.7336 -3.15536,10.16444 -3.14885,11.76311 0.004,0.95455 -0.24828,1.73554 -0.56058,1.73554 -0.31239,0 -0.98202,1.47521 -1.48851,3.27825 -2.38628,8.49523 -4.21963,14.29782 -5.25961,16.64668 -0.62576,1.41326 -0.93753,2.76978 -0.69282,3.01444 0.24491,0.24491 0.14849,0.82395 -0.21405,1.28724 -0.36253,0.4633 -1.73269,3.96629 -3.045,7.78448 -2.61759,7.61609 -5.37416,14.48946 -7.75455,19.33581 -0.84752,1.72556 -1.75304,3.98225 -2.01221,5.0149 -0.25937,1.03264 -2.36395,3.95968 -4.67728,6.50452 -2.31334,2.54483 -4.20647,4.83695 -4.20696,5.09362 -4.3e-4,0.25647 -1.56107,1.45284 -3.46799,2.65822 -1.90693,1.20533 -3.66744,2.82271 -3.9123,3.59411 -0.2449,0.77145 -0.76725,1.2035 -1.16098,0.96019 -0.39387,-0.24346 -0.71581,-0.0747 -0.71581,0.37459 0,0.44931 -0.71143,0.81686 -1.58098,0.81686 -0.86956,0 -2.51832,0.48113 -3.66392,1.06919 -1.14561,0.58806 -3.47138,1.25851 -5.16835,1.48991 -1.69697,0.23141 -3.77962,0.60151 -4.62811,0.82241 -9.61379,2.50294 -12.93614,2.87077 -27.57013,3.05252 -14.23201,0.17693 -15.60531,0.31144 -15.39888,1.50809 0.12487,0.72276 -0.11232,1.3141 -0.52654,1.3141 -0.41412,0 -0.9652,0.66799 -1.22433,1.48437 -0.25937,0.81642 -1.31337,2.72552 -2.34279,4.24243 -1.02941,1.51696 -1.63131,2.75806 -1.33757,2.75806 0.2936,0 -0.26081,0.55668 -1.23209,1.23706 -0.97494,0.68284 -1.58103,1.71953 -1.3529,2.31405 0.22707,0.59235 0.16391,1.10554 -0.14125,1.14045 -2.82026,0.32252 -5.28121,0.91501 -5.93454,1.4283 -1.66684,1.30961 -6.33738,1.6532 -7.2658,0.53455 z M 199.7987,171.27953 c 1.11817,-0.83151 3.72408,-4.00109 5.79092,-7.0435 3.19532,-4.70364 3.88019,-6.38102 4.57527,-11.20595 1.03111,-7.15713 -0.65295,-14.52534 -4.06753,-17.79671 -3.74727,-3.59013 -10.86694,-3.36848 -16.39667,0.51048 -1.25417,0.87976 -3.38633,4.17561 -5.28052,8.16265 -3.05224,6.42435 -3.16158,6.91531 -2.78328,12.49455 0.76094,11.22203 2.28927,14.74992 7.0192,16.20264 3.44389,1.05775 8.79452,0.42188 11.14261,-1.32416 z m 103.48703,-1.51497 c 5.13489,-3.5391 6.88297,-7.99244 6.90399,-17.58873 0.01,-4.24524 -0.32349,-8.90508 -0.7392,-10.35519 -1.01992,-3.55628 -4.23004,-6.81255 -8.88573,-9.01354 -6.23527,-2.94771 -10.96307,-2.27477 -15.62744,2.22434 -3.09991,2.99011 -4.03219,6.17701 -4.03773,13.8026 -0.005,9.9094 4.34545,18.20224 11.09608,21.14067 3.38937,1.47534 8.99594,1.37099 11.29003,-0.21014 z M 278.99867,93.121201 c 0.79145,-1.280603 0.081,-1.458187 -1.02633,-0.256571 -0.54704,0.593589 -0.6543,1.079241 -0.23816,1.079241 0.41605,0 0.98502,-0.3702 1.26468,-0.82267 z M 264.43642,78.324002 c -0.21405,-0.530305 -0.38905,-0.09642 -0.38905,0.964189 0,1.060609 0.175,1.494494 0.38905,0.96419 0.21405,-0.530305 0.21405,-1.398075 0,-1.928379 z M 503.25467,423.311 c 0,-1.9091 0.15041,-2.69009 0.33409,-1.73554 0.18368,0.95455 0.18368,2.51653 0,3.47108 -0.18368,0.95455 -0.33409,0.17355 -0.33409,-1.73554 z"
       id="path191" />
  </g>
</svg>
