<?xml version="1.0" encoding="UTF-8" standalone="no"?>
<!-- Created with Inkscape (http://www.inkscape.org/) -->

<svg
   width="500.00012mm"
   height="144.52202mm"
   viewBox="0 0 500.00012 144.52202"
   version="1.1"
   id="svg5"
   xml:space="preserve"
   inkscape:version="1.3.2 (091e20e, 2023-11-25, custom)"
   sodipodi:docname="Prodiamesa_olivacea.svg"
   xmlns:inkscape="http://www.inkscape.org/namespaces/inkscape"
   xmlns:sodipodi="http://sodipodi.sourceforge.net/DTD/sodipodi-0.dtd"
   xmlns="http://www.w3.org/2000/svg"
   xmlns:svg="http://www.w3.org/2000/svg"><sodipodi:namedview
     id="namedview7"
     pagecolor="#505050"
     bordercolor="#eeeeee"
     borderopacity="1"
     inkscape:showpageshadow="0"
     inkscape:pageopacity="0"
     inkscape:pagecheckerboard="true"
     inkscape:deskcolor="#505050"
     inkscape:document-units="mm"
     showgrid="false"
     inkscape:zoom="0.55722854"
     inkscape:cx="1419.5253"
     inkscape:cy="450.44355"
     inkscape:window-width="3840"
     inkscape:window-height="2054"
     inkscape:window-x="-11"
     inkscape:window-y="-11"
     inkscape:window-maximized="1"
     inkscape:current-layer="layer1" /><defs
     id="defs2" /><g
     inkscape:label="Layer 1"
     inkscape:groupmode="layer"
     id="layer1"
     transform="translate(347.36019,-20.30465)"><path
       style="fill:#000000;stroke-width:0.217572"
       d="m 112.59081,164.48043 c -0.41696,-0.22734 -0.96646,-0.41334 -1.22113,-0.41334 -0.40338,0 -1.09332,-0.44578 -2.53206,-1.63597 -0.20759,-0.17173 -0.62848,-0.37522 -0.93535,-0.45224 -0.35405,-0.0889 -0.69311,-0.42534 -0.92801,-0.9209 -0.29907,-0.63105 -0.53707,-0.8169 -1.24037,-0.96865 -0.47866,-0.10329 -1.38015,-0.13136 -2.00332,-0.0624 -1.26262,0.13981 -1.55471,-0.0471 -2.3245,-1.4868 l -0.41151,-0.76971 0.57469,-0.75347 c 0.66716,-0.87469 0.69288,-1.09491 0.23124,-1.97915 -0.60662,-1.16194 -0.34971,-2.50208 0.47968,-2.50208 0.46386,0 1.84941,-0.80047 2.58262,-1.49204 0.36313,-0.34253 1.0682,-0.83089 1.56681,-1.08525 0.49861,-0.25439 0.96793,-0.56182 1.04295,-0.68318 0.075,-0.12138 0.30195,-0.22481 0.50429,-0.22988 0.44637,-0.0111 1.34699,-1.36075 1.34699,-2.01842 0,-0.45423 -0.088,-0.47446 -2.06487,-0.47446 -1.97305,0 -2.08957,-0.0266 -2.61968,-0.59832 -0.30514,-0.32908 -0.63907,-0.59833 -0.74207,-0.59833 -0.103,0 -0.3831,-0.33188 -0.62244,-0.73755 -0.27146,-0.46008 -0.71522,-0.82997 -1.17959,-0.98323 l -0.74444,-0.24568 0.19782,-1.1381 c 0.39707,-2.28431 0.59171,-2.77927 1.18118,-3.00337 0.30932,-0.11762 0.61412,-0.16215 0.6773,-0.099 0.0632,0.0632 0,0.11488 -0.13896,0.11488 -0.13962,0 -0.25385,0.0845 -0.25385,0.18785 0,0.38926 2.59927,1.33272 4.57931,1.66217 1.13116,0.18819 2.28233,0.45581 2.55817,0.59469 0.37213,0.18737 0.66655,0.19022 1.1413,0.0111 0.37536,-0.14167 0.69046,-0.1595 0.76237,-0.0432 0.0674,0.10906 0.27171,0.19831 0.45399,0.19831 0.39713,0 2.47133,-2.01368 2.47133,-2.39921 0,-0.1488 0.23333,-0.48678 0.5185,-0.75106 0.50222,-0.46545 0.95815,-1.41874 0.6785,-1.41874 -0.28928,0 -1.09608,0.51201 -1.26894,0.80532 -0.13744,0.23319 -0.25224,0.24736 -0.4791,0.059 -0.1641,-0.13618 -0.5007,-0.1834 -0.74799,-0.1049 -0.30908,0.0981 -0.65002,-0.0259 -1.09076,-0.39678 -0.35261,-0.2967 -1.01166,-0.60442 -1.46456,-0.68379 -1.07146,-0.18781 -2.75915,-1.72021 -3.33952,-3.03224 -0.69582,-1.573 -0.77308,-3.43305 -0.22551,-5.42895 0.55962,-2.03982 0.83842,-2.60492 2.11012,-4.27712 1.46635,-1.9281 1.53465,-2.26888 0.86774,-4.32903 -0.30945,-0.95593 -0.56264,-1.96465 -0.56264,-2.24163 0,-0.47841 0.83594,-2.67918 1.77785,-4.6806 0.74025,-1.57286 0.16307,-2.89286 -1.97921,-4.52659 -0.98384,-0.7503 -1.10407,-0.93154 -1.10407,-1.66443 0,-1.07242 -0.40803,-2.88092 -1.16877,-5.18016 -0.17817,-0.53849 -0.37967,-1.24077 -0.44781,-1.56062 -0.20104,-0.943849 -1.17176,-1.894881 -2.74052,-2.684881 -1.83322,-0.923186 -2.38764,-1.861791 -2.38764,-4.042078 0,-1.121351 -0.13056,-1.668214 -0.64588,-2.705361 -0.35526,-0.714944 -0.64898,-1.38365 -0.65271,-1.486042 -0.004,-0.102385 -0.25161,-0.47706 -0.55077,-0.832599 -0.299164,-0.355532 -0.54393,-0.767452 -0.54393,-0.915378 0,-0.147931 -0.29688,-0.553394 -0.659745,-0.901038 C 98.28835,85.935352 98.047976,85.860314 96.752008,85.83359 94.798428,85.79332 91.49518,85.023003 90.160179,84.296403 89.044514,83.689185 87.679224,82.31811 86.651501,80.772874 85.62495,79.229433 85.191918,79.108848 80.564394,79.077875 76.829638,79.052895 76.453698,79.014725 75.936876,78.60819 75.627488,78.364825 74.8622,78.095655 74.236202,78.010039 c -0.625978,-0.08562 -1.38291,-0.249527 -1.682072,-0.364241 -0.299162,-0.114713 -1.718824,-0.296127 -3.154798,-0.40315 -4.206174,-0.313471 -8.135591,-1.198826 -15.773985,-3.554132 -1.376144,-0.424329 -2.648942,-0.776556 -2.828438,-0.782717 -0.179496,-0.0062 -0.571126,-0.202661 -0.870288,-0.43667 -0.450461,-0.352356 -0.899096,-0.427037 -2.610864,-0.434611 -2.237274,-0.0099 -6.464553,-0.45344 -9.246821,-0.970212 -3.08021,-0.572101 -5.830828,-0.971853 -7.615026,-1.106703 -0.957316,-0.07235 -2.964423,-0.377735 -4.460227,-0.678625 C 23.802227,68.838277 22.175396,68.690444 17.61715,68.517911 14.505869,68.400144 10.746264,68.256136 9.262468,68.197891 7.5538266,68.13082 6.3529597,68.179635 5.98735,68.331107 5.4996196,68.533132 5.2524795,68.482165 4.3944399,68.002594 3.0575879,67.255413 1.4504927,67.099995 -0.30043853,67.548562 -1.9978306,67.983413 -2.4646535,67.987163 -3.4537997,67.573852 -4.0018227,67.344875 -5.0322226,67.24624 -6.907131,67.24328 c -1.4697225,-0.0025 -4.581435,-0.204666 -6.914896,-0.449665 -2.490989,-0.261541 -7.117199,-0.523317 -11.204971,-0.63404 -3.829271,-0.103723 -8.430923,-0.317479 -10.22589,-0.475013 -1.794972,-0.157534 -4.830105,-0.285082 -6.744737,-0.283436 -3.366975,0.0031 -3.546231,0.02609 -5.465131,0.707111 -1.605492,0.569794 -2.316057,0.704114 -3.724771,0.704114 -1.098914,0 -2.212561,0.149967 -3.020189,0.406709 -0.703669,0.223692 -2.160557,0.474847 -3.23754,0.558132 -4.272528,0.330387 -7.608864,0.808207 -9.416542,1.348594 -1.795497,0.536763 -2.26462,0.576468 -8.750733,0.740657 -3.769435,0.09542 -7.440969,0.269022 -8.158953,0.385777 -2.351303,0.382379 -5.605051,0.683397 -8.568561,0.792721 -2.586215,0.0954 -2.975322,0.06253 -3.481155,-0.294111 -0.313217,-0.22083 -1.107965,-0.6795 -1.766121,-1.019262 -1.577485,-0.814339 -3.629039,-0.881039 -4.794919,-0.155887 -0.85317,0.530637 -3.01845,1.364729 -7.28034,2.804477 -2.77557,0.937643 -2.91993,0.96185 -7.72381,1.295346 -2.69246,0.186915 -7.04934,0.429017 -9.68196,0.537995 -5.15931,0.213577 -7.67208,0.58581 -11.74612,1.740039 -4.97894,1.410596 -6.99666,1.584134 -11.09896,0.954597 -3.97006,-0.609247 -4.15356,-0.613379 -5.4969,-0.12378 -3.02194,1.101411 -11.218,3.533193 -12.34402,3.662486 -3.99793,0.459065 -11.52628,2.098304 -15.77399,3.434663 -1.55842,0.490296 -7.57851,1.235361 -13.16311,1.629113 -2.56635,0.180945 -6.15521,0.731644 -10.87861,1.669293 -0.95732,0.190036 -2.97365,0.360164 -4.48073,0.378055 -1.70711,0.02029 -2.85548,0.127462 -3.046,0.284336 -0.67461,0.555393 -5.15471,1.79583 -7.35118,2.035403 -1.24232,0.135479 -3.10256,0.437472 -4.13388,0.671081 -1.03133,0.233627 -3.2948,0.571971 -5.02994,0.751929 -4.55774,0.472651 -8.89579,1.123584 -11.64011,1.746602 -3.22921,0.733113 -6.51292,1.350211 -9.13803,1.7173 -1.19665,0.167334 -2.56736,0.443646 -3.04601,0.614052 -1.56102,0.555701 -5.82154,1.650741 -8.26774,2.124984 -1.31632,0.255188 -2.81665,0.550718 -3.33408,0.656766 -1.06125,0.217463 -3.1043,1.263244 -7.53946,3.859262 -1.67251,0.97897 -3.1347,1.77994 -3.24927,1.77994 -0.1146,0 -0.60642,0.18487 -1.09295,0.41084 -2.58989,1.20287 -3.74203,1.70943 -7.88721,3.46772 -5.02966,2.13344 -14.93953,5.59014 -15.33159,5.34783 -0.13846,-0.0856 -0.19601,-0.0654 -0.12789,0.0448 0.0681,0.11022 -0.15546,0.54145 -0.49685,0.95829 -0.49767,0.60766 -0.67513,0.70398 -0.89526,0.48593 -0.75804,-0.75093 -2.211,0 -2.0039,1.03519 0.0902,0.45085 4.4e-4,0.70878 -0.35139,1.00908 -0.99006,0.84526 -1.9661,1.85602 -1.9661,2.03604 0,0.22812 0.86588,0.54171 1.27533,0.46186 0.44873,-0.0875 1.23517,0.75733 1.6564,1.77937 0.20691,0.50201 0.46474,1.0596 0.57298,1.2391 0.2316,0.38407 0.25221,0.43427 0.75946,1.84936 0.23143,0.64562 0.39841,1.75122 0.41074,2.71965 0.0268,2.10638 0.20788,2.64851 0.83359,2.4961 0.36157,-0.0881 0.55981,0.0358 0.83159,0.51947 0.20715,0.36868 0.9501,0.96689 1.77098,1.42595 0.79148,0.44263 1.46317,0.97834 1.5255,1.21666 0.0612,0.23422 -0.077,0.7948 -0.30723,1.24573 -0.47974,0.93967 -0.3759,1.90246 0.24078,2.23249 0.21819,0.11678 0.87111,0.20413 1.45092,0.19412 0.57983,-0.01 1.3364,0.0919 1.68128,0.22656 0.79044,0.30851 1.43988,0.11292 1.43988,-0.43371 0,-0.53921 0.8804,-0.56762 1.7459,-0.0564 0.99011,0.58488 0.96294,1.07246 -0.0831,1.491 -1.06976,0.42803 -1.23772,0.65098 -1.08096,1.43483 0.0993,0.49639 0.01,0.64662 -0.5582,0.94049 -1.1362,0.58756 -0.75675,0.99131 0.93166,0.99131 1.14656,0 1.72202,0.3903 1.62185,1.10004 -0.0557,0.39505 -0.22887,0.54944 -0.67339,0.60059 -0.50109,0.0577 -0.59832,0.17256 -0.59832,0.70711 0,0.42355 0.11026,0.63827 0.32779,0.63827 0.18031,0 0.54063,0.24477 0.80074,0.54393 0.26013,0.29916 0.59168,0.54393 0.73678,0.54393 0.14512,0 0.32053,0.14771 0.38983,0.32825 0.15608,0.40675 -0.20644,1.41233 -0.50916,1.41233 -0.12265,0 -0.0174,0.2056 0.23393,0.4569 0.56042,0.56042 0.30314,0.90438 -0.69987,0.93556 -0.91563,0.0284 -1.12754,0.56569 -0.22316,0.56569 0.36191,0 0.7162,0.0941 0.78732,0.20923 0.18172,0.29401 -1.5676,1.14426 -2.0435,0.99322 -0.82877,-0.26304 -1.1357,0.0836 -0.98194,1.10891 0.13598,0.90688 0.11711,0.95222 -0.39651,0.95222 -0.29661,0 -0.78823,-0.19582 -1.09248,-0.43514 -0.30426,-0.23934 -0.79653,-0.43515 -1.09393,-0.43515 -0.2974,0 -0.59708,-0.14686 -0.66597,-0.32635 -0.0689,-0.17951 -0.34859,-0.32487 -0.6216,-0.32303 -0.30741,0.002 -0.39802,0.0659 -0.23801,0.16761 0.1421,0.0903 0.36168,0.43604 0.48797,0.7682 0.18066,0.47518 0.15503,0.7178 -0.12019,1.13784 -0.1924,0.29364 -0.39096,0.53388 -0.44123,0.53388 -0.26481,0 -1.16398,-0.73831 -1.16398,-0.95575 0,-0.23746 -0.74903,-1.0024 -0.98156,-1.0024 -0.0585,0 -0.1063,0.23839 -0.1063,0.52977 0,0.71196 -0.37038,1.64595 -0.65271,1.64595 -0.12559,0 -0.3175,-0.23449 -0.42647,-0.52111 -0.23998,-0.63117 -0.62931,-0.79824 -1.1881,-0.50981 -0.32109,0.16575 -0.48493,0.12408 -0.70711,-0.17976 -0.15905,-0.21753 -0.28919,-0.52178 -0.28919,-0.67612 0,-0.15435 -0.26925,-0.33507 -0.59832,-0.40158 -1.48391,-0.29996 -1.68838,-0.42526 -1.62174,-0.99386 0.0579,-0.49414 -0.0505,-0.58121 -1.06815,-0.85833 -0.62294,-0.16964 -1.52411,-0.60467 -2.0026,-0.96676 -0.47849,-0.36208 -1.09093,-0.80519 -1.36097,-0.98469 -2.36445,-1.57168 -2.93331,-2.03865 -3.05006,-2.50384 -0.0724,-0.28841 -0.4516,-0.71318 -0.84269,-0.94394 -0.39108,-0.23074 -0.83796,-0.6998 -0.99305,-1.04234 -0.15509,-0.34255 -0.6822,-0.91987 -1.17133,-1.28294 -0.693,-0.51438 -0.90527,-0.82621 -0.96145,-1.41233 -0.0742,-0.77366 -0.329,-1.07322 -0.91801,-1.07903 -0.40724,-0.004 -1.2944,1.73743 -1.2944,2.54084 0,0.41528 -0.38169,0.95606 -1.37796,1.95234 -1.25128,1.25128 -1.46129,1.37795 -2.2845,1.37795 -0.91982,0 -0.99103,-0.0779 -0.91881,-1.0049 0.0524,-0.67233 -1.15589,-1.78101 -2.11754,-1.94305 -1.53355,-0.25841 -1.56403,-0.28054 -1.42637,-1.03491 0.11406,-0.62504 0.726,-2.67307 1.40858,-4.71416 0.31895,-0.95375 0.60471,-6.73014 0.35818,-7.24015 -0.24987,-0.5169 -1.18881,-0.48342 -1.52467,0.0544 -0.27965,0.44778 -0.91941,0.58446 -1.13126,0.24167 -0.0658,-0.10641 -0.37131,-0.25664 -0.67899,-0.33388 -0.4199,-0.10539 -0.65402,-0.0236 -0.93875,0.32806 -0.25052,0.30938 -0.76995,0.53019 -1.52971,0.6503 -1.33815,0.21154 -1.54088,0.35501 -2.67944,1.89623 -1.05163,1.42353 -2.78341,2.31583 -3.88272,2.00055 -0.66698,-0.19129 -2.03397,0.30323 -4.77384,1.727 -0.49649,0.258 -1.04028,0.36002 -1.56259,0.29318 -1.40935,-0.18037 -1.22169,-0.67056 0.80047,-2.09085 0.31377,-0.22038 0.66013,-0.63648 0.7697,-0.92468 0.11454,-0.30125 0.37593,-0.524 0.61489,-0.524 0.22861,0 0.69609,-0.14625 1.03885,-0.32501 0.34276,-0.17878 0.80745,-0.32564 1.03266,-0.32636 0.2252,0 0.72709,-0.19766 1.11531,-0.43758 0.38821,-0.23994 1.32664,-0.56188 2.0854,-0.71546 1.30248,-0.26362 1.38765,-0.31875 1.5243,-0.98689 0.0796,-0.38921 0.30314,-0.88271 0.49674,-1.09665 0.45959,-0.50784 0.44481,-0.99842 -0.0519,-1.72335 -0.22217,-0.32422 -0.5671,-0.85875 -0.76651,-1.18783 -0.19941,-0.32908 -0.48916,-0.59833 -0.64387,-0.59833 -0.42313,0 -1.18947,-2.07383 -1.44717,-3.9163 -0.12553,-0.89748 -0.39256,-2.20759 -0.59338,-2.91133 -0.34568,-1.21138 -0.34407,-1.35628 0.0302,-2.71965 0.66572,-2.42513 0.75253,-3.30732 0.43061,-4.37614 -0.36525,-1.21275 -0.18919,-3.11137 0.37577,-4.05195 0.23246,-0.38707 0.4078,-1.08786 0.40827,-1.6318 4.3e-4,-0.55265 0.17467,-1.23852 0.41442,-1.6317 0.23208,-0.3806 0.40342,-1.03788 0.3904,-1.49757 -0.0181,-0.63773 0.10299,-0.92134 0.54635,-1.27985 0.41616,-0.33652 0.61179,-0.753599 0.72629,-1.548435 0.18916,-1.313133 1.90891,-5.184373 2.7063,-6.092023 0.31539,-0.358992 0.68879,-0.924703 0.82977,-1.257151 0.14098,-0.332429 0.42853,-0.669033 0.63897,-0.748013 0.54639,-0.205042 0.8645,-0.692032 1.12735,-1.725805 0.19923,-0.783581 0.39261,-0.994605 1.46728,-1.601107 1.39968,-0.789933 1.94734,-1.359499 2.14696,-2.232846 0.0757,-0.331436 0.43073,-0.86993 0.78884,-1.196648 0.35812,-0.326718 0.88842,-0.809891 1.17846,-1.07372 0.29004,-0.263829 0.88226,-0.546265 1.31605,-0.627644 0.43379,-0.08138 0.94506,-0.330579 1.13617,-0.553783 0.19111,-0.223205 0.43968,-0.405822 0.55237,-0.405822 0.57737,0 1.88239,-0.773478 1.81975,-1.078548 -0.0782,-0.381066 0.94313,-1.097175 1.56488,-1.097175 0.22668,0 0.81974,-0.39163 1.31793,-0.870288 0.49819,-0.478658 1.04072,-0.870288 1.20563,-0.870288 0.16492,0 0.66333,-0.39287 1.10761,-0.873045 0.50235,-0.542947 0.93862,-0.83152 1.15383,-0.763216 0.48718,0.154623 2.85405,-1.020193 3.43941,-1.707192 0.26845,-0.315068 0.67705,-0.572847 0.90799,-0.572847 0.23094,0 0.71078,-0.244765 1.06631,-0.543927 0.35554,-0.299162 0.75678,-0.543934 0.89167,-0.543934 0.33254,0 3.66996,-1.320176 5.67518,-2.244922 0.89748,-0.413894 1.97446,-0.8219 2.39329,-0.906677 0.41882,-0.08478 1.06124,-0.326286 1.42759,-0.536669 0.36634,-0.210388 1.19856,-0.501822 1.84936,-0.647632 0.6508,-0.145816 1.72177,-0.493287 2.37993,-0.772159 0.65815,-0.278877 1.63723,-0.572538 2.17572,-0.652579 0.53849,-0.08004 1.30898,-0.295406 1.71221,-0.478584 0.54747,-0.248713 1.08311,-0.295585 2.11508,-0.185071 1.96261,0.210179 2.26319,0.07228 2.27165,-1.042217 0.007,-0.847407 0.0289,-0.880964 0.32636,-0.487687 0.17569,0.232289 0.31944,0.648397 0.31944,0.924684 0,0.53094 0.33628,0.690163 0.48912,0.231599 0.0815,-0.244519 0.87186,-0.334551 3.26939,-0.372431 0.43902,-0.0069 0.66012,-0.157923 0.8105,-0.553469 0.11375,-0.299162 0.31233,-0.543928 0.4413,-0.543928 0.12898,0 0.59472,-0.244771 1.03497,-0.543933 0.44026,-0.299163 1.00068,-0.543928 1.24541,-0.543928 0.2447,0 0.76596,-0.293217 1.15833,-0.651586 0.86452,-0.789619 1.39768,-1.08899 1.93944,-1.08899 0.2248,0 0.69629,-0.30084 1.04776,-0.668522 0.57074,-0.597072 0.73429,-0.654318 1.53019,-0.535633 0.65955,0.09836 0.96332,0.04595 1.16888,-0.201766 0.15276,-0.18406 0.54241,-0.334662 0.86589,-0.334662 0.33622,0 0.79412,-0.219245 1.06898,-0.511814 0.26446,-0.281499 0.88637,-0.633318 1.38202,-0.781817 0.49567,-0.148504 1.12816,-0.418704 1.40552,-0.600439 0.3465,-0.227041 0.74586,-0.285125 1.27627,-0.185614 0.93021,0.174506 1.62324,-0.01209 1.62324,-0.437059 0,-0.229329 0.28988,-0.311695 1.09694,-0.311695 0.76353,0 1.52127,-0.198386 2.49301,-0.652714 0.76783,-0.358992 1.57668,-0.652715 1.79743,-0.652715 0.22075,0 0.78778,-0.279901 1.26011,-0.622001 0.5185,-0.375545 1.26851,-0.675657 1.89292,-0.75743 0.5688,-0.0745 1.40101,-0.322506 1.84936,-0.551138 0.44836,-0.228632 1.84323,-0.575887 3.09971,-0.771684 2.7017,-0.420999 4.54974,-0.828929 7.50624,-1.656897 1.19665,-0.335118 3.05026,-0.668237 4.11912,-0.74026 1.06889,-0.07203 2.48855,-0.270558 3.1548,-0.441173 0.66627,-0.170621 2.09256,-0.418322 3.16955,-0.550447 1.07698,-0.132118 2.69245,-0.379116 3.58994,-0.548874 0.89748,-0.169757 2.67923,-0.507558 3.9594,-0.750671 1.28019,-0.243119 2.72433,-0.44203 3.20919,-0.44203 0.48488,0 0.88158,-0.104716 0.88158,-0.232708 0,-0.399531 4.36882,-2.317062 5.65687,-2.482873 1.3327,-0.171552 3.2746,-0.752638 4.31749,-1.291941 0.37648,-0.194692 1.65739,-0.44668 2.84645,-0.559975 3.2306,-0.307815 4.74884,-0.587303 6.54879,-1.205566 1.74182,-0.598288 3.73791,-0.82996 10.12908,-1.175593 2.60967,-0.141135 4.39141,-0.361293 5.98323,-0.739311 1.24677,-0.296079 3.51823,-0.645548 5.04769,-0.776593 1.69429,-0.145169 3.3095,-0.419704 4.13388,-0.702615 1.00096,-0.343512 2.17396,-0.505036 4.50783,-0.620737 1.73514,-0.08602 3.7912,-0.312126 4.56902,-0.502464 1.57577,-0.385611 5.66395,-1.13445 7.8326,-1.434716 0.77782,-0.107702 2.73597,-0.533925 4.35144,-0.947165 4.71127,-1.20516 5.936,-1.473368 6.74474,-1.47708 1.23527,-0.0056 2.60044,-0.389644 4.56902,-1.285114 2.51863,-1.145675 4.53751,-1.503495 9.89953,-1.754558 2.51296,-0.117661 4.96065,-0.324855 5.4393,-0.460421 0.48186,-0.136472 3.68646,-0.319866 7.17989,-0.410884 7.13736,-0.18596 10.04685,-0.444288 13.48947,-1.19771 3.17355,-0.694542 4.77534,-0.927589 7.444822,-1.083162 4.205888,-0.245105 8.442081,-0.924968 10.13523,-1.626584 2.162883,-0.896265 6.491899,-2.181656 7.368669,-2.187935 0.398636,-0.0031 1.116429,-0.101355 1.595087,-0.218899 1.167409,-0.286667 4.828495,-0.816422 8.158959,-1.180583 1.495804,-0.163559 3.992448,-0.610727 5.548089,-0.993704 l 2.828437,-0.69633 9.355602,0.129441 c 5.891946,0.08152 10.752315,0.04077 13.12822,-0.110088 3.217113,-0.204258 4.178192,-0.187008 6.52717,0.11715 4.67225,0.604991 8.432964,0.790513 10.260791,0.506183 0.89748,-0.139611 2.07237,-0.233171 2.610864,-0.207909 0.538488,0.02529 6.363987,0.08512 12.945547,0.133037 10.0467392,0.07315 12.1584326,0.142048 13.1631145,0.42951 1.8868731,0.539894 4.3142387,0.761724 11.1491625,1.018892 3.500974,0.131729 7.589245,0.386196 9.08505,0.565489 1.49581,0.179286 3.747683,0.418113 5.004161,0.530723 1.256478,0.112605 3.361492,0.345769 4.677801,0.518136 1.316314,0.172373 3.617137,0.424052 5.112948,0.559297 7.501847,0.678291 12.075475,1.527831 16.492475,3.063446 0.993475,0.345393 1.984996,0.62799 2.203353,0.62799 0.218351,0 1.330845,0.287456 2.472202,0.638788 1.811681,0.557675 4.829408,0.984009 7.540468,1.065302 0.293094,0.0088 1.094017,0.267801 1.779851,0.575585 0.857842,0.384975 2.083428,0.663834 3.927351,0.893607 1.4742,0.183696 3.463619,0.518333 4.420935,0.743634 0.957316,0.225301 2.817558,0.472707 4.133873,0.549793 3.48925,0.204338 6.608277,0.669373 8.011922,1.194545 0.676496,0.253111 2.185709,0.736949 3.353765,1.0752 1.168081,0.338258 2.760183,0.906374 3.538004,1.262498 0.777826,0.356118 2.578717,1.076298 4.001987,1.600398 2.39694,0.882641 2.7109,1.066837 4.25771,2.498068 0.91846,0.849843 2.1527,1.822116 2.74274,2.160601 0.59005,0.338486 1.85608,1.262257 2.8134,2.052826 4.24044,3.501807 5.60462,4.340549 7.94952,4.887572 0.72706,0.16961 1.45904,0.42219 1.62666,0.561289 0.1676,0.1391 1.65174,1.737487 3.29809,3.551973 3.15012,3.471809 6.76549,7.106579 7.06868,7.106579 0.0986,0 0.70815,0.709831 1.35445,1.577399 0.6463,0.867568 1.52807,1.969029 1.95955,2.447687 0.43144,0.478658 0.78451,0.977034 0.7846,1.107505 0,0.610085 1.46796,3.068411 2.49619,4.18153 0.62906,0.680973 1.41384,1.776625 1.74399,2.434779 1.1193,2.231347 2.35204,4.213981 3.17572,5.107576 0.61974,0.672321 0.90061,1.234825 1.14705,2.297215 0.40446,1.74361 1.02143,3.204002 1.88204,4.454849 0.36328,0.528022 0.90934,1.82058 1.21346,2.872344 0.30411,1.051757 0.882,2.744505 1.2842,3.761652 0.93693,2.369472 0.92468,2.322082 1.29417,5.010797 0.17216,1.252827 0.47117,3.005695 0.66446,3.895281 0.32706,1.505183 0.32499,1.801633 -0.0297,4.272763 -0.36315,2.53013 -0.36315,2.79463 1.8e-4,5.60721 0.20969,1.6235 0.62576,3.95973 0.92457,5.1916 0.29879,1.23189 0.64064,3.27845 0.75967,4.54791 l 0.2164,2.30811 -0.99476,2.15212 c -0.54711,1.18366 -1.20846,2.54374 -1.46968,3.02241 -0.43129,0.79028 -0.46998,1.14027 -0.42074,3.80751 0.045,2.43507 -0.0239,3.2162 -0.40251,4.56901 -0.25118,0.89749 -0.70252,2.56192 -1.00298,3.69873 -0.3256,1.23203 -0.7446,2.28664 -1.03726,2.61087 -0.27005,0.29916 -1.08912,1.58327 -1.82019,2.85357 -0.73104,1.27029 -1.70245,2.82273 -2.15866,3.44984 -0.9415,1.29421 -3.55744,4.39535 -4.29472,5.09137 -0.26971,0.2546 -1.18288,1.29512 -2.02925,2.31227 -2.1876,2.62897 -2.50872,2.89203 -5.05777,4.14329 -1.25649,0.6168 -2.89661,1.5574 -3.64471,2.09026 -1.74053,1.23975 -2.61748,1.59877 -3.90895,1.60026 -1.47019,0.002 -2.56767,0.35541 -3.4172,1.10131 -0.72076,0.63283 -0.74384,0.63744 -1.37545,0.27495 -0.64286,-0.36896 -1.41646,-0.33565 -5.71219,0.2459 -0.29916,0.0405 -0.88508,-0.11238 -1.30203,-0.33974 z m 18.28696,-11.29961 c 0.48123,-0.25754 0.54669,-0.70896 0.14888,-1.02629 -0.14957,-0.11932 -1.2347,-0.26493 -2.41139,-0.32361 -1.76972,-0.0883 -2.16108,-0.0503 -2.26474,0.21985 -0.17392,0.45325 0.21125,0.99098 0.83481,1.16547 0.83554,0.23378 3.23238,0.21081 3.69244,-0.0354 z m -423.89313,-11.2717 c 0.20252,-0.12852 0.13309,-0.24259 -0.25545,-0.41961 -0.40958,-0.18661 -0.58755,-0.1781 -0.76579,0.0366 -0.40775,0.49132 0.38315,0.7879 1.02124,0.38295 z m -2.44215,-3.5345 c 0.22422,-0.36281 -0.28006,-0.7788 -0.5802,-0.47866 -0.25106,0.25106 -0.0939,0.71518 0.24213,0.71518 0.10554,0 0.25767,-0.10643 0.33807,-0.23652 z m -1.32302,14.15164 c -0.19693,-0.31864 0.0894,-0.63925 0.44798,-0.50164 0.17567,0.0674 0.31939,0.19951 0.31939,0.29357 0,0.26962 -0.62466,0.43897 -0.76737,0.20807 z m 5.55396,-1.5135 c -0.26256,-0.16969 -0.22814,-0.21157 0.17602,-0.21425 0.28015,-0.002 0.44289,0.0929 0.36792,0.21425 -0.16171,0.26162 -0.1391,0.26162 -0.54394,0 z m -0.30364,-11.81417 c -0.36073,-0.26379 -0.3494,-0.29988 0.16822,-0.53573 0.6031,-0.2748 0.91775,-0.0506 0.70546,0.50264 -0.14977,0.39032 -0.37355,0.3988 -0.87368,0.0331 z m -55.82998,-2.98074 c 0,-0.11967 0.0979,-0.21758 0.21757,-0.21758 0.11966,0 0.21757,0.0979 0.21757,0.21758 0,0.11966 -0.0979,0.21757 -0.21757,0.21757 -0.11966,0 -0.21757,-0.0979 -0.21757,-0.21757 z m 0.87029,-0.68289 c 0,-0.10307 0.24477,-0.1874 0.54393,-0.1874 0.29916,0 0.54393,0.0376 0.54393,0.0834 0,0.0459 -0.24477,0.13022 -0.54393,0.18742 -0.29916,0.0572 -0.54393,0.0196 -0.54393,-0.0834 z m 44.52123,-9.90313 c -0.30588,-0.64143 -0.3242,-0.83019 -0.0947,-0.97575 0.37459,-0.23756 0.55657,-0.23152 1.05464,0.035 0.39576,0.21181 0.39829,0.2575 0.0542,0.97908 -0.19852,0.4163 -0.42259,0.75691 -0.49792,0.75691 -0.0753,0 -0.30764,-0.35788 -0.51622,-0.79527 z m -2.74737,-7.03317 c 0,-0.27142 0.98717,-0.52721 1.29661,-0.33596 0.12842,0.0794 0.17716,0.23543 0.10832,0.34684 -0.16711,0.27037 -1.40493,0.26078 -1.40493,-0.0109 z m 19.94278,-55.363763 c -0.15172,-0.395361 0.10421,-0.589055 0.4753,-0.359714 0.21261,0.131403 0.20402,0.224339 -0.0394,0.42634 -0.24483,0.20321 -0.33785,0.188994 -0.43593,-0.06663 z m 23.2453,-10.78235 c -0.17646,-0.285489 2.71301,-0.285489 3.15479,0 0.22639,0.146303 -0.18626,0.211937 -1.34698,0.214243 -0.92033,0.0019 -1.73386,-0.09458 -1.80781,-0.214243 z"
       id="path179" /></g></svg>
